<mxfile host="app.diagrams.net" modified="2024-09-08T07:18:16.455Z" agent="Mozilla/5.0 (Macintosh; Intel Mac OS X 10_15_7) AppleWebKit/537.36 (KHTML, like Gecko) Chrome/128.0.0.0 Safari/537.36" etag="tupLlZdJ6zu7WMV2Oba1" version="21.6.8" type="device">
  <diagram name="Page-1" id="95sZVEWZT1s00t8kFRX0">
    <mxGraphModel dx="830" dy="1639" grid="1" gridSize="10" guides="1" tooltips="1" connect="1" arrows="1" fold="1" page="1" pageScale="1" pageWidth="827" pageHeight="1169" math="0" shadow="0">
      <root>
        <mxCell id="0" />
        <mxCell id="1" parent="0" />
        <mxCell id="hMjfLDBAu4yWCibn9Jns-6" value="" style="group" vertex="1" connectable="0" parent="1">
          <mxGeometry x="150" y="360" width="760" height="200" as="geometry" />
        </mxCell>
        <mxCell id="hMjfLDBAu4yWCibn9Jns-1" value="" style="rounded=1;whiteSpace=wrap;html=1;container=0;" vertex="1" parent="hMjfLDBAu4yWCibn9Jns-6">
          <mxGeometry width="760" height="200" as="geometry" />
        </mxCell>
        <mxCell id="hMjfLDBAu4yWCibn9Jns-2" value="" style="shape=image;verticalLabelPosition=bottom;labelBackgroundColor=default;verticalAlign=top;aspect=fixed;imageAspect=0;image=data:image/png,iVBORw0KGgoAAAANSUhEUgAACOgAAAFICAYAAADgAVNnAAAAAXNSR0IArs4c6QAAIABJREFUeF7s3QmcTeUfx/HfhJCkXVGyZF8iJEv2oRLKWiIlprQpezHNWLJUsiSJRGizJGv2YewkpaxFkiW0S0Ux/9fv+N/j3Dv3ztyZe+695975nNfr/9Lce85znuf9nHv+d+79zu+JSUlJOSoiPwobAggggAACCCCAAAIIIIAAAggggAACCCCAAAIIIIAAAggggAACCCCAAAII2C1wXUxKSkqK3a3SHgIIIIAAAggggAACCCCAAAIIIIAAAggggAACCCCAAAIIIIAAAggggAACCJwXIKDDlYAAAggggAACCCCAAAIIIIAAAggggAACCCCAAAIIIIAAAggggAACCCCAQBAFCOgEEZemEUAAAQQQQAABBBBAAAEEEEAAAQQQQAABBBBAAAEEEEAAAQQQQAABBBAgoMM1gAACCCCAAAIIIIAAAggggAACCCCAAAIIIIAAAggggAACCCCAAAIIIIBAEAUI6AQRl6YRQAABBBBAAAEEEEAAAQQQQAABBBBAAAEEEEAAAQQQQAABBBBAAAEEECCgwzWAAAIIIIAAAggggAACCCCAAAIIIIAAAggggAACCCCAAAIIIIAAAggggEAQBQjoBBGXphFAAAEEEEAAAQQQQAABBBBAAAEEEEAAAQQQQAABBBBAAAEEEEAAAQQQIKDDNYAAAggggAACCCCAAAIIIIAAAggggAACCCCAAAIIIIAAAggggAACCCCAQBAFCOgEEZemEUAAAQQQQAABBBBAAAEEEEAAAQQQQAABBBBAAAEEEEAAAQQQQAABBBAgoMM1gAACCCCAAAIIIIAAAggggAACCCCAAAIIIIAAAggggAACCCCAAAIIIIBAEAUI6AQRl6YRQAABBBBAAAEEEEAAAQQQQAABBBBAAAEEEEAAAQQQQAABBBBAAAEEECCgwzWAAAIIIIAAAggggAACCCCAAAIIIIAAAggggAACCCCAAAIIIIAAAggggEAQBQjoBBGXphFAAAEEEEAAAQQQQAABBBBAAAEEEEAAAQQQQAABBBBAAAEEEEAAAQQQIKDDNYAAAggggAACCCCAAAIIIIAAAggggAACCCCAAAIIIIAAAggggAACCCCAQBAFCOgEEZemEUAAAQQQQAABBBBAAAEEEEAAAQQQQAABBBBAAAEEEEAAAQQQQAABBBAgoMM1gAACCCCAAAIIIIAAAggggAACCCCAAAIIIIAAAggggAACCCCAAAIIIIBAEAUI6AQRl6YRQAABBBBAAAEEEEAAAQQQQAABBBBAAAEEEEAAAQQQQAABBBBAAAEEECCgwzWAAAIIIIAAAggggAACCCCAAAIIIIAAAggggAACCCCAAAIIIIAAAggggEAQBQjoBBGXphFAAAEEEEAAAQQQQAABBBBAAAEEEEAAAQQQQAABBBBAAAEEEEAAAQQQIKDDNYAAAggggAACCCCAAAIIIIAAAggggAACCCCAAAIIIIAAAggggAACCCCAQBAFCOgEEZemEUAAAQQQQAABBBBAAAEEEEAAAQQQQAABBBBAAAEEEEAAAQQQQAABBBAgoMM1gAACCCCAAAIIIIAAAggggAACCCCAAAIIIIAAAggggAACCCCAAAIIIIBAEAUI6AQRl6YRQAABBBBAAAEEEEAAAQQQQAABBBBAAAEEEEAAAQQQQAABBBBAAAEEECCgwzWAAAIIIIAAAggggAACCCCAAAIIIIAAAggggAACCCCAAAIIIIAAAggggEAQBQjoBBGXphFAAAEEEEAAAQQQQAABBBBAAAEEEEAAAQQQQAABBBBAAAEEEEAAAQQQIKDDNYAAAggggAACCCCAAAIIIIAAAggggAACCCCAAAIIIIAAAggggAACCCCAQBAFCOgEEZemEUAAAQQQQAABBBBAAAEEEEAAAQQQQAABBBBAAAEEEEAAAQQQQAABBBAgoMM1gAACCCCAAAIIIIAAAggggAACCESJwH///SfZs2ePktEwDAQQQAABBBBAAAEEEEAAAQQQQCB6BAjoRM9cMhIEEEAAAQQQQAABBBBAAAEEIkIgJSVFvvjiC1m6dKksXrxYxo8fLyVLlgy47xpO2bVrl2zbtk0OHz4s119/vVStWlVKlSol2bJlC7h9pzawf/9++fTTT2Xu3LmybNkyUV8nbDofmzdvNvo1a9Ys2bNnD+EhJ0wMfUAAAQQQQAABBBBAAAEEEEAAgbAIENAJCzsnRQABBBBAAAEEEEAAAQQQQCBrCZw5c0bmzZsnK1askI8//liOHz9uAnz++edSqVKlgEBmz54tjzzyiJw8eTJVO3nz5pW4uDgZPnx41AR1vv76a5k2bZp88sknsnfvXrcxhzOgo6Gcd999V5YvXy4LFy50m49z585JTExMQPPMwQgggAACCCCAAAIIIIAAAggggECkChDQidSZo98IIIAAAggggAACCCCAAAIIRJDAL7/8Ip07d5ZDhw7Jli1b3HoeSEBHgz99+/aVkSNHGm22a9dOBg4cKAUKFJCNGzcaoZwlS5YYz7Vu3VqmTp0quXLliiA5712dMmWKrF271hibmlq3cAd0OnXqJF9++aVs377dMf2K+AlnAAgggAACCCCAAAIIIIAAAgggEPECBHQifgoZAAIIIIAAAggggAACCCCAAAKRJfDqq69Kr169zE4HEtAZOnSovPDCC0Zb9913n8ycOdOtSs5ff/0ldevWNUNB9evXN5bVypEjR0SgadUZDdz4WqJLA0oNGzaUNWvWmOMJZ0DHitqiRQuZM2eO4/oVERNPJxFAAAEEEEAAAQQQQAABBBBAIOoECOhE3ZQyIAQQQAABBBBAAAEEEEAAAQScLbB06VJp3Lix2cnMBnSOHDkiBQsWNNvRyjxVqlRJNfjDhw/LDTfcYD6uS0O1b9/e2Uj/791jjz1m9D0+Pt5nf5955hl5/fXXzeedEtDp16+fDBkyxHH9ioiJp5MIIIAAAggggAACCCCAAAIIIBB1AgR0om5KGRACCCCAAAIIIIAAAggggAACzhZISkoSrWTj2jIb0ImLi5OJEycazZQpU0Z27Njhc+B33323fPrpp8bzJUqUMPbNnj27o6E++OADY8muAQMGyIsvvuizrxreGTx4sPm8UwI6gwYNMvudN29e+eOPPxztTecQQAABBBBAAAEEEEAAAQQQQACBYAoQ0AmmLm0jgAACCCCAAAIIIIAAAggggEAqAbsCOvnz55fjx48b7evyVh9//LFP7enTp0uHDh3M52fMmCGtW7d27OxogKhcuXJG/wjoOHaa6BgCCCCAAAIIIIAAAggggAACCCDgtwABHb+p2BEBBBBAAAEEEEAAAQQQQAABBOwQsCOg8+uvv8qVV15pduepp55yW+bJs5979uyRUqVKmQ/ff//9ohVqnLjpkly1a9eW/fv3G90joOPEWaJPCCCAAAIIIIAAAggggAACCCCAQMYECOhkzIu9EUAAAQQQQAABBBBAAAEEEEAgQIG0Ajr//fefaJjG16bLUpUsWVK2bt0qVapUMXfr3r27jBgxwudxnoGeChUqyJdffhngSNI/XJebOnDggOgyXrt375ZChQoZlXH0fzly5EjVwLfffiv16tWTQ4cOmc9pmKhbt27mz+XLl5c8efKYP4dziSsd3969e2XTpk2yc+dOyZYtm9SqVUtuv/12GTt2rN9LXP38888yb948+e6772Tfvn1y8cUXS8WKFeWWW26RatWqSe7cudPHFhH12759u3z99deic67HV65cWUqXLu34Jc38GiA7IYAAAggggAACCCCAAAIIIIBAxAoQ0InYqaPjCCCAAAIIIIAAAggggAACCESmQFoBHQ1qNGrUyAi0eNtiY2Nl6dKlMnfuXLn33nvNXdq1ayfvvfeeTxANklx00UVuz589ezbVY3aKLliwQLRfJ0+eTNVsiRIlZPLkyVKjRg3zOQ3llClTxuv+1gbUplKlSuZD4QroaIWfpk2bGsEczy1v3rxy4403ms/pz3/88Ueq/c6dOyevvfaaDBw40Bi37qcBHw3paPBHNw37LFq0SK644gqf0/PPP/8YYaBXXnnF5z533HGHVK9eXcqWLWvso2GwTp062TnltIUAAggggAACCCCAAAIIIIAAAgj4FCCgw8WBAAIIIIAAAggggAACCCCAAAIhFfBniasXXnhBhg4davSrTZs2ohVybrvtNomJiTEe27x5s1FZxbVVrVrVeCyt7bLLLnMLv+hSUgUKFLB97Bo6eemll4zAyLXXXitPPvmkaNUbDZxoGOX48ePmOd9++2159NFHjZ+PHDki06ZNk1OnTsmgQYPMfRo3bmxU1XFtHTt2lOuuu878ORwBneTkZLnnnnsMTw0VTZkyxQgNaQhq5syZ0qVLFzdrXwGd559/XoYNG2aMpU+fPjJ48GCz0s3w4cOlb9++xnNa8Uir9OTKlSvVfJ05c8YI9WzZssV4ToNRaqaVi3r37i1z5szxOcc6V65ryvYLgQYRQAABBBBAAAEEEEAAAQQQQAABiwABHS4HBBBAAAEEEEAAAQQQQAABBBAIqUB6AZ2pU6eKhlB008BK+/btU/XPc8kq3SG9wI1nQOfgwYNGlRe7Nw2ZaGhGwzkaZNEluVybLsFUs2ZNt5COPlasWDFzn59++kmuueYa8+eXX35ZevXq5bOboQ7o6BJSunSUbhrOWbVqlVt/9fGVK1dKgwYNzD6rxbFjx9zG8M0334hWEnJtnpWBtMKRVs1xVSDS4E2TJk1SObi89YmEhARJTEw09/n999+N5cSsS4apV758+SR//vxery27rwfaQwABBBBAAAEEEEAAAQQQQAABBFSAgA7XAQIIIIAAAggggAACCCCAAAIIhFQgrYCOVp7p37+/EW5ZvHix21JOnp3UcI01ePHmm2/K448/7nUs3pa4+vvvv71WZAkEQ6vgFCxY0GjCV7hoxIgR0rNnT/M0rVu3lhkzZpg/ewZ0dNkm6/6e/Qt1QOfOO++UJUuWGN3Qpafuuusur2Ra1WbdunXGc94COtOnT5cOHTqYxy5fvtwt1KNPVK5c2VzuTKsq6fVh3XTZLA3buLZly5ZJw4YN3faZNGmSdO7c2XxMrdWcDQEEEEAAAQQQQAABBBBAAAEEEAilAAGdUGpzLgQQQAABBBBAAAEEEEAAAQQQEG8BHV0CSpeCmjBhglFVZenSpXLTTTelqeUZ8NBllLQKy80335zquHnz5knz5s3Nx30tuRTo9GgQRAMhummVn8svvzxVk9pHDZ64Ns/wimdA59VXX5UePXr47FooAzoamnIFcooWLWos25UtWzavfevatauMHz/eeM5bQOe7774TbUM3nQ+tgKT/Wjdd2ksr9OgWFxcnb731ltvza9eulTvuuMN8bPfu3W4Vi/SJH3/8Ua6//npznwEDBhjLj7EhgAACCCCAAAIIIIAAAggggAACoRQgoBNKbc6FAAIIIIAAAggggAACCCCAAAKpAjqrV68WXcZp4cKFRthi7ty5xtJG6W3nzp2TqlWrmhVWdH8NfIwZM0Zq1KghF110kWiAY9asWTJlyhS35mJjY40QkJ3bmTNnJGfOnGaTN9xwg9fmddkl17JNrh2sYR7PgI5W3OnevbvProYyoKPLVunyVbo999xz8tprr/ns18CBA40lp3TzFtDRxzVQo/Ouy37dfvvtbm3p0l+6pJWGgHRr06aNfPTRR277TJ48WTp16mQ+phV7dO49N11CbP/+/cbDDz/8sOhxbAgggAACCCCAAAIIIIAAAggggEAoBQjohFKbcyGAAAIIIIAAAggggAACCCCAQKqAjpVk48aNUq1aNb+VtOpK27ZtzaWU/D0wvao0/rZj3U/DJqVLlzYe0kow9evX97uZ0aNHmxWDPAM6GoLRMIyvLZQBncsuu8wMF40cOVKeffZZn/0aNGiQWanGV0DH82ANOc2ZM8eovOOqnOPax3MpMH18wYIF0rRpU7OZiRMnui1n5XrCGizS4JCasSGAAAIIIIAAAggggAACCCCAAAKhFCCgE0ptzoUAAggggAACCCCAAAIIIIAAAmkGdLQCji4BlS9fPr+l/v33X3nppZdk5syZsnPnTvM4Dck88cQTxv90WaN33nnHfO6LL76QW265xe9z+LOjdRktreyzefNmfw5LtY9nQCe9IEyoAjonTpwwKuG4tg8++EDuv/9+n2PMSEDn1KlTMm7cONHg1PHjx6VMmTLSs2dPefPNN2XLli3GObwFdKzLZOk+t956q2zdujVVn8qWLWteG0uWLJFGjRplam44CAEEEEAAAQQQQAABBBBAAAEEEMisAAGdzMpxHAIIIIAAAggggAACCCCAAAIIZEogKSnJrbpMiRIlzGWMtMGWLVsaYZuYmJgMt//XX3/Jvn375Morr5TrrrtOsmXLJkePHpUCBQqYbelSShs2bMhw2+kdoFVwrBVldAmuzIzBM6AzatQo6datm8/Thyqgs379emMpKtf2xhtvGOEnX5u/AZ0PP/zQGJ8GczQA9O6770rjxo0NO2vlG28BHT13q1atZPbs2WY3PINDBw8eNKsTabuLFi0ylj9jQwABBBBAAAEEEEAAAQQQQAABBEIpQEAnlNqcCwEEEEAAAQQQQAABBBBAAAEEUlXQWbNmjTz22GNu1W/SW9YpI4y9e/eWV155xTxEK91Yl0XKSFtp7Tt9+nTp0KGDucsPP/wgN9xwQ4ab9wzojBkzRp5++mmf7YQqoLN8+XKJjY01+9GnTx8ZNmyYz375E9DRJani4uKMNjSotXTpUjNMo4/5E9A5duyY1KhRQ/bv32/2ZfLkydK8eXMj+NWjRw9jCTStzqTXmjWsleHJ4QAEEEAAAQQQQAABBBBAAAEEEEAgkwIEdDIJx2EIIIAAAggggAACCCCAAAIIIJA5Ac8KOrqk1SWXXCKlSpVya1DDFLVq1crcSf5/lAY+tGqKa9MlkHTJpGBUUPGsMDN8+HDRcFB624EDB4w+aYUY3Zwa0PFcTkqr6axdu9bn8NIL6MydO1fuvfde8/jvv/9eChUq5NaePwEdPUCX39KQ15w5c7z2p1evXpKQkCB58uRJbzp4HgEEEEAAAQQQQAABBBBAAAEEEAiKAAGdoLDSKAIIIIAAAggggAACCCCAAAII+BLwFtCpVKmSfPTRR3L//febh+lyR1u3bs1UFRpt5MiRI0bo5+TJk2abu3fvlpIlSwZlcrSSiy6r5dry5s0rGr7R5bZ8bf/++6/Url1bcuXKZVQW0s2pS1ydPXtWsmfP7jaUL7/8UipUqOB1eOkFdFq0aGEGanyFffwN6Oi81qlTR66++mqjqo/2VTetylOsWDHJmTNnUOacRhFAAAEEEEAAAQQQQAABBBBAAAF/BQjo+CvFfggggAACCCCAAAIIIIAAAgggYIuAr4CONq5LOY0dO9Y8j1a8SU5OznDlk//++0/q169vLGnk2nTZo4cfftiWMfhqpHr16rJx40bz6Y4dO4ou45QjR45Uh2iIRKu+TJo0SZYtWyYNGzY09vnll1/kqquuMvfv27evDB061Ge/Q7XElXbg7rvvlk8//dTsS6dOnYz+e9teeOEFs98aVvrjjz/M3TSYdPHFF5s/N2nSRBYsWJCqmbJly5pLn7Vs2VJmzZqVap9vv/1W9DrJly+faGAorUBUUCefxhFAAAEEEEAAAQQQQAABBBBAAIE0BAjocHkggAACCCCAAAIIIIAAAggggEBIBZYvXy6xsbHmOXWJK62go9s///wjWk1FH3Nt9913n1Fdx1vIxVvHz507Jz179pSRI0eaT7/55pvy+OOPB32cnmPTE+p4pk+fLoULFzbPv2/fPtFll3RJJl2Ca/HixeZzZ86ccav4ouP/+OOPjec1eLRq1SozzKOP6TJar7zyinm8hl88K93YNfBt27YZYRjrNnjwYOnXr5/bYxrG0Tndv3+/+fihQ4ekYMGCxs/6vAZqrJtnNZ733ntP2rdvb+7iq8qOKxR11113ybRp09zCTXaNm3YQQAABBBBAAAEEEEAAAQQQQACBQAUI6AQqyPEIIIAAAggggAACCCCAAAIIIJAhgSlTpsgjjzxiHqMVWe68807zZw11VKxY0W1pqjZt2hjhC2vVFW8n/fHHH6Vz586ycOFC8+lFixaJhjdCtemSVdbKPa7zFi1aVG655RbRoMqWLVuMh/Wxzz77TK644gq37uXPn1+OHz9uPqbVf0qXLi3Dhw8XDQH98MMPZsClWbNmMn/+fHPfgwcPyo033hi04T766KPyzjvvuLWvlXS0uk7lypVFw0caGrKGrFxjveOOO0T3VSPto1q4Nq2yoxWH8uTJYwSX9u7dm2oMWpVHx6cVd3Q5tJ07d4pW2bFu2k6RIkVE/9VQV+7cuUWXS7vpppuMJa90aS19jA0BBBBAAAEEEEAAAQQQQAABBBAIpQABnVBqcy4EEEAAAQQQQAABBBBAAAEEsrDA33//LVqBRcM51vCFVkZ54403pFixYnLppZcaQsOGDZPnn3/eTatMmTIyevRo0ZBHzpw53Z7TUM+4ceNkxIgR5uMdOnQQXf6pePHiIVXXJap0OSatdJPWpuOZO3eu3Hzzzal202WtNIzjuWnoZOnSpXL77bfL0aNHZcaMGfLss8+67abBlUGDBhkhlWzZstk+9r/++stYmkurAqU3Pg3QWLfmzZuLjk377xnU8mzr7bffNuZZ59Fz02XP9Do4deqUEXKyhpnSG7CGdDTwVKNGjfR25XkEEEAAAQQQQAABBBBAAAEEEEDANgECOrZR0hACCCCAAAIIIIAAAggggAACCPgSOHLkiLm8UVpKuoSTVsDR8IavrWrVqrJ582Y5cOCATJw4UT755BOjkopuGmDRgIpWcPEWfAnVDJ0+fdoIzowfP97rKQcOHGj00TNo5NpZj9dlwKyVeDTQM3v2bClVqpRRwUYr2aS1+VoSyg6DlJQUGTVqlLz22mtuVXC0bQ3fjBkzxli268UXXzSW+NKqObpUl2eloNdff12eeeYZty61a9fOWDJLx/vbb78Zx7vmt379+pKYmGiEc1zbxo0bRZe5yuimAafrrrsuo4exPwIIIIAAAggggAACCCCAAAIIIJApAQI6mWLjIAQQQAABBBBAAAEEEEAAAQQQCLfAihUrjJCLBjl06ag6depIpUqVJHv27OHumnn+s2fPyp49e4zKQbo8l/ZVK/qkt1SXqwGtDLRr1y4pX768FCpUyDHjsnZElxXbvn27Ua2ncOHCRiUk3XTcupUsWTLNfmtFHt1XQz8aqrrsssvc9tfQli6bpeEeXarKc/vwww/lgQcekK5du0qXLl2M4Jb26c8//xSt2qT/03P8+uuvsmPHDnPpLV0yrX379o40pVMIIIAAAggggAACCCCAAAIIIBB9AgR0om9OGRECCCCAAAIIIIAAAggggAACCCCQJQQmTJhgLLd16623yqZNm/wKZ+kSYY0bN5a4uDh56623soQTg0QAAQQQQAABBBBAAAEEEEAAgfALENAJ/xzQAwQQQAABBBBAAAEEEEAAAQQQCJOALpf0yy+/2HJ2Xbbq8ssvt6UtuxqJ5vHNmTNHWrRoYVDpMmfNmzf3i02XD8uVK5fo8lpPPfWUX8ewEwIIIIAAAggggAACCCCAAAIIIBCoAAGdQAU5HgEEEEAAAQQQQAABBBBAAAEEIlYgJibGtr4fPnxYChQoYFt7djQUzeOrXLmyuVzVjBkzpHXr1n6RjR07Vp5++mlj6bBSpUr5dQw7IYAAAggggAACCCCAAAIIIIAAAoEKENAJVJDjEUAAAQQQQAABBBBAAAEEEEAgYgWeeOIJ+fPPPwPuf7Zs2WTcuHGSO3fugNuys4FoHt9ll10mJ0+eNLh0iatp06ZJmTJlfPL98MMP8tprr8moUaOkadOmMm/ePDupaQsBBBBAAAEEEEAAAQQQQAABBBBIU4CADhcIAggggAACCCCAAAIIIIAAAggggEDECXTv3l1Gjhzp1m8N6JQtW1aKFy8uRYoUkVOnTsmPP/4omzdvlpUrVxr7tmzZUt59913JkydPxI2ZDiOAAAIIIIAAAggggAACCCCAQOQKENCJ3Lmj5wgggAACCCCAAAIIIIAAAggggECWFTh9+rR06NBBZs6c6ZdBzZo1RUM9LVq08Gt/dkIAAQQQQAABBBBAAAEEEEAAAQTsFCCgY6cmbSGAAAIIIIAAAggggAACCCCAAAIIhFRg48aNMnr0aKNCzvHjx81z582bVypUqCA1atSQjh07GpV12BBAAAEEEEAAAQQQQAABBBBAAIFwCRDQCZc850UAAQQQQAABBBBAAAEEEEAAAQQQsFXgzJkzcuLECcmXL59ceumltrZNYwgggAACCCCAAAIIIIAAAggggEAgAgR0AtHjWAQQQAABBBBAAAEEEEAAAQQQQAABBBBAAAEEEEAAAQQQQAABBBBAAAEE0hEgoMMlggACCCCAAAIIIIAAAggggAACCCCAAAIIIIAAAggggAACCCCAAAIIIIBAEAUI6AQRl6YRQAABBBBAAAEEEEAAAQQQQAABBBBAAAEEEEAAAQQQQAABBBBAAAEEECCgwzWAAAIIIIAAAggggAACCCCAAAIIIIAAAggggAACCCCAAAIIIIAAAggggEAQBQjoBBGXphFAAAEEEEAAAQQQQAABBBBAAAEEEEAAAQQQQAABBBBAAAEEEEAAAQQQIKDDNYAAAggggAACCCCAAAIIIIAAAggggAACCCCAAAIIIIAAAggggAACCCCAQBAFCOgEEZemEUAAAQQQQAABBBBAAAEEEEAAAQQQQAABBBBAAAEEEEAAAQQQQAABBBAgoMM1gAACCCCAAAIIIIAAAggggAACCCCAAAIIIIAAAggggAACCCCAAAIIIIBAEAUI6AQRl6YRQAABBBBAAAF3Vf/rAAAgAElEQVQEEEAAAQQQQAABBBBAAAEEEEAAAQQQQAABBBBAAAEEECCgwzWAAAIIIIAAAggggAACCCCAAAIIIIAAAggggAACCCCAAAIIIIAAAggggEAQBQjoBBGXphFAAAEEEEAAAQQQQAABBBBAAAEEEEAAAQQQQAABBBBAAAEEEEAAAQQQIKDDNYAAAggggAACCCCAAAIIIIAAAggggAACCCCAAAIIIIAAAgggEHKBVatWhfycnBABBCJXoG7dupHbeREhoBPR00fnEUAAAQQQQAABBBBAAAEEEEAAAQQQQAABBBBAAAEEEEAAAWcLaBBn9erVYg3kEM5x9pzROwScLKBBHWtYJyEhwcndNftGQCcipolOIoAAAggggAACCCCAAAIIIIAAAggggAACCCCAAAIIIIAAApEjYA3lEMaJnHmjpwhEqkBiYqI4PahDQCdSry76jQACCCCAAAIIIIAAAggggAACCCCAAAIIIIAAAggggAACCDhMQMM4AwYMcKuW49nFGnVqGw9Vr11HXP/tsGHQHQQQcJDA+tXJZm82JK8W68+e3dSgjm5ODOsQ0HHQRUVXEEAAAQQQQAABBBBAAAEEEEAAAQQQQAABBBBAAAEEEEAAgUgUcIVyvFXL0RBOj/h4qV77fDCHDQEEELBDYENyshHWGTFokNfmnFZVh4COHbNOGwgggAACCCCAAAIIIIAAAggggAACCCCAAAIIIIAAAggggEAWFPBVMYdQTha8GBgyAmEUGDFosHF2z7BO3bp1jWo6+m+4NwI64Z4Bzo8AAggggAACCCCAAAIIIIAAAggggAACCCCAAAIIIIAAAghEoIBWzXEtJ+PqPsGcCJxIuoxAlAloWMczqOOEajoEdKLsQmM4CCCAAAIIIIAAAggggAACCCCAAAIIIIAAAggggAACCCCAQDAFvFXNIZgTTHHaRgCBzAh4BnXCXU2HgE5mZpFjEEAAAQQQQAABBBBAAAEEEEAAAQQQQAABBBBAAAEEEEAAgSwo4K1qTo/4eOkR3z8LajBkBBBwuoCTqukQ0HH61UL/EEAAAQQQQAABBBBAAAEEEEAAAQQQQAABBBBAAAEEEEAAAQcIeIZzqJrjgEmhCwgg4JeAZ1AnHEteEdDxa6rYCQEEEEAAAQQQQAABBBBAAAEEEEAAAQQQQAABBBBAAAEEEMi6Ap7hHKrmZN1rgZEjEKkC4Q7pENCJ1CuHfiOAAAIIIIAAAggggAACCCCAAAIIIIAAAggggAACCCCAAAIhECCcEwJkToEAAiER2JCcLC0bxprnqlu3riQlJYXk3AR0QsLMSRBAAAEEEEAAAQQQQAABBBBAAAEEEEAAAQQQQAABBBBAAIHIE/AM58xevkyq164deQOhxwgggMD/BTSkM2LQIFm/Otl4JFTLXRHQ4RJEAAEEEEAAAQQQQAABBBBAAAEEEEAAAQQQQAABBBBAAAEEEEglQDiHiwIBBKJVwLOSTihCOgR0ovVqYlwIIIAAAggggAACCCCAAAIIIIAAAggggAACCCCAAAIIIIBAJgVWrVol9erVM4/uER8vPeL7Z7I1DkMAAQScJ+AZ0tGlrnTJq2BtBHSCJUu7CCCAAAIIIIAAAggggAACCCCAAAIIIIAAAggggAACCCCAQIQKaDhHQzq6Ec6J0Emk2wggkK6AZ0gnJSUl3WMyuwMBnczKcRwCCCCAAAIIIIAAAggggAACCCCAAAIIIIAAAggggAACCCAQhQLWpa0I50ThBDMkBBBwExgxaLCMGDTIeEwr6GglnWBsBHSCoUqbCCCAAAIIIIAAAggggAACCCCAAAIIIIAAAggggAACCCCAQAQKeC5tdeTM6QgcBV1GAAEEMibQKjZW1q9ONg4K1lJXBHQyNifsjQACCCCAAAIIIIAAAggggAACCCCAAAIIIIAAAggggAACCEStAEtbRe3UMjAEEEhDIBRLXRHQ4RJEAAEEEEAAAQQQQAABBBBAAAEEEEAAAQQQQAABBBBAAAEEEBCWtuIiQACBrCwQ7KWuCOhk5auLsSOAAAIIIIAAAggggAACCCCAAAIIIIAAAggggAACCCCAAAL/F4iJiTEtWNqKywIBBLKiQDCXuiKgkxWvKMaMAAIIIIAAAggggAACCCCAAAIIIIAAAggggAACCCCAAAIIWASonsPlgAACCIhYl7qqW7euJCUl2cZCQMc2ShpCAAEEEEAAAQQQQAABBBBAAAEEEEAAAQQQQAABBBBAAAEEIlOA6jmROW/0GgEE7BewVtFJSUmx7QQEdGyjpCEEEEAAAQQQQAABBBBAAAEEEEAAAQQQQAABBBBAAAEEEEAg8gSonhN5c0aPEUAgeALWKjpaQUcr6dixEdCxQ5E2EEAAAQQQQAABBBBAAAEEEEAAAQQQQAABBBBAAAEEEEAAgQgVsAZ0Zi9fJtVr147QkdBtBBBAwB6BAhfnNBqyc5krAjr2zA2tIIAAAggggAACCCCAAAIIIIAAAggggAACCCCAAAIIIIAAAhEp4Freqkad2jJr2bKIHAOdRgABBOwUsC5zZVcVHQI6ds4QbSGAAAIIIIAAAggggAACCCCAAAIIIIAAAggggAACCCCAAAIRJMDyVhE0WXQVAQRCJmBd5squKjoEdEI2fZwIAQQQQAABBBBAAAEEEEAAAQQQQAABBBBAAAEEEEAAAQQQcJZAvXr1ZNWqVUanjpw57azO0RsEEEAgjALWKjopKSkB94SATsCENIAAAggggAACCCCAAAIIIIAAAggggAACCCCAAAIIIIAAAghEpoAroMPyVpE5f/QaAQSCJ0BAJ3i2tIwAAggggAACCCCAAAIIIIAAAggggAACCCCAAAIIIIAAAghkKYGYmBhjvAR0stS0M1gEEPBDYMSgwTJi0CBjz6SkJNGlrgLZqKATiB7HIoAAAggggAACCCCAAAIIIIAAAggggAACCCCAAAIIIIAAAhEs4Aro9IiPlx7x/SN4JHQdAQQQsFdgQ3KytGwYazRKQMdeW1pDAAEEEEAAAQQQQAABBBBAAAEEEEAAAQQQQAABBBBAAAEEsozAqlWrRJe40o2ATpaZdgaKAAJ+ClgDOomJiZKQkODnkd53o4JOQHwcjAACCCCAAAIIIIAAAggggAACCCCAAAIIIIAAAggggAACCESmwIABA0S/dNZt9vJlUr127cgcCL1GAAEEgiRQ4OKcRsu6vJVW0QlkI6ATiB7HIoAAAggggAACCCCAAAIIIIAAAggggAACCCCAAAIIIIAAAhEqQEAnQieObiOAQMgECOiEjJoTIYAAAggggAACCCCAAAIIIIAAAggggAACCCCAAAIIIIAAAtEpYA3oHDlzOjoHyagcI/Dff/9J9uzZHdMfOhL5AmfPnpVs2bIFdSAEdILKS+MIIIAAAggggAACCCCAAAIIIIAAAggggAACCCCAAAIIIIBA9AsQ0AnOHH+7Z48sXbBQ5s6YIUPGjJbK1aoF50ReWt23d6+8M26cbN/6uXz/3X4pVqKk3FazhlStXkPqNW5kS5jh1J9/ysghQ2T5wkVyT8sW0q1vX8lx8cVex/j9d9/JysVLZMn8eZK8fIUQBAvZpRBxJ1q7MklGDR0iuXLnluf69fP5uvntl19k9fLlsnjefOM1tnDdWqlUtWrQxktAJ2i0NIwAAggggAACCCCAAAIIIIAAAggggAACCCCAAAIIIIAAAghkDQECOvbNs4ZQli9aJEvmz5ejhw+bDc9bvUqqVK9u34nSaOmjd9+V57rEGXs0vPsu+eKzz+Sn4yfMIx6Ki5NhY18PuC/TJk6UPk8+ZbYz8aMPpcl995k/796xQ2a9954snjtP9n/zjdv5COgEzB+VDfz7779SuUgR83otUbq0JH2xTWJiYozx/nzihHwweYosW7RItqxf72Ywf01yUENwBHSi8pJjUAgggAACCCCAAAIIIIAAAggggAACCCCAAAIIIIAAAggggEDoBAjo2Gf9+vCXZc3KFbI2aZVbo8Gu7uE6mZ63TePGxo9zVyVJ1Ro15Ifvv5cGt1aWP0+eNPt0+PQ/Zughs6N/ZcAAGfnSEPPwvgMHyjN9+5g/fzR1qmxet15WLV3qFlbSHQjoZFY9uo/TqkzFr7zKbZD7f//NqKaj21fbtsmE0WPk4IEDBHSi+1JgdAgggAACCCCAAAIIIIAAAggggAACCCCAAAIIIIAAAggggED0CRDQsX9O33ljnPR/7jmz4SWbNkr5SpXsP5GlxXPnzsld1WsYIYaixYvL2h1fm89qZZ/2zZoZP9dtFCvvL1gQcF/0PI2r3W62s3HvHilUuHCqdv89c0ba3HmXbFq71nyOgE7A/FHbwOPtHpR5s2YZ43v0qSdl0GuveR3rsBdflDHDhpvPUUEnai8JBoYAAggggAACCCCAAAIIIIAAAggggAACCCCAAAIIIIAAAghEhwABHfvncfWy5fJAkyZmwyu2fialy5e3/0SWFr/+4gtpdFs145HGTZvK5NnnQw6ubddXX8n+b7+VBnfeaVYkCbRDv//6q2zZsFFuv6OWXJo3r8/mNKykoSXXRkAnUPnoPn7rpk2SM2dOKVexos+BLpwzR7q0vd98noBOdF8TjA4BBBBAAAEEEEAAAQQQQAABBBBAAAEEEEAAAQQQQAABBBCIeAECOvZP4YbkZGnZMNZseOW2z6VU2bL2n8jSoi79k9irl/FImw4dZNSkt4N6vow0/nJioowaMtQ8hIBORvTY15uAZwiOgA7XCQIIIIAAAggggAACCCCAAAIIIIAAAggggAACCCCAAAIIIICAowUI6Ng/PZ4BnVVffiElSpe2/0SWFp95pJPMeu894xECOkGlpnEHCBDQccAk0AUEEEAAAQQQQAABBBBAAAEEEEAAAQQQQAABBBBAAAEEEEAAAf8FCOj4b+Xvnp4BndXbv5TipUr5e3im9mvfrJmsXLzEOJaATqYIOSiCBAjoRNBk0VUEEEAAAQQQQAABBBBAAAEEEEAAAQQQQAABBBBAAAEEEEAAAZFQBnT+++8/Wbpggez+eoccOnhQbihUSEqWLSNVq9eQ4z8elWuvu16uvS6/z2lJSUmRH77/Xr7atk2+3b1HCha60Vg6qmTZspIjR440p/OP336TpKVL5dSff0q7Tp2Mff/+6y+jP3t37ZKLLsom9Ro3kopVqshFF13k16Vx7OhR2bZli2zdtMnYv9wtt0jVGjXk+/373Za4Sv5qu9xcsqRfbWZkpy8++0zOnj1rHNKt06Oy/5tvjP8uX6mSDBkz2q2pkmXKyKV587o99u+ZM7JkwQLZt2evHDxwQE6dPCmlypWTchUrSqWqVeSqa65Jtzsn//jDMLzyqqsNP29bWktcHdi3T/Z/822qwypXu03yXXGF8bheN+uSVpljte6s54yJifF63m927zaqCnV5+hm5+tpr5Pdff5WPP/xIfjjwndRpGCs169WV7Nmzpzr2r1OnZOf27fLVti/k9OnTUrpcOcMl//XXpeth9w469m927ZLt27bJsSNH5eZSJUXnsliJEumeyuV2Tf5rpUyFCub+OtfbNm+WE8eOG21VqX675L7kErf2zpw+LVs2bJT93+w1Hq9y++1SokwZyZYtW7rn1YDal1s/lx++PyDHj/4ohW8uJuUrVpQKt94qhYsVS/d43eHrL76QJfMXSLfn+3qdIwI6fjGyEwIIIIAAAggggAACCCCAAAIIIIAAAggggAACCCCAAAIIIICAUwRCFdDRL9yf6viwEYbRrVqtWrLjyy/lz5MnTYpJM2fIXc2be6VZtnCRPPnQQ277u3YsWry4jHp7olSpXt3t2J9PnDBCOfNnzZZlCxcaz9VtFCvvL1ggH3/wgfR96ulU7ZUuX17mJ6+WS/Lk8TlFGuB4rnMXmT97trmPhl9cY9GQzpb1683nghXQKXHV1V49vHV8wdo1cuttt5lPLV/0qcQ/95x8/913xmM16tSWv079JRr60U3HM3dVkqiH56bhjeQVK2XB7NkyY9o04+ke8fHSI76/V7O0AjrvTZokE8e8bl4Xrgbmr0mWytWqGT/qtdPjsceNYJbndvCvU24BDg3hLJ43Tz58d6psWrvW2F39//n7b2nRoKGb16vj3zTDWrrfH7//Lr0e7+o2r9bzPdmrp3Tv1y9VmCUYr+Vz587J6KHD5JUBA7w2H9ukiQx9fYwUuOGGVM/v2bnTuL4/mDxZfjp+Qh6Ki5NhY183xpXYs5ccPXzY7Rh9/Uz5eLYRItMQnM6Jzpkea9005LRo/XojWOdt00BUv27dZG3SKuNpDYrluzyf+bM+Nm7aVLm3bVuvxx/Yv18+/WSuEara9dVXxj7f/fG75MyVK9X+BHSCcdXRJgIIIIAAAggggAACCCCAAAIIIIAAAggggAACCCCAAAIIIIBA0ARCEdDRSh0NKt9qfOHfrFUro7rLlVdfbYQB3ho1Wgb26WOM783p06R5mzZuY7UGFTQg8PDjXaV0+XKyf+838tboUW4hghFvjZcHHnnEOF7PecuNN6Zyq1WvrlFxZ9LYN3yaprVE1JFDh+SRlq2MsIiGWF6fMlnuqF/fCPRouKXPk0+lCpKs+forvyqeZHSS16xYKUcOHzIOe+mFF0wLDUZ0evIJt+Ya3HmXUUVGNw3nPHTvvcZ/azBnyscfm9V11q9OllaxscZzOr5F69e5Vf8ZGh8vk8e9mSoYlNmAjquTzz7a2Qz76GPWgI5rn2NHf5TYqlXc5twa0Hm83YMyb9asVIxTP/lEusd1SRU4qX9nY5k+b56x/769e6XjfS2MKkQaEmvU9B4j+KPLhs358EOzTQ2zLN64IVU1oozOXVr7a1BIKyItmT/fCLm0bt9eritYQL7culXeeOVVt0OXf7bFrI6j4be4+x9IFXZq9eCDxjEafPG1aRhq1rKlRmjto6lTfe7nK8CmVXnuqVXLMNbrZsmmjVLk5puNdjQQ1KJ+AzMM5vk6371jhzFebwEsAjp2Xlm0hQACCCCAAAIIIIAAAggggAACCCCAAAIIIIAAAggggAACCCAQNoFQBHS0EsjwhARjjNZAgWvQL/XrZwQPxkx+R1xhAtdzo4YMNap5aLhkzsqVbkEXXR6pWZ06bsGL9bt3SeGiRY1lkfT5hR/PMc9tRW54913SoUucaGDHFc6wVhbZuHePFCpc2G1edEmsWmXLmRVIFq5bK5WqVnXb5/iPx6RW2bJuAZZgBXSsJ25QuYpZdaRpy5by1gfve72m1KVa8RLmGAaPHJkqzNOl7f2ycM4c43itGtPvpZfMtj6dO1euufZaefetCTL7/QvnCDSgo9VdHnugnXkebwEdfbJX1yeMCi+uzRrQ0b7pkmNjX34l1dhvKlLEqJYz8fUx5vXSOzFRnn3hefntl1/ktuIljDl77NlukvDyy27Hu65P14MPP/54qiXE7HwBt2nc2Kg6o5WY3l8wX/JceqnZvFaS6njffebPGpj5dP06uThnTmP5t/WrVxtBl3feGJeqS/raat/5UWMZN62cpBWtrKEYVxUoDcnd37GjVK99hxw9ckR6xMWJBrdc24QPP5B7WrRwa98asNKAk1bDsm6T3xxvVNfRTUNHGuBxbbrs3LpVq4zlxHrEPeb22iGgY+eVRVsIIIAAAggggAACCCCAAAIIIIAAAggggAACCCCAAAIIIIAAAmETCEVA5/6775bk5SuMMa7e/qUUL1XKbbwaFqhespR4Ljl07OhRqXTT+ZCMVqpp2e5CgMPVwPiRo8wKPPqYt3CKNbyi+zzX7wVjSaaLLrrI7IeGPjT84do+WLhQ6sQ2dOunBj+G9D+/jJNncMW644hBg2XEoEHmQ04K6GiIQwM6rq17/37S88UX3cZpDaRomEOr6Hhu1rnR5wIN6Pi7ZJFnWMZziSvty8iXhqRaGuqLgwfl2uvyG0tdzZ0505h7reakyydpBSe9jq4vWFA+279PYmJi3Iarx1S44Ua34MiKrZ95Xf4r0BeyLsWmlXx08xYS08e1+pFWQXJtWpFKQ0PWre4tFd0q6WjoSMNH1k2DaXeUc1/CzFtgS5cNK53/OvPQuG7PSOIr7iGoykWKmqEvDRbp8mjWTSsRtW/WzHzom19+dgseuZ7o9+yzRoUm10ZAJ9AriuMRQAABBBBAAAEEEEAAAQQQQAABBBBAAAEEEEAAAQQQQAABBBwhEIqATvO69WTL+vXGeDVAM/qdSZIrd2638es+93d8yFyiSp/s8djj8sHkycZ+u48fk8suvzyVmVYAaVztdvNxrbSz/dD5ZZ9cmy5JpcsF6aZVQvb+/FOqdnZu3y4Nq1yohjNwxAjp/PRT5n6eS2Zt2LNbtCqLt23ujBnStX0H86l1O3eYy/0Ea9L9raCjS4ZVLXazGabQudAllKybq2qRPqahla3f7U/V7X/PnJGbLs1rPu6kgM7iefOkU6vWZt+GvzFWOnTp4pVeqyzVKF3GeE6r6WhVHW+b9RrS5725BTq3//77r9SrWMlYZkuXnNIqQt62t18fKy/26GE+1fahh2Tk2xPddm13zz2yauky47FqtWrJnJXnA3KemwbjNCCnW+2GDeTDRYu87mcN2d13//3yxtR33fazvla99WfjmjXSosGFwNuWfd9KQS9L0L02+CV5deBAs20COoFeVRyPAAIIIIAAAggggAACCCCAAAIIIIAAAggggAACCCCAAAIIIOAIgVAEdDyXJdJleca/N92tko5WZLny6qslR44chotnAESDIt62k3/84VbZRPfxDPM82rqN6PJHuvkK6OjST4UuyWOe4uk+veV5SxWcMcOGy7D/V5opUbq0rPryC5/zp8sBtYqNNZ9fv2unFC5WLKjz7W9ARzvx84kToktKXXXNNcZSRdaKMbrc0/PPdBMNGaXldfbsWbkx9yXmmJwU0FmzYqW0vesus2/eliJzPWldfk0f83WdWZc/0/3SqqCU2YnetHat3Fe/gXm4v33xXDJKG9BqNVq1RrcadWrLrGXnwzqem7UaT91GsfL+ggVe93vyoY4y58MPjefq39lYps+b57bf6X/+EQ1G6etRKxNZw3RnTp+Wd8a96VbpauW2z6VU2bKpzmV9nemTBHQyezVxHAIIIIAAAggggAACCCCAAAIIIIAAAggggAACCCCAAAIIIICAowRCEdD5bMMGaVanbqpxP/JEV3mmT1/Jf/2F5XNcO327Z4/ULl/B+FFDNTXrpj7eF+Sgka/JDYUKmU/7E9DRnQtcnNM8xjOgoxVxXKGV2CZN5N05H/ucxw3JydKyoXMDOt46ruGQ6W9Pktnvv+/2tK9Ak5MDOutWrZbWjRqZ41i6eZOUq1jR63xZgye6NNOVV13l1+uzavXq8kTPC1Vs/DoonZ3ef+cd6fl4V2OvosWLp1oKztfhl+TJk6qijb8BncceaGeEtXRLK6BjrZCTVuDH2ketTjR90iSZ+taEVCG6FZ9vldLlyqUaEgEdO64k2kAAAQQQQAABBBBAAAEEEEAAAQQQQAABBBBAAAEEEEAAAQQQcJxAKAI6OugRgwbLCEtFGivES6NHy0NxXSRbtmzmw0sXLJCHW7Q0fq5YpYosWr8u03Z2BHTq3lJR9u7aZfThobg4GTb2dZ/9iZSAji53tXDOHNElrXZ99ZURhOravbucOHZMpowfb4wv2gM61spDWhVGq8OEaxvQu7e8NWq0cfqneveSFwYPznRX/A3oPPtoZ5kxbZpxHrsCOp9v3ixamWjZwoVGuw8++qiUqVBB+nXrZo6HgE6mp5YDEUAAAQQQQAABBBBAAAEEEEAAAQQQQAABBBBAAAEEEEAAAQQiUSBUAR21eW/SJNHlrrxttRs2kCmzZ0uu3LmNp99+fay82ONChZLDp/9xW4opI9aBBnQ8l79q2rKlvPWBe6UZa38iIaDz1bZt8mznLkYwRzcNST3wcEfD31rFJNoDOtaqSQNHjJDOTz+VkUvL1n0fadlKlsyfb7TZuGlTmTx7Vqbb9zeg81znLvLR1KnGeQIN6Bz/8Zg8//TT5nJyGmTTpc+uyX+tbF63Tu6tV98cDwGdTE8tByKAAAIIIIAAAggggAACCCCAAAIIIIAAAggggAACCCCAAAIIRKJAKAM66nP4hx+k/7PPmUEEq1mzVq1k3PRpctFFFxlLLT398CPm01u/2y/XFyyYKeJAAzp///WXFLv8CvPc5StVkiWbNvrsS6qAzu5dUrho0Uz13d+DrJVg0gsQfbl1q7Ru1NhYdkgDOO/MmiW16l1YQiwrBXQqFykqRw8fNpjTq4zk71xkdj/rMlI3FSkiG/bszmxTEuqAzr69e6VN4ztNy/hhw6Rr9+fM/hPQuTCVMSkpKSmZnlkORAABBBBAAAEEEEAAAQQQQAABBBBAAAEEEEAAAQQQQAABBBCISIFQBHR++eknyX3JJcb/XNuaFSslvnt3c9ko1+OuZYY+27BBmtW5EBrpP2SIPNHzQkUdX9g/fP+9fPHZZ6IhFdcWaEBH27EGOfTn3cePyWWXX+61G54BHQ1aaOAimJu/AR31aXBrZSOco9u4aVPl3rZt3bqWlQI67e65R1YtXWaMX8NKGgTLe9ll6U7V/NmzpVLVqnJDoULp7uvvDm+88qq81K+fufv8NclSuVq1dA/fsn69UV2qSvXq5r6hDOhohakmNWuJVmXSrX3nzvLyuDfc+k1A5wIHAZ10L2l2QAABBBBAAAEEEEAAAQQQQAABBBBAAAEEEEAAAQQQQAABBKJPIBQBnfvqN5BWD7aTBx991A1QK9PoEjvzZl1YyueJHt2l/9ChcuLYcbnlxhvN/TU8sfmbvXL5lVf6nIR///1XWtRvIDlz5ZRZy86HLnSzI6Dz0L33yvJFn5ptDhkzWh5+/HGvfXFyQGfym+OlX7duZr/3/vyTEUyxbk4I6MxculRq1ohzNFgAACAASURBVK2TylcDLBpkcW0H/zol2bNnd9tv3arV0rpRI/OxpZs3SbmKFb3OlYbEJo29ECbp+eKL0r3/hZCMt4OWLVwkHe+7Tz5esVxuv+MO224Kiz75RDq3uRCWqlarlsxZuSLN9o8cOiR1b6koT/ToIc++8Ly5bygDOi4P18k/+vRTuaPBheWs9HECOhemkYCObS8ZGkIAAQQQQAABBBBAAAEEEEAAAQQQQAABBBBAAAEEEEAAAQQiRyBUAZ0rr7pKJs2ckQrm3Llz0rJhrGxau9Z47q7mzc39mt5RW7Zu2mQe06ZDB3ll/JuSI0eOVO2cPXtWej/xpHwwebJ4BgTsCOi8+dpIGdS3r3neosWLy4qtn0nOXLlS9SVpyVJ5sGlT8/EVn2+V0uXKBfWisFbQaXLffTLxow+9nq/jfS1k2cKF5nPeAi6JvXrJhNFjzH2OnDmdqi2tmlLokjzm4z3i46VHfH+v53w5MVFGDRmaZnueoZqhr4+Rjo89lqo9nePpb79tPr7vt1/dKjPpExkJ6Gglp7Z33eV2nsUbN0iFW2/1Opavv/hCWjRoKCXLlBGtcGPnppWmyhVwX8Zt+BtjpUOXLl5P89svv0jbu+42KtfsOHpErrjqKnM/fwM6Tz7UUeZ8eP5aqdsoVt5fsMDruazLb9WoU9stAKdzq3Ps2hauW2tUF7Jui+fNk06tWl94TWz9TEqXL5/qXKOHDpPhCQnm49/98bvX19jqZcvlgSZNzP38rTaU2fkqcHHO80Z160pSUlJmmzGOI6ATEB8HI4AAAggggAACCCCAAAIIIIAAAggggAACCCCAAAIIIIAAApEpEKqAjgZwNu7dI4UKF04FNWLQIBkxaLDx+HP9XpBe//+C3lt4omqNGjL23Sly4003me0c2L9fBvXpK5/Ones1ZGCtfqPVYrRqjOem1XduynOp+fBjz3aThJdfNn/Waj/VSpSQn46fMB9rePdd8vZHH8nFOc9/ee/aurbvIHNnXAgjjX9vujRrfSGcEIwrpcINN5h9q1WvrsxYssTrae6uUdNYAsy1jZw4Qdp27Gj+vOurr6R53XrmElj6xP7ff5NcuXO7tffH779LqWuu9ell3Xnw88/LuBGvmQ95CwXp0lvVipcw99ExvL9woVkdJyUlRd4c8ZoMfuEFt37MXr5Mqteu7faY53Uzd1WS6HXja9Px6jJR1k2XaLr/4YfN82sg6ZOPPpIXnulm2GhlG61wY/f2yoABMvKlIW7NPhQXJ/HDhkqeSy9cnxvXrJG+Tz1tLBH3wuDB8lTvXm7H3H/33ZK8/Hz1nbQq8VhfGxo6W7vja69DeuaRTjLrvfe8tucZqmn14IMyZvI7Zju///qrPNDkHrfrbsbixVKrfr1U5/KskOQZPHId4Fm1J1jz4TofAR27r3TaQwABBBBAAAEEEEAAAQQQQAABBBBAAAEEEEAAAQQQQAABBLKYQCgDOhWrVJEPFi6QfFdc4aZsrf7iuRyRLo/lqq5jPeimIkWkTIUKcvTwYfOLf31Mq594tl+rbDnZ/8035uEHTv6RKlTz3bffSs0yZc19yleqJEs2bXTrpwYUNKhg3bSaSOv27aVK9eqiIR6ttOOqSOLaT0NBsU2aiO7rucyXHZfbrz//LGWvL2A2dfW118i277+XbNmypWq+V9cn5L1Jk9web9aqlZQoU0bWrFzp1bppy5bG87/8/JO8NGqUceyenTulXsVKZjvWykeeJ/Ws2vPZ/n1S4IYb3HbTCkilr83vFgyqf2dj0XNrlaX335lsVFNSSw3IuDatwnJf27bS+emnzBCRVlHSii+uzVc1Htfza5NWSZvGjb1OhQaFNJykoSZXOCu99gKZU53LaiVKuo3R1Z5ek+r2ze7d5vWsczdu+jS56KKL3E5buUhR47Whm74uNuzZ7bVb1UuWku+/+8587usjh+XKq69Ota/1dXh9wYKy9bv95j4ff/CBPNXxYbdjNBRUu0ED0YpDGpzz3HTeHuzUyXitWCsRPd7uQbcl73wtT6YVnrTSk2t7c/o0ad6mTSD0aR5LQCdotDSMAAIIIIAAAggggAACCCCAAAIIIIAAAggggAACCCCAAAIIZA2BUAZ0VFRDBlohp1LVKnLo4EGjKseksW8Y2P2HDJEnevZwg9dlfDq3bSvrV6e9nFCJ0qVlysezpXCxYubx2v5H704VrdBj3R5/7lkjKFOsxPmKLRrOie/eXVYudq8689qEt4wlt6yBn4ljXpeEnj3TvDg0iGStUqM7V65WTR7u+ri0bNfOtgtLq/4c2LdPXk5IlIVz5ri1+8gTXUUrr2g4w1r9Riuu1L2los8+6HGPdO0qtctXSLVP/6FDpfNTT8q3e/bI8IREt6WydGcNSdSNjTW9jh39UebPmiUv9nCfUw1S9BmQKDcWLuwWIpr9/vvy9MOP+OxbXLdnjEo4Xdre77aPeutSUNfkzy9fbt1qVLlxhVN0Rw31aEWXW2+rJtdel99r+1rxSCsfpbf1GTBAuj1/Yamz9PbPzPNaxUiX3bJWa/LWjl6bWk0q9yWXmE9rSGzqhIkyoHdvt0N0bu5p2dL0/vnECZk28W23pan0ADXu3q+fXHb55cbxWv1Gl6d6rkucW3t9Bw6Ujo/FGXOt54yteptbCM66s4Z19PxNatZymxfdR0NY0+fNkxPHjsualStSBX20SpVed1rdJ3v27KKVmzYkJ0uvrl3dfDTw8+r4N6VshQqpwneZmQPPYwjo2KFIGwgggAACCCCAAAIIIIAAAggggAACCCCAAAIIIIAAAggggEAWFghVQOf0P/8YX65bK9m42DVco8tJ1WvcyOtMnDl9Wl7s0VOmTpjg9XkN/DzZs4fbF/N6TOG8l6U5sx8sXCinTv0pndu09bmfhj8WrV/n9rwuoZTYu7dokMK6aWWRfkNeEv23ZcNYIxzzwCOPSPO2bYz/tnsrcdXVXiuteJ5Hq+nkv/468+G1K5Ok26OPuoUlNPjSrW9fIzChm3VJI50fXfJLx+IKKqQ1lo8+/VQO/3BQusc9luaQ9Zy6/JR1m/722zKwT1+3caln7wGJ0vahh4xqLI+2bmMs29SmQ3tpcNfdRujmn7//lqL5zodK0tp8La2kx+gyVxpE8XaNarBsxFvjpVxF3+Gm9M6dkeePHT0qTz/8sGh1H89NKyS9NHq0UV3IumnArH2zZmmeRkNsl+XLJy0aNExzv9enTJYKt94qdSrckuZ+k2bOMEJsusxct06Pui0VpvP2TN8+RhhOwzXWykY6Bl1arWd8vLw/eYr069YtzfNowG3UpLfljnLl02X89tdf5JI8edLdLyM7ENDJiBb7IoAAAggggAACCCCAAAIIIIAAAggggAACCCCAAAIIIIAAAgikEghFQOeXn36SvPnySY4cOYzgxQ8HDsihgz/IFVdeITcWLmIELGJiYtKdHV0Gad/evcayOTkuvlg0OFL05puN/w7HpmPZuX27/HnyT7n+hoJSvFQpI4igVX/2ffON3HrbbX6NKxx9/++//4zqO7//9psUKlxErsl/rVs3UlJS5MihQ6JVegoXLRrSLmpFlt07dhgVUgoVKWxUT9FrRzddAur3338Pap+0asz2z7cZIaNCRYoa15kGSsKxafBo51dfyTe7dslV11wrJcuWkYI33phqSatw9M3bOfWaOXzwoOQvUMDop+cyazp/x3780XiteFuCzSnj8OwHAR2nzgz9QgABBBBAAAEEEEAAAQQQQAABBBBAAAEEEEAAAQQQQAABBCJEIBQBnQihoJsIIICAVwECOlwYCCCAAAIIIIAAAggggAACCCCAAAIIIIAAAggggAACCCCAAAIBCRDQCYgvQwf/fOKEvP7yy6LVawLdrrzqaunev1+gzXB8AALMZwB4EXYoAZ0ImzC6iwACCCCAAAIIIIAAAggggAACCCCAAAIIIIAAAggggAACCDhNgIBO6GZEl+ZqdFs1W054U5EismHPblvaopHMCTCfmXOLxKMI6ETirNFnBBBAAAEEEEAAAQQQQAABBBBAAAEEEEAAAQQQQAABBBBAwEECBHRCNxk/HjkiQ/r1t+WEhYsVo4KOLZKZb4T5zLxdpB1JQCfSZoz+IoAAAggggAACCCCAAAIIIIAAAggggAACCCCAAAIIIIAAAg4TsAZ0Zi9fJtVr13ZYD+kOAgggEF4BAjrh9efsCCCAAAIIIIAAAggggAACCCCAAAIIIIAAAggggAACCCCAQMQLrFq1SurVq2eMg4BOxE8nA0AAgSAIuAI6iYmJkpCQENAZYlJSUlICaoGDEUAAAQQQQAABBBBAAAEEEEAAAQQQQAABBBBAAAEEEEAAAQQiToCATsRNGR1GAIEQCmxITpaWDWONMxLQCSE8p0IAAQQQQAABBBBAAAEEEEAAAQQQQAABBBBAAAEEEEAAAQSiScAa0OkRHy894vtH0/AYCwIIIBCQwIhBg2XEoEFGG0lJSVK3bt2A2qOCTkB8HIwAAggggAACCCCAAAIIIIAAAggggAACCCCAAAIIIIAAAghErkBMTIzR+Rp1asusZcsidyD0HAEEELBZgICOzaA0hwACCCCAAAIIIIAAAggggAACCCCAAAIIIIAAAggggAACCGRVgXr16olW0iGgk1WvAMaNAAK+BKwBnZSUlIChIqaCjv6fAhsCCARHINBSXMHpFa1mBQHu7fbMMq9hexxpxX8BXrv+W0XjntxzonFWnTsm7jfOnZtQ9Iz7TSiUOYdLgPsN1wIC6QtwX07fiD3sF+D+bL8pLSKgAtzTuQ48BVwBHX38yJnTACGAAAII/F+gVWysrF+dbPwUdQEd15vt1atXGylN3XgDzrWPQOgEXG/KXf/WqVOHN+qh44/aM3FvD93U8hoOnXVWOZO+fvV9mfU9Ge/Nssrspz9OvedYP9BLSEhI/yD2QMCHgOt+Y73HcL/hcnEJcL/hWrBTgPuNnZq0lVUF+N0zq8588MbNZ0fBs6VlBNIT4L12ekLheV7DMrqF8ruaAQMGSGJionHe2cuXSfXatcMzeM6KAAIIOEygwMU5jR7pPdKOz8AdUUFH34DrjZ8PYB12tdEdBP4vYNcNB9CsJcC93TnzzWvYOXMRCT2xfmnFe7NImDFn9VHvNwR8nTUnTu4N7xWcPDvO7xv3G+fPkZN6yP3GSbNBX6JVwPUFrx0fWEerEeNKLcD9masCAWcK8F47/POi90dXSMezN9ZQlZ2fwVjPyTJX4b8G6AECCDhDwLq8lV3ftYUtoOPvlz+Vy9Y09KuUqeWMWaAXCESpwGc71xoj27pjnc8RutLTfNgSpReBDcPy54OVurXO39dd/9pwWprQinNrz792Xf96Q+E1zKWSlgCvX66PjAjovSat+w1f0GREM+vty/0m6815ICPmfhOIHsdyv+EaQMB+AX9/97TzC0P7R0GL4RTIyL2Zz4/COVOcOysI8F7bubOcVkDHV6/tCO5Yl7miio5zrw96hgACoRNwVc/RM9qxvJW2E/KATlpvwDWM81jrPoZo5TLnv8BlQwCB8Ahs3bnOCOu8NXO41w7YlRIMz+g4q90Cad3bNYiT0KeXcUpCOXbL+25Pf8FevW69JA57mddw6Ngj8kyuKobequW4Xr+8diNyakPWae43IaOO+BNZy2VbB6P3GP1fnZo1eK8Q8bMc3AFwvwmubzS1zv0mmmaTsThdYMDwV4wuevvdk9C202cvtP3js6PQenM2BDIqwHvtjIoFf/+YmBhbTpKR4A5VdGwhpxEEEIgSgWBUz1GakAZ0fH1A4grmEMqJkquVYUSdwISZL4tW2PGsrkNIJ+qmOsMD8vXhCl/qZ5gyqAfoB6be/iKG13BQ2R3fOK9fx09RRHYwrS9ouOdE5JTa0mnuN7Yw0oiHAPcbLglvAtxvuC4QCK+A3pu9BXV4HxjeeXHC2a0VGVz94bMjJ8wMfUDAuwDvtZ1xZdgV0PE1GmtwR/dxVb+z3rOPnDntDAx6gQACCIRBwBrQsat6jg4jJAEdbx+QEMoJw1XEKREIUMBXVR0+aAkQNkIP9xa65MMVZ0+mr7+E4TXs7HkLRu94/QZDlTY9Bbx9QcP9JutdJ97uN4l9e1MtJ+tdCkEdMfeboPJGTOPcbyJmquhoFhDw9cUu7wWzwOR7DNHbEi18dpT1rgNGHNkCvNcO3/x5CzeGujcscxVqcc6HAAJOEnAtb2X37zFBD+h4+4BEl7GKa93bSb70BQEEMiCgQR1d+spaUcfum1MGusOuYRDw/OWAD1fCMAkBnFKDOq6qOq5meA0HABpBh3oLTfP6jaAJjNCu8mFehE5cgN32db9Jmv9JgC1zOAK+BbjfZM2rg/tN1px3Rh0ZAtyXI2OegtVLPjsKliztIhAeAe7poXf3tSpJsHuilXX0PbZuNerUllnLlgX7lLSPAAIIOE4gWMtb6UCDGtDxfBNO1RzHXVt0CIGABHTpKw3qWDe+5A+I1PEHe/vLJ/0r+IQ+vRzfdzqYWoBfrLPWVeHrr8p5/Wat6yBco+V+Ey758JzX2/1GgzkaCGRDINgC3G+CLeys9rnfOGs+6A0CvgS4N2eta4PPjrLWfDParCXA/Ty08+3tfhrsHri+37G+z+4RHy894vsH+9S0jwACCDhGIJjhHB1kUAI63v56iao5jrmm6AgCtgpQTcdWTkc35vnhN1U3HD1dfneOajp+U0X0jrx+I3r6oqrznh/m6V9lJSUlRdUYs/pgvN1vqJqT1a+K8Izf837DHxKEZx6CeVbuN8HUpW0E7BfgS137TZ3YIr97OnFW6BMC9gvwu739pt5aDGVAx9vvS9YiDCx1FZo55ywIIOAMAdfSVtqblJQU2ztle0DH8/8wqJpj+5zRIAKOFPCspsMH4I6cpkx3yvMDFqrmZJrSsQfyJZZjpybgjvH6DZiQBmwW4IM8m0Ed1Bz3GwdNBl0xBLjfRO+F4FmxmSpd0TvXjCz6BPjdM/rm1DUi3gtG79wyMgS8CfBeOzTXRUxMTFBPpH84lZCQIPqv5+b5fe+RM6eD2hcaRwABBJwgEOzqOTpGWwM63sI5ExLmOcGSPiCAQAgECOmEADkMp+ADljCgh+mUfFAaJvggntbz9cuXV0HEpukMC9Rreq9oFS/dqKSTYT7HHcD9xnFTQof+L6D3Gb3fuDbuN5F/aRDOifw5ZAQI8Ltn9F0DfHYUfXPKiBDwV4Df7f2VSns//X5Vt9WrV4v+t+tne1pP3UpawRzr3tb7e406tWXWsmXB6hLtIoAAAmEXCEU4Rwdpa0DHmuRkSauwX0N0AIGwCBDSCQt70E7Kl21Bo3Vsw3xQ6tipyXDHeP1mmIwDwiDAB3lhQA/CKbnfBAGVJm0X4H5jO2lYGrTeb1hyNyxTwEkRsE2A3z1towx7Q4Rzwj4FdACBsAvwXtv/KfAM4uiRwQ7jWHvnbzDHeow1IN8jPl56xPf3f8DsiQACCESIwIbkZGnZMNbsbTCWtnI1bltAx3qDJpwTIVca3UQgSAJbd66TuMRmZussdxUk6CA3y5dtQQZ2cPOef2nOa9jBk+Wja7x+I2/OsnKP+SAvsmef+01kz19W6731fsP7m8ibfc/7TcqvJyJvEPQYAQTcBDxDOklJSV6X2IDNuQKEc5w7N/QMgVAL8Lt9anFX8EbvlbplJIhjXXIqI8elNe+Z/R3Ic/WU2cuXSfXatUN9iXE+BBBAIKgCBS7Oabaf2fulvx20JaBjfSNeuWxNYVkrf/nZD4HoFfCspMOHLJE1155vuhP79paEPr0iaxD0NiABPigNiC+sB/NleVj5OXkmBfjSPJNwYT6M+02YJ4DTZ0og5oprQvaBS6Y6yEFeBbjfcGEgEL0Cnr97BvMvVaNXMXwjs1bU57Oj8M0DZ0bAKQJZ9Xf7QKriuII4+m+dOnWMqfQM52iBhEA2O5b59Xw/TkgnkBnhWAQQcJpAq9hYWb862ehWsMM5eo6AAzqEc5x2CdEfBJwjYA3p2PEm0Dkji/6eWKui8QFL9M+3rxFaPyjlNRw51wEfkEbOXNHTCwKelbsI9kbG1WG93yTN/0R0uRk2BJwuwP3G6TPkvX/cbyJz3ug1Av4K8Lunv1LO2s/6vQCfHTlrbugNAuESiPb32oEEcXROXMGbhIQEY4qsQRxfc+b5h7QZmdvMLGeVVvuEdDKiz74IIBApAtZwTqi+Bws4oGP9kGRC4jypXIYPZSPlgqOfCIRCIG5AM9m6Y51xqlCkDkMxpmg/Bx+wRPsMZ2x8WfUvXzKm5Jy9ef06Zy7oScYFrB/kheqXoYz3kiNcAtxvuBYiWYAvgiNr9rjfRNZ80VsEMitg/d2TsHZmFUN3nPXerCFtDWuzIYAAAioQLb/b27E8la+qOBm9Uqzfw/pzrN3BHOs5Cen4MwPsgwACkSCwITlZRgwaZFbOCeXn0QEFdKw34sda95G41r0jwZs+IoBAiAUqt7nKPCMfsoQYP4On80zkp/x6IoMtsHu0CUT7X75E03x5/oLM6zeaZjfrjIVQYGTMNV/IRMY80cu0BbjfRMYVwv0mMuaJXiJgh4Dn754sdWWHavDaoLJZ8GxpGYFoEIik99qBVMVJb3kqu+bSWu0+vTZD8UfSnp9B9oiPlx7x/dPrGs8jgAACjhHQcE7LhrFmf0IZztGTZjqgw9JWjrmG6AgCjhfYunOdxCU2M/oZ6puc43Ec1kGWtnLYhDikO/yVuUMmIp1usLRVZMwTvUxfIOaKa8ydCPam7xWOPfhCJhzqnNNuAULIdosGpz3uN8FxpVUEnCrA755OnRn3flHZLDLmiV4iEG4BJ/5ur2Gc1atXiyuU4/rXH6vMLE/lT7v+7ONPQCcUwRxrXwnp+DNz7IMAAk4UGDFosFE5x7WF43vrTAd0WNrKiZcUfULAuQIsdeXcuXH1jA9YnD9H4exhJP3lSzidwnVuXr/hkue8wRCIlnLYwbBxQpvcb5wwC/TBLgG+CLZLMjjtcL8JjiutIuB0AX73dPYMcW929vzQOwScJBDO3+2dtDyVHXPiWfXe2mYwl7NKr++eIR3dn2o66anxPAIIhEvAc0kr7Ueow42usWcqoMPSVuG6dDgvApEtwFJXzp4/a/CSpXGcPVfh6B3lxsOh7v85ef36b8WekSFg/WKGKjrOmTOWmnHOXNAT+wS439hnaWdL3G/s1KQtBCJLgN89nT1f/O7p7Pmhdwg4TSDY77UDWZ5KrTTcov+rU6eOQeeqkuM0R28BnXAGc6w+2jd9726tRkRIx2lXEP1BAAFvVXMSEhLCdt/PVEDH+kZ864yfmVUEEEDALwHrUlfhSiX61dEsuBN/AZUFJz0TQ7Z+UMoX5pkADNIhvH6DBEuzYRdwlcMOR5nRsA/eoR3gfuPQiaFbAQmE8y97A+p4lB/M/SbKJ5jhIZCOgLXCGb97Oudy4d7snLmgJwhEkoBdv9tH6vJUds2V63tZpwRzPMdFNR27Zpp2EEDATgFvVXOc8FlzhgM6VM+x87KgLQSynoCrio4TboBZT9/3iPkLKK4GfwXs+qXa3/OxX/oCvH7TN2KPyBQI9l/aRaZKeHttfiBYq6Ykzf8kvJ3h7AjYKMD9xkZMm5rifmMTJM0gEKEChCedOXH16tUzKyRQedmZc0SvEHCiQEbfa3tWxbFWZklvfK4KOJFQFSe9sXg+r/dgVzgno8eGan9v1XT03FpR5/y//UPVFc6DAAJZWMBbKMfF4ZTwf4YDOtY34lTPycJXN0NHIJMCcQOaydYd64yjnXIjzORQouYw/gIqaqYyJAPJ6C/VIelUFj4Jr98sPPlZYOh8MeOsSeZ+46z5oDf2CnC/sdcz0Na43wQqyPEIRIcAv3s6bx5d4cnEvr0loU8v53WQHiGAgCMFfL3XtmN5Kh2wLlGim1OXp3LkpAS5U96q6bhOyfJXQcaneQSysEBawRynFY3IUEDHus7hY637SFzr3ll4mhk6AghkRsC6zJXTboiZGU80HGN9w6x/DV+3Vs1oGBZjCJIAX2AFCTaTzVpfv/wFYyYROczRAtYvZlJSUhzd12jvHNW6on2GGR/3G+dcA9xvnDMX9ASBcArwu2c49VOfm/Cks+aD3iAQaQKeoUstBODv5lkVhyCOv3Lh30//v0O/V/ZVBalGndpGJ6vXrmP86/o5/D2nBwgg4HSB9auTZUPyaqOb+t/eNqcuCah9zVBAh+WtnH450j8EIkOAKjrOmifKxztrPiKhN3yB5ZxZ4i8YnTMX9CQ4AtYvZqi8Fxxjf1rlCxl/lNgn0gUGDH9FEoe9bAyD+034ZpP7TfjsOTMCThTgd0/nzArhSefMBT1BIBIFPH+39xbQieblqSJxzuzsswZ0Vq9eLYmJiXY2S1sIIICAVwEnB3NcHc5QQMf6RpzlrbjqEUAgswLWKjr6psxVhjKz7XFc5gX4ADzzdln5SL4wd8bs8/p1xjzQi+ALxFxxjXESKu8F39rXGai2Fz57zhw6ASo1hM46rTNxv3HGPNALBJwiQHjSGTPB757OmAd6gUCkC1h/t9ff7zW0wfJUkT6rGe+//n+Kbq6qOr6q62S8ZY5AAIGsKGCtqqb/nxIpVdb8DuiwvFVWvKwZMwLBE6jc5iq+bAser98t618ruN4EszyO32zsqCX4+MI87NcBr9+wTwEdCJEAfzkdIug0TkO1vfDPAT0IjQD3m9A4p3UW7jfhnwN6gICTBAhPOmM2WFrZGfNALxCIdAHea0f6DAa3/64qO8E9C60jgECkC9Spc35JPN0iJYzjzdzvgI71jfiExHlSuUzNSJ9D+o8AAmEUcC1zxV/Dh3ESRMT1BX/dWjUlaf4n4e0MZ48oAdcv1byGwzdtfIEVPnvOHFoB/nI6tN5ef2mMiTEeTuzbWxL69Ap/h+gBAkES4H4TJNgMNMvynRnAYlcEwL65kQAAIABJREFUsogAfxwS/onmj0PCPwf0AIFoEOC9djTMImNAAAEEELBDIFMBHZa3soOeNhDI2gKugI4qpKSkZG2MMI6eL/jDiB/hp+avXsI/gXyBFf45oAehEWBZvdA4+zqLtZIqAZ3wzgVnD74A95vgG6d1Bu434fXn7Ag4VYA/Dgn/zPDZUfjngB4gEA0CvNeOhllkDAgggAACdggQ0LFDkTYQQCDDAhNmvixvzRxuHJeUlBTRpcgyPHgHHcAX/A6ajAjrivWvXgjZhX7y+AIr9OacMXwC1g/xEhMTzTXqw9ejrHVm7jdZa76z+mi534T3CrBWbiYQGN654OwIOEmAPw4J/2zw2VH454AeIBANArzXjoZZZAwIIIAAAnYI+B3QsZaypIKOHfS0gUDWFti6c53EJTYzEAjohOda4Au38LhHy1kpSxvembR+gaXL0+kydWwIRLMASxuEb3a534TPnjOHR8B1vyEQGHp/7jehN+eMCESCAL97hneW+OwovP6cHYFoE+B3+2ibUcaDAAIIIJAZAb8DOq6kfOWyNWVCwrzMnItjEEAAgf+x9xVgUhxb2ydAgJAQQvDg7hDc3d3dYXFb3Fnc3d3dncUdgizursE1ggXu/7+1X/dU1/R498zuUuc+97mXndK3qk5X1XnrHBUBSdDx/WSQF+C+H4PQ3ALplta3oyfXr2/xl7V7HwF5ied9zJUaeX3zv9fPfdcQWbNEwEsISH3jJaB1qpH6xnfYy5olAiEZAXn29O3oSIKOb/GXtUsEwhoCMmxhWBtR2R+JgERAIiARcAcBlwk6LWv0oBY1urtTl8wjEZAISARUBHiCjnyd6puJIS/AfYN7WKlVuqX17UjK9etb/GXt3kdAhjbwPuZKjbwnVUnQ8d04yJq9h4A0GngPa7EmqW98h72sWSIQkhGQBB3fjo58HOJb/GXtEoGwhoA824e1EZX9kQhIBCQCEgF3EHCKoMMz5SVBxx2YZR6JgPcR+N///kf4T7jvwnm/cidrzFYzBkspCTpOAmZwMmngNxjQb7A4GQLCd4MuDVi+w17W7BsE5CWeb3BHrb7QN2wf+7//UbhwIXcf67sRkTWbjYDUN2YjbLt8Rd8gdCdCeEqRCEgEJAJAQD4O8e088AVB57///qMIESL4tuOy9jCFwJcvXyh8+PBhqk+htTNyrx1aR062WyIgEZAISASMREASdIxE8xsq69Pnj3T++kk6enYPXbwZZFjYs/cf/6Xrdy/StbsX6N8Pf1PCuMkoQ4qsFCdG/DCL7j/v/6KTFw/TrmMbKG6M+NS+Xn+3+4pxOX35KB06vYN2Hl1PjSp2oPoV2rpdntkZJUHHbITtly8JOr7FPyzULgk6vhtFXxjMfdfb0FPzx4+faOX69bRq/Ua6cfs24WI5X65clDtHNipbogQlSZQw9HQmhLVUXuL5bkC8pW8+fPxIB48cpS07dtLK9Ruoe4f21KVdG9913MCaoQtOnD5DG7dtpzUbN9G1k3+ECKPTk2fPKHD3Xlqxbh2VKlqUOrVpZWCvQ29RUt/4buxCC0FHWdObt++gbbt20bnDB3wHmgE1Y/9y9MQJCtyzl04EnZbkKAMwlfrVABC5IiRBx1g8XS3NWwSd23fv0fbdu2njtkDatW8/Sc+Nro6UTC8i8Or1a9q5bz9t3LqdVqxbT8d376Cc2bL6HKhpc+fRzPkLKUfWLDSwVw+KHy+ez9vkzQbIvbY30ZZ1SQQkAhIBiUBIRUASdELqyITAdr1+94IOnNxOx87vo93HNmpaGLTqpUct/vLlP5q1ZjTNWTtGt5xfo8WkTg0HU9kCNT2qJ6RkfvX2BW07tIoOn95JJy8eUptVoXAdGtBmikvN/Pr1C23Yu4SOnNlF+09u1+TtUC+AGlXq4FJ53kwsCTreRNu6LknQ8S3+YaF2SdDx3Sh6y2Duux6GvppfvnpFJavWoNPnzlOm9Oko2s8/06Fjf6gdifrTT3Ri705KkzJl6OtcCGixvMTz3SCYqW/wknXu4qW0bReMMdp97MgB/al7x/a+67iHNcOAv3D5Stq9/wBt3bmL/vr7b7XEr6+e0XfffedhDe5lv3D5Cq1av4FhDn2lyPCAvtTTv6N7hYaxXFLf+G5AQzpBZ3PgDlq9YRNt2LpNs6ZDoxH5+YuXTO/u3LeP9YmX0Ngf381aS81Sv5o3CpKgYx62zpRsJkHn4pUrtHjlaqZXr9+8JXWRMwMi09hFAN+3uUuW0JbAnXTk+AlN2mO7tlPu7Nl9iuClq1cpQ54Cahvat/CjSSOH+7RN3q5c7rW9jbisTyIgEZAISARCIgKSoBMSRyWEtun4hQO0KnA23bh/hR49vatppScEnVdvn1Pvic1Voop/g4EEogpCM526dITGLOhFT1/+yerr1GBQiPYI4+zQ3X54jQZN70AXbpzSZHGXoDN8Tjd6988bK+KUJOg4OyLfZjpJ0Pk2x93IXkuCjpFoulaWmQZz11oiUwMBhOIpVK4iI+SUKlaEtq9eyYzvXfsF0Ngp01SQxg4ZRJ3btpaguYGAvMRzAzSDspipb0DQadO1O71+88bKQBwWCDpN23Wkcxcv0vlLlzWj4UvjNzwUzZi3gJGGeBkzeGCY8Vjk6dSX+sZTBN3PH9IJOj0HDqb5S5fRs+cvQsyadhdtkAenzJ5LFy5fJnit4MWXOsrd/oSEfFK/mjcKkqBjHrbOlGwmQWfBshV0+I8/aMeeffTwz+C7X0WkLnJmdGQaEQEQ0MdPm0F37t0LkQQdfH9LVKmuNrtowQK0Z+O6b2og5V77mxpu2VmJgERAIiARsIGAJOiEoKkBLzLhwoX32WtKV6DoMLwWHTmzW83iCUGnzZBqdPz8flZW18bDqE7Zlpqm3PvzJtXvVYz+fR/86rRFje7UskYPV5rrUVqMS/jw5sQ9/vP5farQNovaPncIOnznEHKs/TCLlyFJ0PFo6MN85m+ZoPP161dmUA+r8afxah99M/t1viTo+E5NmGkw1+tVWF8zno7kpu2BVKluA1bMmoXzqVrF8uz/f/r0iYpXrqZ60gkJL/Y87auv8stLPF8hT+QtfYPQKmWq11I7GtoJOvyIVW3QmNZv2ar+KSQYnM6cv0BZCxVV2zRh+FDq2KqFqRMN+5MIEcw5VxnZcKlvjETTtbJCOkEHvQGxsEbjZiFuTbuGtDZ12Rq1afvuPSFKR3nSH1/nlfrV+BGQBB3jMXWlRDMJOko7xHMT/h4S9kuu4CTThjwE+gweSsPGTVAb5o3zuKP7uPcfPlCSTFlUsu/qBfOoeqUKIQ88E1sk99omgiuLlghIBCQCEoFQg4Ak6ISQofrw8T017luKujUZTtnS5QshrbLdjKnLh9C89ePVBO4SdA4F7SD/kXVZOVF++Il2z75GkSJGtqoYIbV6jG+q/n3j5FOUIE5S03EKPLKW1u1eSLMCtC6fjay4RPPUhJBXEE8JOi/fPKOSLdKqzZMEHSNHyjtl4eJj//79VLhwYQoICDC10m+ZoNOyUxdK8Ntv1K9bF1Mx9kXh/75/T3lKlGYucgvly2tqEyRBRwuvN9evtwzmSg/D8poxYpHwxvfTB/ZSlkwZ1WL/+fdf2rFnL6VMnpwyprN8o42o91sqQ17iWY82SJgDBgygQoUKsX2DWeItffPk2TOKlzq92o2wRNARjQMhweD09z//UNQESVS8p4weQW39mpk1jWj52nU0a8Ei2rd5g2l1GFWw1DdaJKEDFB1j9vkkNBB0gM6ICROp18AhKlAhYU17Mv9Doo7ypD++ziv1q/EjIAk6vtsHomZvEHRQT4cevWjyrDlhRrcavxJkia4isHbTFqreqImazWyCjrP3cSCkQa+lTZ2KEsaP72q3Qn16udcO9UMoOyARkAhIBCQCBiAgCToGgGhEEUNndWZEkJkBGyl7+vxGFGlqGbPXjKYZq0aodbhD0IFnmhqd89K9x8ExhuuWa0VdGg3VbffHTx8ob33LhrV6iSbUq/kYU/sIzz1V/XNRlrR5aM7ALabVVbF9NjVkmKcEnfcf/6X8DRKqbZUEHdOGzbSC+YsPVALDG8SMy/BvlaADA1Fdv5Y0sFcP6t+9q2lj6auCQaSAAWzvpvVUpIC53xNJ0NGOsjfXr7cM5uhhWF8znq5VvJD7PlY8tZgbQScoRTLzScSetju05ZeXeNYjJnpJM4us4y19AzLbT/ETqx0NSwSdwaPHUv9hwWenqD/9RO8e3PH5Evz8+TNFjP2b2o7p40ZTqyaNTWnXtRs3KU3OPFQgT246uG2zKXUYWajUN1o0eR1g9vkktBB0psyeQ+2791KBCu0EnUGjxlDA8JFhpj9G6gN3ypL61R3U7OeRBB3f7QNRs7cIOv2GDqchY8ZJXWT8EvpmS9y5dx+VqmbxNG82Qceb93GheVDlXjs0j55su0RAIiARkAgYhYAk6BiFpAflbD24ivpPac1K+JYIOgoBRoGuR7NRVLOU7Vebg2d0pA17l6hIb5t+nuLEMIdl/u+Hf6hR7xJ0++E1SdDxYG47ypqtZgyWBAYlMwgojuoPib+LBn6+jUaTdb5Fgs6lq1cpQ54CDNawSNBZvHIVNWzVlvVPEnS8v8K9uX69ZTAP62vGiFly49ZtSpU9l1qUJOgYgap1GfISzxoTe2EMjdxbeUvfSIKOOWvHVqmiAXnm+LHUonFDwxsBTxK5ipWiy9euSYKO4eh6p0CRoGPm+UQSdLwzpmItkqBjLO5SvxqLJ0qTBB3n94HweGa0R2ZJ0DF+TssSvYOANwk63r6P8w6C5tQiz/bm4CpLlQhIBCQCEoHQhYAk6Ph4vE5fOUrNAyxxRr8lgs7h0zup44g66giM7DyfiueuaHNEQM4BSUeRPi3GUdXijQwfwU+fP1Lvic1p34mtrGzpQcdwiNUCJUHHGlt7Bn6jL8O/NYLOo8ePqWDZCnT77j0GZVgj6Bw8eowKlbPoUEnQMU932SrZm+vXGwbzsL5mjJohx08FUe4SpdXiJEHHKGS15chLPGtc7RF0lNRGGGm8oW/QXknQMWft2CpVNCDPmjCOmjdqYGgjPn78RHX8WtD6LcHnKulBx1B4vVaYPYKOeD7xNOSeJOh4bVg1FUmCjrG4S/1qLJ4oTRJ0fLcPZHcnAweq3p0RqrJw/nzGDzIRSQ86psD6TRfqLYKOL+7jQvPAyrN9aB492XaJgERAIiARMAqBEEvQefX2OV2/e5Gu3D5HL948oXgxE1KS+CkpT+aiFD58BJv9RyikPcc30ZcvXwjhgiCnLh2mkxcPUtQo0ahE3ioUJ4bFlbdS0P/+9z/68/l9unrnPN19dIPixkxAKRKmoeSJ0lKE8N87xBt5UMfDZ/foyYuHFCNaLEqVJCOlSpyB0ibLTHoX6CJBBZV0rD+AEUIg4b4LR+lTZNWtG6GMgA/a+/nzR0qRKB37b8zocRy21YgE9kJc/f3vO3r68k+b1fwU5Wc2Bsu2zqCxC/uo6cZ1X0qFslsMXGIBh4J2kP/IuuqfG1Zsz/AyUoBrtzGN6Ni5vWqx8eMkoaEdZqr/xtyIFT2uVbVBl4/QlVtn2Tx68fopJYybjFInzUhpk/1OCePaDnVhK8TVtTvn6cqd8/Tg8W2KHeM3ypAiK6VMnJ4ifh/JZpfdCXGFUGPwFIS59Pz1E0ryW0pKnjANJf4thZHQ6pYlCTrWsDhr4OdzuhvSwhcEnecvXtKZ8+fp7IWLFDXqT5QxXTrKlD4d/Rw1qhUYr9+8oT+fPLE5D6P/8gvFiP4r3bxz2ypNlB+iUNLEidS/37x9h3AAfPinRTfVrlqFOrZuoaZBW36MEkX9N74L+w4dZpeBg3r3ZH9HiIZ1W7bQ+/cfqEr5cpQlU0arug8cOUqnzpylu/cf0OOnTyhFsmSUJWNGyvZ7ZqfD3qBuEImAU9DZc/Tx00dKnjQJZc2ciXJnz25V59adu6h8LYt+RIJRAwOoQN7c6vckZzb974knC12GuNKi5831a7bB3J01AzSuXL9Oi1esJv/WLSl2rJiEdbxszVq6c+8+lSxSmIoWLEARImj3cZ6sGawVrBOsgQa1alDihMFhHs9fukx7Dx6i+w8fsnVTulgxihnjV7vTHaGqNm0PpItXrtK9Bw9YWenTpKF8uXPS4ydPKV7cOBQ3dmxWxuOnT1kayB8ng6hT775q2fOnTqY0qSzf0Gg//0xpU6XSrfvr169srV+4fJmuXL9BsWPGpAzp0lCalCnpl2jRnFqez56/ILzWy5MzB+XNmYPQj9UbNzHdkTlDeqpcriwLqcMLdOGJoNNUsmgR+unHH9lP/75/T6fPnacz5y9Q9F+iUY4sWSh1Suu9wK07d1m6B48esd/z5MhOv0aP7lRbPUkkL/Gs0XOGoMPnctcTn9n6RmmjuwQdrMcLly7ThctXmH5JnyY1pUuTmn6La71ftzUHr964wXQG1iP0RpxYsen3jBnYGsL32xmsoY+u37xFx4OC6PK16xQ+XDjKnyc35c6ejabMnuuzEFfv/vqL7UuOnTxFL1+9otQpUjB9gf+NHNfijXT2xPHk17C+LkSfPn2iTdt30LWbN+nOvXv0199/sz0c9kE5s2alWDGDvWLygvGs1rAx7dizT/1zsiSJaensGeq/EyVIYDVO7tTliW7Ryyv1jRYVZwk6or5xx0OqLwg6IFPgG4xv2/lLl+iHyJEpedKkVChfXrb/1hNbIa5AStuxdy9duXad3r77i3Jlz0p5c+bUXSN65eIbDv2BtuAclCZlCrYX0fse25r3WJ/QhzhzXb1+k+LEjsXOIKWLFbW5t7BH0Hn77p3mDCXWi31Ogt+s79jcXZfYg964bX2+gy7F+Q8CnKCzv3z9alUN+qmnszE2uw8cYGPTtX2wx9Gnz57T+q1b2Rnvv/++UI6sv7PxcjZUqRH6Fe1wdS/srn5FXfhW4ZyKOYZvX6IE8SlD2rSUIW0a+v57x3efh479QSCnX791i40Hvrk5smahKD/8wIi26VKndnfo7eaTBB3f7QNRc0gm6BhxnkIfUQ7OQfD4d+nqNfqOvqPsWX5n+8AkiYLPmL4Qd75RYjuhx9EnfOPevn1HaVOnYmsVd2bhw4d3qlvePj8apbPdIei4+i129z4O9ew+cJDu3r/vVJhZT8cRcwnfG/x3cJ/gMJ2Y9/ienjh9ht68fUtFCuRnBDzshcwUudc2E11ZtkRAIiARkAiEFgRCHEEHxJz+U9poCBI8mCBLdGk0VEPkwAHz8q0ztOPIOlq/dzH9+/5vKp2/Og1uP52Gz+5K63YvVIv4NVpMCpxxSUPyAfGj96QWLJ8oieMlp4A2Uyhz6py6Y/runzc0eekgtQ4QT0CUuXL7LL16+4LlqVXaj7o2Gc4IN4ocPbuH2g+zxEC1NWGCVr3U/ATyy+CZ/rT72EbdLI0rdaTm1btR5Eg/mDoH7RF0QIgaNqsz3Xt8y6oNUX74iRqUb0stanSncQv70tKt09U0fVuOpyrFbLtVv3gjiBr1KammL5itNI3vsdTQfjbtV5bOXTtut8xuTUZQ7TLN1TR3Hl2nkXO708mLh9jf0iTNRFF/jKb+G38b2nEWlc5XTbdckaDTskYPRlxSPPiI83989yWUPGFa3bJcIeh8/d9XmrduHE1fOVy3LODb02+UaWHEUKkk6FhD746Bny/FlZAW3iTo4NKzZpNmzGguCgzHk0YOp0Z1amkuU2fMX0Dd+w9kRiC9PP27d6XqlSpSgTLlrS6NQQy4dvIPdgmNi4R0ufLplsOXe/rAXmZognFu1YYNNHvhYvb/0b53D+7QgmUrqEnb9pqmXDlxlBnSISAmtOvWkx1uISAFoH7l3/jbsjkzqU61qnZ1DIxotZr6qZ5+xMR4fT593Gh2WQ8J3LOXylSv5VAX/u/1c4dpXE0gCTpaxLy5fs00mLu6ZkDC2bB1O81fuoxwac/Ww4mjjMgGr078GuYNwO6uGZCwT545Qxu3BtKSVavV9X9kxzZKniQJte7STfXWwI/Q4pnTqH7NGrrTHJex9Vu0ZheyEKwzEH/4tq9bvIAR8yDT5s6jtl17OLVkyhQvRttWr7BKO2fREurcp59N3VSuZAm21hPGtw7nqVxYLlm5mlasW8/KBrbVKpan4pWrMaOLInWrV2MGcRhNtgTupPnLlqkG8/sXzzJCQ4+AQYzkI0pAj240oGd39mcQc3oNGkyrN2yySte7sz8N7WchXTsFjIuJ5CWeNWDOkEZswewKWcdMfcO3z1WCztETJ6lBy9Y2v5epUiQnEOZAXLMl0F89Bw6mWQsWsSQwMmdMl5aCzp0jkN8g7Zr70cQRQylcOMtZTiwP+4UKteupOoT/HfsIrGNFvyj7CheXgMvJcUYeNXEy658iqFvRaxVKl6LNgTvU32wRdGB06NCjl4ozLu0xVidPn2F5UebhwK2McM1L/tLl6MjxE3bbjf1f+xZ+ahp363IZHAcZpL7RAuQOQUcpwVUvXt4m6GAf0aBlG5szonHd2jRq4AArgo0eQQffx3bde6i6gy90+dxZhMcBtgQGsqFjx6tEPjEd1uvUMSN19wRKWpDbeg8eSmOnTNOtBmu1e8f21NO/gxVZ2h5BBw8WWnXuygiIoqDMLu3aEPYLRgnOYBOmz7TSp8d2bVcfKmDf5tfBX7PfUer//Pyx2j9gAmLHmk2bacXa9Uz/gSiIc2LA8JE0bNwE3WaPHTKIOrVpZZOcaZR+dXcv7I5+RUe37NhJdf1a6u49HX0zQfBs1t6fNm7bzjDDWRfGXMU7Lf4Ggv74YUOMmgqaciRBxxpWb+0DUXNIJeh4cp7iEQUhsmm7DhpSMf87dB32PyCjgdQCQh/IjzjnmSnufqOUNuFc37RdR9q1b7/N78LEEcMI3zq9+eTt86MZOtsVgo4732JX7+Pw/cAeeu3mLbRg2XK2Z8iXKyfbS9sST8YRj3DwHYc3y1XrN6r6H/eDeNDTsFVbq+8t5vvxPTtsPjIyYs7LvbYRKMoyJAISAYmARCC0IxCiCDrwQNJzfFNGbAE5oG2dPpQsQWr2754TmtGZK8dUvEd2mkfF81SiExcO0pBZnejR07uasQBBB55OFmywPnAvGLqDMqbMTjxBAcSdmqX8GLnm3uObtHTLNJVgg4L7tZpIlYtqXxQiFFKbIdXUdvEeYPBbrwnNaP/J4MNr9ZJNqZffaLWNIJucunyYbt2/StsOWQwiSBcvVgKWLkK4CFS/QvDLHsi9P29Sp5F1GfGlSM5yVCh7GcZ0P3JmDwUeXqOmA6loyYi9BDKMWWKPoIM6gW3TvmXowo1TrAl+1bpSxcJ1CAQrRZZsnkrjF/dX/92kij+1q9PPZpPR/6r+udTfUdamyUGGdnHx5in05esXzfijnqrFLcShHBkKUvrkWVi9j57do8Z9SrK5AryXjthHieIlY7/Bi1DzARXUuTms42wqlc/aMM8TdOAh6v6T21bzWezk5N6rKO/v1gdBZwk6IHoFTG3D5icIReUL1aZYv8ZjHoAWbJyoqW756APME5QZIgk61qh6auBXSnTmMtxbBB1cBMJoBenQsjnlz52bXrx6SYuWr6I/TgXrCEiDWjVp0YypGlBgiB88eiwNHGnRn0hw8dghlaCCQ/QviZOzgyaIOWsWzmcHXMWQhsuWxStWMWMSylKkVLEiVCR/fs2/W3furmkTfsThFJfqooca/AYvNd06tGPeQXKXKMUO10gftH8PpUwerAtwmAZJQbm8tHVBj4M6jP4g+UD6detCzRrUI7wuv3T1KuUtWVY9TPMHZrxgxIUlvH7gAkeR1k2bUOKE//c9iRCBXZ4bLZKgo0XUm+vXTIO5s2umUd3a1LFnb3bRI8qWlcvYJadi4FZ+V8gqnqwZkFrGT7N4YFDKnjxqOFvjYp182y4cPcheCfOC19OZ8hdk+WpWqURTR49i3nawJsdNnU5d+wWw5PzaffHyFTNyQE6fO0eTZ81Ri0T4PKxbRX6LG4d5qlEEeVv4d1ZJRD38O1CLRg3Z67Vd+/fTlFlzNZdk86ZMoib1LCFB0XcYlUTyIgzdqzdsVElSfB+7d2hHoyZNsRonkBdgeNcjQiqJd6xdRT/99BOVrlbTbrols6ZTvRrVjVYzannyEs8aWk8MM3xpjsg6Zuobvh3OEnTw2hSG7AEjRrHsMFxj3cFQcujoH7Rw+QravnuPWnTntq0ZgSxyJK0Xyg8fP1LJKtXVNbNx2WKqWCbYmydIcCDLKoZIfFOnjQ2uTxS4tMceAesIr5EXTJvMCL/Yh8Bg37xjJ83a8QZB5/2HD9TSv4tKvBs5oD81qlObYYTwhV37BqjkPqU/cyZNYPsOXvgXwTBMbVq+RPXIxRtL0acTe3eqpGWUMWbyVObVdty06apehmEc+k4ReFWDsQviSV1GKx6pb7SIekLQcUXXIK23CDowWOH7N3dx8IMfkHjLlijO5jdIx3hYoAiICAe3bdZ42hQJOiDPOCLuntizU53vPC54Ed+odTumb1BXw9q1KH68eHTq7FkaOWGSZjDOHtrPPHuJAs9ftZo0Z+cYrDPsHeA9E/oSe6PR3B6gVZPGjADMi6MQV9ij5CtVTj0n4ZzSuG4dVpdZ0rhNe6bPFeEJOsrf4EHt9wKFNXs/haADz63Js2S32rtgjAvmzcN0jj2xpfeN0q+e7IVd1a+80Rnn5bZ+zRgZFaQrXkcDD71vAfbEleo2YKROEHk2LVuienWC4bdoxWDymd7cMmp+SIKONZLe2gei5pBG0PH0PMWjiUcIWQoWYboCRO0d61YxL4MgLyBMJ09C4/OVKFKYdq6z3L8YNddRjqffKJSxdtMW9sBM2Z+OHzaYMmfIwDy3btwWSPiOKYK7sbmTJ7JvjyIgeIvfIPxm1vnRLJ3tLEHH3W+xK/dxOBfgLoP37A1M7RF0PB3H9Lnz6z4gwL7HHkGh5z2JAAAgAElEQVQZuh73moq3XSPnN8qSe22jEZXlSQQkAhIBiUBoRCDEEHQQyqp+z6IMw+olmlD3piM0Xm6u37tIdboVUjFWyBlPXz4ieKNZGTiHbty7ZDUG8HTy8s1z2nVsg/rboUX3KUrkH2nO2rE0feUwAjlnzsCtmpA+D57coab9SmtIOhsnn6IEcSyhijbvX04DprVTyxW93aA9tbsVVH/fN+8m/fyTNgQACBJdRluIPwp5SOzIu79fU7m2vzMvP/XLt6FODS0vIZEWXnx4YkWNUs2oZzP9S2QjJqo9gg5CJo2a15PW7JrPCDkj/OdSuuS/W1UrhqwCsWjdRNuvLG/ev0y1uhawmgNG9Ecso0bnvCzsE9soZylOk3qt1K0mYGpb2nIg+NIIpKkxXYNf3yqyasdc5l0HAiLM0pEWF+9KGp6go/wNBKCiuStQrOjx6PTlI7Rh7xJNuZizGyefZvOYF2cJOq0GVWYefjKnzkVT+qzWlCOOC8JqLRq2y25oLXfHQBJ0rJEzysDPl2yLrOMNgg5cpxYuX4k1Z+2i+VS1Qnm1abh0KFezDiOXqGtm/lyqUbmiBhhcKJatWVvzmgmGOHjQgazZuJlqNG7KLtQv/XHY5stSXOLESmFxua2Qa5TKYIxbvnYdbdmxg11miIJLi0zp02suuA9s3cQuePkLZHjYgKcNXqbOmasSb3DxjoOuKPxFv56nD74M5G3RuCHNHG8hHOFSv3I9i9FL7xLb3bVqK58k6GiR8eb69YbB3NGaQe/xEutE0BkaMUFL7sRvMNogXApeQSukGbhS7tu1s0dr5smzZ3TpylXqO2S4LqEO5UPXwACBV+QwOikC4zMMD7zA0N93yDD2Jz3Dl3I5CQIhiISiwFhRsY5lL3fu8AErTxJKHugz6ETF01CvTv40rL/W8wwIUrgk5olG8MCjvNCE8e34qdPUb+hwXcLMkL69mZFP8W4Bozq84OCVNsg94gt4xYtZ8cIFCWEqlq5eQ607W17CKx43gGfvzp2ocrkyFDNGDDb2/KUeLvHwIt0skZd41sgaZZjhS9YLm+kNfYM2OEvQATFHIe4i7OORHVs13m1gkC5fu65m39DTvyMND7CEokN9omc80dMcvP5lzm85f768fd0qnBufBuSc/Vs2WnnagCe9YpUsJH2spafXr5i1VFi5IBcp5EkQi2Bo5gXEmZJVa2i8/MEw07S+JVwmcEyaOZtqRBC93aC86o2aqHsmkA1HBFg/tuANA7Y8ihlVl1GgSn2jRdIogo6oa/BvMQyWtwg6VRs0Zt8xfOMObd9iRXpRflfaDIMkPAwoIhJ08Hd4kYL3EJwNvnz5SmOnTqM+g4eqefTOCPgR+gF6Aga6QJBi/y/0JH7jHzoodZzYs4siRYqolgvja4qsOdi+AYS3wDUrNboKZ66kmbNq9hU3gk5owjjZI+hgfbbv3ovg3RR7u5Xz5rCwL2YLDJk8UcrW2QakZ3jdUYT3oAMdDa+CohdUpIW3F5ynEOIYhnjs98Q90h+7AilX9myarhqhX1GgEedHZ/Qr6hoyZhzbN+L7c3DrZk3INIQUy1e6rGZ+3Dx9UhPeDURUPDiBgBAPz3K8KARLfEPwLTFDJEHHGlVv7QNRc0gi6BhxnlLQBPkM3kcVr8e7N6ylYoUs9/jQH9kKax9Hjhk8kGWHHkQoRDPE02/UngMHWb8g+M5dDzquhmpW2gvyZv9hI9TmY099OHCLGvIKd3nePj+aobOdJeh4+i125j4O3j/hJQjn+V4DLd7GbBF0jBhHhDQ8dOwYe3QkPmTC2QUhH/HY4dPnT+TX3l/zyMGeB2JP573ca3uKoMwvEZAISAQkAmEBgRBB0Pn69Qs17lOKLt06w7yQ7Jh52Yp4ALCrdsypCZt0ZPFDNZTTh4/vKV8Dy2tlpG9VsycL9wS59eAqHTwVSIVylGFeeZ6/fkKlWwa/PEIorLIFrA0uoocXeOyB5x51Mzujo4Y4wbcHaeClpFBjC6Fnap81lDuz5QU10ogEnYVDd1KGlNoLAKSDpxm0ByG0tk47b+V68uOnD1S8eWpNmK4Vow8SyBVmiC2CDsahz6TmrF8gfyAcU7Sov+o24c/n96lC2+AXk4qsGnvYZvgmeOPBPFEE5c8bvM2M7pGzBJ2yrTMyTzkQvfYcObObOgy3hJ5RyGF8o0WCDkg+IPvwEnTpCLUYqCUttK7Vm/yqddGkc4agczAokDqNDH4du2nKaYof2/rVW8cRdejw6WDPABCQvUD6MlokQccaUTMM/Hwt/Ct5swk6MP7kLFaSXYrqGcXRrhNBpylXccu6xuXB67s3reJgw2CdJkcejTH69tkgdoGdIW9+dtDcvGIplS9lCYMnoiuSDUYPGsAOo3rCHxbxO15HbVu1nLlLR13wVINLeFze4GIsYfrMqgFL73CNl/xla1gu9f96eFdz+Y7+xU+bkTUFYW3gfUQUPg1+E+sRLwT0LpSNXsOSoKNF1Jvr1xsGc1fWjHjBB2QeX7vELgLx0njlug0ULtx3VLNKZebFwtM1g/JFYgyMRttWrdAYHXDpGi1RMlV3wHCFF+y8wEituP2+fPyIlStnvJrEC2xb4V9cIejwhAAYSaDHYBgSBaHuchQtof4ZrznRNuhIRXgCpPK3vZvWs7jx6Df6dOnqNRbWK1bMGCzJhq3bqEr9RmoZuJTbtno5JU6YUNMEuLrmQ15B34EkxL+qRAZ48uEJUM9vXmPeh8wQeYlnjaoZhhlxz1CoUCFmlNm/P9g1vhnhEpU6nSHoXL1xg9LmtBhDlPCUIjoIXZUpXyHNC1UxLcKjKN4zkP+fP+9TlB8sYYLxkhYe+hSBNyneGxb+Xrp6TZUIxBPpxPbw4UjMJujg8j9fqbKsCbZIwfhNJA6JBB1c6MOorwiI0SBI88K/rtbTr0jrjAHZqLqM0j1S32iRNIOgI+oa9k0JCPCKBx1+Xw5Dq56XyXWbt1C1hhZiG4iufBgnkaCDcJLwWsMTZ9CnOKnSagxiog7l9xDYEyB0iijw0MV7e4G3njbNmqrJ+HV4fPcO5jlHFHg8nDRztvrnPRvXETxYKWKLoANyD0Ii4ZyBswc8jcX41ZzvvNhmZ42qopcHnqCjlAkiNR/STyRcIR10fo3GzTShYEBy3rfZ8tjPKP2K+ozYCzujX/kzpC1jKwjtisdItA0PZlbNn6sOycQZs8i/VzChHN6X4CmHFxAmEmfMwshpCKtqhkiCjjWq3toH4sFXSCLoGHme2r3/AJWoYvEAKu4FgToeJPCeih9duUC/xY1rxjRnZXr6jcLZO0Oe/KrnnymjRzCvWaJg3YIEyT9O00vri/OjUTobfXbmW2LEt9jV+7jUOXKrpFC9O0SjxxE6ng+BCdL8inmz6eeoUdWpAUJWulz51H+bGcZa7rVNUyGyYImAREAiIBEIRQiECILOxn1LadD0Dgy2Tg0GacI68VjyZAcxZBQ7RHJeT+BhZPuMixQh/Pe6wzGYI9fsn3+bov4YzSrd1TvnqV4PC6EGZe6aHexVBYLQVP0mt2b/X484A08yOevEUdMP7TiLSucLZrArIhJ04KkkfQrthQq8+VTukJ1lASEDxAw9gSceJaQWfh/YdhqVL2Qhhxg5L/UIOgjz5D+iNiNagcw0qO00ihQxst1q+XFAQniOmTVgs0q8UjLD0DRp6UBatGmyWp5ImDKyf/xcyp+1JE3sudzhPKpQuA4NaKMNH3H6ylFqHlBBzbt12jkWeo0XnqBjry54JBo+O9hjCARktoML7mrIWo4IOv99+Uw1O+djRDeEeYPHJj1Zvm0mjVlgmWd6fTMCb4WggwO/+HrSiPJDYxkHDhwghURjdvuBu5kGNz5etp5RC/3DpUD4GBY9ib+JL/YUHMSX7jhQRo4cmb1+bd6oAc2aMM4uZCLZwNaFPAoRQ+jwIbX0KuGNfHhdi0tfXvhXh/j7vQtnNCFweGO4rYt1ptf/f6gvJaSH6M1DvBCwV45Rc0sh6Mg1HIyoN9cvP4ZmGcxdWTPixd2McWOoZRMLEUScc56uGZQnvmiERym8hBZFfAX/5eVTjbcN3nAOg8TC6VPph8ja/QvSNKlX1yr8C+pylqADwgCMF0o4KXiagMcJWyK2W/QAAjfgsVOmUbMjPBdetdsT3rCEdDA6wfgkivhq/XDgVmaYE+XI8RMEbBTRIzgZpW/4S7x9+6w9EhpVT2gqB0Zzb4tZ+gb9cIago7xuRXp4tgtcYwkVLGIhep4TCST8PgUkuPsXz2r21fAa8X0si6v/ZXNmUp1qFk84gXv2UpnqwWctEASvnzpuRTBW2gSvVPA+ATGToIMzE0JiKiFE7b18hXt9GIgVEcPpKQZXxQ3/wulTWOgdXhSvDPgbMHxw6ZzVlOQNyLZIyEbVZdR6kPpGiyRP0jMKY0fliMQIR+md/Z03eIH0CjKxHlEWDw3gfQCkAKzZXevXarzjiQSdJ9cusxByoojf8r8f3VPr+/z5M2XIW4AZ6OC5AB5i9IQnR+B3/qxx+do1RoKD2Fpf+I33zgfS7fE9OzVh//QIOniUAG9k8Mhna3/kLO7upHPGqIpynSHoiOGy/nvxRFdfK6Rsvr2KMd5I/YryjdgLO6Nf+XrwEOaXaNZ3n+KeWvxO8YRseEwEwQs6nxecUREqCN8dM4Qn6MizZzDC3toHAm+Icndk6/xgxLjD0xP2FoqI+06jz1PDxk1QPZ3ZCkEqEjaVBxFG9Fcsw4hvFO8dFuXrkRaVes9dvMTCBPICL4/QAYr44vxohM5W2u/oW2LEtxh1uXofV7BsBdWrrh5Bx+hxFPcS8D6Oxzq8YD+OxwnKfUWlsmVow1JtpACj5r0k6BiFpCxHIiARkAhIBEIzAiGCoIMwUEp4Kj2CCg8wvNL88/5vRogRpWm/snTu2nH2Z3tEh8//faLcdS2XrXploYy//n2n8UjDDiQcmQcH9KDLR+ja3QtUMFtpShjX4i0Hv6EtzfpbjBa9mo9h4bt4sSLoDN/NSCq8zF03jqatsLhGttVexZOLkrdxpY7Uvl5/U+anSNDZMOkUtR1anR49vUv1yrUm/wYDKVy48A7r5j0ZKYmBZePKHShtst/pzV+v6NSlQ7Ru9yI6c+WYprx2dfpRkyr+DutwJ4GzBJ1Pnz/SvhNb6Z/3f1GJPJU1RC/8tipwDvN+pIiehyCeoFO/QltGUtMTkXyDNIEzL1Gs6JaXG44IOsDQL8ASYsjZuWQrPJc72PJ5FIKOp+XI/J4jgFehEP5lqKel8kY0HPAjfm9xxc6XLcZfhvcYXDCLAr2KkFh4UcSLnmcJvbaLZIOxQwZR57bBJEtRRK8QX189s/Jcxuf58PEj80zx7t1fBCM5f/GJ0Fm4xOdfJV44epAypE3Linj1+jXFSJZKLU4kD4htwwU7yAPRf/lF85N4IQAvITBGmikKQcfMOmTZjhEwY/2iVlfWjPj60BFBzJM1oyAiXijaIugg/BbvQvrdgzsaTzRiaAQYrvCaLG0qy7rEuosVIwZ9/7018dtZgo7oSWvNwvlUraLlmyyOtEh6EskFeNX+42+Wl/b2SIdK2cdPBVHuEqXVqhCOR881u+jdzFZYCdGbiZmeu0TPZo5XhkxhBgIwmuO/Ru4XlHY6Iui8efuWoidJoXarfQs/QtglW/L02XOKmzqd5ue392+rL0Wxr4DB7+yFi8y1e4pk2rMcCGgFyljWqOg1gN/ndGrTisYN1YYg5ivmjd9mEnQO/3Fc0+ZnN65ahdxS2gUX+5HixFebqedRAkTA1Rs3UqwYMal6pQqavRD2L2279qAV69azMmwZtpwxICO/EXUZNeelvjEKSc/Kwf4G3yg9Iqm7JfPfbHuEFqX8G7duU+KECShiRO05RiTovLh1TdezjLgH+fPqRYoXJ/hxAsJdwkCniEh4UP4unpV4z1j8i3hH+wCQDu/cu08pkyezgk8k6CAEVqlqNZgHBug3eB4NH97x/Y6746KXz5FRVcnjDEEHIa7w2MOerlLK4wmV+NuRHdsob84cZLR+NWIv7Ei/inre1hyD9yDFIKvgwJN5EP60fgvLuRn6Hp5y8O1UBGXAuCueUY2aEzxBx6gyZTnuISB6FHOvFP1cjgg6Rp+nRK+hemQW0ZOx3n7JKAyM+EYhJBdIdxBnQhDzegR5RI+Qvjg/GqGzlTFx9C0x4luMuly9j+PPEXoEHaPHUXy4oEfQQT9478K2vGMaMd8lQccIFGUZEgGJgERAIhDaEfA5QQcePXLVsRAMds2+Sr9Gs3555AzQIB4oJI7COcrQ2G5LdLPdfXSDqnXKzX6DF5KcGSyufR3V07XxcIoXSxsGgM/z7u/XtOXASlqzc54mHBfS9PIbTfD8w4tI0Fk8fA+lS66N591nUksKPLyGZUMYpeg/O+dSOFOqnNSoku2X2Y76au93kaADHP99/zfLcmjhPYars3Lu2gnqOqYBwQOPK+KIzOVKWWJanqADwtD4HkudLg4ej9bvWUSrd86zInitHHOIUiTSGgqcJeigAQOmtaPN+y3efOYO2kq/pwmeyxBHBJ0NexbT4JnBpKbE8ZJT0gQW46O9DkaO9CMN7TDTaQycTSgJOs4iZX46xdhm5AX4zwmTal5eONsLeN2Adxw9uf/wIfNAwQtedOBlhyMRyQYwpOHCWU9suXl3VAf/+83bd2j2osU0fe58qwvP80cOUsZ0wQQd/kWSMxcottogXgic3LuLxUU3UyRBx0x0nS/bjPWL2l1ZM/sOHaaiFauojbYVdsZer5xdM0oZzhJ0xNdiIkFHfBWolN+uuR/17uKvGtJstd1Zgs6YyVOpW/8BajGO1igMNz/E1Xrd4198g/wXOa7FuA6iAggL9sTZC9YLl69QpnwF1aJsEXRg6Ev2uyU0qy3Cj/Oz2XZKaTA3AkVjyjBL5zgi6Ijz1953XOkpwkvyxF5H5FWQThatWEXT581X3c4rZU0bO4paN7U8tuD3OeOHDSH/1i1tAsyHATSToDNrwSJq2ckSAtcewRgvhiPGtjx6cdbgBEMG6uHDPaDjzhB0YMzdtFz/jK4Hnqt1GTPDiaS+MQpJz8oxQ9fwhJkOLZvTxBHD3GqkswQdcU3yoVHmLFpCzTt2YvXjDMATg+01Ch5/lDBCvCFt7aL5VLWCbeKvvTLFsw/Ws0LYEPdNbgHmRiZHRlWlSKMJOiIZRfFE5g396upemDes6+lXnkiNMeXDmjkakokjhqohUEWvJUpeeLIb3r8fZckUHKrZTJEEHTPRda1sM3Sz0gJHBB2jz1PdAwbS6EkWT+hXThylNClTagCBR7UIMS12CzPPO55+o0Tvj87su9B/4KCI+JDNF+dHVwg6tnS20h9H3xIjvsWoy9X7OHsEHTPG0VmCTuV6DVlfIJKg45pulKklAhIBiYBEQCLgKgI+J+jwZBk0/sjih1bhjZztlLMEnQOnAqnzqHqsWHirWTR8t7NV2Ez39OUjWrhxEq0MDA4tkCdzUapTtiV1GG5xA+4MQWfJiL2UNpnF1TjK4j0MTeq1kvJlKe5xez0tQCTo8OWVyleVhnW0xDd3pq5Xb5+zEFYnLhwg3hMQPLxUK9GESuevRs0Dyqu/gQC0f94tCh8+gjPFu5zGHYLOxRtBBG9HB4MCWX1VijWkVEky0Mi5wZ5JIJ4SdNbtXkhDZ3VWyxvcfjqVLVBT/bcjgs74Rf1oyZZgl8ONK/tT+7r9XMbGyAx8iCvFba6R5YfGsuA2WHEd7M32Gx2y4uWrVxQzucVdKv9i3dN+zV64mODxQhG9kFJ6dYhkA3vGNE8IOrjAgDtaGO0hCL+VOUN6atetp9osnqDDXwh4cgAWLwRO7dtN2X7Xfk88xV7Mz4e4kms42O13WFi/yji7smY8Iei4umaU9hlF0EF5fPg4cZ5PGT2CWjVpbPPluLMEHfGF5t3zp1XDh621yb+cQ5pbZ06xUDoQMwk6MBClzGYJaRXSCDreCgVptM40ujxf4GD0foHHxBFBZ/7S5dS0neXxwZJZ06lejep2YRUNt2J4SCXzg0ePaNTEKczjHQRGx46tWhIIPorwBB0xxNzyubOodlULSVFslLcIOnyITugK6Axb4gpBB14R1m7aQkPGjKXzly4zMk63Du3oydNnNG3uPFaFUQQdT+oyao3xBB1frDOj+mFUOb7Y35gV4qpe81a0bM1aBk3vzv40tF8ft2AygqDTpW9/Gjd1OqtfDGPpbKN4oqCtkMLOlCWeffg80G3Qcd4WR0ZVpT1GE3RETzmjBgYwfWeWfkU/3N0LOyLobNoeSJXqNmBQeXLORH4+rKM4F9o0a0rDA/qqHurMmCtiiCt59iSvhUYXx9OXIa6MPk/x4U7RT6x1rHlexD2fkXdbIraefqPg9S1V9lxqsc6Egt+6cxeVr1VXzdO0fl2aO3mi+m9nCTpGnh9dIejY0tlKBxx9S4z4FqMuV+/j7BF0zBhHSdAx48sky5QISAQkAhIBiYBnCPicoHMoaAf5j7RsBFeNPULJE6Zxq1fOEnSWb5tJYxb0Vus4tfKF3dAl9hqDcFkzVo6gBRuDN6/wcNOnxTjWh69fv1CO2rHV7M4QdJaO3EcIJ8QL72Wka+NhjPjjaxEJOskSpKbbD6+pzerRbBTVLNXMrWa+/esVIfRVzOhx6JeoMVgZoqchv2pdqHUtyxi6VZGdTDxBx543JhTx8s0zGj6nKwt1BUEYs5Y1ezBPUGev/qEJc+YpQefw6Z3UcUQdteUTey5n4dwUcUTQ6TK6PsMS4qhfRmOqV54yt3HxHRCgPQR7o/6QWMfAgQNNvWhRLrKA94EDB9S6jDa4iXHsg/bvIbhjN0IOHj1GhcpV1BQluuHVq0ckG0wYPpQ6tmqh2yR3CDpPnj2jNl260/otwboABn24f44TO5aVS3SeoMO/2rJl3HIGN/FCwEjMbdWvEHTkGg5GyJvrF3UpZCCj168y3q6sGXcIOu6uGaV9RhJ0UKZI/uPnfYkihWnjssUsvJwozhJ0ajZpRqs3bFKzO7NGqzZorOoUZORDSH3LBB2EJpJCbp9fnMUOewbsF7yhb9AmRwQdEEEQUkkRe99xJY14GY0wLV3bt1XLQPiP/sNH0sgJk9jf4GJ+5oSxlD5NGhJfTPMEHdHz1tQxIwkGSlviLYJO6eo1aceefawZjvYUzhJ0sKeDoQTEHAhIi03r12P6cNi4CdRncHAoZmcIOvB4CM+HtsTTupyd247SSbf7WoSKFCliKgFZ0TXKXgr7G7MIOpnzF1LnMsLSrpwXTMpzVYwg6PCv1B2tDb32wavJr0ktnh5mjBtD8ETqjohnn3SpU9Pla5b7Haz7tn7u3e+40x7kcWRUVco1mqAjhu9UPOiYoV893QvzBB29OSR6kXQUttnRWOHbV6uJH4lh15AP4bPgWSR50iSOinHrd56gI8+ewRB+9913bmHpbCZFN+N/+XOuLwk6Rp+n4LE0ccbf6dlzi0f3qyeOUeqUlpCqOL+hXsiw/n2oV6dgr+RmiKffKOzVUIYiznxbxDM1vFnjfk2RkE7QsaWzlfY7+pZ4+i1W6nH1Ps4eQceMcZQEHTNWrCxTIiARkAhIBCQCniHgc4LOqUuHqeXASmovRnVZQMVyWeJwu9I9Zwk62w6ton6TLfGTt02/QPDU4qogpFPXsY3o+Pn9LGvxPJVoUNtpFClisPHGHYLOspH7KLVA0CnbOqPqOQbkj17Nx7jaVMPTiwSdNeOPUfVOeTT1LBi6gzKmzO5x3V++/EdN+pamS7fOqGXtnHWFYvxiIT95XIlQgLMEnXt/3qTWg6uo4+PfYCA1qNBOLc1ogs7pK0epeYBlfWycfIoSxEmq1ueIoDN4RkfasDfYrXz8OElo0+Qgo6FzqTxJ0LGGyywDP3+5otTK12W0gV8Me+LoZbmzEweu1tPlymd1KYhwEddO/kG/RItmsyiRbGAvHIyrBJ1rN25S8crV1HaJBkDxVQ9P0BHrenztEsWN7bp+Ey8E3Akx5Ow4KOkkQUeLmDfXL28sM3r9Kr1yZc24StDxZM0o7TOaoINyEUavQ4/eqltnfoRhyFs+ZxaFCxdOM/DOEnQ69uxNk2ZaPAyC8FOxTGm7yw6kP4TaUeTp9SsEfQeRBB1XNVbYS2+GYUZvv+ANfYPRcUTQWbd5C1VraAkx1blta4Ibfnuyct0Gqt2suZpk3eIFVKV8OfZv7ClQ3q59wWe5GpUr0sLpU1Uinj2Czu79B6hEFYv3nh7+HWhEgG3PlN4i6OQvXY6OHD+h9vf13Zs290YiQWfh9CnUsLbF+ysKOXXmLAtfCKxAwAG5hg+RYiRBx4i6jFrlkqCjRdIMgg7/aID3hKHUZRZBp2DZCoTQaRBPQssaQdDx6+BPcxcHh9J25PFKb26///CBosSzhF9HmEucb9wR8Txy+fgRdubixZY3PXfqcyaPI6OqUobRBB2RgHl89w7KmS0rGa1fjdgLOyLoiN5BHlw6x4g0ngi+1UNGjyOE4hEFa+rYzu30a/TonlShm1cSdKxh8dY+EDWHFIKO0ecp9E1c8zhrgbyJ0G24x6nTrAXbB5UrWYLtgyJEMMeTO9ri6Tfq6bPnFDd1OnWyZEqfjs4dPmB3PT56/JgSpLM8pkPIVnibViSkE3Rs6Wyl/Y6+JZ5+i5V6XL2Ps0fQMWMcJUHH8M+SLFAiIBGQCEgEJAIeI+Bzgs6zV4+pTKsMakeypM1DcwZucdixP5/fp8gRo9Cv0YKNFBBnCTrnrp2gpv3KqPk61AugRpUs7tJtVY46L988w4g4kHEL+9LSrcEuiUF22DDxBIULF17NbhRBp93QGnTs3F5WLkI7Bc64SD/+ENUhRruPbaT0KbJSvFiWSxuHmZxMIBJ0gla9pMAja6nPRIs3CozNyjFHNGPkZPGaZNNXDqc5ay2kpPoV2lKnBn+M0Y8AACAASURBVPYv492ph8/jDEEHxKGGvUvQ1TvnWdaqxRsx70m8GE3Q2XFkHfWeaDEynFzxTDPnHBF04Olp8lILds6SqM5dO473OZQ5tSXchacYI78k6FijaKSBX8/IxtdoJkFHjJmMUBGBa1Y5nDYwOOMisXa1KvRjlChW6Vt26kKzFiyi+jVrUIQI4WnBMsvLHkfue10hG7hC0EFfcxUvRXj1DWnRuCHNHD9W03Z7BB3ReDiwVw/q372rQ6xATkB89EiRIrK0rl4IOKzAiQSSoKMFyZvr1xsGc1fWjCsEHU/XjIK6UQQd9DNKlB8oyg8/qAMK43vHnn00r8fxo563LmcJOtBd0GGKOPMCs1ZTP1q1fiPLInqnkAQdJ5RUGE9ilGGG916hFzLCG/oGQ+WIoANvDjBGKgLPVjvXrbY7yjPnL6RWnS3fVBid06ZKxfKI4UqunzquCWVnj6AjEpHheedwYLAHPT3xFkGHNzKgHbs3rKVihQrqtkkk6Ijhv+7ef0CZ8hVkRinIsjkzqU61qpqyjCLoGFWXUUteEnS0SBpF0LFFyuFrM5ugIxJf925aT0UKWPSK3hyC17aTp88wkoYiRhB04LkL5BJFnCXAgIQH/Z83Zw5KniU73b57T90n3LtwhqL/8ovdpfD23TsWno73EKF39lm+dh3V9bN4b4bR+sKRQypR2Kj1ZqscR0ZVJZ/RBB3eWwbqeHXnBsPUSP1q1F7YEUFHNFyPHNCfunds73DooJMx50Fchfz7/j39++97ihnjVzUvQrAgNIwS1lkdD/+OLNyV0SIJOtaIemsfiJpDCkHH6POUgurFK1cob8my6p6HRxtnMHhtbFKvjulei4z4RvGhD9n6ffxA1wus0sdLV69ShjwF1C7PmjCOhWlXJKQTdGzpbKX9jr4lRnyLUZer93H2CDooz+hxlAQdo79KsjyJgERAIiARkAh4joDPCTq47Mhey0KyQZem91tPOTPqXyTi93f/vKHaXQtQzdJ+1LhSRxUFZwk6r94+pxLNLWG0QHrZOvUs/fyT7Vce/335TH79y1PEiJFoVsAmevPXSyrWLPhyF9K8ejdqVbOnZkTcIejohbgaPb8XrdhuifmNelCfPVFCh80euJmyps3r+UwRStAj6CDJ8DndaM3OeWrqbOnz0bS+aylC+O/dasMf5/ZR26GW16kIpbV4+B6KHMliRHOrYAeZnCHoiOHZpvVbR7kyWlyJogqjCTpz142jaSuC3cjnyFCAZvTfoOmJI4LO3uNbqNtYi9trZwhxT18+ouqd81Kjih0IocWMFEnQsUbTUwO/I1IOX6OZBB3UkzpHbrp+85ZapTMX4Eq4pzf3blG0n3/WAKTExsYFyc3TJylixO9ZHbw74l3r11Dxwtp1qBTiSrgeVwg6W3bspAq166lt1WuDPYLOmfMXKGuhopq+vrx93e7LQ7wyz1G0BB3ZsY1dzkNcdalrxFqWBB0tit5cv94wmLuyZlwh6Hi6ZhTUjSLo4KVig1o1NReRqAPGCIR1UQgy+Fu3Du1o1EBtSEZnCTqiHsArY7hQt3e5zr/WFskIkqBjhBYL3WV4YpjBfgH/LVSoEPtfe+INfYP6HRF0EI4qUpz4mqY+vHye4seLZ7P5A0aMooEjR6u/f3r2J33//fck6jcQY0GQ5cUeQUf8DfnwQhkvlfXEWwSdcVOnM4OpIjCurpo/V7dNjgg64kX+uwd3GFGQF6MIOkbVZdSKlgQdLZKeEnRcOZ+YTdCZPGsOdejRS+2gI3IdEirz858/76tkXiMIOqJXsAJ5ctPBbZvtTuMHjx4xoiJIFn27diY+NAcyBvToxkLs2hLcv9Vo3JT+/ucfzeMJW2cf0VgMz0YgRkKPmi2iUdXWWdJogk7/YSMIOhuCEM0ISQoxUr8atRd2RNARvTBAh989f9ruORPfhoJlK1LkyJEIoYwgmB/w+LN09gyrYR8zeSp16z9A/bszHjvcmTuSoGONmrf2gag5pBB0jD5PKagiTDlCC1erWJ5aNGpIb9/9RVGj/kSpU6SgRAniawjc7sxfZ/MY8Y3iiR+oF/tAhWyn1449Bw4yb9CKgHCOb6MiIZ2gY0tnK+13RNAx4luMuly9j3NE0DF6HCVBx9lVKNNJBCQCEgGJgETAewj4nKCDrnYYXouOnNmt9hqeV0DSSZHI+oLzw8f35D+yDgt3tG3aeYr6oyWcibMEHVTUuE8punDjlFpn+UK1qV+rCbpEEhBths7qzEIDKSQMMdQQPLrAswsvr9+9oOJ+qdU/9Wg2imqW0sbtPhgUSJ1GWgy7k3qtpHxZimvKOX7hALUZrH2tuGTEXkqbLLPuTLl25zz5DahAyROkIXhIMUNsEXQ+fvrAvBMpXmVQt7thueBdqVqn3IRQYoqsGnuEkie0kKvM6BvKrN2tIN24d4kVnz55Flo03DI/lTrnrB1L01cOU5uwaNgu5rGIl/0nt1GX0ZaXBytGH6SUidNr0lRsn40ePb3L/mbPOxDmYeWOOdW0aBPaxosjgo5ILEPe3s3HUrUSjXWhfPf3a2o9uCobz71zb1C0qJYXU0ZgLwk61ii6Y+B35dKbr9Fsgg5/UEa9uKzbtX6tzVeX8IYDY3i/bl1oUG8t4RGGtPR58jEyzuKZ05gHHYh42IbL7kt/HKafo1p7GXv1+jXFSGYhVva087rPFYLOkDHjqN9Qizt5xQ06j/WGrduoSn0LOY434oEEEDdVOs1rLVx+IwyH3gvYW3fuUt5SZShzhgwazwEiSUDP04cR65YvQxJ0tIh6c/16w2DuyppxhaDj6ZpRUHeWoDNh+kzq1Nvyklc0MoOgEzNGDLbmRPn69SsVLl9JDYeB0Dhiuk3bA6lSXcu33paR/sPHj5Q+dz71pTvqsvdaHsazqAmSWPZAwuWqmQSdqzduUNqcFoK3rXaKXkT2b9lIhfIZTwwHCNJgbq3BXTXMOOO9Qu874Q19g3odEXSQBvsE3nseCHMgztkS/nK7TbOmNHXMSJb04NFjVKhcsGcAyJjBA6lLuzaaYp6/eEmxU1rOHVNGj6C2fpazXNkatWn77mDDLaRp/bo0d7J1yA/81nvQUBo+fgJLJ3rDstl4N34QjSgo4kbQCUqRzBISVykWnnHwOleRaWNHUeumlhBiFevU13hG+Pz8sVVYB94LEcrRC7mYOX8hOn/pMqsmR9YsdGLPTqueGVWXG5DpZpH6RguLOwQdd88nZhN09NZIpzatCOFpw4e3eENWEFAeCIhe70Qj6otb1yjGr9ZnZdGL16MrF+i3uHFZ8SJREH+bMW4MtWxiOTPwI4F9GULrwWunUp9IjkD6FXNnU62qlXXntqKLRAOsrbMPwmiBLKx4CkWhrZo0punjLMRHo9adWI64txR1lJJe8bCq/JsnUil/478d9nQw+hsnZVr1XLZ9zUoqXSz4IYWR+tWovbAz+jVPiTL0xynL3WejOrVp9sRxuiQrkE+BJ0Kv8Y9OMD8w1/CIRI+cxZNhzfrGSYKO9Urz1j4QNYcUgo7R5yn0TbmrwTlvzcJ5VuGMzdJxeuUa8Y1S7tWU8ssUL8a8wNqSoWPHU98hwXfb6VKnpnOH92v2e84SdIw8Pxqhs5X+OiLoGPEtRl2u3sc5IugYPY7OEnT4PbmtfbsRa0LutY1AUZYhEZAISAQkAqEdgRBB0Ln98BrBYwkv8GrTt8V4ypGhIAuRhHBCf5zfT2MX9KZ7j29Rv5YTqHIxizEEeXnSTa5MhZnnFluiR3rJnDoXDekwg36LlUjN9vDpHZqwOID2ndhKeTIXpSl9gt2on7lyjIXUUiRxvOS0eMQeNfQUyBQj5/XUeJNpUaM7tayhfZkZdOkItRhouRzmSTxv/3pFj57dp3TJf6em/cpScJghiyCcUqUi9Sh8+OD4t8Ao8Mg6GjG3GyO1IFQYPKSYITNWjSCQdBRBiCtFgFmd7oU1xBo9ApO9dv3z/i9qP6yW2mfMhym9VxseYslWG3iyF+reP++WijPGPm2y31l4M8WbDcopV7AmDWoXHPIMAk9P7YZUZ2QyRfS8QzlL0OHJPjVKNaOezUZZNR91FmmSXP17m9p9qFnVzpp0Ysgw/AgSVccGAylK5B/VtCChDZ/dlbA+29ftR40r+xs+lSRBxxpSZw387l568zWaTdB5+eoVxUxuISmibrhGX71gHhXMa9FNb96+ZS8S8VIRv186dkTjPhv5lDAvCJW1ffVKjceJBi3bsLBYivAGOL6/4st73tAON+O49FO874jkIj2jlFI2f6GBv8ETB8JEKPL6zRsqVa0mcxOuiBhyYv7S5dS0nTbUIi5HYEjEoRjhvkDkmb90GfUaOIRdGoskAP7SEvXwhkSMBQzp2bP8bug6lgQdLZzeXL/eMJi7smYQEgpGI0VEww+PlBFrBuWdCDrNwsspgtByCDEnCu+5Ar+JRjQQdA4d+4Nunw2ipIkte0ClHN7ooEcgFC/P8Podr+D1RDQ2VShdijYsXaR7Ebx45Spq2CqY/A3SHl6O8xfx0Ak//mZprzMhs8RQB7Zeo4vYrlk4n70oFQXhDVJlz6X+2RlPae4qIXmJZ42cs4YZT/cM3tA36B2+l78mTal2dEjf3tSnSydNx0GaQUgXJeySrX0DMiHsC9JCYDC8cy5INaBjzWPtKwKPVif37lIJvjBStu/ei6bPm6+mET1T6HnA02vzu7/+oiwFi2jIeY48/7i7TpAPL8DxElwRkJeP7txGCeNrvQ+JYSJAzoEBXJGcxUpq9i7zpkxi4R0UAekGhntlLPB3vTAKio5VxgHhYiJECD6/Yhyy/Z6ZESH5fZK7dXmCG59X6hstks4SdDzVNajVbIIO6sC3Fd9YXuBdoFcnf8qYLi2bn0+ePaPh4ybQpJmzKVmSxHT+yEFN+F3eexTKgVeSxAmtQ4uPnTKNuvazeN5DKL2UyZOpVYtnDvwAAszowQPopx8tZ3OQClt37sZCbyJ8EB4aQEAoyZAnv0a/4O947ICQdMmTBhN9L165St36B9COPfuobvVqVp5QAoaPZF5SFOHJdngcAB3Gr3U9UqNR608pB2GWkma2PIAqWrAA7Vi7StUf8AY0etIU6jFAG/5cjywskjvxoANnLVFmzF/AcIboeVcySr8atRd2Rr8ePX5Cs0dX+rZk1gxKksgyZzHO8ISD74cYnlohcC2ZNZ3q1bDs9xX8eA8czoa2dnW+SIKONWLe2geiZm8RdBSPykpv9e5hjDxP8XtP7PN6dupIkSNFcnV6Gpre028UdGPRilXY/ZYith5b4DFK4oxZ6OGff7KkevrTF+dHo3Q2+iR6LNM7q3v6LWbYHT7CHpQo4ug+LlvhYir5Vc/zmNHjKO5HbH0H+T2wWR7RgJHcaxuqNmRhEgGJgERAIhBKEQgRBB1gp0casIVpiTyVaUQnravur//7SqVapKVXb1+wbCD1bJt+gb6PENHm0PAkDD5R/DhJKFXi9PTs5Z8quQJ/WzJiD/38Y3A878fPH1D5tlpDJ9KUyluF3vz1ivaf3Kq2RSkbRI82tXrTjiPraGiHmYT0ILNUah98cQxBmvHdl9IXEHzmdKOYv8ZlIbVOXjxErQbpv4JCqKNIEX+gy7dOq3X28htN1Us2NW1aDpjWjjbvX66Wf2DBHfopiiUcjeg5Bgm7NBpKdcu1ctimK7fPUY/xTVVPMSA/Tey1khLGtX756bAwNxOI/UO7yxWsRegXiEkIHfb0xSPqO1nbHxCicmcqzDzOgNQlCrznVC7agAIPr1G9G/EEHXGeKfn58QceC4btVOciX8flW2epQa9i6p/0vBeB+FW+XRYNgUrJkCZpJoobMz7deXidEeEgWG/D/GdTuO/CuYmm7WySoGONjT0Dv3LpjVyOwlE4M1hmE3TQBoSVgHFbFBjKYHDGa3kYZJQL31P7djNDDS+88fvWmVPskpyXP588ofhpM2r+tmn5EoLhW5Q4qdJqQmLNnzqZ0qZKSSMnTiYQDB5cOsdCa4mkH1zK48JeT5auXkP1W7TW/ATjPMLRwHjHG8mURDjo+jVsQMtWr2UeNHAxggvWI8dPODN0zIDGv3JHJlyqpsgaHO4KAow3LltMMDK27daDvdZV3JQ7VYkTiSRBRwuSN9evtwzmzq4ZvLT162Ahctp65QzEjFgzKEd0R43wNAhTI4p4ybll5TIqV7KEmkwxboAMB8OP6LmKf518+sBeypJJq29gGBo1cbJaHjxowJOGLREvHBGiYnAfS7gN5MNLvnyly6phAvV0EEINpMlpITvaC2WjtGX52nVU16+l2jRbr+zFdJ3btqaxQ7QGMBQiXkTaMtw4oU4cJpGXeNYQ2TPMGGEoV2r0lr5Rwjcq9dry0rBoxUpq1NriNQf7CazdiBEt5z58++o2b6mGqJs1YZwmjN29Bw8oSSat50vsL2pXrUIvXr1ir6n5EJrKdxVrdcXa9cy4jfTN2nekeUuWaQYH679siRJsP3Przh2CsYn3PoHEyFsgTx6mK3jSssOF4EQCkTiHLCDpYB1jf4J9zop16wnGCFEqlS3DvO3AM1Grzl1p9sLFmiQ1q1Si9GnSsD0TyDWiQA/hd+iwyaOCvQuKOs+/dUtGZkYoABh9D2zdxIjWRtTlBDxOJZH6RguTPYKOkboGtXqDoIOwPymz5dQQTuxNDIQ4QqgjXlr4d9bM2UPbt1D+3BbCqpIWRD+Ew1JEDIULEn3SzNl024I6Qay7cv26uh/AGlw+Z5aG2CuSpMW+4EygnLWge7CXEUMJi+tUDDcsegNFHeOHDSGsZ7MEejx6khQabOAJokblSuzsNGfREuYZhu8f2oJzVp3qValjq5b0Q+TIunoIpEyMK0+C4veVKBO6SdzzGaVfsc/y9PzorH7FN4Yn8vDjhfkAr6wwziskSfwNZ3J+P6wQdIALSPhiOEeeVGHvDODJXJEEHWv0vLUPRM3eIuiIHvXuXzxrRTDWm/vunqdEsjLKBvkb+yY8kooS5QeK8kMU+jX6L4zUlzlDeipWqKAnU9lhXiO+UeI5EX3CuhbJ2rxXFT3yJhrri/Oj+E1yV2ezb9W0GQSPj4osnzuL7fd5MeJb7Mp9nPh9g27lCexK24wcx449ezPSsSK4G8QZihe067e0GTRnILRLz7O3w4nsIIHca3uKoMwvEZAISAQkAmEBgRBD0Pn0+SNNXTGUlmy2eB3QA7heudbUvl5/lXiDkFcPntymDXsX04rtlo0G8lYoXIcaVerAPOJEihh8MOcF4Xu6jm1E8GJjT5IlSE3jui+1IogETG1LWw7ou4kEQQh5NuxZzEJj8RInxm+0ZMQ+RiKC1OtRRBMSSkkLsgRCXsX4JTb7E4g9vSc2dzjv9LymOMzkZIK//nnLyELdxmrdLsOjS92yrSherARsbMD0bj+sJh07t1dTcpGc5ZgXoeSJ0moIHyBYXb55hhZtmkx7jlvirjev3o2RehRilJPN9DjZ4dM7qeMIywtRvkAlJBTmXt3uhVQii1gpyDrDOs6mxn1K0tOXwa8RFEEYM4wtZMGGCTR52WD1N5C0SuapTKmSZKTPnz/ShZtBtPvYRvZ75aL1qUvjYRpPN/g71s+1uxdo7II+mtBt+G18j6WULV0+1bsT/obwXW2GVLUikYl9wHgNaT+TIkf6wWNM9QqQBB1rVEQDv7vhKJwZMG8QdOCZBhd2OBTbExxIV86fQ7h0VQSvmWBAatOlO/sTXuOtW7yQovygnY8g+eQtWUYNn6DkhxebimVKay6gew4cTCMnTLJqCurfvmYFxYkVm3YfOKC+nFQSwnA/YfhQSpc6Ff0SzRJaEb/DiwVelV6/GUxqEwXGMFwC5C5eWn2ZpKTh3Q0/fvqUGbHwstWeLJw+hRrWrqWbhH+FwyfABf/WVcspbuzg74lRIgk6WiS9uX69ZTC3t2Z2rl/NLvlgVG/XradmfmNNYQ3mzpHdat55umZAPNt94CD1HDBIs+5x8bh01gzKkzOH6nUK4afqNGuhGSiQ54b06cW8U+FimzdaYK3g1XnOrFkJBny8sFcuskYO6E/dO7ZXy0KoiV37DlDtZtq9GS508WIuV/ZsFCdWLI3XG2TGa/feg4YQQm8pAsM5DNswkpy7eJHadu3BDProE/qbO7uFzA3deOnqNcJr970HD2n6BhJN9UoVGCFP8VCBBNiXXbt5k6o1aMJe3ysC/bRi3mw13AZ09qmzZ6lZO39NOqUdObJkYSFAkA5uzGF45F9n4uIa4/57xgy6oUI80T3yEs8aPdEwY7ShXKnRbH2DcAVnL1ygTr36acJwoH4QbhE2TQxdCVIMyDGKgJSLsDC4aMbahVcFJRTW7Injya9hfSsAG7dpTwuX65/llDkPAzAIiLxgjcOwizTQZy39u2g8+enNc6wNfu0hDcgwPTt10KxvT9YInxevyxF6j/d4IZYNXbhr336rvoE0BLIjdEb63PltNqldcz9q27ypJhyekpgPPaaECNIrSAnnA2yMqMso/KS+0SIpEnSMfjTA1+YNgg7qg6e4On4trDzPiGt9/ZKFGg+UWPMIl8GHrkUefE8njxpBGdKmYd8/nE+wvkAS5tchvLLMmTyB0qS0eAuDN6oSVapZkQLF+QzvnyDCimchpBOJi3prAR5ols2eSXFix1J/hidT7CWqNbSEt8OP8EgK8k3ihAkY+RH7iDI1almdU9CmAT27s36HC2f8gx6Q9/BwwpYgPFm+XLmoeiNt+7HHg35RiFWisRflQZfjrAiPRkdPnKDVGzaxaqDbd29YZ/NxhhH69eOnT4acH53Rr+gT9qwYY37PZutbhX2nGBaRD4GGPT68vAJ37EPWbtrMyJaY5/iuYc0469nFFZ0tCTrWaHlrH4iazSbo4C5k1fqN5N+rj6ajIFKAHA0vp3wYQk/PU0olOG/hDsUVwR3OzAljdYlDrpRjL6273yi+THi+qdXETz2jYy/aq3NHKlmkCP335T9GOO/Stz/Lgj0dPLfx3oN8eX40Qme/ffeO6TwQannSPQiGOBvg3B0pkoXcb8S32NF9XKwYMej+w0eM4KuEvlXGDJ7x2rVoxs7l/Nr2dBzxncedCO5r+P0I7lcH9erJvpO4N4CXUtzbiu3CdxbzQ3wo6elcl3ttTxGU+SUCEgGJgEQgLCAQYgg6Cph/nNtHYxf2YWF1eIHXEBBPiueppPk7vJkg3JI9QeiqeYO36SYBsQGkhjW7LO7L+YSta/WihhXbU8TvrV1c/vvhHxq/qB+t271QzQJyRc1SftSwQluKFvVXgjcYhLBCyClI6fzVqUO9AAJJR5FHT+9S476lNGSJwjnKsHBJP/4QVdNuhLkaOK29LikEhJ7+rSZS6qTa111GTdTdf2yiHuO0Fx9i2QWzlWaEkBLNU9slfzSt0ona1ulL566doG0HV9HeE5s13o9qlW5ONUv7eZ2Yw/dn8tJBtGDjRM3YDmo7jUBaUQQekPpPaasJP4axRf+qFGvIwmKBoDV4RrABAaSsioXrUcuaPTRz6tqd87Rky3Taf2qbrmebbOnzUc2Szazmv9IOR3gj3bR+6yhXxkJq25+/fkL9JrdihCtR0M4eTUfZrM+oOSUJOtZIKhcfZhnZ+Bq9QdBR6ps2dx7zpiO+RsfvuHQB+YW/LMbfbR1ueZfreF0UN3U6m1MSlxBw3arIx4+f2AU4/+obadYunk9Pnj7TuKS1VajeCxK8lmnUuq3GAw4ufXt38afmDRuwAy/vYQQXv03q1WUX2vwlCF6DTpwxi0ZMmGiFFS7+p4weafVikW8nwnnkKVlakxcXpTCYi8ZNI9axJOhoUfTm+jXbYO7MmkEohyjxrMM5iHNLDOmG3z1ZMwiJ12fwUJtTWImVnjpHbpvEOWSGx42SRYswgg4IArjE0yPaQUeMHTqIShcrqtYpxnC31Zj2Lfxo0shgLxKibN+9hxq3aWfTIAcvP/DyFStmDE1WW6+g+URiKB4xVI3YFlzMgXDAX5TptRl6DZ7G6jVvRcvW2A4lK+peI/SNvMSzRhGXt97YL5itb0RPXXrzRfQ6gTR4VdqgVRtNaCQ+L17bwkuU6AFBSfP3P/8wwwReTysCw2Nbv2bUtX0bFg4r6Ow5ti6UC228Lh45sD8z7CoCAwYId9BNSogA5TeQ6yaNHEaBe/YyjzUwzjetX4+qlC9rymtUvv8IbdmyUxcrEg7S4KV5r87+LEwe+ty4bm2qX7OGSlxUykHYEhCZ+H6hD326dlZJ1byXMqx9EA6bNainGUaR7Ik6QTiGcd/ouqS+MQIBbRnQAYoEBAQY4snTViu9RdBB/Qg/1yNgEPPsxxutMD9B+sPahR7gxdHeQvHm93PCpHYJcghviT26IvAICiKKSLzF7zg3TBk1khF57cnN23eoTdfuVmse+UG4QchAnry7ZuNmqtHYvtdl4ACipCM93buzPw3tpzWsGzUToaMRJowfI+hgGO2hu+CtFKGncFZqVKc2lStVwooczht7Mb4Io4fwwuK4lyxamHkM1AtXZrR+9WQvzJ8fndGvaDvOwSA/IIyXnoCg3r1De43BWkkHAg4MysAdXotEAab4NjarX0/jzc6oOYByJEHHGk1v7QNRs5kEHZF0rTdv9ELOIZ275ym+DjFcsTPz1oyzjlivO98osQycb/GgQgzrqKTD2p01cZyVRxn87svzo6c6W/Q8Y2tM/350TxO+0tNvsaP7OJBJ127aYneK6YXU9mQci1Wqqru3UBqB73f7ls0pXur0dtsletZzZp3YSyPP9p4iKPNLBCQCEgGJQFhAIMQRdBRQ//73HfPy8fm/z5QmWSbTiRpfv36hu3/eJBAl4AEmaYLUlCheMrshspS2whMPwgGBTJMgThIrMg88rYDIkSBOUpueSFA/+vv63UtKlyKLw/6+++cNI/88efGQEsROwtqreOQJTRNz/voJ0ThjFgAAIABJREFUdOj0TkqeMA2lS/47ZUuXn+EeUgThoC7ePM0IVckSprEZ5unpy0dsLGJGj0vxYiagcOHCa7qAcl68eUpJ46ey+o1P+Pm/T3T/8W16+eYZffr8gZLET0m/xU5sSngppd6Pnz6wuQdSHOYQ+hkXfTAhpJU4rpKg49uZ7k2CjtLT+w8fMq8QuAzFy9G0qVNpXIt7CxEcnOEuHmGrEiVIYFi1Dx49Yi9i8OolUYL4Vh4k4DoXr8PSpkrl0LsELgcuXr5CP/8clX7PmNHpWOhwS4vXP89fvGCGNjPc0SqASYKOYVPH5YLMNpiLDQoNa8ZlEP8vA0KxRPs5Kn3//fdMN8GoDV31a/To7LUmPE+Z8RIY1cOwj/rgNefp8+csJB1e80E3ieEn3O1fWMknL/GsR3L//v2mGsqVGr2tb1ydsyDrXrh8mX37YGhIEP83FoIA32JnBJ4Frt+6xYisyZMktTJOwmMGDKnJkybR9VzB1/Hk2TM6f/ES+8YnSZSI5YHAUABJnTKFM00yNM3nz5/p4pWrjGQTL04ctvdC2AboHxBw8ufJbXePAY9ZN+/cIbzATZoosRWhGuVg//P5839qf/U6gD3QidNnmIE3fZrUut42jKrLUwClvtEi6C1dg1q9SdBRegmCPNY49ECSRAnZGYX31ODpfHIlP7xCQIdcvnadEXMQMg5nCle804CIcenqVXbmgKcAMaSJK+0JKWmhh3EuevbiBdubpUqenO3bINAtb96+s6t/RGPvuwd3CCTNS1eu0qPHjylFsmRML7k67p7qV7TfiPOjM/pVGUvsNeEhDaGYI34fkdKlSUUpkyWzS6wBVtD1+MZift29f5/u3L9P30eIQEkTJ2ZzlCd/mTFvJEHHd/tA1GwmQcfT+eLJeQrrAQRAEK1B3MM+DefAFy9fMh2B+Q69/M8//9LT58/o2IlTKmn59tkgpo/MFiO+UegL9snwWIlzbcxfYzACO7yiuPJ9MbuvSvlm6Wxn2+/Jt9jM+7jQNo728JZ7bWdno0wnEZAISAQkAmEZgRBL0AnLoMu+SQQkAsEISIKOb2eCLwg6vu2xrN1oBCRBx2hEnS8vpBvMne+JTCkRcA4BeYnnHE5mpJL6xgxUZZkhGQGpb3w3Or4g6Piut7JmbyGgZ+z1Vt2yHmMQkAQdY3B0t5SQTNBxt08gBft16MTCnSKk3/hhQxwWhTxDx46nASNG0bI5M6lOtaoO88gEriMgdbbrmIW2HHKvHdpGTLZXIiARkAhIBMxAQBJ0zEA1BJX5+t0LgpeaL1//87hVv0SNQc2rd/O4HKMLmLl6JMGLkRHSqmYvivpjNCOKkmU4gYAk6DgBkolJJEHHRHC/kaIlQcd3Ay0N5r7DXtbsGwTkJZ5vcEetUt+Yh/2JoNO0ZNVqQyrImyunbogCQwr/xgqR+sZ3Ay4JOr7D3pOaESbs+KkgT4pQ8yJMVbbfMxtSllKINPYaCqdPCpMEHZ/ArlYaFgk6nXr3ZZ5zIM9vXqOYMbQhDW0hfviP41SgTHk6fWAvwYuW3McZPzelzjYe05BWotxrh7QRke2RCEgEJAISAV8gIAk6vkDdi3UiZFfdHpaY8Z5UHT9OEto02ZhLF0/aIeZVSB5GlBk48xLFiu6cO3wj6vvWy5AEHd/OAEnQ8S3+YaF2SdDx3ShKg7nvsJc1+wYBeYnnG9xRq9Q35mE/edYc6tCjlyEVtGnWlKaOGWlIWd96IVLf+G4GSIKO77D3pObK9RrSxm3bPSlCzbtq/lyqUbmiIWUphUhjr6Fw+qQwSdDxCexqpWGNoIOwcDGTp1b79/L2dRbe2JGAkNOwVVvae+gQPb56iabOmSf3cY5Ac+N3qbPdAC2UZZF77VA2YLK5EgGJgERAImAKApKgYwqsIafQZ68e05RlgwxpUMK4yUKkB53hc7rR+w9/e9zHcOHCUy+/MRQpYmSPy5IFOIeAJOg4h5NZqSRBxyxkv51yJUHHd2MtDea+w17W7BsE5CWeb3BHrVLfmIf93oOHaMGyFYZUUKF0KcON2oY0LBQWIvWN7wZNEnR8h70nNU+dM5eOnzrtSRFq3m4d2lHGdGkNKUsppGaTZrR6wya1zP+9fm5o+bIw8xGQBB3zMbZXQ1gj6Ny4dZtSZc+ldrlu9Wo0edRwuySdM+cvUNd+AYS9G8JhISyW3MeZMy+lzjYH15BUqtxrh6TRkG2RCEgEJAISAV8h4BRBB4377rvvWBtb1uhBLWp091V7Zb0SAYlAGEJAEnR8O5hh7ZLFt2h+m7VLgo7vxl0azH2HvazZNwjISzzf4I5apb7xHfayZt8gIPWNb3CX+sZ3uIf1muOkSkvPnr9Qu/nqzg2K/ssvYb3bYap/kqDj2+EMi3dHOYuVpJOnz2iAzZE1C6VJmZJSp0xBcWPHplevX9Pjp09p685ddP3mLZZ2SN/e1KdLJ98OSBivXersMD7AOF9WqEzQ65D//e9/Yb/DsocSAYmAREAiIBHQQcBlgk629PloVoDl5YlEVSIgEZAIuINA0OUj1GJAsOvqAQMGUEBAgDvFyDweILB//35mdIPs27yBCufP50FpMuu3hoC8JPXtiIfFS1LfIiprD+kIKITAwoUL0759+0J6c8NU+yRBJ0wNp+yMEwhIfeMESCYlkfrGJGC/0WL/ff+eVqxdT83ad9Qg0LhuberesT0lT5KEIkaM+I2iE7q6PXDkaBowYlTw3cW+fYT9oBTvIRAW746ev3hJpavXpNPnzjsFZM0qlainf0fKkimjU+llItcRkDrbdcxCaw651w6tIyfbLRGQCEgEJAJGIuA0QUe5KJEEHSPhl2VJBL5dBGatHkUzV4+UFyw+nAJh8ZLFh3B+c1XLS1LfDrlcv77FX9bufQSkxy7vY67UKAmBvsNe1uwbBKS+8Q3uqFXqG99hH9ZqPnDkKBUuX8lht26fDaKkiRM5TCcT+BYBefb0Lf782XNAz+4U0KObbxtkUO3//fcfbdoeSFPnzGPedP76+2+15AS//UapUiSnsiWKU/2aNShO7FgG1SqL0UNA6uxva17Ivfa3Nd6ytxIBiYBEQCKgj4DLBB0UE7TqpcRTIiARkAh4hIAk6HgEnyGZw+oliyHgyEIcIsBfkkqXtA7hMjyBJOgYDqksMAQjID12+XZwpL7xLf6ydu8iIPWNd/EWa5P6xrf4h6XacT559Pixw9AZ8eLEoQgRIoSlrofJvsizp++H9bvvvmONgOdleGAOiwIPLq/fvKGYv8agSJGkdy1vjrHU2d5E27d1yb22b/GXtUsEJAISAYlAyEHAaYIO/5Jp1oBNlC2dDIUScoZRtkQiEPoQ4Ak60rjvu/H7Fi5ZfIdu2K5Zxoz2/fgq6zcsvWL0PaqyBSERAXmJ59tRkYRe3+Iva/cuAtJLg3fxFmuT+sa3+MvaJQIhFQF59vT9yMi7I9+PgWyBRCAsICDP9mFhFGUfJAISAYmARMAIBJwm6PAXJZKgYwT0sgyJwLeNQIuBFSno0hEGgiTo+G4uKOELw/IrKN+hG7ZrVi5JCxcuTPv27QvbnQ2hvZOXpCF0YGSzDEdAGswNh9TlAqW+cRkymSGUIiD1je8HTuob34+BbIFEIKQhoIRDkWdP342MvDvyHfayZolAWEJA7rXD0mjKvkgEJAISAYmAJwhIgo4n6P2/9u4DPIpq/eP4GwER29Vrx4YVBfWqqEgxoRjEgoooKHoVG2ABxdAUQgihCggIKGBHxYoNERElEJoIiL3QBAuIiFivgiX/5x3+M8zObpItM7Mzm+95Hh9kd+bMOZ8zO+zu/PYc9kUAgaQF6rXdx9iXL1iSJnRlR/NLFq2sdMsmV+qkksohwJek6R9nviRN/xjQAn8EWNbAH+fyjsIN8/SPAS3wR4DrjT/OXG/S70wLEAiTgPnZs3///lJQUBCmpmdMW/nuKGOGko4gkFYB3munlT8wB9fJICgIIICAVwJ6zzkMJamATr26jWRSwSth6B9tRACBAArYl7fiC5b0DpD9SxZdR1xn0qEgUJGA/QM1r+GKtLx7ntevd7bUHCwB86aMtopZ99IzNlxv0uPOUf0X4Hrjv7nziFxv0j8GtACBIAnw2TMYo2GfWZ/vjoIxJrQCgTAK2N9r62zcc+fOlZycHOMHvJTME9B/O3SM7YEcwjmZN870CIGgCui/LfZ/X4IW9I87oKPA9i9KWOYqqKcc7UIg+AL2gA432tI7XvYvWVjmKr1jEaaj84uXYIwWr99gjAOt8FaAmzLe+sZbO9ebeKXYLswCXG+CMXr2603/3j2loFePYDSMViCAQFoECE6mhT3mQZlRMThjQUsQCKOA8722/uDPWew3UwnuhHGUxQjjFBYWRoRywtkTWo0AApkoYP7bE4SwTkIBHfsXJcyik4mnJn1CwB8Bc3krZt7wx7uio/Ar1YqEeN4pwBTjwTknmGo8OGNBS7wRIBDojWsytXK9SUaNfcIk0LTVxTJn/gKjyfyIIL0jx03g9PpzdASCIkBwMigjsb0dfHcUrPGgNQiETcB+TdfZc/SaEk8htBOPUvq3iSeY0zAn22hog+yc9DeYFiCAQEYLLCqZKwvnlpTbx3Tfn04ooON8M77s2c0ZPYB0DgEE3BdgeSv3TVOtkV/FpypYufbnS9JgjTdTjQdrPGiN+wIEAt03TbZG/RWc+UsTljZIVpH9giqgwRwN6GhJ95c0QTXys13cBPZTm2MhEFwB581clkBJ71jx3VF6/Tk6AmEXiPXZ3lwCSfum/5/I8keZGtzRoHqYPo/Y37fbz1EN4+Tl5xsPNcjeHsyhIIAAAukQWFRSYoV1RhYVRTVBr7npmLUt4YCO/YtZlrlKx6nEMREIt4A5e472gl+mBmcszV+pGuOyZVNwGkZLAifAFOOBGxLhV+bBGxNa5I4AgUB3HN2qhZsybklSTxAFuN4Ea1S43gRrPGgNAukSMD976k1YnW2Bkn4BZlRM/xjQAgTCKJDIe+1UQjtqY186Kx03XFMZH/t7YLMvQViGJVafnG01tzGDOYRyUjkT2BcBBLwUGFk0UMoK6vh5zU04oMMyV16eFtSNQGYLMHtOcMeXX6kGd2yC1LJEPlAHqd2Z3hZev5k+wpW3fwQCgzf2XG+CNya0yB0BrjfuOLpZC9cbNzWpC4HwCfDZM5hjxgyuwRwXWoVA0AXceK+dSnAnLLPt2CdHMMfUbLufN40rOp+cs+YQyqlIjOcRQCCIAhrU0WIP6+g1V6+3fszcmXBARxtrvwAzi04QTyvahEAwBZg9J5jjoq3iV6rBHZsgtcyND9RB6k+mtIXXb6aMJP2wC3BTJpjnA9ebYI4LrUpNgOtNan5e7c31xitZ6kUgHAJ89gzuODEDc3DHhpYhEEQBr99ra6jFLGFfJitWQMfsWxCWvYo1a44uY5WX3zeIpx5tQgABBOISiDWjjh/X3KQCOs4L8bJnN8fVSTZCAIHKK8DsOcEfe/uHgP69e0pBrx7BbzQt9E3A6w/UvnUkQw9kD0/z+s3QQa5E3bJfb7TbLIkZrMHnehOs8aA1qQlwvUnNz+u9mUXHa2HqRyCYAnz2DOa4mK2yf3fUpHEjKZ72UrAbTOsQQCBtAnPmL5CmrS62ju/XZ3u3ZtvRhvs5c41zZppYA+fHTeNYx2XWnLS9jDgwAgj4JOAM6ng9m05SAR21sL8Zr1e3kUwqeMUnIg6DAAJhE7CHc7Ttfr0ZD5tTENrLl+BBGIXgtYGbV8EbE2eLnOFp/ZJUvyylIBBGAfsvptP15VMY3fxqM9cbv6Q5jh8CXG/8UE7+GFxvkrdjTwTCKmD/7KlfihcXF4e1Kxndbr47yujhpXMIuCag4RwN6WgJwmd7t4I7OTk5nix/Yp+hrKJB8NPTGc5h1pyKRofnEUAgrAKxZtPRzyNeLHmVdEBHce0X5k6X9ZKOl/UMqzntRgABDwXsS1v5+ebRwy5lbNVMJZ+xQ5tSx7h5lRKfbzvzS0bfqDmQhwL8YtpDXBer5nrjIiZVpU2A603a6BM6MNebhLjYGIHQC9g/e3r1ZXjokQLQAWeAsnTLpgC0iiYggECQBMLyXtse2lE/vXeRSNGbtuaN21SDO4kEdMw2enmvRW30vbj+qaVhTrZoOKdBdnYiRGyLAAIIhE7AGdTx4nNJSgEd55vxSf1fkXp1+LV26M40GoyAhwIsbeUhrkdVs9SVR7AhrTYsH6hDyut6s1l6xnVSKvRRgNm6fMR24VBcb1xApIq0CXC9SRt9UgfmepMUGzshEDoBPnuGa8gIUIZrvGgtAn4KZMJ7bb9n23Hea01kvDSkk2o4yHk8Z3s0nPP8rFmJNIttEUAAgVALeB3SSSmgo7IsdRXq84vGI+CpAEtbecrraeVMV+wpb2gqz4QP1KHBdrGh9l/csNSVi7BU5bkAs3V5TuzqAVh6xlVOKvNZgOuNz+ApHo7rTYqA7I5ACARY2ioEgxSjiQQowzlutBoBrwUy+b22V8Ed+33WZMfHzdl07Nd3wjnJjgj7IYBA2AW8DOmkHNBRXJa6CvspRvsRcF9g2ScLpGP/C62K3XyD6H5rqdEpwJfgnBO6RrSuFW0WXsPhOSd4/YZnrGjpDoGgrU3P2MQn4PwSkeUN4nNjq/QKcL1Jr3+yR2emhmTl2A+B4As4fxjixRTywVcIZwv57BnOcaPVCHgpUBnfa6cS2tGxMJfIMpeSSnV8Uv0O136/V5e0ysvvm2qT2B8BBBAIrYBXIR1XAjrON+OdLuslHS/rGVpsGo4AAqkJEM5JzS8oeztvujETR1BGxvt2EM7x3tjrI3ATy2th6ndTgF9Mu6npf11cb/w354jJC9hvGOgX4XoTmBIeAfvNgiaNG4l+PqEggEC4BfjsGe7x09bz3VH4x5AeIOCWAJ/tIyVTDe6kOi7JBHXs13Rmzkl1BNgfAQQyRcAe0nHruyRXAjoKTEgnU04z+oFAagIazpn43DBZ9vECo6Jk3gim1gL2dlOAL1rc1AxHXXxBGo5xiqeV3MSKR4lt0i3AUnrpHgF3js/1xh1HavFWgHCOt75+1c71xi9pjoOA9wJ89vTe2K8j8N2RX9IcB4HgCvDZPv6x8TO4ozeS9b+CgoIKG+i8lq/ftrXCfdgAAQQQqCwCl+bmysK5JUZ33bjv7VpARxtESKeynIb0E4HYAsyck5lnBl+0ZOa4xuoVX5Bm3ljbb2Jp75gJK/PGOMw9st8sN87P4mJraucw96uytp2b5pV15MPRb+f1prS0NBwNp5UxBbjecGIgEH4B541cN77kDr9KuHvg/O6of++eUtCrR7g7ResRQCAuAT7bx8VU5kbO+6qp1RZ773j+nc3KyrJ2ZmkrL0aBOhFAIOwCNXeubnUh1e+xXQ3oaKucb8ZZ7irspxvtRyA+AcI58TmFdSu+aAnryMXfbr4gjd8qbFs6Qzp8URq2Ecy89moYUK85+qdZUv1Qk3lK4ewR15twjlsmt9p5vTF/Pap/UsItQAg53ONH6yu3AJ89M3f8+e4oc8eWniEQS4DP9u6cF85rpzu1xq6lrKCOvQ2Ec7wcAepGAIEwCywqKZE2Z+caXUh1qSvXAzraqFiJT4I6YT7laDsC5Qt0LLzQWtJKt4wnkY1p+AT4oiV8YxZvi52/dOE1HK9ceLbj9Ruescr0ljpvyHCzPPNGnOtN5o1pWHsU63qjYUBK5ggQCsycsaQnlUMg1o1cPntm3tjzXjDzxpQeIRBLgM/27p0XfgZ0zFbb//21H79hTrY8P2uWe52jJgQQQCDDBNxa6sqTgI5aE9LJsDOO7iAQQ8A5a45uwpcrmX2qxPrAwGwc4R1z55JWvIbDO5bxtJzXbzxKbOOVQKwbMqn+0sCrtlJv6gLO602Txo2MJQ70TwoCXgtwvfFaOFj1c70J1njQGgTKEnDeyOWzZ2afK3z2zOzxpXeVW4D32u6PvzN07v4Ryq5R7+Xof2aZ+uYsaZCd7WcTOBYCCCAQOgE3lrryLKBjasZ6Q85sOqE712gwAlECzllz+AV85TlJNICp13b90yyEdMI3/s5Zc3gNh28Mk2kxX5Qmo8Y+qQpwQyZVwXDuz/UmnOMW9lZzvQn7CCbXfq43ybmxFwJ+CJR1I7egoMCYFp6SuQJ8d5S5Y0vPKq8A77W9GfusrCxvKi6nVvu/weZ3/Cxt5fswcEAEEAipgBtLXXke0FHbskI69eo2knp1+BVlSM8/ml1JBXTWnInPDWNJq0o6/vZu80V4OE8CZs0J57i53Wpev26LUl8sAW7IcF7E+iyos+iYM+oghIBbAlxv3JIMdz2xZtPhehPuMaX14RbgRm64x8+t1vPZ0y1J6kEgfQK81/bW3suAjhnE0T9zcnKMjtjDOfZjr9+21duOUjsCCCCQQQL2pa50OfVEf3zgS0DH9I71hlxDOqfVaSwdL+uZQcNCVxDILIFYoRzzzRy/esqssU60N2Wtkasz6mjR5Swo6ReI9UGa13D6xyXdLSjv9ZvTqCFL0aR7gEJ6fL3ezF2wUPRP/c9eWAYzpIPqQrPLu97wXsEF4EpaBdebSjrwFXSb6w3nBQLpFeCzZ3r9g3r0WLPpaFv57iioI0a7ENguUNY1nc/27p0hen3UJa5SLRUFcWLVb3/fzOw5qY4A+yOAQGUTSHUWHV8DOjo4ZX1Zos/p0lfMqlPZTmH6G2SBsoI5xofo/v1FwzkUBMq7tvMr+fSeH2V9kOY1nN5xCdrRy3pvxus3aCMV7PaUd71hCb1gj52frSPY66d25h6L603mjq2bPeN646YmdSFQsQCfPSs2Yovy7wuwdDpnCALBEOC9tr/jUN790lgtSSaIU1aP7Mdm9hx/x52jIYBAZgjYZ9EpLS1NqFO+B3TM1unF37xBWFaLzdl19Hn9fwoCCHgnsOzjBbL0k/nGAfT/y3oDyIw53o1BJtRc0YcK84a/2VedpYPijoA5Y4XW5py1wjwCN8ndsc7UWnj9ZurIut+veK43elSuOe7bZ0qNXG8yZSS97wfXG++NM/0IXG8yfYTpXzoE4rk28z4wHSMTnmPqtVlnjdD/Yn7/2Hj7fQD9DkkL3x2FZ2xpabgE4rme89ne2zEt80dzTZpsvw6WsTSVG60yl7di9hw3NKkDAQQqo8DIooEysqjI6Hqiy1ylLaBjH6iKvjCpjINKnxEIkgBfrARpNMLRlnhCmOHoSWa0ktdwZoyjX73g9euXdGYeh+tNZo6rV73ieuOVbOWol+tN5Rhnt3rJ9cYtSepBoHwBrs2cIYkIaEBn7ty5xizdFAQQCJYA13N/xsMMLJorFZgz5Hh9dJa38lqY+hFAoDIIpLLMVSACOuYgmV+Y6N/LS9FXhkGljwikS8D+JpDZctI1Cpl1XPPaznXdn3HlNeyPc2U5Cq/fyjLSyffTOb2yX18mJd9i9gyqANeboI5McNrF9SY4YxH2lnC9CfsI0v6gCHBdDspIZEY77Ndm895AZvSMXiAQDgGu6eEYJ7daac6eo/WxvJVbqtSDAAKVUcC+zFUis+gEKqBT1sCZafrKOLD0GQGvBXJycqxDcFPNa23qtwtwbXfnfOA17I4jtcQvYE5Drr90pFQ+AfOaw3uGyjf26egx15t0qAfnmFxvgjMWlaElXG8qwyjTx1QF+OyZqiD7JyPAd0fJqLEPAhUL8F67YqNM3UKvq02bNjW6x/JWmTrK9AsBBPwSsM+ik3EBHb8QOQ4CCCCAAAIIIIAAAggggAACCCCAAAIIIIAAAggggAACCCCQaQL25a2mvjlLGmRnZ1oX6Q8CCCDgm4A9oKPLtppLFlbUgFDMoFNRJ3geAQQQQAABBBBAAAEEEEAAAQQQQAABBBBAAAEEEEAAAQQQQCC2AAEdzgwEEEDAXYGaO1c3KtQZ53UWnXgKAZ14lNgGAQQQQAABBBBAAAEEEEAAAQQQQAABBBBAAAEEEEAAAQQQCKmAPaCzftvWkPaCZiOAAALBEbg0N1cWzi0hoBOcIaElCCCAAAIIIIAAAggggAACCCCAAAIIIIAAAggggAACCCCAQHoFmjZtKnPmzDEaQUAnvWPB0RFAIDMEzICO9qa0tDSuTjGDTlxMbIQAAggggAACCCCAAAIIIIAAAggggAACCCCAAAIIIIAAAgiEUyArK8toeMOcbHl+1qxwdoJWI4AAAgESGFk0UEYWFRktIqAToIGhKQgggAACCCCAAAIIIIAAAggggAACCCCAAAIIIIAAAggggEC6BMyATl5+vuTl901XMzguAgggkDEC9oBOcXGxsdRVRYUZdCoS4nkEEEAAAQQQQAABBBBAAAEEEEAAAQQQQAABBBBAAAEEEEAgpAK6tJUucaWFgE5IB5FmI4BAwgI6q43+t9NOOyW8bzw7LCopkTZn5xqbEtCJR4xtEEAAAQQQQAABBBBAAAEEEEAAAQQQQAABBBBAAAEEEEAAgQwWIKDj/uD+9ddf8t6SJfL6tGkyfeoLMu/jj6Rq1aruH4gaEUDAEFi7erUMLxwgqz7/XDre1lXatG8fU2brH3/I2/Pmy6zXpssrzz0nN+d1l87dbvdEkYCOJ6xUigACCCCAAAIIIIAAAggggAACCCCAAAIIIIAAAggggAACCIRTgICOO+OmoZznHn9cSt6aLW/NmCG//vKLVfE3W/8Qcxkxd45GLQggYBfo3P5KeeX5562Hlq9bKwccdJDx97///lueeuQReWvG6zJz2rQIuL6DB8vN3fM8wSSg4wkrlSKAAAIIIIAAAggggAACCCCAAAIIIIAAAggggAACCCCAAALhFCCg4864aUDnjhs7yscffCCffvhhRKXrt2115yDUggACMQVanZUtyxYvtp57qXi2nNGokfF3Dejc2aWr/LRli0ybOjVifwI6nFAIIIAAAggggAACCCCAAAIIIIAAAggggAACCCCAAAJDVXW8AAAgAElEQVQIIIAAAr4IENBxn/n6y9rKjJdftiomoOO+MTUiYBeYPGmS9L61i/HQsccfL2+9u0yqVKkShVQ88w25slUr63ECOpxHCCCAAAIIIIAAAggggAACCCCAAAIIIIAAAggggAACCCCAAAK+CBDQcZ95aL9+cu/QYVbFBHTcN6ZGBJwCa1evlq/XfSlnZp8lVatWjQn03bcb5eTDDrOeI6DDeYQAAggggAACCCCAAAIIIIAAAggggAACCCCAAAIIIIAAAggg4IsAAR33mUcNGizDCwuNinffYw9Zsfl79w9CjQggkLDA/377TY7e+9/WfgR0EiZkBwQQQAABBBBAAAEEEEAAAQQQQAABBBBAAAEEEEAAAQQQQACBZAQI6CSjVv4+BHTcN6VGBNwQIKDjhiJ1IIAAAggggAACCCCAAAIIIIAAAggggAACCCCAAAIIIIAAAggkLEBAJ2GyCncgoFMhERsgkBYBAjppYeegCCCAAAIIIIAAAggggAACCCCAAAIIIIAAAggggAACCCCAAAJ+BnR+/OEHmfnqq7Lq88/lxx+2yJHHHCN1TjxRTmtwpix/Z4nUP6uxVKtWrcxB+euvv2Tlp5/KB8uXy8b1G+To42pL7Tp15Khjj61wIL/56it549Xpcuzxx0ujJjnG9hs3fCuzpr8qa9eskQMOPEhyzz9Pah11VIV16QalpaWyZuVKefedd2TFp59KlSpV5IyGjaRe/TPk4fvu932Jq0Rsly9ZIls2/xDVz2Ytz7Ee27J5syxfsjRqm3/tvZfUq1+/XKM///xTVn32mTFOn374oexSo4bUOvJIOTM72/gznrJp43fyyQcfyAfvvisbv90ghxx2uBxdu7Y0aZErVatWrbCKVM6VRCydDVk8f768+84S49xQKz0/Tz7tNKmx666i4RA9//woen5+tW6dfLh8uaz67HM5+LBD5bi6daV23brlvsbMtn303nvy3bcbxX5O/PD990bfVq9YIYcfeYTUq3+m7HfA/hHd0ePqmOlr4qctP8pJp54iJ516qnEOVFT0ujC/uFi+/OIL+ebLr2TfA/aXE/7zH6lz0klGHVlZWRVVIRu++UamPT9VWlxwfszXMgGdCgnZAAEEEEAAAQQQQAABBBBAAAEEEEAAAQQQQAABBBBAAAEEEEDACwG/AjqvPPecdO98k/z6yy+y+x57yPEnnihLFi6M6NIHX38t++6/X1Q3//nnHxkzZKgVenFukHv++TJk7L1S85BDIp76YtUqI5Tz8rPPyntLt4dN+gwaJB1v6yojiopk7LC7o4511Q03yN33jS+Xet0XX8g1F7c2QgjOon3TdpjP6d9XbP7ei6Gz6kzU9q6ut8mrL0yV77/bFNGu9du2Wn9/ZvJkw0eDJvbSuGkTeXbmzDL7M3XKFOnS4doyn2939dXSd8hg2We/6HHWnTSYc9v118mcN2bFrOPwI46QwpEjpMUFF8R8PtlzxawsUUtzPw003dGxk8ycNs146MRTTpGff/xR9Fwxy41du0jhiBGengta+azpr8ktV19tvNacRUNxox98QE5r0CDqOQ2sTX/hBXny4YeNYJVaL/r8MyNwk39HXtTrVc/tcY89ao3FgjlzZdBdd1mvNfsBJr/0kpx93rkx+/7Tli0yqE9feeLBB43nDzr4YDn+xBOM45rn6LU33yRF99wjO+20U1QdGqia9dpr8uLTT1vnjZ6jeq46CwEdz08/DoAAAggggAACCCCAAAIIIIAAAggggAACCCCAAAIIIIAAAgggEEvAj4DO2/PmySXNzzYO33fwYLn+1luk+i67yB+//26EOaa/+KLx3LIv1hg35+3l559+ktuuu94IPmjo4bKrrpIDD64p7y9bJuOHR4Yd3ly6xJhtQ8vrr7wi1116WVSXO91+mzELiDMcZN9w1IMPiAZJYhXty9UXtzbCDzobyuiHHpQTTj7ZCA68OnWqFUIy9/U6oJOsrdo3PfmUiACJPaBjtt9evz5WVkDn9//9T/p2u0OeeuQRY9exjz4izVu2lN322MMYi05XtLc4dRxfnP2W7LrbbhHEi0pKpFP79kYoQ0NXvYsGGMb6985XXik6O41ZJj41RVq1aePKuRKrr4mcpzprTIdL2sis6dONWaEee/EFa1YnDa1c1qKFcYirO3aUoePGenYhsoeTNOjWofNNRtBlzYqVMnHM6IhA1siJE+SKa7cHqXTGoysvuEDmF8+JaJsGdK6/9Vbpl5dXbps//OZrefWFF+TOLl3L3W7uB+/LMccdF7HN1j/+kMvPO98a20df0Nlvtoevtm3dKp3aX2mFnq7p1MkI4plFz+GOV1whb742I+q4BHQ8O82oGAEEEEAAAQQQQAABBBBAAAEEEEAAAQQQQAABBBBAAAEEEEAgGQE/AjptzznHuPmvYZWPN6yXajvvbDVVwwGXNGsuyxYvNmbr0FCAvZj7nt6woUx5dZrstvvu1tM6U8g1rVtbf9dZeWYsXCA7V68uv/z8s6xdvVoeuHesPP/kk1E0GhK6uF07qXvSSTJ75ky5oW07axsNCWlYyFl0VpHm9U4zHtbgyNQ3Z0XNBKP91DabRYMSOjOQVyUVW51J59EJE6ymxQro6JP1jjjSWDpIS1kBnesvayszXn7ZGOOXimdbQSmzcvN58+/OEJTOltLyzO2zumiQZeDoURFLWelyV2efdrrVVnN2FzfOFbOOZC3tIaZBo0eLzvZiLxogufrii+XyDh3knkkTvToVZPTgIXJ3//7GLFQvzp4dsfSbvhYuzMmJCOks/OxTa8kxDdhokGfc8OFRM+/oEl3d+twl9Rs3Fg1ijRhQJE8+9JDVDx1zDazpdjd0udUIZukSY1rXxNFjrO3URX3sRWdq6nbDjWWeg/bXnG70ybcbZK9//9vYXgM806ZOlQNrHiwDevUylvMyCwEdz04zKkYAAQQQQAABBBBAAAEEEEAAAQQQQAABBBBAAAEEEEAAAQQQSEbA64CO3kSvtceeRtP0Rv4nG7+NCF7o4xqg6XrtdVLy4QdydO3aVjd0RpJrWl9i/P3tFZ/LYbVqRXVRgw/2GTQG3ztGOnTubG2ny9/UOfCgiP3ss3SYT9xy9TXGEjlm0WWptL320v6CC6wldJ545RVp1nJHEMe+3UVNmloz9HgZ0EnFVts7tF8/uXfoMKvpZQV0zql/phV+iBXQmf36TLnqwguNevoNGyadu90eNU6vvfRSRAgqLz9f8vL7Gtv9/fff0uqsbGNpJDVfvm5tRBDLrKxx3RMiltxa/eMWqbHrrsbTqZ4rqVg+OHacNcuMzpCjASN70ZltTj/qaDnzrLNk/OTHknmZVrjPxg0b5JTDt78+dPaiNu13zFhk7jxh1GgjyGIWnYFIZyKyl/49esikMTtmqbmobVsjVGQ667axZl9qffnlMuqBSUY4ziza79bNmluvBQ21zXn/vYjj5XXqbM26pE/Yx1T/rjNoHbff/tY+T02fLjm522fjshcN6thnaSKgU+EpwwYIIIAAAggggAACCCCAAAIIIIAAAggggAACCCCAAAIIIIAAAn4KeB3Q0Rk3jtprb6tL+UOHyk13dIvoonkTft5HH1qzfujMOroE05qVK6Ve/foybV5JTBZ7OEI30KWpdHYWe6m5847QgAYO7n/i8ai6Hrl/gvS57Tbr8ZmL3zaW1DJL8cw35MpWrYy/6uwt8z/5WKpUqRKzTb1v7SKTJ00ynvMyoJOsrdloNwI69rCGhmve+3Jd1NJVejwN4bRr2VIWzi0xTJ6ZMUN0xiMtTz/6qNzRsZPx/2UFfPQ5exDIvtyRG+dKKpYjBgyQewYOMtqvS1w998bMqKXaRhYVydrVa4zwjBfFHnT57LuNsudee0UdRmeY0bCVWWKdm7ps3KA+faxt1v36S8SMV+YTztmXvv7jd2OZN2cZO+xuGZKfbzwca7m3qVOmGMvcadGZq5auWS1ZWVlWNToTz2G77lgK7b7HJxszXzmLnleX5uZaDxPQ8eIso04EEEAAAQQQQAABBBBAAAEEEEAAAQQQQAABBBBAAAEEEEAAgaQFvA7oaMPsSyTp3y+89FIZNn6c/GvvHcGdr9atk0MPP9zqx+L5843ZN8yiN+9jFXPpJfM5DdVouMZe4gnoLF20SC7MaWLt9uS0adL0nBbW383lj/SBjrd1lf7Dh5dprmENDW1o8TKgk6yt2XA3Ajr2mWvOPu9cmfzSS+Wei1+sWiWHHHZYROhDlw3TpYy0TF8wX045fcdSVs7KNMz126+/RgRg3DpXkjlPtX0vPPWU3HpNB6upGkTRmXJyzz/fekzbXfrPPxHnfNIvWseOf27bJofvvmO2p7JeK7rsmy5FZS/OMM/994ySot69rU3W/farVKtWLaqpztl4ypp9acrDD0v3zjuW/HJuV1paaoS2Pn7/fWlxwflS66ijrGPpc0sWLpSLmzazHos1Q5E++c6CBRHbEdBx6+yiHgQQQAABBBBAAAEEEEAAAQQQQAABBBBAAAEEEEAAAQQQQAABVwT8COg4Z+XQhmuIoXu/fnJ1xxtllxo1ovpiv7Gvs5Icc9xxcfV31912i1pGKJ6AjnN2EWdA59h99rXCDYUjRsiNXbuU2Z5RgwbL8MJC43mvAzrJ2JoNdyOgM+7u4TK47/alqq6/9RYpuueeuMbJ3Ehnvzl8t92tfd7/6ivZ74AdSxrFU5lb50qylj9t2SKnH31MVPilSYtcuWvgQDnh5JPj6UbS26z6/HPJPvEkY399XTVqsiNoVlGlRaPuMQJTZok3oPPYxIlyZ5eu1n5lBXTsM+ToxmUFfuzt1GXpnnviSdFj6Axa9jJk7L2isyc5CwGdikaa5xFAAAEEEEAAAQQQQAABBBBAAAEEEEAAAQQQQAABBBBAAAEE0irgR0Bn29at0qFNG5nzxqyovupsH2MeekgaN2sa8Vxhz54ycfQY47Fbe/Ywgg7JllQDOps3bZITDz7EOrwukaVLZZVV/AzoJGNrttuNgM4tV18jLz79tFFl1969pPf/zxwU71jZwyW6z+oft0iNXXeNd3djO7fOlVQs7UugORvfoXNnuXNgkeyx554J9Svejd949VXpcEkbY/OTTztNXlu4IN5do7aLN6DzzOTJ0u2GG6393QjorP/6axk/YoQ8ct/9Rr0acLrh1i5y1YUXWschoJP00LIjAggggAACCCCAAAIIIIAAAggggAACCCCAAAIIIIAAAggggEA6BfwI6Gj/dBmegu495NEJE2J2t1ufu6RHQYH13LVtLpWZ06YZfz+nVSt5ZOrzSTOlGtBxLn81+N4xoqGLsoqfAZ1kbM12uxHQsS9PpUuXTZjyZELjNGv6a3JN69bWPsXvLZfadeokVIeb50qi56m9oXqedGp/pTiXXdNtNIg29a03pdaRRybUt3g2fnDsOOmXl2dt+s3WPyQrKyueXaO2SUdAR83vLiwUncFIy+kNG8rd9403zoO///5bDq2xI7BFQCepYWUnBBBAAAEEEEAAAQQQQAABBBBAAAEEEEAAAQQQQAABBBBAAIF0C/gV0DH7uWThQulx082y4tNPo7puD77kdeosTz3yiLHN4UccIYs+/yxpqlQDOvPemi3tzj3XOv4tPbpLn0GDymyP3wGdRG3N7d0I6LRu1lwWz59vVKlLkc3/+KOExmnBnLlyWYsW1j4PPPO0nG8L7MRTmZvnSrKW5n7/++03GT1kiOjSX86iPq/OK5G9/v3veLoV9zbOZaSWfbHGCAQlU/wO6Pz6yy9yQ7t2UvLmW0ZzW7VpI2Mefsha9o6ATjKjyD4IIIAAAggggAACCCCAAAIIIIAAAggggAACCCCAAAIIIIAAAoET8COg8/WXX8rBhx5qzerx119/ydOPPioDevUWvUFvL59u/Fb+tffexmwag/r0sZ6aNq9E6tWvX6GfBoB09pDTGjSwtk01oPPl2rVy5rG1rfp0ho+X5xSX2RY/AzrJ2JoNdyOgc2eXrvLYxImWxXNvvCGNmuSUO06lpaXy3tKlcsrpp8u369fLqbWOsLav37ixvDh7e1ijvPLVunVSo8ausu/++7l2riRr+fv//if637/33ddq8herVkn/Hj1l1vTpEd1Idbm2WCbOGZ76Dh4sN3ffMaNOWY5qqOOgoRiz+B3Q6d+jh0wac69xeA3izf/kY6lSpYrVHgI6Fb0SeB4BBBBAAAEEEEAAAQQQQAABBBBAAAEEEEAAAQQQQAABBBBAIBQCXgd0tm3dKrX22FPmfvC+HHPccREmGoi4qtWFEbPpPPbii5J7/nny2ksvyQ1t21nbxxPcWP/119LkPyfLzXl5cvtdd1r7phrQcYYEtOK3li2V4088MeYY+xXQSdbWbLQzoLP2l59l5+rVo/p0Tv0z5cPly43HGzdtIs/OnGlt8/D4+6Rvt27W3ysKL+mGj9w/Qfrcdpus/nGLMVPKwdV3iTjms6+/Lo2bNS3z9fPTli3S7NR6ct3NN4vOZuTGuZKK5T0DB8nqFStk/OTHotrsDLzoOaPnjptl08bv5D+HHmpVufsee8g7K1eUO1PPn3/+KZc0ay7Vd6kuz8+aZe3rZ0Dnh++/lxNq7pjp546+faR7v34RNAR03DxTqAsBBBBAAAEEEEAAAQQQQAABBBBAAAEEEEAAAQQQQAABBBBAIG0CfgV0Bo0eLdfefFNUPzVscfwBB1qPDxozRq69qbM4b97rBsPGj5P/3nhjTKsff/hB2p17nhEk+XjDetl7n32s7eIJ6Hzw7rvS8swds+48OW2aND1nx9JLV114ocx+fUcw5fIOHeSeSTtmjrE3akh+vowddrfxkIYlVmz+3pPxNUMlidqajdFgyYgBA6y2vfXuMjn+hBMi2qqzHZ1V9wRZ98UXxuM6i5HOZmSWd995Ry5ofFbEPh1v6yr5Q4dGzIRibvDmazPk6osvljuLiqRLr57Gw05bnRXnmddfj2qLbqsz1VzTurW8t3SZLF29Svbcay9XzpVULNVxwqhR8vG3G6RatWpRYz2yqEhGFg309HxodVa2LFu82Dp22//+V4ZPuD9mezT00vPmW4wl5J6ZMUPOat7M2i/egM6Uhx+W7p13vJ7Xb9sa8xx3Lr+17rdfrTa9PW+eXNL8bGu/fsOGSedut0fUs3nTJjnx4EOirg/Og+kya7rcmlk0RKZhMmfRJciO3nvHEmPxzjaUzAt4UUmJtDk719i1uLhYmjSJbo+z3qxSnV+KggACCCCAAAIIIIAAAggggAACCCCAAAIIIIAAAggggAACCCCQcQJ+BXR0+Zp5H38kVatWjTK8qElT0aWptDw1fbrk5G6/aT+8sFB0Nhp7ubpjR8kfOkR2231362G90d/71i7GTDx3DRwouoyQWfR2t32GlovatpX7n3g8qg32m+n65KMvTJUWF1xgbffRe+9JizMil9jqVVgot93ZO6KuX37+WVqcfoYVaNEn3137hRxYs6br544ZKknGVhvjDE/o7CU6i4lZ/vj9d7nl6mtkxssvR7RdZ76pseuu1mNdr71Onn/yyYhtdNkkDeAcd8IJxph/9+1GGXv3MHlo3HhjKSMNA+26227GPjpuOvORvWiwafj990mjJk2NZaw0KFTy5lvSLy9P1qxcKSMm3C/tr7vO2iXVcyUVSzPoNO6xR+WSK66IGuf5s4ulbcuWxuNNWuTKlFdfdf1cmPfWbGl37rkR9epsRtqmQw8/3Hp87Zo1UtSrtzGmsdoy7u7hMrhv3x3blzGr0oRRo2VAr17Wdu99+aXsf+ABUf165rHHpNuNHWPW5wzVHHnMMTJj0ULZY889je01SNT39m4RS6jl5feVvPz8qONoeE6DXmZxvn7Nx52BwFivYbcGh4COW5LUgwACCCCAAAIIIIAAAggggAACCCCAAAIIIIAAAggggAACCGSAgF8BHaXq0LmzDBw9SnbaaSdL7vvvNslJh2yfIUNDGR+t/8ZaZmnL5s1S/9ja8usvv0RJn3jKKVLzkENk5WefGYENLRdeeqnc98TjEfU7l/8pa6mspx99VO7o2Mk6ji6d1GfQoIjj6vO6nb3oTDrNz20pJ516qqxbvUaK7rzTWg7K3E4DKXrcyztcI2eeFTnbTCqnkBkqScZW94kVOtJZjk5v0EC+Xb9B7hs5QnR8nOXs884VDTq1ad/eeEqNG9WpE3OcYvVv5uK3RcfPXmIFbMqy0XGeMCUyEJTquZKKpRnQ0fP35TnFUUufDbzzTrlv5D1Gd4aMvVeu6bTjPEtl/J376gwyGnpxFj3/6px0kmz45ht5b+n25bX0sdffXiT/2nvviM11Zp0nHnzQeqyscJlzu7ICMc5Zmt5ZtVIOOewwo35d4u6Mo4+JOL6266J2beWH7zfL66+8HHX+qXHP/v3l5WeflXGTHzP6oeXxBx6QXrfcatVV1qxS7y9bJuc2aGhtp4G/oePGujkMVl0EdDxhpVIEEEAAAQQQQAABBBBAAAEEEEAAAQQQQAABBBBAAAEEEEAgnAJ+BnRUSEMdV91wvRxXt64sW/yOPHzfeGvpqBdnv2UEWezl0w8/NGYGiRUUsW937kUXGbOF2Gd20WWrxg8fIdOmTo2oc9SDD0izc1rKfgfsb8zMsvydd0RngTGXcdKNDzr4YBk2frxkN29mBYZ0eSUNJujMM+WVY48/3pgVxl7OadXKmNlHl4hyq9hDJcnY6j55nTobSx2VVSY+NUWWLlokD9wbGWJo1vIcmfDkk0aoSsvyJUvk5qv+G2HorFNNH37+OflPvXpRh9O+DO3XT3RmlvKKLp+lwalqO+8ctVkq50oqlvYQinoMvneM6Ow1WVlZMv2FF2XUoEFGeEnPAe2/Pu5F0WXebmjXThbO3bEEWazj6PmpgZpaRx1lPa2vg7dL5lkz/ZhPqLfOMmO+rnSJqNkzZ0rHyyNnCmqYky2jHnzQmq1HZ1/S1/dNV10Z8drVcFXfoUOskM7t198gzz4ePaOVHl9nTnpk6lSZ8vAjUeeonkszFy+W6rtUl/eXLpMeN90Uce5pcGf0Qw8a59ouNWrI1j/+kI/ef1/6d+8RsRSYHuexF18wgnPmzD1ujQ0BHbckqQcBBBBAAAEEEEAAAQQQQAABBBBAAAEEEEAAAQQQQAABBBDIAAG/AjrZZzeXTz74IGbQJvf886XvkMFyzHHHxRTduGGDdOnQQeYXz4l6Xm/iDxozRnRJJXt5Z8ECubhps3JH6LNN3xnLaOmyS2WVrr17Se8BA6yndcksDatMHD3amJHEXjR8UzTqHime+YZRr4Y0ruhwjWh4yDlTiRunjhkqScVWAxfa1omjx0T1RZcSO6NRIyno3t3os4YrWl9xuZzVrJm1PJV9J13ea9BdfeSFp56KmE1HQys6xgNH3SN777NPuV2fO+tN43jOgJMuf9RrQGHUODsrS+Zc0TpSsdSAzpMPPWTM6LRs8eKo/mn/+wweJO2vvTZmsMiNc8GsQ/vRL6+7TJ40KWa1PQoK5JbueVboTDfS2YfqHlT+Emw3d8+TvL595ai9ImfccR7kimuvlZETJ8ix++xb7oxKN3btIoUjRshvv/4qhT17Rczao14dbuosN3XrZpwvGrS7NLeFVV/ryy83rhcaSGpe77QK+VZt+UHOrF27wpDfMzNmyFnNy79mVHgw2wYEdBLRYlsEEEAAAQQQQAABBBBAAAEEEEAAAQQQQAABBBBAAAEEEEAgwwW8Dugon4YmDjjoIENy86ZNsnbNGvnh++/lwJo15bBateIOr+isHJ98+KGs/PRT2We//aV23Tpy8KGHRixp5edwffftRtFZW6pUqSKH1Dpcah15pHH41StWGH8edeyxnjfHLVsdj88+/kT+3LZNah19lLV0kHZg7erV8q+99qowXGN29p9//pF1a9bI6hUr5dBah8vRtWsbRomUn3/6ybD9c9ufcuIpJ8d9jpjHSOZcSdZSQyYa3NJgiQZkvlq3Tr78Yq1Uq1ZNDj2ilnGOVq1aNZHup7zt33//bZyHuoyZzjaks+YcefTRngeEkm24hm1Wr1xpzGKjr6Odq1ePqEpnr9Lrhj5nnyUr2eP5sR8BHT+UOQYCCCCAAAIIIIAAAggggAACCCCAAAIIIIAAAggggAACCCAQEgE/AjohoaCZCCCAgGsCBHRco6QiBBBAAAEEEEAAAQQQQAABBBBAAAEEEEAAAQQQQAABBBBAIPwCBHT8G8PlS5bI1ClTXDng6Q0ayEVt27pSF5X4LzCyqEi2/PCDKwfuWVAge+61lyt1UYl7AgR03LOkJgQQQAABBBBAAAEEEEAAAQQQQAABBBBAAAEEEEAAAQQQQCD0AgR0/BvCh8ffJ327dXPlgB06d5bB945xpS4q8V+g5s6RSzil0oLl69ZaS8ilUg/7uitAQMddT2pDAAEEEEAAAQQQQAABBBBAAAEEEEAAAQQQQAABBBBAAAEEQi1AQMe/4ZtfPEeenTzZlQPmXnC+tGrTxpW6qMR/gTu7dJXffv015QNXqVJFhoy9V3apUSPluqjAXQECOu56UhsCCCCAAAIIIIAAAggggAACCCCAAAIIIIAAAggggAACCCAQeoGsrCyjDw1zsuX5WbNC3x86gAACCKRbYGTRQNGlzLQUFxdLkyZNKmxSVmlpaWmFW7EBAggggAACCCCAAAIIIIAAAggggAACCCCAAAIIIIAAAggggEAoBQjohHLYaDQCCARYwB7QiTd2Q0AnwANK0xBAAAEEEEAAAQQQQAABBBBAAAEEEEAAAQQQQAABBBBAAIFUBZo2bSq61BUz6KQqyf4IIIDAdoFLc3Nl4dwS4/8J6HBWIIAAAggggAACCCCAAAIIIIAAAggggAACCCCAAAIIIIAAAgiIGdBRivXbtiKCAAIIIJCigBnQ0aWtdImreAoz6MSjxDYIIIAAAm1XgmYAAAniSURBVAgggAACCCCAAAIIIIAAAggggAACCCCAAAIIIIBASAUKCwulf//+RuunvjlLGmRnh7QnNBsBBBAIhkDNnasbDSGgE4zxoBUIIIAAAggggAACCCCAAAIIIIAAAggggAACCCCAAAIIIIBA2gV0eSudRUcLAZ20DwcNQACBDBAwAzoafiwoKIirR8ygExcTGyGAAAIIIIAAAggggAACCCCAAAIIIIAAAggggAACCCCAAALhFCCgE85xo9UIIBBMgUUlJdLm7FyjcQR0gjlGtAoBBBBAAAEEEEAAAQQQQAABBBBAAAEEEEAAAQQQQAABBBBIi0BWVpZx3IY52fL8rFlpaQMHRQABBDJBYGTRQBlZVGR0pbi42FjmKp7CDDrxKLENAggggAACCCCAAAIIIIAAAggggAACCCCAAAIIIIAAAgggEGIBXeJKZ9LRwjJXIR5Imo4AAmkXMJe30oaUlpbG3R4COnFTsSECCCCAAAIIIIAAAggggAACCCCAAAIIIIAAAggggAACCCAQTgH7MlfMohPOMaTVCCCQfgH77DmJLG+lLSegk/7xowUIIIAAAggggAACCCCAAAIIIIAAAggggAACCCCAAAIIIICA5wL2WXTWb9vq+fE4AAIIIJBpApfm5srCuSVGtxKZPUe3J6CTaWcD/UEAAQQQQAABBBBAAAEEEEAAAQQQQAABBBBAAAEEEEAAAQRiCNhn0WGZK04RBBBAIDGBRSUl0ubsXGOnRGfP0X0I6CTmzdYIIIAAAggggAACCCCAAAIIIIAAAggggAACCCCAAAIIIIBAaAWysrKMtrPMVWiHkIYjgECaBFJZ3kqbTEAnTQPHYRFAAAEEEEAAAQQQQAABBBBAAAEEEEAAAQQQQAABBBBAAAG/BezLXDGLjt/6HA8BBMIqYJ89R/uQ6PJWug8BnbCOPu1GAAEEEEAAAQQQQAABBBBAAAEEEEAAAQQQQAABBBBAAAEEEhSwL3OluxLSSRCQzRFAoFIKXJqbKwvnlhh9T2Z5K92PgE6lPHXoNAIIIIAAAggggAACCCCAAAIIIIAAAggggAACCCCAAAIIVFaBwsJC4wazFpa6qqxnAf1GAIF4BVJd2so8DgGdeMXZDgEEEEAAAQQQQAABBBBAAAEEEEAAAQQQQAABBBBAAAEEEMgQAftSV3n5+ZKX3zdDekY3EEAAAfcE3FjaymwNAR33xoWaEEAAAQQQQAABBBBAAAEEEEAAAQQQQAABBBBAAAEEEEAAgVAIsNRVKIaJRiKAQJoF3FjayuwCAZ00DyaHRwABBBBAAAEEEEAAAQQQQAABBBBAAAEEEEAAAQQQQAABBNIhwFJX6VDnmAggEBYBt5a2MvtLQCcsI087EUAAAQQQQAABBBBAAAEEEEAAAQQQQAABBBBAAAEEEEAAAZcFWOrKZVCqQwCBjBCwh3O0Q6WlpSn3i4BOyoRUgAACCCCAAAIIIIAAAggggAACCCCAAAIIIIAAAggggAACCIRTwLnUVV5+vuTl9w1nZ2g1Aggg4IKAM5zTv39/KSgoSLlmAjopE1IBAggggAACCCCAAAIIIIAAAggggAACCCCAAAIIIIAAAgggEF4BQjrhHTtajgAC7gp4Fc7RVhLQcXesqA0BBBBAAAEEEEAAAQQQQAABBBBAAAEEEEAAAQQQQAABBBAInQAhndANGQ1GAAGXBbwM52hTCei4PGBUhwACCCCAAAIIIIAAAggggAACCCCAAAIIIIAAAggggAACCIRRoLCwUHQpF7Ow3FUYR5E2I4BAMgJeh3O0TQR0khkZ9kEAAQQQQAABBBBAAAEEEEAAAQQQQAABBBBAAAEEEEAAAQQyUMA5k452kaBOBg40XUIAAUNgUUmJjCwqkoVzSywRDSoWFBS4LkRAx3VSKkQAAQQQQAABBBBAAAEEEEAAAQQQQAABBBBAAAEEEEAAAQTCK0BIJ7xjR8sRQCB+AeesObpncXGxNGnSJP5KEtiSgE4CWGyKAAIIIIAAAggggAACCCCAAAIIIIAAAggggAACCCCAAAIIVBYB55JX2m9m06kso08/EchcgViz5mgoR8M5XhYCOl7qUjcCCCCAAAIIIIAAAggggAACCCCAAAIIIIAAAggggAACCCAQYoGyQjoNc7KlQXZ2iHtG0xFAoLIJaDBHl7LSJa3sxaslrZy+BHQq2xlHfxFAAAEEEEAAAQQQQAABBBBAAAEEEEAAAQQQQAABBBBAAIEEBWIFdbaHdHIkL79vgrWxOQIIIOCfQKwZc/ToOmtOQUGBZ0taOXtIQMe/MedICCCAAAIIIIAAAggggAACCCCAAAIIIIAAAggggAACCCCAQGgFYoV0zM7o0lfMqhPaoaXhCGScgDlbzqKSucasOc7i16w59uMS0Mm404wOIYAAAggggAACCCCAAAIIIIAAAggggAACCCCAAAIIIIAAAt4JaFBHi97gjlU0qKNFZ9fRYv7duxZRMwIIVHYBDeFoGEdLrECOPu73jDnOMSGgU9nPUvqPAAIIIIAAAggggAACCCCAAAIIIIAAAggggAACCCCAAAIIJClQ3qw6SVbJbggggICrAukO5pidIaDj6rBSGQIIIIAAAggggAACCCCAAAIIIIAAAggggAACCCCAAAIIIFD5BMxZdebMmWN03vyz8knQYwQQSKeAhnHMUlBQYMyaE5RCQCcoI0E7EEAAAQQQQAABBBBAAAEEEEAAAQQQQAABBBBAAAEEEEAAgQwT0KDO3Lnbl52hIIAAAm4L5ORsX0pPS5DCOLH6SUDH7dGnPgQQQAABBBBAAAEEEEAAAQQQQAABBBBAAAEEEEAAAQQQQAABBBBAAAEEbAIEdDgdEEAAAQQQQAABBBBAAAEEEEAAAQQQQAABBBBAAAEEEEAAAQQQQAABBBDwUICAjoe4VI0AAggggAACCCCAAAIIIIAAAggggAACCCCAAAIIIIAAAggggAACCCCAAAEdzgEEEEAAAQQQQAABBBBAAAEEEEAAAQQQQAABBBBAAAEEEEAAAQQQQAABBDwUIKDjIS5VI4AAAggggAACCCCAAAIIIIAAAggggAACCCCAAAIIIIAAAggggAACCCBAQIdzAAEEEEAAAQQQQAABBBBAAAEEEEAAAQQQQAABBBBAAAEEEEAAAQQQQAABDwUI6HiIS9UIIIAAAggggAACCCCAAAIIIIAAAggggAACCCCAAAIIIIAAAggggAACCBDQ4RxAAAEEEEAAAQQQQAABBBBAAAEEEEAAAQQQQAABBBBAAAEEEEAAAQQQQMBDAQ3obBCRbz08BlUjgAACCCCAAAIIIIAAAggggAACCCCAAAIIIIAAAggggAACCCCAAAIIIFBZBQ78P6yvoPFvIMdtAAAAAElFTkSuQmCC;" vertex="1" parent="hMjfLDBAu4yWCibn9Jns-6">
          <mxGeometry x="32.41" y="50" width="695.18" height="100" as="geometry" />
        </mxCell>
        <mxCell id="hMjfLDBAu4yWCibn9Jns-7" value="" style="group" vertex="1" connectable="0" parent="1">
          <mxGeometry x="200" y="-120" width="660" height="300" as="geometry" />
        </mxCell>
        <mxCell id="hMjfLDBAu4yWCibn9Jns-4" value="" style="rounded=1;whiteSpace=wrap;html=1;container=0;" vertex="1" parent="hMjfLDBAu4yWCibn9Jns-7">
          <mxGeometry width="660" height="300" as="geometry" />
        </mxCell>
        <mxCell id="hMjfLDBAu4yWCibn9Jns-5" value="" style="shape=image;verticalLabelPosition=bottom;labelBackgroundColor=default;verticalAlign=top;aspect=fixed;imageAspect=0;image=data:image/png,iVBORw0KGgoAAAANSUhEUgAABFoAAAJoCAYAAABWXIUPAAAAAXNSR0IArs4c6QAAIABJREFUeF7s3QeUFNW6huEfAypmzBgREBMmlKAoScwREQOIYkSMZBBxBgFBlCSiGABBMRAMgICCZMSEETGhBLOYI3pE7vqKWzXVNdUzPTPVPR3evdZZHqerq3Y9u+bcW9/s/e8KGzZseN3MfjIaAggggAACCCCAAAIIIIAAAggggEBZBHassGHDhg1lOQPfRQABBBBAAAEEEEAAAQQQQAABBBDYKEDQwpOAAAIIIIAAAggggAACCCCAAAIIRCRA0BIRJKdBAAEEEEAAAQQQQAABBBBAAAEECFp4BhBAAAEEEEAAAQQQQAABBBBAAIGIBAhaIoLkNAgggAACCCCAAAIIIIAAAggggABBC88AAggggAACCCCAAAIIIIAAAgggEJEAQUtEkJwGAQQQQAABBBBAAAEEEEAAAQQQIGjhGUAAAQQQQAABBBBAAAEEEEAAAQQiEiBoiQiS0yCAAAIIIIAAAggggAACCCCAAAIELTwDCCCAAAIIIIAAAggggAACCCCAQEQCBC0RQXIaBBBAAAEEEEAAAQQQQAABBBBAgKCFZwABBBBAAAEEEEAAAQQQQAABBBCISICgJSJIToMAAggggAACCCCAAAIIIIAAAggQtPAMIIAAAggggAACCCCAAAIIIIAAAhEJELREBMlpEEAAAQQQQAABBBBAAAEEEEAAAYIWngEEEEAAAQQQQAABBBBAAAEEEEAgIgGCloggOQ0CCCCAAAIIIIAAAggggAACCCBA0MIzgAACCCCAAAIIIIAAAggggAACCEQkQNASESSnQQABBBBAAAEEEEAAAQQQQAABBAhaeAYQQAABBBBAAAEEEEAAAQQQQACBiAQIWiKC5DQIIIAAAggggAACCCCAAAIIIIAAQQvPAAIIIIAAAggggAACCCCAAAIIIBCRAEFLRJCcBgEEEEAAAQQQQAABBBBAAAEEECBo4RlAAAEEEEAAAQQQQAABBBBAAAEEIhIgaIkIktMggAACCCCAAAIIIIAAAggggAACBC08AwgggAACCCCAAAIIIIAAAggggEBEAgQtEUFyGgQQQAABBBBAAAEEEEAAAQQQQICghWcAAQQQQAABBBBAAAEEEEAAAQQQiEiAoCUiSE6DAAIIIJA8gV9++cXmzp1r06dPt8qVK9uAAQMiudiaNWvsrbfesk8//dS23HJLq1Onjh122GFWsWLFSM4f9Uk++eQTmzp1qj355JM2YsQIO+aYY6K+BOdLY4F///3X3njjDXv++eed34WlS5emcW+L79qGDRts2bJl9sILL9iMGTNs5MiRVqNGjeK/yBEIIIAAAgikuQBBS5oPEN1DAAEEclXgo48+cl4oZ86cabNmzfIYzj33XHv66afLxPL+++9b8+bN7eOPPw49j64xatQo23HHHct0nSi+/OKLL9q0adMci88++8w75SuvvGJ169aN4hKcI80FNPaTJk2yyZMn22+//eb1VkFFprV//vnHeZZnz57t3NN3333n3cLbb79thx9+eKbdEv1FAAEEEECgkABBCw8FAggggEBaCjz22GP2+OOP26JFi2JeLssatIwfP95at27t3PPBBx9sjzzyiNWqVcvee+89GzdunN17773OZ5rZor+yV6lSpVx9br/9dueldOHChTH90GyGo446qlz7xsVTI9C1a1cbO3ZsTCihK2di0PL111/bFVdcYd9++629+eabMYAELal5nrgKAggggEDyBQhakm/MFRBAAAEEyiDw+++/O2GH+5f8sgQtixcvtgYNGji92WuvvUwvdjvttFNM76699lpnCYN7zJIlS5xjy7sNHjzYOnXq5HXjnXfeccKgZDW9xOs/m2yySbIukRbnzZT71LKhFi1a2HPPPee5ZWLQ4h/0gQMHWrdu3bwfEbSkxa8EnUAAAQQQiECAoCUCRE6BAAIIIJBcAdVOef31152LlDZo+e+//6xevXreeYYMGWI333xzoY7rhfaQQw7xlhW1a9fO7r///uTeYAJn13KLM844wztStS3Uz2Q1BU577rmn3Xrrrcm6RFqcN5Pu84477rCePXtmTdCiZXEnn3wyQUta/CbQCQQQQACBKAUIWqLU5FwIIIAAAkkROOGEE7ylM6UNWp544gm7+OKLvf5p6cKuu+4a2t/gC+3nn39e7rNaXnrpJTvxxBO9/n7wwQd24IEHJsVbxXYvuugi07KlXr16JeUa6XDSTLvP4cOH24033pg1QYsKXDdp0oSgJR1+GegDAggggECkAgQtkXJyMgQQQACBZAhEEbS0adPGHn30Uad72267rf36669xu7pixYqY3U86dOhgWrpTni0YtHz44YdWs2bNyLu0fPlyb6ZMNgctmXifBC2RP+6cEAEEEEAAgaQIELQkhZWTIoAAAghEKRBF0FK7dm2v+OYBBxxg2tWoqLbddtt5dWE080UzYMqzBYMW7ZgU9Va4X331lR1//PHe7kbZGrRk6n0StJTnbyDXRgABBBBAIHEBgpbErTgSAQQQQKCcBIoKWv744w/T0p54bffddzeFJptuuql3iIrIqphsUU31TzTrwW2aAaOZMMlu33zzjb322mv26quvOpc64ogj7NhjjzXNYPEvHfrkk0+sevXqod353//+52wJre+sXLnSZHTooYc659KW0JUrVy70vU8//dQaNWpkX3zxhfeZdme64YYbvH/XOSpVqhTz3dJcy38C1cRRX7Xrk8Zxn332cWbUHHfccfbll186dWLiLfFyz7N69WonRNPx2pJbu0hpR6nNNtsssvuMetx131r+pQKw2rZbNYSqVq3qjMF+++0Xerl4Qcvff//tbIGu86lotGoa6ZkJG+ewE6svelZkqO+r+LPGIN7zFXYOPWMaQ3ccttlmG+f7qsGi37+wVtzSoVWrVtm6detCv6uxLUn/oh4/zocAAggggEBRAgQtPB8IIIAAAmkvUFTQopdP7V7iDwjcG9IL44MPPmjHHHOM7bLLLt59Frd0SAeecsop9sILL3jfSfYuP3/++ae1bdvWJkyYENNPd7clzTTxb/EcL2jRltTXX3+9NytF39NLsLuVrkKLOXPmxBTSVUChraK/++67Ip+FoEFpruW/gM6nJV3vvvuu82OFK/rv7j3rZ9pl56yzzgrtlwoEX3755aH9VtAyZswYJ3RwW2nvM+pfEG1dfskll8Q9rbY/vvPOOwvtiBUWtEyaNMmuu+66UAN9dt5558W9jsKd/v37xy14rHpI2u68qC3O//nnH+f7d911V+h19Lt2yy23WOfOnQsFX0UFLT///LM1bdq00BbQ7kUU4MycOTPqoeF8CCCAAAIIRCJA0BIJIydBAAEEEEimQHFLh3788UfvpVQvdnfffbedf/75zuwGNf3FfvPNN4/pol7m9Vf3eO2CCy6ICT2efvppZ8ejZDSFRGeffbb3UvnMM884s1fUv1deecWuueYaL4xwrx8WtPh3JtLMCIUU7mwC/9IjGS1dutRbeqSlNGPHjjVtpa1CwP6X2YYNGzr/WrFiReeFfsstt3T+vbTXcs+tUEczT/TPli1bmkIEhUB6+Vdw1qNHD+dQBU8aS3/TMeqnCvXqO9o5SLNAdB/Dhg2LCR10Xwpz1Epzn1GOt8I01ftR+KemmkGnnnqqM1NKz5cKELtN4eC8efNiZhAFg5b77rvP2rdvX2QXFbAdeeSRhY7RDK3LLrvM9KwpZNPspe23396Z2eIPTdS3l19+2ZkRFWxr1qwx/Z7oGd1///3t4YcfdmZMaZZT7969TTt7uU0zo+65556YUxQ3o0UHd+/e3Qmd1PScyE/XqFChQpRDw7kQQAABBBCIVICgJVJOToYAAgggkAyBooKW77//3k477TRn22b9lfuRRx4xLRcKtsMPPzwmrJg8ebI1b948bnf1mV5C3TZx4kRr0aJF5Lenl28VtXVn5OilVS+S/qaAQDsM+Wd6qGBvtWrVvMMUJmnpiXsezURQMOJv55xzjhO+qGmWQb9+/WI+l6V/5o8Cq06dOhW65yiupWu7W0eHzRbSdVWAWLM/WrVqFdMH97sKWRYsWBBTFFi1d/S8+GfnaPmUfzlOovcZ9WC7z5TCC81O0jPpb5q5M3XqVO9HCmIUgLgtGLTo51oGJycFYgo4FJLk5eV531E48dRTTxW6Fc0W0cwmzSLSzBB/6Pjss8/GhIoKYvRc+sNKPYtauiNnhUKa3bTTTjt519EsKoUv/nHQEik9o24rLmgZN26cXXrppc7hQYuox4bzIYAAAgggEKUAQUuUmpwLAQQQQCApAvGCFtUVOemkk5xlMvqLuV44w+pyqFNXXnmljRo1yuvfhRdeaNryOV7TeVX3wm3z5893XuCjbvprvf5qr6Z/ailHWLvtttusT58+3kfBoEVhgl5s3aaX7fz8/JhTde3a1ZutoBfsRYsWxXweDCAGDRpkHTt2LNSdKK7l9w3bQcnd+UnLfzTzwm0KnVS3RS3ey7dmxHTr1s37jrb1Hj9+vPfvid5nlGOtIEKBoFq8AEthnoIRtwWLEQeDFt3X6NGjbYsttojpqr+Qc9gyOYU57nKsYAjlnii4dE6zcK666irvOv6ZJqon5F+i5R6koE+zbtymGTruDCn9rKigxR+mKQgKm5UT5fhwLgQQQAABBKIUIGiJUpNzIYAAAggkRSAsaNEMFv1VXn9Z11/xVQOiqKalNtptyN80Y0WzPIJNAY5e7PwzSFRoVLNKomz6a/9uu+3mnVLX9Ycl/mspKPDPbggeq+U0++67rzejRbMBgnVA9OLuznbQdXQOfwsGEAqutFQj2KK4VoMGDWzx4sXOqRUuaImPuyzJvZ5e3lWvREun3OYPzH766SfbYYcdCvVPz4b/xV+1evwFkxO9z6jG+q+//nKW3igQVPDx9ddf29Zbb13o9OvXr3eCCLmE1dIJBi3aCSusUHBwZowKyrphjGa9qC/atapevXq2ZMmS0NvU2PtnMylkcZc86XdBNXDUTj/9dKeYcViT+dFHH+3MatHMG42LlqC5LSxoURFeBTS6ln5fFXaqQDINAQQQQACBTBIgaMmk0aKvCCCAQI4KBIMWvXyfccYZjsaTTz7p1IlIpLnLUfzH6gW/SZMmTuChF0H99dw/c8Q91v+ymsi1EjlGdUZ69uzpHKoX1/fffz/u14LbOweXYeiLeqHVrIidd97ZCS/8dSxUx0a1TNxiu2EzHYIBhGps3HzzzaF9Kuu1gjOM9CKuvmkZldtUvFYv5u5yJhVe9c/eiBdKrV27NiYk0/n8NXlKcp+JjGNxx/hnkBQVTLjn0fInLbHxhxL6LBi0aEzdOkT+PvTt29epX+M2jZVrqCVL/plZ8Qz1fPmblgdpNyw1hZqa7aQWb9aT+10FOzqXf1zdz4JBi/o2YMAAp/6PijhrmVvY/RXnzecIIIAAAgiUtwBBS3mPANdHAAEEEChWwB+0+A9WwVe9rCXaNLNAwYH7l/l431MI4Z/NokK1qlsRdVPxUwVFasVdI5GgJax/Wh6k+9UyG38ra9BS1mtp1oZmtQTbjTfe6NSP8c/0cY/REqODDjrI+4rMEmkKZx566CGvMHCqgxaFB25xXz1//iKxifTfPSbRoOX++++PKZLrn/migrX+JUCJGioocYvS+pd9laVIdDBo8Vso1FG4Q0MAAQQQQCATBQhaMnHU6DMCCCCQYwLxghYx6MVRM1xK0lRgdcSIEU6BT3/TS6deQlUH5Oqrr/Y+0otru3btSnKJhI7VMonly5c7x+r8uk68Fgxa4tXW0Pe1tEfFfjWzQdslK1TRLAQtWRk5cqRziUSClqFDh9pNN91U5L2U9lo6qZYxaTlTWJOFxmCTTTbxPp4yZYoTSKn5Z1gkhO07KBi0JHKfJb2G/3gV83388cedH6kAcNiMqUTOH0XQ4p/VpfDHv8tUIn3QMf4aMNoCXcFLaVpRQYuWDb3xxhvOc0pDAAEEEEAg0wQIWjJtxOgvAgggkIMC/qBFNSn8O5mII94WtsVRafccFV1VAV3V8VCNkA0bNjg1LNwAROeIt0SjuPMX9Xlwy2ltYewu6wn7XjBoWbVqlVOTJdg0E0BhkQIWNe0+dPnll9tWW23lvOCrqK5aIkGLtuNVkeF4rSzXcs/5wAMPxA2xtIuUZhK5tVu0dbN/KZNCntJs8xsMWoq7z7KMs77r3/GquCLMRV0riqDFv/NUcbOowvqiujiVK1f2PtL4+UPJklgFgxYtY/IvWdLyN834Ks0Yl6QfHIsAAggggEDUAgQtUYtyPgQQQACByAWCNVr0suhu+6qLKSRRsBBFPQfVhfAXyNXuNVr6EXXTts7+gqjaQnfp0qVxL5NI0OLvu4IUhRSqP+O2kgYterG//vrrQ/tU1mv5T6rQSAGKu/W0/zPtrKNlT5rZoplI/gK/2sra3YGoJOMTDFqKus+SnDfesf7nVzM1VIOlNC2KoMVfGyesIHJx/dLyu0qVKnmHaamXArDStLAaLSp87A85kx2ClabffAcBBBBAAIHiBAhaihPicwQQQACBchcI23UoWEz1zDPPdIIF/1KTknZcxVdVA8Rfn0U/q1KlSklPldDxe++9t7dLkL7w888/2/bbbx/63WDQsnr16pjdWBQ66Hxu09bVmj3hbyUNWjQbRjvABFtU19ILu/+l/cUXX3Rm0GhHHH/TzjMnnniivfzyy6Ztqd2WyG5TOlazJN566y0777zznK8Gg5Z495nQICZwkIoQu0u2dHhwm+OwU2hmlZbO+OuURBG0+LcT13W1fK5u3brF3oVq/Wy++ebOsdWqVfNmnijQ07NYXMipZ1tFimvUqOFdK2zXIRUAdnc0cg9UPZ9jjz222D5yAAIIIIAAAukiQNCSLiNBPxBAAAEE4gqEBS2aEVK/fn1viYy+3Lt3b29pTEk5tZRHxXXdLYf1/bCwoqTnLep47ZykHVbcVlQtmOKClq5duzrbXLvt119/LVTfoqRBS7zZBFFcS2Papk0bU2DmbxpX/Vw1ZtzWvXt369+/v6mo6+677+79PJGXfO16o3BG20AryFFL9dKhYECiHXUWLFhQ5KOkWSLaOUjL5NylU1EELSpe6wZO6kAiBaUVpNSqVcsp6Kv/+JcfJfJ7p9Do3HPPNf2O+beCDgtatMxKv3eayeQ2LRdUUJaswDPK32nOhQACCCCAgAQIWngOEEAAAQTSXiAsaFGntQTjwAMPjOm/6pyo3klJm3a60cu821RgV4V2k9nuvvtu69Kli3cJLSt55513vBdr/7UVyLhbWuvnWl7h34GncePGzkwJt+mldtNNN43pvpZ56GVdLaxGyw8//OBsDe02mfTr168QQRTX0o5DeoHWi3+wrV+/3ho2bOiFXqrV8dRTTzmHKVzzFzG+7LLLnF2VNNsi2GSgpSijR4+2OXPmmPqtluh9RjX26q/67W8qSjtw4MDQGVjudtD63P98BIMW3Ye/Xop7/vvuuy9mJpJ/16FgyKTvaEemYODlnkvHq1aO6iC5tYqCz62OLer3TkGZZtIsWbLE6tWr5zHEC1p0QHAWkJbWaftn/wyoqMaH8yCAAAIIIBC1AEFL1KKcDwEEEEAgcgH/y7X+Mu5/OZ84caLpRdzfgi90xXVo0qRJMeGMQha9rGoZQzLbH3/8YaqT4S/uqyVQuidtSew2zQjQMiB/sVz12T8zoWnTpk6Y4LYxY8aYQgi3KcDRTAr/sqi///7buUcVldWSK/27O3tC3/MX6FVooSBHS3iiuJaCFs0e0rKeqlWrFmLWbA7tmqSWn5/v7FCkNnv2bGvWrFnM8ZqxMn78+JjiwCpyrJ2WVPfl1FNPtenTp3vfSfQ+oxx7zdIJbrGt51YhhGaLqCCzdoXSLkBayqTn4r333osJFhR6adcitwWXj7k/V0Cj2kJu+/TTT53zuU0FkYM7H7Vv394Jfvx1g+bPn+8UutVSLn/oo1lH6rO/cK3OrfHSc6qlRXpm1X+NgZZ+qbbOuHHjYkiDY/n22287hYPVVAtGz4gCHrfpedTuTbKiIYAAAgggkM4CBC3pPDr0DQEEEEDAeWHTchE3jAjb1tc/U8MlS6Sug17mtL2wv9itXnT18puqnU708ukv7Kv+azmHfnbkkUc6IYj6F9yRSDNSFMoo9NCuQnoh1swEf9NLr2a96IVWswGCTS/6mhGkUEJBhdpuu+0WE/yMHTvWatas6cz2UZCj+ix6eS7rtdygRTMcZsyY4Szt8Tf/Tj0KiQ477DDvY/e7wftRmKDvqY+vv/6687FmCWlGSbCGSCL3qW2Mo2qaVaL6JP6gq6hz+0MH97hgXaJ4z7hCE/9W4Zo5omfKbZoJo3ArrC/6/VJx6ffff9+rlaNlPCpE7P+dCAu8/Pej59M9v8ZFS3+Cno888oi1bdvW+1pwq2g9l5rJ4u+n+qLvhc1gimqsOA8CCCCAAAJlFSBoKasg30cAAQQQSIqAAhb9hX/UqFGF6q7oJf+UU05xajZoJoZexMJeijULQi+nenH0N21Rq2BBf9V3AxzN9lDo4n8hTcqNhZx0yJAh1rFjxyIvpxdgNzxwD1RIcdNNNzmzCPRirG2p4zUVmdUymrBjBg8ebB06dHC+qpkQmr0QbHpx1swEFUON4lr+sEQv07KvU6eOaQcizfxwlzhpmYqW2fiblrCoTkhYeOQ/TkVVp0yZ4sywCLZE7jPq8dd22BdddFGhmSD+6+hZVVHn2rVrez/WDBKFEM2bN4/pkp5V1XI55JBDnGViv//+uzNGCun84YSebf3OKDBzm8Krk046qdBW6cF71qwpjYe2Bw+2YFAS5qXZRwpptEzMbQo4FbwoZPEXPtbMpBEjRjjjtc022ziHB2fx6GcK3fQ7o2co2bPOon4GOB8CCCCAQG4IELTkxjhzlwgggEDGCSgY0BKKoppewlq3bh2zZCTseBWSVSihnV9U/8Jfy0TLSvTSrZog5dk0Q0CBgrap9je9eCv40Iuqlu1odoDCI4UrwSU3OkerVq1iXp718qqlInqpVtPnWn6hpiBCs1P8swrWrVvnXMdfFFjHabmW/0W9rNdS3R1d65dffim0y5DbN71Mu/0Ojo2W/2hLaP9uPv5jtIxF9U3ivYgnep9RPxMqUqx+qeCrPwxRkKXwaOjQoYXqrsg9uBOTv1/uFuTBXayCfQ/WUdGOWlrS5F9y5n5Hz5uWz/mXp4VZaNaJZtAo4PE3fV87VqnOj3+pz1dffZXQltxaqqaZaupDvKZnW7sh0RBAAAEEEEg3AYKWdBsR+oMAAgggkBQBbS+rFzO9tKq+hP7Kr9ov/poUSblwCU+ql28tG9HsBIUsWvqjF1UVJdVLrWaUFLWsSS+oOk7HaDmOlsj4m2YKrVmzxlRw1l+3I9hN1d/44IMPnNkD/m2j/ceV5Vq6H21lrSUgumddT+GH+qUAScvFElm+pT6oKLLMFKpodoeW6CS6tCSR+yzhECZ0uJaEqXaKZldp9oaey2Dx4oROFMFBmmGigE8FlhWQyHDfffdNyN+9vIIvzXTS+Gns4j0zEXSXUyCAAAIIIJD2AgQtaT9EdBABBBBAAAEEEEAAAQQQQAABBDJFgKAlU0aKfiKAAAIIlLuAamyo3kQUTTNqSrMNdRTX5hxFC6xdu9Yp/qvZMmVtmlHUs2fPsp6G7yOAAAIIIIBABgkQtGTQYNFVBBBAAIHyFVCBVtWNiKKpvohqkNDST0CFWlWgN4qm+jZaUkNDAAEEEEAAgdwRIGjJnbHmThFAAAEEyiigoqHaaSWKpsKnwV1kojgv5yi7gAq2aovvKJpqrzCjJQpJzoEAAggggEDmCBC0ZM5Y0VMEEEAAAQQQQAABBBBAAAEEEEhzAYKWNB8guocAAggggAACCCCAAAIIIIAAApkjQNCSOWNFTxFAAAEEEEAAAQQQQAABBBBAIM0FCFrSfIDoHgIIIIAAAggggAACCCCAAAIIZI4AQUvmjBU9RQABBBBAAAEEEEAAAQQQQACBNBcgaEnzAaJ7CCCAAAIIIIAAAggggAACCCCQOQIELZkzVvQUAQQQQAABBBBAAAEEEEAAAQTSXICgJc0HiO4hgAACCCCAAAIIIIAAAggggEDmCBC0ZM5Y0VMEEEAAAQQQQAABBBBAAAEEEEhzAYKWNB8guocAAggggAACCCCAAAIIIIAAApkjQNCSOWNFTxFAAAEEEEAAAQQQQAABBBBAIM0FCFrSfIDoHgIIIIAAAggggAACCCCAAAIIZI4AQUvmjBU9RQABBBBAAAEEEEAAAQQQQACBNBcgaEnzAaJ7CCCAAAIIIIAAAggggAACCCCQOQIELZkzVvQUAQQQQAABBBBAAAEEEEAAAQTSXICgJc0HiO4hgAACCCCAAAIIIJAqgXnz5qXqUlwHAQSyQKBRo0ZZcBfR3wJBS/SmnBEBBBBAAAEEEEAAgbQWUKAyf/58p49uuELIktZDRucQSGsBN3Bx/9mwYUPL5RCGoCWtH1c6hwACCCCAAAIIIIBANAIKUnr37u0FK9GclbMggAAC8QXy8/MtLy8v54gIWnJuyLlhBBBAAAEEEEAAgVwSSCRgadTgOIfE/Wcu+XCvCCBQNoF5ixY7J3D/GXY2BS5quRK6ELSU7Zni2wgggAACCCCAAAIIpKWAZq+4LzfBDipQyevWhWAlLUeOTiGQ2QIKXOYvftnyBwwMvZFcmOVC0JLZzzC9RwABBBBAAAEEEEAgRiDeDBbCFR4UBBBItUDvO+9yLhkMXVS/RbNbsrWOC0FLqp80rocAAggggAACCCCAQJIEwmaxELAkCZvTIoBAiQQUugQDl2yd3ULQUqJHg4MRQAABBBBAAAEEEEg/gbBZLApY5k59Nv06S48QQCCnBYKBSzbObiFoyelHnJtHAAEEEEAAAQQQyHSBsFksClgobJvpI0v/EchegWyf3ULQkr3PLneGAAJvpNzcAAAgAElEQVQIIIAAAgggkOUCwZCFWSxZPuDcHgJZJhAMXLJlKRFBS5Y9qNwOAggggAACCCCAQG4IBEOW/O5dnZ2EaAgggEAmCWRj2ELQkklPIH1FAAEEEEAAAQQQQMDMgiELS4V4LBBAIJMFtCV04zPP8W5BdVvmzp2bsbdE0JKxQ0fHEUAAAQQQQAABBHJRgJAlF0ede0Yg+wWCYUsmLyMiaMn+55U7RAABBBBAAAEEEMgSAUKWLBlIbgMBBEIFsiVsIWjhAUcAAQQQQAABBBBAIAMECFkyYJDoIgIIlFkgGLZoCZGWEmVSI2jJpNGirwgggAACCCCAAAI5K1ChQgXv3il8m7OPATeOQE4IBMOWDRs2ZNR9E7Rk1HDRWQQQQAABBBBAAIFcFPDPZiFkycUngHtGIPcE/LsRZVpxXIKW3HteuWMEEEAAAQQQQACBDBIILhna8NPaDOo9XUUAAQRKL6CdiDS7RS2TlhARtJR+zPkmAggggAACCCCAAAJJF/AvGWIb56RzcwEEEEgjgUxdQkTQkkYPEV1BAAEEEEAAAQQQQMAvwJIhngcEEMh1gUxcQkTQkutPLfePAAIIIIAAAgggkJYC8+bNs8aNGzt9a9TgONNsFhoCCCCQiwKZtoSIoCUXn1LuGQEEEEAAAQQQQCDtBZjNkvZDRAcRQCBFAv4lRJlQGJegJUUPBpdBAAEEEEAAAQQQQKAkAv7aLBTALYkcxyKAQDYK+Ge1pPt2zwQt2fgEck8IIIAAAggggAACGS3AbJaMHj46jwACSRDwz2pJ9x2ICFqS8ABwSgQQQAABBBBAAAEEyiKg2iyq0aLGbJaySPJdBBDIJoEKO+7i3E66Lx8iaMmmp457QQABBBBAAAEEEMh4AX8R3PzuXS2vW5eMvyduAAEEEIhCIFOK4hK0RDHanAMBBBBAAAEEEEAAgYgEWDYUESSnQQCBrBPIlKK4BC1Z9+hxQwgggAACCCCAAAKZLEAR3EwePfqOAALJFsiEorgELcl+Cjg/AggggAACCCCAAAIlEHCDFpYNlQCNQxFAIGcECFpyZqi5UQQQQAABBBBAAAEEohEgaInGkbMggEB2CvS+8y7LHzDQubl03X2IGS3Z+exxVwgggAACCCCAAAIZKEAh3AwcNLqMAAIpFciEbZ4JWlL6SHAxBBBAAAEEEEAAAQTiC/gL4c6d+qw1anAcXAgggAACPgF/0JKfn295eXlp50PQknZDQocQQAABBBBAAAEEclXAH7Rs+GltrjJw3wgggECRAhV23MX5vFGjRs7yoXRrBC3pNiL0BwEEEEAAAQQQQCBnBRo3bmxaPqRG0JKzjwE3jgACxQgQtPCIIIAAAggggAACCCCAQEICBC0JMXEQAgjkuIC78xAzWnL8QeD2EUAAAQQQQAABBBAoToCgpTghPncF/vzrL5u7cJE9PXWarVv3t41/aCQ4JRRY+/0PNmP2bJvwzHN2arOmdt2VV5TwDBxeXgIELeUlz3URQAABBBBAAAEEEMgwAYKWDBuwFHf3u7Xf2/iJk2zW3Hk2Y/ZL3tVPPbGpTZ/4ZIp7k5mXe2/5BzZ5ylSbPmu2vf7mW95N3HV7vnW+4brMvKkc7DVBSw4OOreMAAIIIIAAAggggEBpBAhaSqOWO99Z8dlK69izl726dKkpdHHb2aedas+OH5c7EGW40+emz7AHxoyNCap0uqH9+9lN7a4uw5n5aioFCFpSqc21EEAAAQQQQAABBBDIYAGCFrP169fbpptumsGjmPyu//vvv7b5Lnt4FzrvrDNs0tgxSb2wrrnZZpsl9RqpPLlms9RpepJ3yXvvGpDUpUMbNmww/WeTTTZJ5W2m/Fqpuk+ClpQPLRdEAAEEEEAAAQQQQCAzBXI9aFHdkfrNTrHhAwfYCcfWz8xBTFGvazdqam++865ztZbnnm1PjX44aVd+8ulnnFkgc6c+m7RrpPrEP//yi+24X3XvsiMH323XtL00ad24tmMX27PKHnZr545Ju0Y6nDhV90nQkg6jTR8QQAABBBBAAAEEEMgAgVwPWvSSNnLMIzZv2nPW8LhjM2DEyq+LDU453Ra/+prTgYtbnJe0YrgffbLCDqxT3xo1OC6rgpa/1q2zSnvs7Q3gQ8OG2JVtWidlQBVUXXTF1Xb7Ld2tV5dOSblGOpw0lfdJ0JIOI04fEEAAAQQQQAABBBDIAIFcDloemzDRLrmmvTNKBC3FP6z+oOWSC1rauJEjiv9SCY/4488/rU6Tk2z5Rx9lfdAyavgwu7z1xSUUKv5w2R1Sr4FzYDYHLam+T4KW4p89jkAAAQQQQAABBBBAAAEzy9WgZeGSV+yE0870ngGCluJ/HZIdtPzzzz924RVX2zPTnnc6k+0zWkbfe4+1bXVR8fAlOOKrb76x4089wz5btTqrg5byuE+ClhI8iByKAAIIIIAAAggggEAuC6QyaHln2fv2/Iuz7JILzre999zTYdfWt/MWLbbVn39utY843E5u0tgq77hjwkPy7Xdr7b3ly53zVKy4uR1cs6bzn9123SXuObRN8WnnXxjz+aC+t1uDenWdn6kwrvoSVVPfvv7mm0KnU5BQsWJF5+drv//B3np3Y/2TYDupSePQn6sI6Btvve1sG9zp+va2zdZb27q//7bnnp9hyz74wL77/ns7otahVu/oo+3Iw2oldDv/+9//7N33l9srb7zhvKxX2X13O65eHTvqsMOsyVnnekuHLr3oQnvkvuFxz6kga+nb79hnq1bZt2vXWvWqVe3Iww5zXKvuu0+h76lWTos2bWN25jmgejV7dOR93rH77L2X7b7rrqHX/OHHH+2td9+zFStX2iYVNrFDDz7IDjvkYMck1e2333937n3J66/bTz//YgdUq2b16xxt+++3X8zSoTEjhttlF8c+h25fNQ7TXnjRPvzkE1u5eo398cefdujBB9oRtWpZ3dpHhf6OfLpylTU642z74quvvFtu3fJ8u+HqK71/l0ulrbaKISnNtfwnUNFi9VXP+edffmn77LWXHXJgTTuubl378uuvbc899rBdd9m5yGHQ77/q/+j4HXfYwWodfLAdXPOA0GLIpb3Psj4HBC1lFeT7CCCAAAIIIIAAAgjkiEAyg5b//vvPCQK0va1qKbh/ZV8ya4ZV3Wdfu7ZTF2/2gp/7yVEP2QXNzylyBF5+7XW75JprvXMGD1bYMvreYVb36NoxH704Z66dfF7LYkd3w09riz0m0QNU1HXwfffbxys+jfnKq7NfsDq1j3J+9trSN+2qmzo4IUewBfuiQOHZ56eblj65pl9+8J4teHmJ3dT9lphtmN1zKRi5f/BdttWWW8bt9ux58635JZeZggK1bbfZxvvvCi30wu9+poBAQUGwKRi4sdstNmvuPOcjfU/BmcI0t00YM8rOP+esmK/6Z8vE62DYLj2q53LxVdd4RXr931X/7xs00Fqd38IqVKiQ6HCV+jgFX3cPH2Fd83p75/AbnnnKyTZ15gveZ/GCFgWB13fp5o3t8fXrmZZUuYWIFVrMmfKMHXLggd65FFAc1bBJ6Nj7b+idRfOdMXFbaa4Vc75l71ubdu295/a4unWc/+4+Jzr2uccftbNOPSXUVcHr5dffGNpv/Q6PGXGP9zuiE5T2Pks9qL4vErREocg5EEAAAQQQQAABBBDIAYFkBi0de/ayIfeNLKSoF+bbB95d5EvhB6+9bAfWqFHou/rr+R2Dh1pe/zudz/Tymt+9q+2y80626JVXbewTT9oLL831vtft5hutd/dutsUWG2eOaKbG3IWLbNnyD+3xSZO949q1vcz22XvjLBvNttFMgKhbm3bX2aNPTfBO+8qsmYWCoLAXSX/QEi+QUPDxyONPFtnlY4460hZMn2pbbrFFoeNGPDzKru/S3fm5Ct3e1rWzaUaJXvAHj7jf83a/GBa0rFrzudU98SRnXBUwvD5nltWssXGXnTVffGHHnXy6N9tCW0Nri2i3DRw23Nb/t976Dx7mvaTvv9++McVi1a999y4oJquXdBV81Uu9Zm0cfuihtu7vdTb2iadMWym77YpLWtnD9wyNejhjzqeZRO06dHaeP7U782+zNhdd4MzA0b137pVnE5+dEvOdsKBF93TGBRvrtmjGk0KK7bbd1vn3l+YvsBPPOc/57/JdOu8lq1Ftf+fftZRG1/799z+c3w+3ndy0sVfkueLmFe26q67wxr+013LPrXGuddzxznhrF6rhdw5wZq4oYB14z3Dr0buvc2hYsKZj1M9e/fo737n28ra23z77OPcxbOQDMf/bMPb+e63NhReU+j6jGniClqgkOQ8CCCCAAAIIIIAAAlkukMyg5etvv7X3P/jQbunTL+bF131R7Nmpg51z+mnOMp+Bw+61/kMKXhAVfGgGRrD1vvMuyx8w0PmxlsQsfuF522STTbzDtAzilBYX2JwFC72f5XXr4oQx/qZZNue0auP9yD+7JFlD/tTTz9qFV1zlnT4saNGHV9xwk41+7HHvOH/Qohks7yxbZrf27e8UjPW3U09saj07d3SW5iz/8CMnINGMBX+7587+MUtJ9NmDj4yzazps3JlGYYZebDfbbLOY7912xwDrc9cg72dhQctl7W/wgoZzzzjdnn70kZhzDH/wYbuxWw/nZwp9XnvpxULUKuLq3tfpJzWzaU8VOPgP1uydhqdvnBUzedwYa35mQWijcOjk5ud7y5x0jPqiPiWrKfDRrC01zaJRcOBvCgi19EpLqtzmDxD0Mx1T9fDaXhgVNoNHz6yeXbVbOt5s/Xr1jLnO9z/8aLtUr+n97O4+vZ1lZcEWxbX6DRpit/a9wzl1cKaMftbp1tucZ/CxB+93ZhX5m/tdhSwLnp/qBXI6RrOUTjj9zJiwZeU7b9p++xSEbIneZ5TjTdASpSbnQgABBBBAAAEEEEAgiwWSGbS4bFNmzLSzL77EU9RMhekTnox5udJfuHfYt5o3m0FLEBbN3FgU1W1alnJQnYItmN+cPye09ojqdRxxfOOYWhXBF8Fg0KKXfr38J7MFly3FC1o0+2HQvQW1ScKWMekFVi+yblPwoV1s/KHT+vXrrcftfe2ue+71jtNMiM/ff8e2324752c///KL7XPoEZ772hUf2c47VS7EoPBimz33jblecOnQ3occ7pmHjZ/qeJx5YSvvHH9+/XmhpUyJBC16Vo5p0sxZShNvtopmLtVvdmrMff+8+tMYn6jGWsvYjjv5NOd08QIkfaalWc3OLQgcgkGLlmbtf0TBUrewgFDLktzxDDMOBhCqPdTxumsL3WoU1zqp+fneErEPX1sS8/usC674bKXVqF3HWWLmr0WjWSt7HrSxZtCjD9wXOntMM5y65d/u9Tu4nXii9xnVGOs8BC1RanIuBBBAAAEEEEAAAQSyWCAVQYsKgx7d+ERP8aFhQ2KWhLgf+P9ar0Dg189Xxsg3Pbu5N1NFSyJmTipYhhMcoqH3P2AdbrnV+3HwpTQYtGiZy9FHHpHUkU40aPG/TKtDYUHLmPFPOLUt3BYvdNIMnwPr1I+pZeOf3dGzTz9vqUlxS2z8QYq2JVaw429X3nizjXp0vPOjsM9Vp0Uvq277Yvm7TqFUf/MHLVoWNuWJxwqNiX9b7hcmT7CwYsEKmTbbefeY7656982YpUdRDLbqshx70mnOkjS1eMGBPlPB1/0O21iTR03bY2ubbLcpQNq31pFeWBX8XMdpyZ27bE6B5advbbyu24IBxOB+faxD+3aFbjWKa/mXsWnp0Nj7RxRallan6Ul2RetWdk3bS70++J+Tn1atsB22375Q/7T0S991215VqjgBYUnvM4oxds9B0BKlJudCAAEEEEAAAQQQQCCLBVIRtKh4qwp1ui1e0NL37sFOzQa3/fHVGm+HFM282HG/jfU+1G685iobNmDjsoWw5v+redj5gkHLG3NnR7rTUFifogxaVI+l7XU3eJcJm1HgfugPJvQzdzmJ6opstfte3jmeHT/Ozj6tYBZI8B78L9Zhocxf69bZ01OnOXVCVMzY/wL999//2PAHH7Iut+V7pw2rw5NI0OIP3LT0JN7OQm6hYPeC8UKZsvx6qy6QtlN2W7wZQfpcPpX2KFj+EhbKqN7JxOees50r7+TUPfEX8f3xp5+cAtITnnnOuVxYGBkMWobc0dduvvaa0Fss67X8gYkuoCK7qsfi1uXRz1RzSLVhVENJTVt4b7HbxlpIagqLwpp24fIX1NUxv32xyhvrktxnWcbX/12ClqgkOQ8CCCCAAAIIIIAAAlkukE5Bi5bLaNmM2/xBy6tvLLV6zQp2LinqBdL9vn9pg37mn/WRS0GLtsOtftQxnqvqh6iOiGqhKNhwm4qrHnX4YXGf+OKClrAvavnIw48+Zvc9PLrQi/PyVxfbQQccEPO1RIKW7fau6p2rqGAo2B8txUl0m+tEf+399W30nf9+/C7uDkeJBC1h11WYo+v4CynruLIGLWW91uJXXzM9E8GmEPSWjh1Ct1gPLv9LdPxUzFoBrVsYmKCl8OhV2KD5VTQEEEAAAQQQQAABBBAod4FMCVqCMzgef/gBu+i85kX6ucU43YOeGPWgXdj8XOdfg0FLcSFDFANVXjNaNJtky90LZhG4S3K0RfS5rQuWdGhphpZoxGslCVq0XbVmKLnbGV916SXOdsQ39ygo3lpc0KKXcM2y8TfV39m5WkGxVy0vU+BQXs2/s1bYUh5/v0oStGhpz+Qp06zv3YOc7ZJ1j51vuM6+/uZbGzlmY5HhRIKWof372U3tri6Sp7TX0km1jEnLmcKaillffWmbmLo4/npNRdWzKW48g0FLIvdZ3DmL+5wZLcUJ8TkCCCCAAAIIIIAAAgg4ApkStPi3H1a/w3bPCQ5psE6L/2UsGLTEq3ES5WNSXkGL7sE/C8Td0enOofdY9959vFt8d/ECq3XwQXFv2R+0KDh5cOjgQsd+89131r5TV3tm2sZCxrqWdnzSzlLzF79sjc442/tOaYIWFcCt3aipd45UjFtRz8ApLVp624mHBR/+7waDlrDdeHS8QqqrburgBCxq2n3o8tatnMLB2vlJO0CpJRK0FPd7UpZruff2wJix1q5j51Am1VJ6dvyjXu2WYSMfjAnbipoBVJR7MGgp7j6j+D0maIlCkXMggAACCCCAAAIIIJADApkStOiv+y0uLdgyV1vWqtZIUW38xEnW+uqCHVdUWFWzOdRyKWhRQdyKuxbMVHFfSoOzEaZPfNK0RXS8VlzQom15TzznPK+Y61235zuzMNxW0qAlbIvo4G45T456yKkHU17Nb6I+aGcjd0enYJ8SCVr8z6WCFM3oaXLC8d6pShq0DB/Y366/6spQnrJey3/SVWs+dwIUd+tp/2faMUj1aLQjVrBeUFhB5ETGMhi0FHWfiZwvkWMIWhJR4hgEEEAAAQQQQAABBBDImBktwXoixe06pKENzoL5ZOlrVn3/qqFBy9sL59nhhx6S1CeivGa0rPniC2c3G7fNmPSUndK0SaGXXs08UR2TRIKWqy9rYw8MGeQd+u+//1rdE092tlxWc2fN+M8VRdCi62y+S8FORQqGFBAV11T49/GJk+3C8871CiwX951EPg8WhH3puadjghH/OYJBS3D52xdffWXa2clt/qVu7s9KGrRoNsx1V15R6FaiulalSlvFeOoZv6FbD/t4xacx15z1zCQ7sVFD82+FrQOCYVw8cxU2VlHt887aWHg4GLTEu89ExjDRYwhaEpXiOAQQQAABBBBAAAEEclwgU2a0BHcr0bB9+cF7VmX32C18/cOpHYxUJ8Rt/1v7tW222WbOv6bDjJZ5056zhscdW+gJTGR755LsOjTzpTl2aosLvOu4O+MEt9DVDj6fL3vHKlasGPpb4Z+9EQxapr3wop15YSvve7OfnWxNG54Qc56SBi1hNVp0wprH1It5kY/n6L+4aqk8PO4x55mJsqbL4BH3m2oBuU07BT01+uFQv+KCluC4h9WfKWnQEm9JTRTXOuG0M63NhRcU2qr9z7/+sjbt2js1ZtzW/eabrH/erfbtd2tt95oHez/XWKx+7y3bcYcd4v4vsWZkHXfK6c4uVi8+PdE5jqVDhbkohpvj/8ec20cAAQQQQAABBBBIH4FMCVokpu2MFTC4rbi/hutFcOGSV5zDg9tB+4ty6vNkbP0bHOU5CxaatiZ228jBd9s1bQuK0bo/D86SWPfNl6ZdV/ytJEHLGRdcbM+/OMv5+m1dO1vvHt2c//7Hn3/aHjUPidkNKGzLYfe6qo3izljRcpDxD430uhTcmvu1l140FTv1t+Dyr2VLFjoFcv3t8AYNvdok8YqlBgM0bSs8+9mnvS2Eg+6jH3vcrrjhJue+df9RtlfeeMPqN4vdEnvFm69btar7FbpMcIty1bhRrRu3uTMm3H//9/tvbNNNN405z43detjwBzcGOWE1WoLFgm/peLP161VQgDjKayl423WXXezpRzcW5/W39evXW8PTzzLtTKTmD6DkJTe3XXbxhU69n80337zQeTSD6ZoOnUxjOGfKM9b4+I27ZCV6n1GONTNaotTkXAgggAACCCCAAAIIZLFAKoIWFdzUshK3BV8w3Z/3vvMuyx8w0Dvup1UrnL9iu23t9z9YtSOP9oIB7ZDz9sK5tlPlyoVGSNsK16hdx/l52F/N5y5cZE3O2rgDkdqIu++09ldc7vx3/bV89eefW+0jCpZxRPEIBOuLNGvcyKZPeMKbZaPNWe8cdo/16N035nKLZj5vx9XdeC9uCwYtY0YMN72wBpsKqiq8iOcQXF6l4/wvtO753ln2vh1xfCPv9AdUr2Yfvb4xxFLrN2iI3dr3Du/f1Rf1yW0//vSTndLiAtMsGre5M1G0643qd6j5wzGN248rP/F8FJppTP788y/bpXrBzkP6nmbjTB73iDWoV9c7v4KNu+651+4YPNT5/INXX7bKO+4YxVDGnKP5JZd5xX/1gXYfmv/8lEI7ON0/eoxTKNhtN1x9pVPU2W0K4RTGuS04phqD4089IyYY+/vbL50ZSK5hcIep8885yyaMGeWcUqHFvEWLnSU8UVzLneH02dtLreq++xRy9Qdi/mVps+fNt2bntog5Xs+3grt9997b+7l+h7Xdu2afBZeIJXqfUQ42QUuUmpwLAQQQQAABBBBAAIEsFkhF0BKcydCnZw+7tXPHQqqtrmpnj0+a7P08bJZJMGBQodCZk56K+Wu4Xigvvuoam/jsFOdco++9x9q2uijmev4gRh/oRVxLPvTd67p0c16SVW8jyqa/8u+4X/WYF+XTT2pmLc4+y/TZA4+MjQki3Gtrxkar81vYje2u9nZvCTro2PdfWWQH1ywIID74+GNnl5/v1n7vnGrs/fc6Sz38TUuyDqp7rKkGhr+pVsvx9evZnlX2sDfeetsJCH77/fdCL8cHHlDD+t3a02bPnx9TeFgH6vsKk1Rbw92FyH+Cow4/zC67+CIbev9I+/StjTMcgrOWOrRvZ61bnm/ailrLZhbOmOaEKQrkFMwFm8axbu3azmwdhTpun5O5O9Enn35mBxxdEPCoTwpbbrj6Kqt3TG0n6NPvgIoPB5uWR9WsUd0G5PVyZm48NPbRmEO0HflBNQ8whRPu7Cz/AZopcmCNGqbn2Z1htNsBB3lj7o57zerVrf+QYU6QowK0CjDKei03aKl39NE2Y9KTMaGoruufnfTOovmm59htwSLC7s/ldvihhzoFld1QTqHeK7NmFlpelMh9brfttpH9ChO0REbJiRBAAAEEEEAAAQQQyG6BZAYtqq0we/4C655/u7ccRJoKMcaMuMfq1znGtq5UyVTTQX+1vvjKa2Kw9Vfs22/p7sxiqFChgvfZqEfHm5bXuE0vq1qCc8Kx9Z2ZKAOG3GOPPjXB+TgsZHG/518K47+wAoDpE550tiSOuqlfbdoV7MQTPL92U1JQ0LJtbAFTLaN5+J6h3stqWNCiF3rtqlTvmKNt+YcfmXZdcoOGiY+MthZnnxl6O9ox5uyLW8eMUfBAvQBrRpE/bNH1FADd1q2zs9POkSc0LlQE1T1PowbHmbYzrnfiKd6uRO5n6rN2hFLTEictdQpr/plQCsS63JZv2sK7qKY+TnhklFP8N5lNAcY5rdoUCqP811Qo6J+xos/keskFLZ0lTQrGDq1fsMNQsL+aAaPnPOyYwf36mEIptW75t9vAYQWzidzzyEJFaeseXdve//DDMl/LH5bod0a/q3WOOspWrVnj/P65S5y0O5iea3/TDCd5hYVH/uMUHOrZCFuKlch9RjnmBC1RanIuBBBAAAEEEEAAAQSyWCCZQYuWbPTs0y+unv4SvmTWDIsXeLhfDNvJRVsJX9KufegMEH1PfwVXuOD/K3qwI5+uXGXHnnxqzF//FdqoTkmUBVOD133wkXHOjAJ/aKHwqV+vW5wZJ5Oem2rnX3a5KZzQS7hmvQRDn2DQohBDL9daKuRvOodmp+ifRTXNAOlwy6325ORnCoUFmlWhJS7ntm7j1NzQcpRLL7rQmjVqGFM4V56XXnudV5dD19N99ezcwa68pLWzBEj3rpkbapp9cnmrVqZlJf4aNMEXaI2FxkRjE2xa+nT7wLtjxtA9RnVkhtzR17lOKppmBbXr2NlmzZ0Xczn1/+Zrr7EuN15v2+1d1Xm2NMNKM3WOPvKImBBRM1daXd0u5n60rEZBzElNGjvn9c/8UhChLbT9M7a0w9KJZzePGQcdp1oqmj3jtrJeS8u8dK1ffv01NGDTNYfc0cfrd3AMtPxHW0KPHFO4xouO7XvrLdblhuviFmdO9D6jGnuClqgkOQ8CCCCAAAIIIIAAAlkukMygJRV02sXknWXL7O33ltn6/9bbEbVq2RG1DrU9dtstoctryY7CibXff+8Uby1q95OETpjgQZrFs2z5B87RW29dyQ6oVs1b/qQaMb/+9oI7gVQAACAASURBVJsz2yFeCyuGq7/6L//oY1u5erVTt0YzgbbacssEe7TxMNWJUWDy4SefOBY19t/fCyq0NW/N6tVCa+L4L/L5l186S3e2qLiF7bPXnoUKuur+vl37nbPkJVjs1T2Pip2+9uZbTlBzyIE1vRou8W5GW1irUK/CK51Xy2222XrrEt17VAdrOdb7H37kzNzRc6i+aOaW6qhoRkuD+vW8JWBh19RsnRUrV1oFq+AsxwmGbBoj3e/69f8V+Ywo+NEsGYWNe++5Z+jtleVaGsftt9vWeW7lruutW7fO1v/3n1OzZfddd40JkeL5qg8frVjh/A5X3LyiHXJQTee5CyuOG3aORO4zirElaIlCkXMggAACCCCAAAIIIJADApketOTAEIXeYkl2HcpVI+4bgSgFCFqi1ORcCCCAAAIIIIAAAghksQBBS/jgaqekxyZMjGTkj69f31luE2UjaCmdZrqPa+nuim+lQoCgJRXKXAMBBBBAAAEEEEAAgSwQIGgJH0QV8ryxW49IRlj1OVQrJMpG0FI6zXQf19LdFd9KhQBBSyqUuQYCCCCAAAIIIIAAAlkgQNASPoiqpaEwI4p2zumnWvMzz4jiVN457hs12q7r3M379+D2uZFeLItOlu7jmkXUWXcrBC1ZN6TcEAIIIIAAAggggAACyREgaEmOa7LPqi2i3S2sda3pE580bYdNQwCB5AhU2HHjdu+NGjWyuXPnJuciZThrhQ0qk0xDAAEEEEAAAQQQQACBchfo3bu35efnO/3Y8NPacu8PHShaQDu0LHn9DTu95UUx2zBrx6Sh/ftZrYMPSurW1IwPArkq4AYt+t/LvLy8tGMgaEm7IaFDCCCAAAIIIIAAArkq4A9a5k591ho1OC5XKdL+vrUl9NZV9im2n48//IBddF7zYo/jAAQQSExg3qLFpqVDagQtiZlxFAIIIIAAAggggAACOSswb9480/IhNYKW9H8M1n7/g/39z99FdrTyjjtapa22Sv+boYcIZIhA7zvvsvwBAwlaMmS86CYCCCCAAAIIIIAAAuUq4A9a8rt3tbxuXcq1P1wcAQQQSDcBf9Ci+iyq05JujaVD6TYi9AcBBBBAAAEEEEAgpwUqVKjg3L+WDWlWCw0BBBBAoEDAH7Ska8lZghaeWAQQQAABBBBAAAEE0kjA3XmIoCWNBoWuIIBA2gi4WzurQwQtaTMsdAQBBBBAAAEEEEAAgfQV8G/xTJ2W9B0neoYAAuUjkO47DkmFGS3l82xwVQQQQAABBBBAAAEEQgX8dVqY1cJDggACCBQIZEIhXIIWnlgEEEAAAQQQQAABBNJQwD+rZcNPa9Owh3QJAQQQSL2AO5tFV07XZUMELal/LrgiAggggAACCCCAAALFCrDNc7FEHIAAAjkmkCmzWQhacuzB5HYRQAABBBBAAAEEMkeA3YcyZ6zoKQIIJF8gE3YbchWo0ZL854ErIIAAAggggAACCCBQYgGK4paYjC8ggEAWC2RCEVyClix+ALk1BBBAAAEEEEAAgcwXoChu5o8hd4AAAtEIZNKyId0xM1qiGXfOggACCCCAAAIIIIBA5AL+WS353btaXrcukV+DEyKAAALpLJBpIQtBSzo/TfQNAQQQQAABBBBAIOcF/LNahDF36rOmLZ9pCCCAQK4IZMpOQ/7xYEZLrjyd3CcCCCCAAAIIIIBARgr07t3b8vPznb4rZFHYQkMAAQRyQSATZ7NoXAhacuHp5B4RQAABBBBAAAEEMlqAJUQZPXx0HgEESiGQqSELQUspBpuvIIAAAggggAACCCCQagGWEKVanOshgEB5CsxbtNgan3mO14UNGzaUZ3dKfG1mtJSYjC8ggAACCCCAAAIIIJB6Af8SIl2dei2pHwOuiAACqRHw12XR0sm8vLzUXDiiqxC0RATJaRBAAAEEEEAAAQQQSLYA9VqSLcz5EUCgvAU0k0UzWtQyMWRRvwlayvsp4voIIIAAAggggAACCJRAwF+vheK4JYDjUAQQSHsBf8jSqFEjmzt3btr3OayDBC0ZOWx0GgEEEEAAAQQQQCCXBfxhixxYRpTLTwP3jkDmC2gGi4rfujNZMjlk0WgQtGT+M8kdIIAAAggggAACCOSgQDBsye/e1fK6dclBCW4ZAQQyWSBY+DbTQxaClkx+Guk7AggggAACCCCAQM4LBAvkErbk/CMBAAIZJeDfwlkdz4aQhaAlox5BOosAAggggAACCCCAQGGBYNiiIwhceFIQQCCdBYJLhZz/3crA3YXiGbN0KJ2fPvqGAAIIIIAAAggggEACAoQtCSBxCAIIpIVAcBaLOqWit5rNki2NoCVbRpL7QAABBBBAAAEEEMh5AQKXnH8EAEAgbQXCZrFky1KhIDpBS9o+hnQMAQQQQAABBBBAAIGSC4SFLTqLlhM1PO5Y05bQNAQQQCAVAmHhinvdbJvF4vckaEnF08U1EEAAAQQQQAABBBBIsUC8wEVBi/7DDkUpHhAuh0AOCRQVsGTrLBaClhx6wLlVBBBAAAEEEEAAgdwWiBe4uCruDBf3n5r1QkMAAQQSFZi/+GVTsKLm/jP4XYUr+k/Dhg2zqhZLPCNmtCT69HAcAggggAACCCCAAAJpJDBv3ryY3syfP9/79+BnzgtQ4Pg0uhW6ggACWSqgcCUvLy8nwhX/EBK0ZOkDzW0hgAACCCCAAAIIZIaAG4D4g5KwYCQZQYm7y0cyzp0Z+vQSAQSiEvDvGqRwRS2bdhIqiRNBS0m0OBYBBBBAAAEEEEAAgYgFGjduXC6zTfLz852/NPubApdg4BPx7XI6BBDIEgEtA3JbrgYq8YaSoCVLHnJuAwEEEEAAAQQQQCAzBRRuKGxJZQsLWVJ5fa6FAAIIZLMAQUs2jy73hgACCCCAAAIIIJARAqmc1ULIkhGPBJ1EAIEMFiBoyeDBo+sIIIAAAggggAAC2SGQqlkthCzZ8bxwFwggkN4CBC3pPT70DgEEEEAAAQQQQCBHBCpUqJDUOyVkSSovJ0cAAQQ8AYIWHgYEEEAAAQQQQAABBNJAoHfv3qYwJBlt7ty5Obv7RzI8OScCCCBQlABBC88HAggggAACCCCAAAJpIJCs5UOELGkwuHQBAQRySoCgJaeGm5tFAAEEEEAAAQQQSGeBKIviartVbd/MtqvpPOL0DQEEslGAoCUbR5V7QgABBBBAAAEEEMhIgahmtShc0UwWGgIIIIBA6gUIWlJvzhURQAABBBBAAAEEECgkEFWNFkIWHi4EEECgfAUIWsrXn6sjgAACCCCAAAII5LCAZrAoYNE/o2jsLBSFIudAAAEEyiZA0FI2P76NAAIIIIAAAggggECJBYoKWBSWlGb3IUKWEg8DX0AAAQSSIkDQkhRWTooAAggggAACCCCAQGGBeAFLsHBtSYviErLwtCGAAALpI0DQkj5jQU8QQAABBBBAAAEEslQg0YDFvf2SFMUlZMnSh4bbQgCBjBUgaMnYoaPjCCCAAAIIIIAAAukuEK/AbSJbLycyq4WQJd2fAPqHAAK5KEDQkoujzj0jgAACCCCAAAIIJE2gqPoriQQsbseKm9Wi7Zt1PhoCCCCAQHoJELSk13jQGwQQQAABBBBAAIEMFSiuwG1eXl6J7yzerBZClhJT8gUEEEAgZQIELSmj5kIIIIAAAggggAAC2ShQ0vorJTEIzmopyYyYklyHYxFAAAEEohMgaInOkjMhgAACCCCAAAII5JBAMgMWP2OFChWcf1XIopksNAQQQACB9BYgaEnv8aF3CCCAAAIIIIAAAmkmkKqAxb1tLR9SI2RJsweB7iCAAAJxBAhaeDQQQAABBBBAAAEEEEhAINUBSwJd4hAEEEAAgTQUIGhJw0GhSwgggAACCCCAAALpI0DAkj5jQU8QQACBTBAgaMmEUaKPCCCAAAIIIIAAAikXIGBJOTkXRAABBLJCgKAlK4aRm0AAAQQQQAABBBCISoCAJSpJzoMAAgjkpgBBS26OO3eNAAIIIIAAAgggEBAgYOGRQAABBBCIQoCgJQpFzoEAAggggAACCCCQsQIELBk7dHQcAQQQSEsBgpa0HBY6hQACCCCAAAIIIJBsAQKWZAtzfgQQQCA3BQhacnPcuWsEEEAAAQQQQCBnBQhYcnbouXEEEEAgJQIELSlh5iIIIIAAAggggAAC5S1AwFLeI8D1EUAAgdwQIGjJjXHmLhFAAAEEEEAAgZwVIGDJ2aHnxhFAAIFyESBoKRd2LooAAggggAACCCCQbAEClmQLc34EEEAAgTABghaeCwQQQAABBBBAAIGsE+jdu7fl5+fH3FejRo0sLy/P9E8aAggggAACyRIgaEmWLOdFAAEEEEAAAQQQSLkAAUvKybkgAggggEBAgKCFRwIBBBBAAAEEEEAg4wUIWDJ+CLkBBBBAIGsECFqyZii5EQQQQAABBBBAIPcE4tVh0bIhLROiIYAAAgggkGoBgpZUi3M9BBBAAAEEEEAAgTILELCUmZATIIAAAggkSYCgJUmwnBYBBBBAAAEEEEAgeoGidhKaO3du9BfkjAgggAACCJRQgKClhGAcjgACCCCAAAIIIJB6AbZqTr05V0QAAQQQKJ0AQUvp3PgWAggggAACCCCAQIoEKHSbImgugwACCCAQiQBBSySMnAQBBBBAAAEEEEAgagEClqhFOR8CCCCAQCoECFpSocw1EEAAAQQQQAABBBIWoNBtwlQciAACCCCQhgIELWk4KHQJAQQQQAABBBDIRQECllwcde4ZAQQQyD4BgpbsG1PuCAEEEEAAAQQQyCgBCt1m1HDRWQQQQACBYgQIWnhEEEAAAQQQQAABBMpNoHHjxqagxd8aNWpkeXl5pn/SEEAAAQQQyDQBgpZMGzH6iwACCCCAAAIIZIEAhW6zYBC5BQQQQACBUAGCFh4MBBBAAAEEEEAAgZQJhC0TYgZLfP7gbJ+UDRQXQgABBNJQIFNmOhK0pOHDQ5cQQAABBBBAAIFsE6DQbdEjKp/58+c7B7nhCiFLtv0WcD8IIBCVgBu4uP9s2LBhWi03JWiJaqQ5DwIIIIAAAggggECoQFgdlvz8fKcOSy43N1zRPwlVcvlJ4N4RQCAqgXT5vy0ELVGNKOdBAAEEEEAAAQQQiBGgDkv4AxFvdo//6GMbnuD8a/0TGvJUIYAAAgj4BJYs2Dj77+X5C+K6KHBRK69An6CFRxYBBBBAAAEEEEAgUgHqsIRzKniKN3tFwUqnXr2s/gkbAxYaAggggEBiAksWLHBCl0F9+oR+oTxmuRC0JDZ2HIUAAggggAACCCBQjAB1WMKB4rkQrvArhQACCEQrMKhPX+eEwdAl1UXXCVqiHVfOhgACCCCAAAII5KRAvGVCc+fOzUkP96bDXAhYcvqR4OYRQCBFAgpdgoFLqma3ELSkaJC5DAIIIIAAAgggkI0C1GEJH9WwWSwKWCbNmpWNjwH3hAACCKStQDBwScXsFoKWtH0c6BgCCCCAAAIIIJC+AtRhiT82YeGT6q906nVr+g4oPUMAAQSyWCDVs1sIWrL4YeLWEEAAAQQQQACBqAWow1K0aDBkYZlQ1E8g50MAAQRKLxAMXJK1lIigpfRjxDcRQAABBBBAAIGcEmCZUMlCFmax5NSvBzeLAAIZIpCKsIWgJUMeBrqJAAIIIIAAAgiUlwABS/HyQaPJs2exVXPxbByBAAIIlIuAtoQ+78Rm3rVVtyXK4u0ELeUyrFwUAQQQQAABBBBIfwHqsCQ2RoQsiTlxFAIIIJBOAsGwJcplRAQt6TTS9AUBBBBAAAEEEEgTgcaNG5uCFn+L8v8JTZPbLHM3CFnKTMgJEEAAgXITSFbYQtBSbkPKhRFAAAEEEEAAgfQTYJlQ4mNCyJK4FUcigAAC6SoQDFu0hEhLicrSCFrKosd3EUAAAQQQQACBLBFgmVDJB7JChQrelyh8W3I/voEAAgiki0AwbNmwYUOZukbQUiY+vowAAggggAACCGS+AMuESj6G/tkshCwl9+MbCCCAQLoJ+HcjKmtxXIKWdBtd+oMAAggggAACCKRIgGVCpYMOun31z9+lOxHfQgABBBBIK4EWzZrZy/MXOH0qyxIigpa0GlY6gwACCCCAAAIIJF+AZUJlM2bJUNn8+DYCCCCQrgJRLSEiaEnXEaZfCCCAAAIIIIBAEgRYJlQ2VJYMlc2PbyOAAALpLhDFEiKClnQfZfqHAAIIIIAAAghEIMAyobIjaiaQgiq3sWSo7KacAQEEEEhHgbIuISJoScdRpU8IIIAAAggggEBEAiwTigjSzJjNEp0lZ0IAAQTSWcC/hKg0hXEJWtJ5dOkbAggggAACCCBQBgGWCZUBL+Sr/toszGaJ1pazIYAAAukm4J/VUtLtngla0m006Q8CCCCAAAIIIFBGAZYJlREw5OvMZonelDMigAAC6Szgn9VS0h2ICFrSeWTpGwIIIIAAAgggUAIBlgmVAKuEh/pnBzGbpYR4HI4AAghkqECVils4PS/p8iGClgwdcLqNAAIIIIAAAgj4BcJmseTn51teXh5QZRTwF8Ht1KuXdep1axnPyNcRQAABBDJBoLRFcQlaMmF06SMCCCCAAAIIIBBHgFksyX80WDaUfGOugAACCKSjQGmL4hK0pONo0icEEEAAAQQQQKAYgbCARV8p6TpyoIsXYNlQ8UYcgQACCGSrgDurpSTLhwhasvVp4L4QQAABBBBAIGsFWCaU2qF1dxs6tuEJNmnWrNRenKshgAACCJSrQGl2HyJoKdch4+IIIIAAAggggEDiAiwTStwqyiPdoIX6LFGqci4EEEAgMwQG9elrg/r0cTqb6KxRgpbMGFt6iQACCCCAAAI5LsAslvJ5ACiEWz7uXBUBBBBIF4HSbPNM0JIuo0c/EEAAAQQQQACBEAFmsZTvY+EPuCbPnmX1TzihfDvE1RFAAAEEUirgD1oS3c2PoCWlQ8TFEEAAAQQQQACBxAQIWBJzSvZR/qDlq3/+TvblOD8CCCCAQBoKVKm4hdMrgpY0HBy6hAACCCCAAAIIJCLAMqFElFJzDEFLapy5CgIIIJDOAm7QkujOQ8xoSefRpG8IIIAAAgggkFMCzGJJv+Fma+f0GxN6hAACCAQFNmzYYG7h8mToELQkQ5VzIoAAAggggAACSRZgFkuSgUt5eoKWUsIV8bW//vzTFs+bb9Offdb+XrfORowbG/1FOGNGCKxcscJenPa8PTdhgt1xzzA74uijM6LfdDJ5Aqs+/dQG9+1nejauvOF6O7tly9CL/e+ff+zVRYtt9ozpNnXSZLvm5pvt6ptuTFrHCFqSRsuJEUAAAQQQQACB6AX8u9q4Z9fU5Ly8PNM/aeUrQNASjf/33621p594wha8NNvmzHzBO2mTU062x6ZMieYinCUjBObPmm2zpj9vL02fYatXrvT6PG3RQjuqTp2MuAc6mTyBa1tf4gRvbnt7zRrbdffdnH9dv369TXz0UXtpxkx7/plnYjpxa//+1r5Tx6R1jKAlabScGAEEEEAAAQQQiE6AZULRWSbzTAQt0ejqr9R5nbvYW6+/Zgpd3HbymWfamMmTorkIZ8kIAc1WWDhnjr26aFFMf1949RWrdeSRGXEPdDJ5Amcef4ItffVV7wJT5s+zo+vX94KWru2vs59//NFmPPdcTCd6DRhg13bskLSOEbQkjZYTI4AAAggggAAC0QiwTCgax1SchaAlWuV///3X9qm0tXfS08891x566sloL8LZMkLggaHDrHfXrl5fX1r6hh1Uq1bS+q4aHvrPJptskrRrcOKyC4y5f6T1vOkm50QHHHSQzXnrzdAxmz19hrU55xzvgsxoKbs9Z0AAAQQQQAABBDJSgFksmTdsBC3Rj9nJdevZe2+95Zz4rBYtbOTj46O/CGdMe4Hgi/Lct9+ymgcfnLR+d7/+Btu9ShW7+ZYeSbsGJ45G4NOPP7avPv/C6jc8wTbbbLPQk3779Td25L77ErREQ85ZEEAAAQQQQACBzBRgFktmjhtBS/Tjdnajxvb6yy87Jz73wgsphhs9cUaccdGcudbylFO8vi54712rXrNmUvqumh+q/dElL8869LwlKdfgpKkV+OP3361G5Z28i7J0KLX+XA0BBBBAAAEEEChXAWaxlCt/mS9O0FJmwkIn8ActLVq1snvGjI7+Ipwx7QWCQcvCZe9ZtQMOiLzfH3/wgTU6/AjnvAQtkfOW2wkJWsqNngsjgAACCCCAAALlK8AslvL1j+LqBC1RKMaeg6AletNMPGMwaFm8/H2rWr16pLfy7ddf2zmNGnu7GxG0RMpbricjaClXfi6OAAIIIIAAAgikXiDeLJa5c+emvjNcsUwCqQxaVq5Y4ezG8smHHzp9Vr2KQw4/3KrVqGH6q7y780a8G/rrzz9t+Xvv2fJ333WKflatVt0pLrrzrrsUa6DvqGZGi9atrMpeeznHf7BsmS2Zv8C+WLPaDjvqKGvUrJntULlysefSAf/73//sg/fes6WvvmZrVn5mu+1RxY45tr4dduSR1uKkk72lQy0vucSGjno4oXOW5aCo7099Wfvtd/bhsmWO0+YVKzqFO/WfXXbbtSxdTei7ryxcaH+v+zvm2EpbV7Jjjj3W+5nqXHyxek2h822/4w52xNFHh17nn7//tkVz59mKjz6yq2+60TlGu0TNnPKc8zNtr6vv6jr77LdfQn397ptv7e03Xrc3X3vNOV7P9DH169uKDz+KWTr08gfLbb9q1ULPqedp9vTpznfWrFplf/7xhx14yCHOuY6qc0zoc7nqs8/svKYn2tdffumd87yLL7bLr2vv/bvOsVWlSoWuqaLNul/VEvr9t9+tyl57Or+P8fqXEEQZDvpizRqnL998+ZVp/A469FCrcdBBceuX+C+lsGnW88+b7t2913V//WXL3n7b3nv7Hau8U2U7vHbt0HuT4fvvvOPUS9Gyrtp169h2O+xQ7J1oV6AXpk2zL1avttWfrbTNNt/c2VHq4FqHOs/PFltuWew5vvnqK5s2+Wk78bRTQ/tG0FIsIQcggAACCCCAAALZI+B/MdddNWrUyPLy8px/0jJPIBVBy3///Wd33367Db2jvwO0x557Oi+OCircpsBEu7KEtd9+/dW6tLvWpkwK3yZZxT9v7NbNttxqK+/ruuY7S5faC1On2nNPTfD+4j914QLbZ7+q1v366wttn6ovjxz/mJ11/vlFDuTCl+bYFS1b2u+//eYct82223r/Xffx+apV3r9f0KaNDXn4ocgfjGTe3xtLltgNl7X1zIKdV9gy+KEH7ag6dSK/L/eEKuw6/dlnYrbK1mdf/VMQvowfNcruHXhXoX42OqmZPT5tmtc3hRivLFhozz/zjD39xBPO2OxbtaotfH+ZDe7b13sugzfTb+hQa9v+2rj3qOCvw5VXxTyX/mehboMGMVs8xwta5sx8wdmFZvXKlc619D0FLW5BZQWJE198MaaQrl7ST6pTp5BPsLPBnY703Ay/c6DdmZcXel+nnn223XHPMNttjz2SNrb+Eyv87Hj1VaH3oedMvztHHnNMob7IfvaMGfbU2LEmP7U3V620ChU2sX633GKTxhcuQN2td2+7qUd351htx97/1l42dfLkQufump8ft6CwAl7tJqXnRs+RxvuounWcwO+zTz7xxm/sM0/bdttvX+jcv/z0k9PvZ5580uv3pFmz7NiGJxQ6lqAlJY8gF0EAAQQQQAABBMpXQLNY9FLub/n5+U7IQstcgVQELXqx69+rl4P01IwZdlzjRs52pp+vXm0tTzrZecHcv0YNW/T+skKQmrVw6bnNnZeYk8880/QSvfnmm9v8WbNjXpL0Ujb95cVWaeuNWyvnd+liDw67p9D5+g0bZkP69S3yBbWooqX+rVlV6LbjrT2dvuvFWC9gCpT8LVlBSzLuT7Mc7hlwp3cPzU4/3Trf1st22mUXe23xYpvw6KM278VZ3u1d16WzdbntNqu4xRZJ+QXQy3STI4+KCVL8QYt70eASHX/QotkmDQ45xAu+3O/oBbne8Q2cWU5FtatuvMF63313oUM0i+Sy5ud5YcjoSRPt+CZNbOtttrGlr75qXdtfFxMk6gRhQYt/ZyK9bI+ZPNm23W4753r++1J/X3j1FW/pkWZxTBj3qP3xx+/OmLlN917/+I0v7ZqF1Pbadt7sCgWWN19xpRMwavaFZoBst/12zsyW+wYN9s6ha01ZMN+ZUZOspsBH/R6Yn+/MSLv0mmtsr333tW+/+toevnd4zO/nsNGj7PzWrb2u6H9L9L8pwTb8kTHW44YbC421/7gJL7xgW2xR0VqdeVaRx2lLdm3NHmz+a7fv3Mm63367N+tmWP8BXoAl32kLFzhjoKYZNtdc3MqZeRNsBC3Jeso4LwIIIIAAAgggkMYCFLtN48GJoGvJDlr0grH/9hun4uuv5aMmTojptf4yf9R+VZ1ZLktXfhbzmabn16lxgPNCpGUe+XfdFfN5765dnXDDbf6XYm2N+vHy5U7A8/YbsTNl9CJ5U/fudsrZZ9kuu+5qIwYNinlxa3P11Tbg3uGFdB97+GHnBVpNIYteAINbs97Vu7cN6XeH991kBS3JuL9BffraoD59nL7XrlvXnps/zwnE3KaZIa3OOMNZeuO2Tr1utU7/H6JF8DgWOoVenMc+8ID387CgRR8ettde3su5P2j5e906JwzRcrVO17QrdP4rrr/OWl95pRPQvfvmm9a3e49CM2QUcOjF2W0KgBoccqi3ZGfaooWFZvcoCDn+0FoxL/Mvf/iB7bf//t55FGzVrXGAdx6FgApG/K3teS2cWVlqN3bv5rzY+9uP339vh1bZ0/vRbXfeae063Bw6FC1PPtkZOy2LenzaVCcUctvMKVPs8hYFM7mcoGDRQifUTEZzQwmFLM/MmRNTJFjh6rlNmsSELa9+8rHt/f9bHb88f4F9krJhMgAAIABJREFU/MFye3j4vd4sEreP+t3uM3iQHd+0qTPbZPLjTzizhfyf639PdN0bunZz/jdgx8qV7fmnn7YOV13tHRc2w06zYI49qGB77tlvvG4HH3ZYzHgevNvu3pg/8fzz1rDZic7nmgmjkKVSpa2tT48eXkCnzwhakvGEcU4EEEAAAQQQQCCNBSh2m8aDE1HXkh20aJtjFYdVO7tlS7v/sUcL9Vx/ZZ/zwkx794svYj67vVs3GzlkqBPCvPHZp1ahQoWYz/XCe/je+8S8zM57522njojbXpw2zZl54DYtGXls6pSYFzv9df3AXXb1zqMX0efmxdYb+vXnn+3oatW9Y5Z99aVV3nnnQveimS3Vdyyo85KsoCXq+9OshhNqFbw0vvjaq3boERt3svG3n374wU48+piYuiDB5SkRPZrOaQbcdlvMjI14QUvT2kd7M0iCS4fc/rQ555yYGSxalqLx8Tct7bjqwgtjwqTg+Ubcdbf169nT+dr1XbvYLX37ht5yMHQLBi2qxVLvgILtnsNCq749enizTcKey2DQkjdwoF1zc0Gw4HZML/maGabmDy38Hb/4jDNiZizddf991uqKK6IcTudcCqGO3Hdj/RvNQtHMmmC77+5B1veWgm2qw7ZJ18ycK85v6X1Vv/f63d5rn31iTqdtr7X9tdsUoihoCi6P0phqbN324drvYpb/TH78cWdJndsmzJxpDZrEzvL0P4fxQkgtV7rmooJ7JmiJ/BHjhAgggAACCCCAQHoKMIslPcclGb1KdtCieiYXnHqq1/Up8+cVKnqrZUB6uf34h++94/x/PVYNFtVNCGvBl+d7xz5izS+6yDtUsxROqVff+/e7R95vF19+eaFT+WcO6C/h/r7oYP8L/0Vt29qgB0bGHY7aVff3gogLL7vMBj9YMCMj6jGM6v7c2Q7qX7ygwu37Q/cMt7zOnb1bCQsAorrPKIOWG9te7tXu0BjrRdo/Y8ftc3Dmgn6uEFCzIFQ4V7Nn3Lbkow+dei9hTfVgrr/0srjHKuA7plp171nRNuDaDtzfBvft5y3l0nV0PX8LBi2a9eUW+XWP00ykxkcc6cz+0Ewl1SkKa5odplliblPIorAl6qaZRU+MGeOc9sPvvg0tPqtZaKcde5x36bAZb6oldFbDgtpgk2fPsvonFK518uxTT1n7SwoCtbAZSLqQZvvo98BtwWBMSxzr1zyw4POQ4sbnNmnq1eXRcqj+wwsvX1w8b76df9JJ3nkIWqJ+wjgfAggggAACCCCQhgLMYknDQUlil5IdtKgOi5ZH+Nutd9xhV998k7fsRksotLRDO424zV/vQD+L9zLrFhB1vxdcXqGdR06qU9c7b7ygRYV6VS/CbZ/+/JO3g4mWn1TdrqCw5ZjJk5x6MfGaf3vn4kKZsg5tFPen2ToH7rqb1xUtp+kzuKBmR7CP/hkJYV5lvSf/96MMWjRzSnVm1MLCNP91/WGAfv784kVOUVbVFVGf1DSDQjOo4rVg7ZhXPv6o0E5GCm40w2GnnXeyM1u0iJm1paVzKgrsFoEO63MwaFE9GS2h87dXFy0yBQBuS/R3SbvnqO5RlO1///xj+26zbbF9+eH77wvVUPnkxx9iljupFs6Z/1+PRid8Zs5LTiHhYAsGMrqnsF2pVJxbM1LcFjarS7ujvTRjprM7UZ3jCoIgfUcBXeuzzvaWM4XNwtFxwfEgaInyCeNcCCCAAAIIIIBAmgkwiyXNBiRF3Ul20KLbuPC002zB7Jdi7kgFZPMG3mknnnZaoSVBOvC6Npc6O3Oo6YW2avXqCYmccV7zmKUIiQYRWqKkpUpu8wcterlqdHjBMppgzY5gx9IxaCnq/rQt8RkNjvduI+xlPXiPwTGNt9QooUEr4qDyClomPvaY3XR5wbIZdzcq/zIUhW0K3eK1RIKWsO+q8PBjD48qtHNOaYOWx0ePts7tCnZPKiok9PenWs0DTKFolC24RC3RvmyxxRZ218j7vULB6lOiQYu2PtdyN7fFC1pUG0Z1ddymmT+aAVRUU3A0c+pUe/TBB2OWm+k7BC1RPjmcCwEEEEAAAQQQyECBsFksc+fOZcvmDBzLknY5FUGLZp00b9I0pq6H288GjRvZXSNHFpqx4q91MH7qVGt8csFU+5LcYxRBS7BQqIr2ailDvJZpQctT48Y52xS77b5Hx9k5F1xQJHOwELFq76gGT9StvIIWFVxt0ayZdztu+KTATcGbWryiye6XgkFLvNooOl7LiLT9tGZWaWaFQpV2HTrYd998Y+MefNA5ZSJBy+2DBtmVN1wfMwz+sbqhW1fr8f8Fj6Meq0TO56+ZVNYZM4kGLcFwJ4qgRbWYHhn5gI0cMthZTqbg+IauXWz0ffd7hW4JWhJ5IjgGAQQQQAABBBDIQoF4s1gUstByQyAVQYsktdzk6osuNhXHDWuPTZliTU4pqI9QpWLBlsF9hwyxy69rX6oBiSJo8Rc/VSdeenNpzDKnYMf8QUuy6ly414zi/vxbVuu8iXgH67SEveCXasACXyqvoOXD9993tpZ2m4Kk05s3t30qbdw+XO3M886zB554PO5tBoOW11Z8UqhQq7781uuvOzNOFLCoafehiy671LbcaitnBysV1VVLJGgJGzt//aHiZuFEMWZFnUM7Bd3WqZN3yJd/rwud0ZZIPxINWoIzVcoatKgorsIrBSyq2zNs1GinrpGKdSucU0inRtCSyChyDAIIIIAAAgggkGUCzGLJsgEt5e2kKmhR9/RX+wnjxtltnToXqr+gz/1LcvwFZeMVlUzklqMIIu6+/XZTUVK3BUOhYD8yLWjRTIqrLrjQuw1tD6xtgotqwUKvY5952pqdfnoiQ1KiY8oraHll4UJr3nTj1rxqWhpV7YADrNoOO3o/0xbIembjtUSCFm3drCBETUHK6EmTTLO83FbSoKXf0KHWtn3BMiGdx19vJqygbokGpIwHB3fueXPVStu9SpVSnbU8ghZtFz/8zoFOfzWL5amZM2zPvff2+k/QUqqh5EsIIIAAAggggEDmCzCLJfPHMMo7SHbQonBFs1n8S220he7Q/v1Nu5z4m39HFP9Ws3oB1QuZ/llcmzJxorOrUZX/3xkmiqAl+HLYqVcv09at8Zo/aGl95ZU28L4RxXW71J9HcX/BGjTF7TqkzgZnwbwcsgNLqW/K98XyClqCO9V89P1apz6IPwBUN4NbAPvvORi0vP7pipiX8q+//NI5n9vCll+VOGgZNszaXtsuhj44IyverjvB8VKtmM0239yOqlMniqF0zhEsTNtrwAC7tmOHYs+v5Yd61k8/91zv2FQHLf5QTJ0Ijqd+RtBS7FByAAIIIIAAAgggkH0CzGLJvjEt6x0lO2jRVqbXtm5l73z+eaElAsGtn50X1//f7rVXx4426t6CgKJLXp516HlLkbfrvgg9N2+uacthtSiCiOBWs1ousPSzz2zzihVD+5NpQUtwJxjd1FurV9lue+wR11s7NKmeiNvW/PmHt4tUWZ9J//eDQcvq338LdffX9IkXFJVk1yH/zAV/LZHgduID7h3u1GoJa8UFLX179LD7BhXs7qQtxYNhYkmDlrClQ9OffdaubFlQc+fYhieYdropqn2xZo2zdOr/2DsPKCmK7Y1fFMT0VMwiCiiSk4kMS44qSgbJCkrOGdxFQBAkCQIiCKjknEGQZQlmEAyAAiKiGFD0/54Jw+N/vuZ1b3VPz07qmeme+eqcd3zsVFfd+lVNTffXt+7tMXCgIK6LU+XMd99LKcUDBON979hRuTpXpqeQtS+kp26YUlWuuuZqWbJpk/FxrIUWdY35S2lOocWplcJ2SIAESIAESIAESMADBOjF4oFJipOJ0RZa9qTvlGZ16sj299+ToiVL+owyY9t2aakcOdnxwX4pXKyYWP+OC7PKbPPh/v3SpFZtKVaqlJbmVS9OCC0IfFn69rym407T5s8zZTdSB1anbLmAATGdmm4nxgdbEAwXQXH1EsjTAOmCkaYWJVA66EjGOnHUaJmoBG9NP/CBFCpa1NQk0oNXLlZc9FTfSPGrrgG9crBCy++//SalbrvdmO+lmzdL5RrVtWZmTposowYPNvrH8ZE39r0vOS+91GeY2zdtFggzesn48KDcVbiw8W/1oRx/PPX7b3LxxReb2hnep4+8/MIM7W92MVp++vFHKXZL5tEba3pzXGdNAY2/+Utzrtdv2eABbQ0f/u7bLEWQcOYWKZkhkuiledu2Mn7mDMmRI4dPc5jbgV27yZL582X5669LxaopRp1ghZZPDx2SaqXvNq4LJ0bLn+fOSb5/XWW0UbN+PXllzRofeysVK26kd36oSROZtWihTx3rsTSmdw5nFfEaEiABEiABEiABEogzAasXS9WqVSU1NZUZheI8L27pPlZCi78jNHioVeNeqG/1rQ9k+gNis7ZtDe8JPIghDfSwXr21B+N1GTu1o0N6QaDRBhUrGf+eMHOGIECttVgf6HXPGr2e9agM/m598MPfrKlk8SC+55OPozbdTo3vxzNnpHzhIoa4gKNeEMdyXXedj+1fHD8uFYpcEDuC8UiIZPDWY1tWzyasn+7t2svmtWtN3Zz49//5iB+q0ILKuz76UAoUKuRjnjrXVu8PiG7lChXSAqHqBbFpXlqyWC7JmRnA+fz589Ll0daybkVm+ueXli4xHX2BAAkhUi+T57wkEB30grX0cLXqJoFP9+jBkbyLLrpIrAKAGqAX3423MnZpIhEC6sI7Ri3tn3xSho99Ri6/IjPA71u7dsmALl01sWD42LHStV/fSKbP9lo7TzZ4iLzwygJTsGCss5EDBwk81RAoG7GR1ILA2vAe08vK7dukfJUqPn1aBRmk5LZLK20VZNS9xMoZneiisNH/okXSo30Ho3917ejzhQ+tApy/+EY4YlnkppuN9pAtyknvIisoPQA57hGCCYif7TxWOQsJkAAJkAAJkAAJJBkBOy+WtLQ0TWRhIQGdQKyEFvRnlzZYTfdqzeJiPXqhzhoChiIrC4716A+9iIUCQUct1kCvA9PSpPfQIT4LoFvbdppgo5fFGzdKSq3MYKg4XlOlREnDa0Kvh1gtZStWkptvzS0H9+2TIT16+gT6xUMkHugHP/203HDTjY4uPqfGB6OsaZ7BeOGGDSZPAzy8d2vTVtavXKmNY/JLs6V5u3aOjkltzOqxg8+Qger+8uXlm69Py4yJz5lED/1aiB+NWrYwpZy2Ci0FixQReDeoQsOGVaukc4uWWjMQkdak7/DxxFr+2mvSq6NZrMNDddM2baRE6dJa0Ofp4yeYRBa9PdhVuXo1adG+vSZoLJw718QOKbLh9bJ7xw7DY0itAC+JAoULyYljxzVhAqVknjwmBlNfnqsF7kXQ1r07dwrSkf/9119StmAh2yDUOBoFYQ1CAwQWFGTMmb5gftgZgQItCPV4nVoXwXrh+Yb4Nfhuo0Cs3Lhnt49njTUgMzJAYQ+xlhULF0rPDh2NP3cb0F+GjckMbq1/YPWim71ksTzQqJFxnTU+D9ZH0zat5bLLL5cta9cZ7NT++w4fps3V/RXKC4QtFKTrHty9h1ENWaascXXwIfaTeuUvHIFEiSQoeKD5wOcUWoKhxDokQAIkQAIkQAJJTUB9eAYIerEk9XLIcvCxFFpgCMSGWg3qa/E/3tiyRaaOHac9oOBBD0eDrrvhBpO91qCk/gZjfduLuA54cz5m2DAjbS6uRT9T5syRe8uV1R6w4RGBN+Zd22R6EqAe3qDDe6LkPfcYD5unTp6U9o0am9qz2oMHxR9/+MH0QIsHskYtW0qfYcPkplsy31BHsiqjMT7Ys3jePC1LjV7w5r9Np05SrnIlQdwOCAh4cEWJtsii29C38xPa0RF/Zc6ypZqgMG/GTFMVzOFLS5ZoD8IoVqFFXw91Gz4k+e8soKUe1wUkxOHBkQ6IMXZl9tTnJW3AgCynEAKGLhboFRHw+fEe3TUByOpBYW0MghLYq8de9DppEyZI5149tX+OHjpUZjw30ccWrLslmzcZwWzhIdOifn1bYUq9GAFncTQOQma0ys9nz0qHJk1txSS1T/Cfv3qV5LsjM2gw/CiQshlxZxDIWS8Qu1545VXjOwZR8MB770nvxzuZRBDM7YLVq7XvNo5qod7Rw4dlcI+epvTzRUqUkKlz5wj+i3pLFyyQPp3s4/HAhkmzX5SLs2f3EeHwGbxjChUrJgff3ycDunQxCbbYMyCOwR4wP/fHH/LxwYOS1n+A6YgV2oHd5atUDioweKhzR6ElVGKsTwIkQAIkQAIkkDQE4MWCB2e10IslaaY/rIFGW2hBMNymtWtLlZo1ZNf2zNgpqrE4ntB9wAC55tprbceA7Cd42NbftquV8DCLeBPW+C/Pj3tWEEjVX9EzHKnxVOzqLtu61ZRuF0dHUvsPkLXLlvl4B+DhefTkSdKxaTPtgQ1v1+HlkFKzht/AuWFNmohEa3ywBw+xOAJhFQl0W+FhgKMyeACNRQFzHH2xZqmCp9CIsc9oR8WG9e6tCS3wxGjYrKlUrl7dEFh0G60xWibOflH6dX7CRxSrVru2pE4Yb2Su8jdGCHlpAwf6CG8Q80aMGyvX33CjNKtbV/Ag3apjR2nYvJncni+fqTm00a1dW5P4gXH1HTbM8KhSva0gPCBLj+pFhAfzZnXrmUQC1Ju7fJnm2aKWb0+flp4dOpiOLOmfQ4AYO22a6XhTNOcXx3GQ6h0eHnZl0MiR2tEla9Dp+hUq+l2baAeeWPjeqsFr7drXU10/0bKVIbDZ1VPTeM+ZNl2e6tfPVK1xq1aC2DjwRMJxnwaVKht7Ffa9/iNGyBVXXqnZE6gc//knKVuwYEAxzLovBWo3mM8ptARDiXVIgARIgARIgASSjgC9WJJuyh0ZcLSFFrwt/vnsT4KHuH/++UfwoHfy8xNyxZVXaB4lt+XNG/Sbc7wF/+iDA/L1qS8l7x13aN4GVg8YR6AE0Qjeqp/8/HM5euRTuSbXNZK/wF3aGFGQwhYPuHbxTYJo2jVVkCEGXhCfHDyozR0CDeN/TnnlhDpQBHU9euSIJqBAlFNFC8TzuCZXLr9iHfqyC4aLuD7wLEEK8vx33ikFixb1CUgbyE60AUa//vKr3JLnVu2BO3v27FoQ2hPHj2seJdmyZfPbDL4jsB91rrr6Gp/jZVhrX586pc0BxAF/BcGAjx4+IkVLlggoEv3x++9y6KOPNE+O6264UQoVK6rFR8nKzkAcwv0c44e4B4YQVRDsOH+BArbBccPtw8nr4AWH9YL/5smbV0v7rRaMB3sD1mO89qdwxkuhJRxqvIYESIAESIAESCBhCdCLJWGnNiYDi7bQEpNBsBMSCIJAsFmHgmiKVUgg4QhQaEm4KeWASIAESIAESIAEwiXAjELhkuN1OgEKLbFbCwjeuf/ddx3psEW7dlK8dGlH2nKqEaRh/unsWUeaQywfxBhxslBoCY9moq/b8Kgk3lUUWhJvTjkiEiABEiABEiCBEAkwo1CIwFjdLwEKLbFbHB0aN9EC7zpREH+jXsOGTjTlWBv6g5oTDX741VfGUSwn2kMbFFrCI5no6zY8Kol3FYWWxJtTjogESIAESIAESCAEAvRiCQEWqwYkQKElICLHKsyfNUv2v+OMR0v3gQP8ZsRxzOAQGxras5dt+uAQm5HsOXLIuGnPyyU5c4Z6aZb11aCn8Jb57McfHG0/URtL9HWbqPMW6rgotIRKjPVJgARIgARIgAQSggC9WBJiGl03CAotrpsSGhQlAiXz5DFlczly5nu56uqro9QbmyUBbxGg0OKt+aK1JEACJEACJEACDhCgF4sDENmELQF1ba3cvk3KV6lCUiSQUASQHWb1kiXS/8kupnE1b9tWuvbvp2Xycdp7JqEAcjBJQUAXWtLS0iQ1NTXgmLOdRz4sFhIgARIgARIgARLwIAF6sXhw0jxmspq1ikKLxyaP5gYk8NauXdK4Zq2A9d49dlRLb8xCAslIQP2eUGhJxhXAMZMACZAACZBAEhGgF0sSTXYch0qhJY7w2XXUCeCd+3fffCOB3r3fcNNNkj179qjbww5IwI0EJo4aLcgahpKeni5Vq1YNaCY9WgIiYgUSIAESIAESIAE3EbDzYsFND25+WEjAaQKq0NJvxAjpN2K4012wPRIgARIgARcToNDi4smhaSRAAiRAAiRAApETsHqxhPJ2KfLe2UKyEsiWLZs29AopVWTFtm3JioHjJgESIIGkJKAKLYG8v3RAnvFowdsEFhJIJgLBuKQlEw+ONTYEuNfGhjN7CY9ARkaG4Gy0WmLtxcK9Oby58/pVeuYhCi1en0naTwIkQAKhE2hSq5a8mbFLu9CzQgtu8nEjpd7s88Y/9MXAKxKHAG7q1Rv7YKJcJ87oOZJoEND3VHWv5T4bDdJsM5EJ6Puy/t+UlJSgzmwnMpNEHpua4pkBcRN5pjk2EiABEvAlEGrGIbTgCo8Wu7PWnGASIAH/BPQ3uhRduEpCIcC9NhRarEsC4REINhtBeK3zqngRUOO00KslXrPAfkmABEgg9gTUY0Oh/MbHVWgJ5qa/aqWKGk39v7FHyx5JIH4Edu7ZK/hfViWUL3z8RsKe40UglH2We228Zon9eo2Avi9ntT9TEPfarAa2V/VqOf3nucAXsAYJkAAJkIDnCejeLBhIsMeGUDcuQov6Q6WSh5iSOmgAhRXPL0cOIBoEcEOfsfdNrem0ceN9usBNPV3Xo0Hem21mJbBwr/XmnNJq9xLQ92e7vVnbs9PShB6I7p2/YC1jmudgSbEeCZAACSQGgXC9WWIutKg/UHYCC71WEmNBchSxITDy2Ql+BRfe0MdmDtzai11WFl1c4T7r1lmjXYlCAHuznTcixRZnZli/l1Tjl8XyJQOzDzkzj2yFBEiABLxAIJxsQ/q4YubRYvVi4U2/F5YWbfQCAdzUa29MFS8X3IBCbGF2DC/MoHM22nmxcK91ji9bIoFQCPjzcqHgEgpF+7q62GH3abQFGAbFjXz+2AIJkAAJeIVAOEFwYya02HmxpA0eaBwR8gpk2kkCbidg5+HCG3q3z5pz9lm9WCiwOMeWLZFApASs+zP35siI+juCnlWrTgkwDIob2dzxahIgARLwCoFIjg1hjFH1aKEXi1eWEe1MJAK8oU+k2Qw8FjsvForZgbmxBgnEmgDFcOeIhyO0+Os9HAFG7b/fiBHSb8Rw5wbHlkiABEiABOJOIFKRJapCi/VHkDf+cV8vNCCJCNjd0Kenp/MoUYKtAavHIL1YEmyCOZyEI4DjRHoMF31w9G4JfZr9xfwLvSX/V2QlwFj7X7l9m5SvUsXJ7tkWCZAACZBAHAmEm2lINTkqHi2qyMIb/ziuEHad9ASqPfiwKT00xZbEWRJ2R4XS169JnAFyJCSQwAToeRjZ5MZCaPFnoS7AwAb8D6VCShVZsW1bZIPi1SRAAiRAAq4g4IQ3CwbiuNCiBiiDyMIbf1esFxqRxASsN/QUW7y/GKwiCz0GvT+nHEHyEaDYEtmcZxUQN7KWs75a9UDiEaJokmbbJEACJBB7Ak6JLI4LLVZPFoossV8c7JEE7AhQbEmcdUGRJXHmkiMhARwlguehXniMKPg1EWuhxS6bH48QBT9frEkCJEACbifw1q5d0rhmLcPM8+fPR2SyYx4tFFkimgdeTAJRJ2AVWyLdPKJuMDvwIWC9qacnCxcJCXifAMWW8ObQyYC4WVlgJ7Co9a3iN+O1hDefvIoESIAE4k1AjcvixIsPR4QW9UeGx4XivUTYPwn4J6CKLbh5xDEiFu8QUN/gUmTxzrzRUhIIRMAqtvCIZ9bE7LKtBWIc6ueBBBZ/YgvjtYRKmvVJgARIIP4EmtSqJW9m7NIMcUJkQTsRCy1WJf/8T2fiT4oWkAAJ+CWgBsh1aiMh7ugTUPdaiizR580eSCDWBCiE+xLXg81mZGQYgWf1v0VzfsL5bVQ9bCi2RHN22DYJkAAJOEtAFVmcfBEdsdDCN6zOTjRbI4FoE+Cb02gTdr59CtrOM2WLJOBGAskqhMdLULGugXAEFrUN63EmHiNy47eMNpEACZDABQKIyTJx1CjDk8VJkQXtRyS08A0rlykJeJMA35x6a94oaHtrvmgtCURCIFuuG4zLE/EIkS6q4B4SJRQPFdwEo+C/KSkpAmHDiRLKMaFA/VnFln4jRki/EcMDXcbPSYAESIAEYkjAGvjWaZElIqGFb1hjuBLYFQlEgUCyvjmNAsqoNklBO6p42TgJuI6A6nUYjRu/WA04EkFFF1N0QUX/t9X2SAPiOimwqLZZ75EptsRq1bEfEiABEghMQE3hrP++RCNuZdgeLXzDGngSWYME3EyAR4jcPDsXbKOg7f45ooUkEA0CXhLCIz32o3uppKamaij1fwfDNVyhJVoCS1ZiCz6j4BLMrLIOCZAACUSHgPWoEHqJ9MhoVpaGJbTwDWt0Jp+tkkCsCfAIUayJh9YfBe3QeLE2CSQSAbcdIXJKUNG9VEIRVPzNq1WMDmb+Y3kcy84+ii3BzBLrkAAJkICzBKxeLGg92r8HYQkt6s0/sww5uwjYGgnEmoD65jTaG06sx+bl/ihoe3n2aDsJRE5A9TqM5hs3q6VOCypo3wlRxY4obA02TkssGVptpeAS+feBLZAACZBAOATsvFhidSw3ZKGFN//hTDGvIQH3EojXzbx7ibjDMnWvTV+/RqpWqugOw2gFCZBAzAjoXi3RuCn0kqDiD3gwQkssjgkFsyD8ed/AwwXpoMtXqRJMM6xDAiRAAiQQgICduKJfEsuXyhEJLfRm4TongcQgEM2b+cQgFPtR6J6DEFggtLCQAAkkHwGnPA4hSGRkZBgZfiLJ9INZiJaHSjgzrHpZq9e7RWCxjsmf4HJBbElhhqJwFgGvIQESIAGbdM3W34RoBLzNCnzIQov+g5Y2eKBnZXohAAAgAElEQVSkDhrASSUBEkgAAk7dzCcAClcMgZ6DrpgGGkECcScQagaiSDL9WFMnu01Q8TcZ1oC4bhVYghVc9HoQXlAgvqDo/477oqQBJEACJOACAm9m7JK3dmVoluD/25V4/x6EJLTw5t8Fq4omkEAUCIR6Mx8FE9ikQoBxsLgcSIAEdAJ2Qrj12E8oHiqqgBJOph+3zYwqtMTSJdwpDri3RkEMGRYSIAESIIHICcRbYNFHEJLQwpv/yCeeLZCAWwnQq8UdM0NB2x3zQCtIwC0ErEJ4KKJKJKmT3TL+QHboQoUuGgWq7+bP9bHocxzKXLt5XLSNBEiABKJFQD3Kit8BVx1tPX/+/PlgB85jQ8GSYj0S8B4B9Wbei28FvUfc3mIGwU2UmeQ4SMA5AmqqZ7tWvXrsxzlCid2SHmMnsUfJ0ZEACZBAYAIpKReOU6K4SVSxszxojxY1sjvjswReBKxBAl4jwOxD7pgxVWhhwHF3zAmtIIF4E1A9DnFjif/pN5tuv9GMNzv2TwIkQAIkQALxIBC00MK3rPGYHvZJArElwOxDseVt15sab4BCS/zngxaQgBsIqEJLCI7IbjCdNpAACZAACZBAUhIIS2jhzX9SrhUOOgkIUGiJ/yQzrXP854AWkIDbCIx8doKkjRuvmcWjnW6bHdpDAiRAAiRAAr4EKLRwVZAACRgE9LemcEWPda55TsMFAoyFxZVAAiRgJcAYWlwTJEACJEACJOAtAkELLbo7e9VKFSV9/RpvjZLWkgAJBEWA7ulBYYpaJcbCihpaNkwCniZAocXT00fjSYAESIAEkpBA0EIL3dmTcHVwyElHgO7p8Z1yCi3x5c/eScCtBBis3K0zQ7tIgARIgARIwJ4AhRauDBIgAYMAhZb4LgYGHY8vf/ZOAm4mwBhabp4d2kYCJEACJEACZgIJJbR8f+YHeT09XVat3ygNateSx9o86un5/ur0admWniHrt2yVlo0bSdOHH/LMeM788KNs3r5dlq1eK/Vq1ZBujz/mGduT2VAKLfGdfS8JLZ8ePSabt78hq9ZvkGnjx0mp4sXiCy/C3r2830Y49Khc/tvvv0v67j3a+vjjj3Oy8KVZUeknmRql0JJMs82xkgAJkAAJeJ2A54WWb7//XuYtXCTrNm2Vt99/35iPCU+nSf8e3Tw3P3vefkde35Euazdtlg8/OWTYP33CONeLFR8dOiwr162XTdu2y3v7P/D8XHhu8ThgMIUWByBG0ITbhRbsSa8sWSqrN2yUz784aYz07W1bpOx990Yw8vhc6uX9Nj7Esu4VLzsWLl8h29J3aiKcXurVrCGbli9xo8mesolCi6emi8aSAAmQAAkkOQHPCy0Ze9+UvsNGyP6DH5qm0qtCS5snugrerOI8tlq8ILRAHHpx3gLTDTbGMGXsGOn1ZOck/6p5Y/gUWuI7T24XWibPmCWz5s2Xz44dN4HyqtDi5f02vivVvvdjn5/Qfo/f2bdPILropWH9erJm4StuNNlTNlFo8dR00VgSIAESIIEkJ+B5oUWfv3f37ZeyNesY0+lVoUUfALxzyteqZ4zHC0KLbiy8WcrUqB1T2//++2/Jnj17wn+doz1OCi3xXUJuF1p0OhOnz5D+I1INWF4VWhJhv43virXvHftUjhtuMT5s/NADsmLBvKiaGu29MarGB9k4hZYgQbEaCZAACZAACbiAQMIILX/99ZdccmPuhBFafvn1V/lXnnwxFSucWo8//9//Sa58BYzmZk16Tp7o0M6p5n3aWbJqteZJk+hpx2MxTgotvssU4geyAVWtWlVSUzPFhWgsaK8ILThyU7neAwkjtHh5v43GOnSizXur1jA8TZs90lCWvjzHiWZt20C8oMJlystfZ75JaMGdQkvUlhAbJgESIAESIAHHCSSM0AIy+k0I/r/XPVrOnftTLr35Vk8KLb//8Ydcfstthu0vTZ0sj7dt7fjiRYP6DXbVShUTWmiJ1TgptNgLLWlpacYH+v+PhujiFaHlgw8/kntSqieM0OLl/TYqG6sDjVaq20D2vvOu1lKrJo2jFgwXQXfL16qrxTT78/vTkiNHDgesd2cTFFrcOS+0igRIgARIgATsCFBocem68PKNv1VomTttqnRs3cpx0r/+9puUqV5bDn36qSSy0BLLcVJoCSy0qDWcFl0otDi+TQTVoJf326AGGIdKqtDSpnkzeWXWC1Gx4vGevWXuqwu1tim0RAUxGyUBEiABEiABEgiDAIWWMKDF4hIv3/hbhZaXpz8vHR5t6Si2P//8U1o81lnLfoKSqEJLrMdJoSU0ocVp0YVCi6PbRNCNeXm/DXqQMa4YC6HFGiuIQkuMJ5ndkQAJkAAJkAAJ+CXgWqHlzA8/ysGPP5b3DxyQX3/9Ta7NlUuKFCooNVOq+D2D7e/oEI5dwIX5+IkTkvuWm6Vy+fJSrHAhufjii4NaGj+ePStwlT924oRclO0iKV60iJQsVlSuvOKKoK4/f/68fPHlKTnw0UeCFMgI2gc77i1VSu6/527bNgLd+IPPjz+d9dv/HXnzyiWXXBKUfeFW+s8vv8i+Awflrffek59+/j8peOedUr7MfXJHvnymo0PzXpgm7Vu18NvN7rfe1tr5/Isv5LszZ6RA/vxyd8mScm/pUpI/7+0+18FVvEnbDqbsRgUL3Cmvzpph1L39tjxy8403+lwbal/WBrCO3nl/nxw9/rlcc/XVUqxIIbn/7rvlsssuFdhV+K67ssQZylqKZJzhzimFlvCFFqvokpKSosV1CaXEQ2gJZ3/K6ugQviPY6776+hvt+1GpXDnJd3vmUcJAPE6eOqXF9vj6m28k1zXXSImiRaVooYJBx97A/nr4s6OaDUhB/d///lfy582ribH+7HDTfnv622/l40OHfTCVLF7M2NMwxh27dvvUwW9atcqV5KKLLvL5DPP8/gcHZNO27dKve1ft9+uPc+dk7cbN8vHhw/L9Dz9I6RLFpdx998ndJUsEmibtc8RGw5EdBG8H69w33ywVy5WRe0qWlOoPPWIcHWrXsoXMnzHNb5v4jU7fs0f7nTxx8qQ2TvwGlCpezK8t6l6lN7xny0bJ8b+g6Fg7d915h22foezDTv8GBAXWTyUeHYqEHq8lARIgARIggdgScJ3QgpSQbbt0la1vpNuSuCNfXpk4+ml5uEF9n8+tQguOq/QYOEQWrVjpUxcCx84Na+Xyyy7L8uavVacnfFJH44J/XXmlzJg4Xh5t2kSyZcvmtw0ICM06PKbdhNqV6lUqy+RnRmvCjVoC3fg/2ulJWb9lq0DssBaIDggMi5veaBTcsD837QUZmDrSaB48dFserFtHs00v/oSWI0ePSs9BQ2Vb+k6tKhhAUFNTWy+bN1eaPvyQaRjqm1J/47NmaQq3L7193Jh36tXX8KC5p1RJLX0pUnHrpW+3LtratCt4kAh1LYUzzkjnm0KLL0FV/AiHL44XBRvPJdZCS7j7k53QctlllwmOcSDrmLX0fKKTTB33TJb4Nr6+TTp272lKC6xfULRQIZn3wvNS5t57smzjtWXLBSmb/ZXH2jwqz6Y9Jddde61r91sIVYNSRxoihW7oc6NGagIJCkTYGg810gQOa3lr22ZNLNEL5mrNxk0CNvrv0NeHP5Jdb74lvQYPteUNYWTmpAly2aWX+mW5fWeGNGrT3tj31d8A7OUnTn5pfAahHb8D1oLA6UNGjtZShqPkyZ1bE+dgs54euk/XJwVjV8WjtHHjBXtVVsUu01E4+7BTvwHh7B3Wayi0OEGRbZAACZAACZBAbAi4SmiBt0GTdh20Gyw8rI8ePlR7kwkvh+YdHjfdeC6f/7I0afigiZIqtODm7I2MXdrbNn8lqwB9uOlv+Vhn7UaxR+fHpVTx4vLHuT9kweKlpgcJ3LjPeX6KbRczX54nXfsN1D4b3r+vdGz9qOS9LY/m1YKMHbowgRvUfTvfML19CyS0oE3Y+EDzC7FP8OCfOmiA1KleXXLmjJ4nC96APtmnvyxYvETrFw8tbVs2195AfvnVV1rK1+Vr1pl42AkteHNZtmZtba4x/vd2bJNCd13IVIR2KtZpYIgYSAuKm2a9jJ86Tf757z8ydtJUgyEEODXgLuY2720X3qJH0heu/+eff+TBFo9qHjQQsdYuetXwXMHDRq1Hmmj9dO/0uEwbP9ZnLYS7lkIdpxNbBoUWX4qRCi16i/BuCZS5KJZCSyT7k1VowYMw1o6d8KuPf/aUSdKpXRsfwPA4eWbSFBkxZqzceMP10qVjB8l3++0Cz46ps140CQELZk6Xti2a+7QB4aHP0OEye/4r2mevvjhD6tWsoe0tqzZs1PZyvdiJ7G7cb19+bZE81qOXYbddgHc7r7e9WzdJhTL3a9f5E2shfMxfdGEP91fAadem9XJpzpw+VV6YM1e6Dxis/R177VMD+2t7I+JJTXphpqSOfdZ0jZ3Qgt+Sek2aG8L6moWvSMP69bTr8Fmz9o8Zgr1VqFu6ao18fvILWbdpq0lseuapYUa/8KSqXL6c8e9w92EnfgOc2JvRBoUWp0iyHRIgARIgARKIPgHXCC1wFUc6SJQnO7TXHliz/88FGH/Dm9f7qtU0iODN16lPDpoIqUKL/sHg3r0Eogtu4BE0tU6jZiYvhI/f2i3FChc2tYM3fSkNLnhRrHxlnjR6MPMhHzeSdRo1NYk+q16dL4880MDUxvSX5mjeNCgIAohggGqZMvNF7cFAL1bBJtCNP3hVfaCh9mAzsFcPGTV0cNSPCsFWPLAgzTAKPHrwUKQWuLTDZRyimV7sHo7ad+1hiDVgB4ZqmTZ7jvQcdIEfbvjffeN1n29DsXKVtDlFaVC7lmxYusj2GxNpXxhLlfoXRD2sSwgqalm3eYs0bNVGe4jEw6RanFhLwY7TdvAh/pFCiy8wp4QWtWV/okushJZI9yer0IKxQdSYMnaMtGj8iOS85BLtiMpDLTOzjeHzn7445nNkc8zEyTJ89DPaHr1r43pDcEWb8ECo0uBBk9hy4uB+nyNA8KxAvCb0sXvzBu3IiVpgh+plByGmdbOmRhU37rc4OpWnaEnDRn+Z9F5dukzaPtnNqKcKLfBgwRHc4aPHGnulXhFC1LD+fbXjmYeOfKoJJBCT1fL8s2O1Fw1qgZj1RJ9+2p8gsmB/V3+r8fennhknoyZMNC6zE1og9HTo1sOoc/6nM6Z+rGsMawfHNdXSd9gImTxjlt829A8i3Ycj+Q0IcQvOsjqFFidpsi0SIAESIAESiC4BVwgteKNZrlZdzVMEN8qnj3xsG/+k0P3l5LNjxw0iv3/7leltmyq0oJ1Ny5dIpXJlTQRfWvCqdO7d1/jbrEnPyRMd2hn/hi33V6+lHRfy560Cd+3ytS68eUNBXz+fPG64Nn/z3XeSu3Bx7TN/AsCpr7+W24uXNtqwBnPN6sZ/yxs7tDeBKNYHhmgulzfffU8q1rlwZMuf+IHPVC8P/NtOaLmtWClD8KpYtozgbL1aNmx9XfMi0ctv35zycWMPVoCItK+xk6fI0KfHaKa8OHmidG7f1mQr1swthYtJvZo1TXEInFhL6CjYcTox9xRafClGQ2hRe1EzF8VCaHFif7I+BONoz+url8utt9xiAogjjurRTauwDa+VW4tciAfiby+DZ9egtMwjeVZPRIgD9ZteiAGlHq9RDYGXHY5w6uXpoYNlxIALYgGKG/fbX379Vf6VJ59hoz+hBQKSKmipQot+MUSUfsOfMtqC8IFscOpxHHjuDXl6tEx4frpRD79teKFx9VVXaX/DUR/8bumeS2eOfSrXX2c+hoV6eCFx5a15Tf1Zjw6p2YJQ0brH//Tzz3Jt/syYV9vXrJQaKVVM6ysYocWJfTjc3wAn9mS1DQotThNleyRAAiRAAiQQPQKuEFrmLVysnc3P6kYZn6kP33bHNFShpXeXJ7TYJ9Zi9YwZOWSQ5vasF/WM/9aVy6R29Wo+beCGNPv15vgnX3y43ziqgreLeMuI8s72rX7jCgwbNUZzmUd5bfZMLd6LXvzd+OuscAMMV2vEeIlFQVyWCrXrG27aWQk8CGaZr2RmLAU7jx71JhuxdHDTrxbEaan24MPGn7469KHPQ5wqQOCo2brFr9miiLQvuME/Pf45rW24x+9Yt9rHFswlgiUvfXmOo2sJjQU7TifWgSq0QABAQNdkLxkZGaKLIdFmAU+XnTsvxCxCnCUIsE4XJ/Ynq9Bi59UHu62ee/juIFirXtTvpp3HAupBgC9To7ZxjerNiAxnxctX0mKPYE/85tNP5IrLL7fds+GliPgn8JyBHaono9v2WwwgWKHFKkrbCS3qbyza3p+xwzbILILbFi5T3hRTTJ1b9Tcrq2Oz6EMVuO32ePW31s5DFRnXct50qzGXS+a+JM0bZf4m4INghBYnftPD/Q1w+rtLocVpomyPBEiABEiABKJHwBVCS6lKKUYsFRwR8ZeJBxjwlgtvy3BjZi2q0DKgZ3cZPzLVpw7Ofl92cx7j7zhWNGnMKOPfNRo2MrI54IbcX2Yha3BbXZQ5+9NPct0dBY32/vnxO9sMEHoFBFPFgwEyJKjFeuOPIys/nv1JEAQQdm1fs0pKFC0SvZVhaXnP2+9ocWX04u9NJj63pne2E2VQZ9X6DfLLL79qN8+qSzjGPm32SzLgqTSjv8PvvumT0SdYASLSvqwBNvFAt3jubM1bSS9404vMS2qWpEjXkt52sON0YjHYZfJwol22ETqBtMEX4jsh9pJTxan9ySq0rF+yUB6okymG6PaqRzbwt9WvLTACmVsfpBFnya4gw5o19st/vvpC25tVb46sjg/q7eIoEr6j1oxsbttvYa+TQov1mM6Rd98yHdFSuVv3O91LyPrbqcZUsZs3NT6MnSgD8R6Zkw5+/Ik8VK+uFLgjv9EMPsNvjn5kEx+8NHWyKQ4X/haM0OLEPhzub4BT31u9HQotThNleyRAAiRAAiQQPQJxF1rwBu2SGzNFk+8+O6wJCeGUYIQWtHvVbfmNG3er54v6mR6YLxhb8DCElJjq8Rq403/y9p5gLvepY73xVytY3d7D6iDEi9Rz+bj0v2e/95ttKRihxa77Y5+fkDmvviYz5rzs82B16J29UqRgpoCF6yMRIELpC+Je3hJ3+9iEB7tnnhrukzFKH1uka0lvJ5JxhjjNWkBTiHks8ScAbxbsK056tTi1PwUrtCDwd8mKmcc9VO8IZAIrUqaCATrY/RbBvvHQfdW//iXjpkzVstag+PNiDGYm3bbfwuZ4CS3HT3whBe65EEwXBXG4EI8L8bCwF+kFAdwRhN1fCSS02F2HvRYB5xGoWT0mjLp2wZSDEVqc2IfD/Q0IZu2FUodCSyi0WJcESIAESIAE4ksg7kKL9Wb719NfZplyOStckQotSOF7/Z2FjC7+feqE5o4eSpnzymvSqVcf7RKk2ESqzXBKVjf+aO/gngy/D/jh9BfoGvWGFm+ej3/gm1ZUbyNUoeXdfftl9HOTjGCVCCoLt/7eQzIzSAQSWvCQhjesgUq4falxIKx9IFgkBBfV+8mJtaT3owotwY4zEAd/n6tCix6wNdy2EuU6HOXRj/PEckzRODrk1P7khNCiB5EG06xiPmXFXI0Bg8xuo4ZdCKAdanHbfgv74yW0WFnoxzKRIvqR1pnxzBC7xc6zVGcfitCCmGXjp04XBGlGqVOjmhZ0XI3TFY7Q4uQ+HOpvQKhrMJj6FFqCocQ6JEACJEACJOAOAnEXWqzny+EBAk+QcEqkQoua+Qj9+zvHnpVtA1NHGsEEIdJArAmnWG92IW6ox5Xwb7xRtGZhCKevYK6p26SZbH0jXasaaFxWocUaf0bv79vvv9fSXyNbCAqyTeG4xE033iAZe9/UsirpJVKhJdK+YAfiO7To2MmUtUq3Dw8cSIWqHx1yYi3pbcdLaElPT9fSESd7iXYwXF3QQjwcNR5MNIQWp/YnJ4SWqbNmm8TUrLzk/K1B9dhpi0aPaEf6wilu228xhngJLehb9QLBvjxz0gR5dsrzMnhk5jHbD/fuyvL4qiq02GVkQz/waH3qmWc1zyQUBEafNfk5KV6kiPaZ6u0ajtDi5D4c6m9AOOsw0DUUWgIR4uckQAIkQAIk4B4CcRda0nfv0dIB68WaTjkUVJEKLSdOfil3lL7X6NIu+F4gexA0FYHz9PLtp4c04SDUYhec8f0PDgjO2usFaZHBK1u2bKE2H3J99aYZFyPLkp6JwtpYMEILYiXUfLixIVpYM2qEKrTYpYjW7XKiL70tPPzA+wYPHdaCQLlvb9uixdtxYi3p7atCS1bjDHlSbS5g1iFfKNEQWnQBKzU11SRmRTvrkFP7kxNCizXuhV3A60BrGjE89FTy+P59+l5mWvlA16qfu22/hW3xElqsAoee4lkNCAv7kNUPKaL9lUBCC+LuNG7bQbalXwj+3PThh2TBzBeM7HJOCC1O7sOh/gaEsv6CrUuhJVhSrEcCJEACJEAC8ScQd6EFwWCRnUAv1jTH/hDhBgqeFWpqyUiFlr///lty3JCZnhQ3kbiZDFQQJHDR8pXSovEjAnf4lo91Ni4JNp4KAgIWKXiXEaTR7sa/w6Ot5P5qtbSz8nrxl840kM2hfm5NxfnG2lV+Mx5ZhZZFc16Ulo0bGV2Cc9madbQU2ij6G1PVJqeEFif6+u333+W33343rTWIN0iXuvH1bSaUSBmLOXdiLV1+2WVa2xRaQl2tztZ3UmiBwGIVV1Rroy20LFm12pH9yQmhRY0XAwb+0hdbZxOefei/8UMPSJe+A2TWvPlGlZ0b1kpKxcy4L3YrAYFWIVqrQdfdtt/C7ngJLV9+9ZUWk0ovm1cslbo1qotVGIP3YVaBmlWhpXP7tvLi5Imm6VCPo0IkO/T2Xrn44ouNOk4ILU7tw+H8Bji7C11ojUJLNKiyTRIgARIgARKIDoG4Cy246b3o2htNo7OmALUOHYHpSlZM0YIf9uve1fg4UqEFDRW6v5wpCF8wN+64YUTsg68PfyQIsnpPSnXDJohBJz/6wCerkDomxA2B8KCmgvaXbhQP+Ei/qZbta1ZKjZTMgJPRWCqTXpipCQt6afZIQ1MqY7XPQEKL9biYnf2hCi3+Ypc40Re8AMB94UuzfNBa3enVWBORriU9PhCPDkVjRQffZqRCSyBxRbUk2kKLVSAJd39yQmj57vszcnOhoiHtlXj4rli3gXZk8vVVy2Xa7DnSc1BmXJbK5ctpR/iyKjiyNGLMWPn+2BG5NGdOrarb9lvYZBVa/In2waR3DiXr0JY3dki9Js0NhHqGOWuabQStP/XxQZ8MTvqFWQktP/x4Vm4okHlEGIKNnmVLv94JocWJ33R8R8L9DQh+lwmuJoWW4DixFgmQAAmQAAm4gUDchRZAqN+0hSDQnF5wAwePCZzTtha8WWrQrKXsO3BQ4GqOzBN6UYUWCDDw9rArWWUdwg04jobopWSxoloq5Ruuv862rZdfWySP9eglI4cMkqcG9hfYd3PBoqYMNfDSQbYNawpnNAhhpmLd+nJvqVIm7xl/N/64xvpWGjeC7+3Y5jddpxML7e3335fyteqZmjq2/z25M38+n+aR6jhXvgLG361n68EXnPVil9J75boN0qRdB6POx2/t1gLkqkWNz+AvmKYTfeE4zcTpM+TsiaOSPXt2n/Gqa0aNXxPpWtI7CmacTswx2uDRIV+S4QgtoYgrao/RFlqc2p+sQsu6xa8JgqZay4efHBKsX72oWYfwN+wp2Fv00r5VCy27TI4cOXzagnfCE336CfZcXYy325ew948fmSoXXXSRTxt6Omh8PqBnd+Nzt+23MMyaTtmfuG31NLF7URGK0PJA81aGpx5+0/DbhvLrb7/JLYWKmX7bXn1xhrRu1tR2+7m3ag3Da7FVk8Ymodqa9nvi6Kelb7cupnYQVwv96WXWpOfkiQ6ZwXjxd4j/eAmgFz3tt9qQE/twuL8BTu3LejsUWpwmyvZIgARIgARIIHoEXCG0WNNGYrh4YJ09dZLUqFJFEzlwk71tZ4Z0HzBICwr78vTnpcOjLQ0yVhdhO1dlVP7vf/8rF193k3Fdx9atZO60C4H4UKxv2vA3CD8rX5kvlcqVNepBTJjw/HR5ZtIU7fPD77wp1+bKpX2uiy/qtCHAL1Jk3nd3abni8ss1Qebl1xbK0KfHaDeuViEBn1+R+3ajiekTxkm3xx8z/t1j4BAjQwP+iOC4b72+JezU2MEssUZt2huBa/U+Mzau88k8gdScCHKrF2TlwTl/vYyZOFmGj37G+Dcerua9MM3499mffpK6TZoL3qDqRfcswvzpD1BqfAasF1UIQdyGe0uXkskzZkXcly4+WI9A6ba9viNd6jRupv0TwRz3bLkQ3NeJtYR2ghmnfswomHnMqg6FFl86wQot4Yorao/RFlqc2p/w/cK61Iu/74ZVCHll1gvSpvmF7wrK9p0ZUuuRJibo+A7BeyzvbbcZf4cg3X9EqqzdtFmLC6Ie6Wz7ZDd5dekyUxsQJQb37qUFa4U4+s1338kzE6doeyb2yo/e3G3KbufG/RYDwrFaHK9Fwe8Mss3dfGOmB6gdv2eeGiZD+vQ28bAKLdhvse9aiyqM2Xk7vTBnrnQfMNh0mZ2wg6OwpStnBtK2xs+xrh/8Pr69fYuR5e+ff/7R+lGPhekePfCCRUFsMmvMITUb3+HPPtMywV126WUm7xmdZSi/6eH+BkS6H1uvp9DiNFG2RwIkQAIkQALRI+AKoQXDe+qZcTJqgvkMt79hW9+Ood4XX56S/KXuMS6pVa2q5lpuLV9/843kKVrS+LOdq3nauPHam31rwY1u2Xvv1d7sQQSAQIJizU4EMQAPIchSE0zB2XUIQ2rBg8Vd95Yx/jS0b28ZMyIz3THedlasU994Y4iKuFl9Y90q0414MP0HW+fo8c+l4H2ZYhOuw99fCPAAACAASURBVENLj86dpNz992o3yfBEUYMB623jaE+huwrIuNQRsmjFSmnd2fz2EvOAOcObcj0LkWrXPaVKSvtWLWXKzFlGaukO3XqYggP36fqk9nYVaUixlnZv3iAnT52KuC/9Jhvj27t1k0+mDfWtKsS0Lh0zPXEiXUtgEMw4VREw2Pm0q0ehxZdKVkKLLq7gKicyNMVCaHFif7J6UYxNHa4JG9aydNUaafFYJ+PPuuefWs8aaFv/DHtLqeLFNaFBF13VgNN6PRxBwl6p78eB1v+B3TulVPFMTwnUd+N+C7sefrStJi7pBXt818c7aEenNr2+XdtL8bv0/ZkfjDr4d8dHH9Xq3XbrrdrfrUIL/mbN8AdhApne9LYWzJwubVtkHiHCNX/++acUKVvBlAEPf8fRH+zht+a+RYt/A6HdOh8Q0AoXvEvGDB8mf5z7Q/KVzPy9RhuY22YPN5TvzpzRxqyOCZ9j/8Vv4PxFizVhHt6m1nFVr1JZ+405cvSoQIBDffx2RroPR/IbEGg9hvI5hZZQaLEuCZAACZAACcSXgGuEFrhuDx012uQGbIcG7sW4kVJdy4+f+EKGPD1Klq9ZZ7oEniqPPFBfO7KDt2CoN2z0GFm2eq2pHm4oGz/0oOZpggLvmAFPpcmUmS9mOTu48Vs2f64WKNBa8Aa1XZfuRkYFfw1ZXa/Rt24nRAu94OZ54exZUrpECSMoK4QcPKSoBTbB++WhenWjkvp5x67d2s1/Vg81uNlFPbXgoQlvsuGKDpHo7irVTLFw1Lo4aoWU0OVq1vVJpYzjCTimgIJAtHBztyv6cSW8qY60L1V8AF+IKRXLXhCcVqxdJ0iZiwLbVr+2wBTQ0Ym1FMw4ndpGKLT4krQKLWo6ZifEFbXHWAgt6C+S/QlBrDt062kKyq3vT5XKl9PinmDdv3/ggDzRu5/AS0Ldx5bPf1kqlLnfOIYHDzbsKXr2IH9rGSIDvvt2xxUR56rl4519BAC1LaRgX7PwFc3TTS9u328hGBQp4z+4L8SNl6ZO9onbhf129PChRhByO6EFexn2rHL33yeHjnwqC5evMPZ1zFGThpkeSypHvNRo2Kq1aV6tc4b+z/zwo+l3Av092rSJPDWov9xy002aEGL1RNLbwVwtXzBXXpy3wCSm43N89sGudO138PS338qtRUrYLhl4q+K4Ee4VIt2HI/kNcGpvRjsUWpykybZIgARIgARIILoEXCO06MPEMYw+Q0eYbuLxGW6y4TqMTBNqscbysMP10xfHtIdyqxeFWhc3hsc/yIwVgM/gJg3XZOubNXwGr5rJz4zO8qgO3hxDrHl26vM+beAG+YXnxvt4R1gDqNqNB54aX5/+xvSm2K6e3Xl1J5YTjm492be/j4iEG2kEKEbsA8TBwb9xvAteJjgypaahhpjUrks3k9cPbqCH9e8jj7dprT2EzZ7/ihaTAUV/S4uAiTlzXmIMY1Da0zJ+auaxI/QJ8QoeNHqJtC+sgZcWvCq33HyT6TiT3j76HP90qjzW+lHb2BJOrKVgxunE3FJo8aUI8WPnzgspaLPKGOQI/5EjJS0tTWsqff0agegYrRLO/oTAswhA66/A82zfzjekc+++2nfGX+n6WEd54blnjY8htPceMsx0VES9FqLBgB7d/AZeRd1//+c/mkC+eMUqnwf8hxvUlyljRxvHO/W2vbDfIp5Jp159fIRpeJEM7NVD/u/f/5bchYtrHiEdH20lDRvUk8J33WVCbxVaIGRj31RFMFyA9YZ2A607eHX2GTpclqxc7SO6t2j0iHZU9JHWbbX9HWmb27VsIbWqppjmD2I9joNhn1f30u6dHpf+PbpqcwVPphoNGxl94Lfk2ZFPSe6bbzaugQckjrWqBYI+fivU35xI9mEnfgOc+B5TaHGCItsgARIgARIggdgQcJ3Qog8bN48fHz6inbG+Pc+tWWbtiTYqpLvEW1zcGOIGtkihgppdoRS8eTv9zbfaJcWLFjGyXYTShtvqwo38kyOfal4neEMJLvAKwgMcPFr0t9tZ2X3q66+1o1g5L8mpzbOa3hPXIc7Jd2e+17hbP9Pb/fHsWXl3/wfam85ihQvZBsFE3XD7QvYPeERBUMED4RdffilnfvxRsme/WG664Ua57dbctkFy7cYdyVoKdpyRrBMKLZHQi/zaWHm0WC11y/4Ez4NPjx2TAx99LJfkuESKFSkkd91xh18B04449h+Iq8hOd+WVV0ihAgX87h2Rz1hsWtC5/PLLr9pYcARH/w3CZx8dOiylSxT3ERZ06+yC4cIz6NCnn8mJkyflumuv1Tx9Lrv00pAGpHuKwvMGnqOYK4jiKEjfXajAnVrbWRV4NP149if56++/5M58+U1COq6DVyLmE/b6i0WFTHfwaoL3CgLLq2K8E/uwk78BIQG2VKbQEgk9XksCJEACJEACsSXgWqElthjYGwmQAAhQaInvOoiX0BLfUbP3aBMIJetQtG1h++EToNASPjteSQIkQAIkQAKxJkChJdbEY9QfzsePnTxFO5seabnpxhtlWL8+kTbD6z1AgEJLfCeJQkt8+YfbO7wpECDYiVK5fHntuI2ThUKLkzTj1xaFlvixZ88kQAIkQAIkECoBCi2hEvNIfWTvuSfFN0hvOOYjPg4yVLAkPgEKLfGdYwot8eUfbu+IW4P4NU4UxLlC/C8nC4UWJ2nGry0KLfFjz55JgARIgARIIFQCFFpCJeaR+oi5MDhtlCPWIi0zPVocQen6Rii0xHeKKLTEl3+4vSMmFcQMJ8rDDepJowfNQd8jbXfG3JelW/9BRjMH92Ro6ZFZvEWAQou35ovWkgAJkAAJJDcBCi3JPf8cPQmYCFBoie+CQHajatWqaUZEO+tQfEfK3mNJwJpKedPyJVKvZo1YmsC+HCCgCy3ITIYMaCwkQAIkQAIkQALuJRC00IKbfzwEIO0jHgBYSIAEEo+AKrQgowhLbAmoQgvS0yLVLgsJhEsAMbreeu99adCspSkN8/333C1Txo6REkWLaNnUWNxPYOeevVLtwYc1Qym0uH++aCEJkAAJkAAJhCy0ANn5n86QHAmQQAISwI08bui17zmFlrjMcLZs2bR+KWrHBX/CdIq0yFfkvj3geBbNeVFaNm4UsB4rxJcAvQ3jy5+9kwAJkAAJkECoBIIWWhg7IFS0rE8C3iPAGADxnzMKLfGfg0SxANnnzv15LsvhXJsrl1x+2WWJMuSEHQeFloSdWg6MBEiABEggQQkELbQwdkCCrgAOiwQUAowBEP/lwGOa8Z8DWkACbiPAY51umxHaQwIkQAIkQAJZE6DQwhVCAiSgEWAMAHcsBF1ogTU8pumOOaEVJBBvAuqxTsRoQUlJSZGqVavG2zT2TwIkQAIkQAIkYEMgLKGFsQO4lkgg8Qiob0wZbDF+88tjmvFjz55JwK0EdG9DO/sgtqiCCwUYt86id+yCFzsLCZAACQRLgKK/PamghRZcztgBwS431iMB7xGga7o75kw9pklR2x1zQitIIJ4E1L05FDtUAYbiSyjkkqcufm8yMjK0rKJ6ociSPPPPkZKA0wR0wUX/b7L/9oQktKgu7UjxjIcAFhIggcQgwPgs7plHHh9yz1zQEhKINwGrCK4/HMMu/P9QH4wpwMR7RuPbP9YLPCdDXTfxtZq9kwAJeJlAsnrKhyS08E2rl5c4bScB/wR4bMhdq4PHh9w1H7SGBOJJIFgRnAJMPGfJ/X0HI7BUSKmiDaR8lRT3D4gWkgAJuI7AW7sy5M2MXX7t0mOMpaamus72aBgUktACA+jVEo1pYJskEF8C6vn/8+fPx9cY9q69acRei8LjQ1wQJJC8BJwQwSnAJO/6wchV4V4lAVEFgsqF/14QWFhIgARIwCkCb+3apYkuE0eNsm0yGbxcQhZa1AeAtMEDJXXQAKfmg+2QAAnEgYATN/JxMDvhu6SonfBTzAGSQEAC0RTBKcAExO/pCv48WCCs9BsxguKKp2eXxpOAtwhMHDVaM9gquuAoK7xbEjWYbshCCyAxKK63FjetJYGsCDAIrjvXB71a3DkvtIoEYkUgXiJ4JAJMMmRA0vm42fXdzouFAkusvrnshwRIICsCEF2sgkuiereEJbSob1rp1cIvEwl4l0C8buS9Syy2ltOrJba82RsJuIlANL1ZwhknHt71EmoQ3kQKwKuKGG57OLDzYoHAsmLbtnCmnNeQAAmQQNQIWAWXRPRuCUtoAXHdqwX/nxmIorYG2TAJRJWAeiPvthvGqA7cI42rN/SM1eKRSaOZJOAAAa+I4Kr3C4atBzoMFoEXBRg7bxE3/H7a2bVy+zYeEQp2MbIeCZBAzAkkundL2EIL3dpjvhbZIQk4SsArN/KODtqDjdGD0IOTRpNJIAIC6t6MZrwYoDyS40cYs5sFGHVPtk5zvAQXq8hCL5YIvoC8lARIIOYErIJLvPZSpwcettACQ/gA4PR0sD0SiA0B9UYeN7Tp6emx6Zi9hEWAHoRhYeNFJOBJAonsaZgIAoy6H9stMF0kilUMF6vIgkC3/UYM9+Tap9EkQALJSyARxZaIhBYsBT4AJO8XgiP3LgH1Rh4iS6JG+/buDJktpwdhoswkx0ECWRNIVk9DLwkwgYQWfYZj8UbWKrLwqBB3GBIgAS8TQEroxjVrGUPw+svgiIUWPgB4eTnT9mQkkKw38l6fa3oQen0GaT8JBC+yoKYXjww5PceRCjBqzJiUlJSIXyqo97zBjjVaggtFlmBngPVIgAS8RMAqtkRrD40Fk4iFFhipPgAwYGMspo19kEB4BHhkKDxubrlKfZPKjG9umRXaQQKRE9i5Z69Ue/BhoyEv31hGTiNwC5EIMNYU1KEc8bELOBvY2gs1nJxTiizBUmc9EiABLxJIFLHFEaHFKrbwAcCLS5o2JzoBa4BFHhny3oxb36Zyr/XeHNJiErASoMjizJqwZkCKRgrqSIQWfZSRCi4UWZxZL2yFBEjA3QSsYosXn1scE1r4AODuxUrrkpsARZbEmX/rTTbFlsSZW44k+QhQZIn+nEfi/QLrVA+YUMUbf6OLJGCu6tnIwLfRXz/sgQRIIH4ErGKL147UOia0YAootsRvIbJnEvBHwCqyRPo2jaTjT4BiS/zngBaQQKQEKLJESjCy6yMVYCLr/cLVof4eq3s/RRYnZoBtkAAJuJ2Amo3Ia8FxHRVa7MQWxmxx+/KlfYlMgCJL4s4uxZbEnVuOLPEJUGRx7xzHQ4AJRnBR9/wKKVVkxbZt7oVIy0iABEjAQQJNatWSNzN2aS166QiR40KLLrbgBwE/Vnqhe7uDq41NkUAAAriJh8iC/+rFSxsTJzg4AlaxBcJ26qABgv+ykAAJuJMAgt6qe3MwD9nuHElyWeVEfJZAxLJaC+qRIaZxDkSSn5MACSQSAa8eIYqK0KJPLN+4JtIS51i8QsDqxQI3O2RVwH9ZEo+A3c0/he3Em2eOyPsErF4sGBFFFu/MayyEFp2GdV3wyJB31gktJQESiA4BLx4hiqrQAsx8CIjOYmOrJGAlYOfFwpv45Fkn9G5JnrnmSL1HwOrFQgHce3MYS6EFdPSAuSkpKVKtWjUNGI8MeW/d0GISIAHnCHjtCFHUhRagxREiu6NE+Axu7iwkQALhE7ATWHgTHz5PL19JYdvLs0fbE5EAvVgSZ1YhdqhH4mM1Mvye6/0yAG6sqLMfEiABNxJQjxB5ITBuTIQWfaL8vQ2gm7sblzJtcjsBO4EFNtOLxe0zF337/AkuFLejz549kIC/vZkCuLfXhhojJV4jOf3nuXh1zX5JgARIwBUEVK8Wt6d7jqnQgtnRo7njYdBaILjwQcAVa5hGuJSAvxt4mMubeJdOWpzMysrNHXttSsUKDJobp7lht4lHQA9uaw1Cro+UArj35zzaQoseRw0x1fTfdMZm8f664QhIgAScJaB6tbg90UfMhRYVdaDzrsicoWbPwIMBCwkkC4GMvW8amSnUDBXW8VNgSZYVEd44sc+i2Inbeovca8Njy6uSkwD2ZhR9X/a3P3NvTpz1Eeh+NZSR6oIK/ov4K1kFqlePK9GbJRTKrEsCJJDIBHJfktMQpCG2uLXEVWjRoQTzIOBWgLSLBOJBgDfw8aDu/T6dfFjwPg2OgASiQ4D7c3S4xrPVcPZOq6AC+0PJ/gcPcD0ILmOzxHP22TcJkIDbCHglKK4rhBZ18nTRBT8w8Qg65raFRHtIQL05C+YNGImRQCAC+j6LetxrA9Hi5yTgn0Ao3gnk6F0CWQktkQoq/qjw2JB31wstJwESiC4BrwTFdZ3QYjctuuCSkZER3Vlj6yTgEgJwJ1YFFpeYRTMSnIAeQyvBh8nheZiAnTCY1bE4p4fKvdlpot5oT/cs0X+XY7EO1JgwPDbkjXVCK0mABGJHwAtBcT0htMRuytgTCZAACZAACZCAmwlYvQt4VMfNs0XbwiWgCy08NhQuQV5HAiSQyAQotCTy7HJsJEACJEACJEACcSFgm8I8LU30jC1xMYqdkoCDBCi0OAiTTZEACSQcgYmjRsvEUaO0cbk1+xA9WhJu2XFAJEACJEACJJAcBOjdkhzznGyjZCDcZJtxjpcESCBUAl5I80yhJdRZZX0SIAESIAESIAHXEKB3i2umgoY4REBd0yu3b5PyVao41DKbIQESIIHEIKAKLYjV5kaPVgotibHWOAoSIAESIAESSGoC9G5J6ulPqMGra5mBcBNqajkYEiABBwnkviSn1hpiteH4kNsKhRa3zQjtIQESIAESIAESCIsAvVvCwsaLXEYAWY70jJsUWlw2OTSHBEjANQQotLhmKmgICZAACZAACZBAMhCwCi5udStOhrngGEMnQKEldGa8ggRIwH0Ezp8/L2qqeqct1DMP0aPFabJsjwRIgARIgARIgAT8EKB3C5eGVwlQaHF+5n7/7TfZuzNDNq1ZI+f++ENeeGWB850kSIsnjh2T1zdslLXLlskzz0+V0vfdlyAj4zDCJfDF8eMyafQYwdp4vEd3adismW1Tf/35p7yzZ69s37xJ1q9YKU/07i2de/UMt9uA11FoCYiIFUiABEiABEiABEggOgTo3RIdrmw1egQotDjD9ofvz8iqxYtl1xvbZceWrUaj1evWkdfWrXOmkwRpJWPbdtm2aaO8sWmznDxxwhjVhj275Z4yZRJklBxGuAS6tG6jCW96OfDll3LjzTdp//znn39k+auvyhubt8jG1atNXQwfO1a69usbbrcBr6PQEhARK5AACZAACZAACZBA9AjQuyV6bNmy8wQotDjDFG/hU/sPkA/ee1cguuilzoMPyryVK5zpJEFagbfC7h075J09e0wj2vrO21Li7rsTZJQcRrgEHqxcRfa9845x+bqMnXJf+fKG0DKwazf5+exZ2bx2ramLEePGSZe+fcLtNuB1FFoCImIFEiABEiABEiABEog+AXq3RJ8xe4icAIWWyBmqLfz9999y++VXGH9q8Mgj8tLSJc52kiCtvThlqowcONAYzRv73pciJUpEbXSI4YH/XXTRRVHrgw1HTmDezFkyrFcvraGCRYrIjg/2287Z9k2bpe3DDxsd0qMFq5uFBEiABEiABEiABJKAAL1bkmCSPT5ECi3OT2CdsuXkow8+0Bp+qEkTmbVoofOdJECL1gfl9AMfSKGiRaM2ssHde8jNuXNL76FDotYHG3aGwPHPPpPTp76S8ilVJHv27LaNfvfNt3J33rwUWv5HgOmdnVl7bIUESIAESIAESMBDBKyCC7IWpKamCv7LQgLxJEChxXn6DatWk/fefFNr+JEWLRgM1w/iPTvSpVndusanuz76UAoUKuT8hIhoMT8Q+2NAaqr0GTY0Kn2w0dgS+PWXX+Sua68zOuXRIXq0xHYFsjcSIAESIAESIAFXEKB3iyumgUZYCFBocX5JqEJLk0cflefnvex8JwnQolVo2f3xR3JnwYKOj+yzw4elaqnSWrsUWhzHG7cGKbSY0dOjJW5LkR2TAAmQAAmQAAm4gQC9W9wwC7RBJ0Chxfm1QKElOKZWoWXvoU8kf4ECwV0cZK3vvvlGHq5azchuRKElSHAeqEahhUKLB5YpTSQBEiABEiABEoglAXq3xJI2+8qKQCyFlhPHjmnZZo4eOaKZhHgcxUqVkjvvukvgdaBnFvFn7++//SaHPvpIDn34oRbUNP+dBbTgqdffeEPAScY1iAnSpPWjkjtPHq3+4Y8/lrcydslXX56UkvfcI1Vr1ZJrrr02YFuo8Ndff8nhjz6Sfe+8K1+e+FxuuiW33F+hvJS8+25pUruOcXSoWZs2MmXunKDaDKXS27t3y7k/zpkuufyKy+X+ChWMvyHOxVcnv/Rp9upc10jp++6z7e7Pc+dkT/pOOfbpp9K5V0+tDrIobVm3Vvsb0uviWvRze758QZn8/bffyYH335P9776r1cec31++vBw78qnp6NCbhw9JvjvvtG0TvLdv2qRd8+UXX8hvv/4qhYsV09q6p8z9tvP2xeefS+MaNeWbr7822mzcqpV07NbV+DfauOzyy237/OrLL7VYO99+fVrArEjx4nJXkSJ+Y4YEBSPMSpHYArFp28aNgrHrY/3j99/l4wMH5KMDB+Xa666VUvfea8seDD85eFCLl4JjXfeWLSNXXXNNwFEgK9DWDRvkq5Mn5eTnJyR7jhxaRqmiJYpr6yfnpZcGbOPb06dlw8pVUrN+PVvbKLSYEdKjJeCSYgUSIAESIAESIIFkIUDvlmSZafeOMxZCy3//+1957umnZcozYzUQt9x6q/ZgDKFCLxBMkHXGrvzn3/+WAU92kXUr7NMkI7hpz0GD5NLLLjMuR58H9+2TrevXy9qlywyPhvW7d8nt+fLL4O7dfdLD4uJZC1+Th5o2zXLCdr+xQx5r1kx++c9/tHpX/utfxv/HOE598YXx7+Zt28rkOS85vgAQ2HXTmtWmVNLo5PSfmeLLwrlzZfr4CcbYdSOq1q4lizZsMGyCiPH2rt2ycfVqWbV4sWZ73vz5ZfcnH8uk0aONebMOYsyUKdKhaxe/Y4Mw1ufxTqZ5U1mVrVTJlOLZn9CyY8tWLQvNyRMntL5wHYQWPeAwhLblr79uCqSLh/TaZcr48LEaa5fpCIJc386dbK9FFhzM59333+/4nNo1GK4tYL9982ZZumCBgB/K/i9OSLZsF8mYoUNlxULfAM2DRo6UXkMGa3WRrnzs8BGyfuVKH7MGpqX5DSgMARTZpLBusI4w3/eULaMJfp8fPWrM34LVq+Sqq6/2afv/fvpJs3v1kiWG3Su2bZMKKVV86lJoMSOh0BKTryQ7IQESIAESIAES8AoBerd4ZaYS085YCC3Tnh0vY0eM0AAu3bxZKlarqqVrPXXypDSrXUd7gL7jrrtkzycf+0CGV0a7RxppD2l1HnxQIBLkyJFDMrZtNz0E4gF405t75fIrLqRWThswQGZPfd6nvTFTp8rkMaOzfADPKiirmnoWgW77Dh+m2Y4HfzxgQlBSS7SEFvSBh+nqd99jElJUoUW3w3pERxVa4G1SqVgxQxjSr8EDcrnKlTQvoKxKp549ZORzz/lUgRdJ+0aNDTHk5RXLpXL16nLFlVfKvnfekYFdu5mENjRgJ7SomYnwsD1v5Ur511VXaf2p44K9W9952zh6BC+OZa+8Kr/++os8P+5Zwz6MvXzlCw/tOS65RDp0edLwroA4h7rj09I0L6l2TzwhefLmle9OfyNzpk8zrZmpL8+Vpq1bR21TiMQWfNfwnbOWafPnyZAePX3mWq23bOtWyZnzEnn0wYeyrIeU5Uhdbi1q313795PBTz9teABNHTtOnk1N1S6Bd8uG3bu0OUCBh80TrR7VPG+shUJLcMuMQktwnFiLBEiABEiABEggyQjYebfo2YmSDAWHG0MC0RZa8AB1x9UXjhrUa9hQ5i5fZhodPA/uyZdf83LZd+Jz02c4flDmroLaAx+OsaRNmGD6fOTAgZq4oRf1oR+pXz87dEgTeA68b/aUwUN5r8GDpW7Dh+SGG2+UFyZOND2Ytu3cWcZNn+YzC6/NmaMJBCgQWfCwbU09O2HkSJk85hnj2mgKLegED84LXnzR6M9OaMGHJfPkMYQCVWg598cfmhiC41z9nnjSZ8yPde8mrR9/XBOwPty/X0YPHuLjIQOBAw/OeoEAVKlYcePIzoY9u+WeMmVMbUMIqVy8hOlh/s0jhyXfHXcY9f7++28pe1dBox2IZBBG1NKhcRPNawml5+BB2oO9Ws7+8IMUz32r8aennn1WnuzT2/YbpgsBEFlW79hhCswLwe+R6tVNYss7Rz+T25T0wk5+bSOx5c2MXfLZ4UMyZ9p0w4tEtw1rf9SkiVK5Rg3N22TlosWat5D6Ob5vYNBj4CDtO5Lr2mtl46pV0qdTZ6OenQcavGAqFMlMz739/fekaMmSpvksetPNxpwv3rhRUmrV1D6HJwxElssvv0JGDRliCHT4jEJLcCuLQktwnFiLBEiABEiABEggCQnQuyUJJz3OQ4620II0xwgOi9KwWTOZ+dqrPiPu/djjsmPrFvnwq69Mnz09aJDMmjxFE2He//y4ZMuWzfQ5HuhL3Xa76WF958EDAu8Wvby+YYPmWaEXHIl5bf0600M0vAcK33Cj0Q7ij6zdmW7q698//yz33VnAqPPx6a/l2uuv9xkLPFsK5MqM8xJtoWXcU0+ZPDb8CS017r3P8CCxHh3SB9H24YdNHiw4IgP71YKjHZ1atNDiuOjF2t4LE56TMcOGaR93HzhAho4ebbvKraKUVWhBLJZyBTPTPfcbMVz6/c8zSm9w9JAhMmPiJO2fdvNmFVpSx4+XJ3pnCgt6OxB+7s57IeYMPD8Qz8RaZjw3UUYPzUwNHa3U3U7ZsnntWnmsaTNjGPheYO3nuf1209CQ9hrpr/UCEWXRhvVy0y23mOphTjG3c20eoAAAIABJREFUejly5nvT8Z+VixZJj/YdjM+Xbdkilapf+O7rRV2HdvOJejiu9ETLTP4UWmy/Pj5/pNASHCfWIgESIAESIAESSGICFFySePJjPPRoCy2IZ9K8Xj1jVOsydvoEvcUxIDy8f/bjD0Y99e04YrAgLoRdsYoD0xfMl0YtWxpV4YVRt1x549/PzZoprTp29GlK9YzAm37VFlRWBY2WHTrIxBdn+Z2pe/PfYXhhtGjfXibNzvQ4cXp6nRRaenboaMTuAAM8SOOIl7VYPRfwOUQyeEEgcC68Z/Ty1qdHtHgvdgXxYLq3a++3LgSw++8sYLBEmmyky1bLpNFjjONa6Af9qcUqtMArSg/yq9aDN8/iefO0Px35/jvbgK/wjKpfoaJxmZ0XlhPz65Qt77/1ljyUUtUwaeX2bVK+im+skzVLl0rXNpmCmp0HEhqBuNasTh2jPaswhiOA5QsVzvzcJrjxI9VrGHF5cDRr7DTf4317d2ZI09q1jXYotAS3qii0BMeJtUiABEiABEiABJKcAMWWJF8AMRp+tIUWxGHB8Q+1DH/mGencu5dx7AZHRHB0BVld9KLGc8Df/D2s6wFS9eusx0eQWaV2mbJGu/6EFgTqRWwOvRz/+ScjQwuO1+S/KjNw57yVK7R4Mf6Kmt45kCgT6TQ7KbTAs2jZqxc8juzEJtVWVQzA3zfu3aMFiEWME9iEAg8KeBj5K9bYMW9/9qlPJiMIN/BwuO766+TBJk1MXk04WoagwHqQZDubrUIL4sngiJla/vrzT8l75b+MP/lbaz/+8INP3JKjZ3/U4s44VZy0BbFwHvxfPBrYt3rHG1ogYWuxCjKIdWSXlQrBq+GRopfX331HipcubWoO2cPe2LxFy05UpmKmKIVKEOhaP9TQOM7kzyPonT17BIKMXii0BLe6KLQEx4m1SIAESIAESIAESEAjQMGFCyGaBKIttMD2FvXry67tb5iGgQCyqeOflZr16/scCULFbm3baZlHUPDAnr9AgaAwPNC4kenYR7BCC44o4aiSXlShBQ+PVUtlPlBaY5JYDUsGoWX5a69Jr46PGUPXszWpx1AgRkGU8leCEVrsrn137155bc5cn8w54QotSFtdpURmLJGsRDTVnpw5c8qEWTON4LxBLdAAlZy0JVihBanPa96XmUXJn9CCODWIq6MXZPC6t2ymiGk3NAhHW9avl1dnzzYdN0NdCi1OrJjMNii0OMuTrZEACZAACZAACSQBAYotSTDJcRpiLIQWeJ00ql7DOAKiDrVStaoyYdYsH48VNZbDwvXrpVqdzKMEoaByQmjZsm6ddGySmfIZQXtxbMRfSQahBQFXm9SqZSDQPUUgSEGYQvEXVFi/yCq0ZBVcFseIkH4ankfwrICo8mSfPvL9t9/KK7Nna00GI7Q8PXGiPN6ju2nq1Dg+8OSA0BCv4qQtwQotVnHHCaEFsYrmz3pRZk2epB0ng7DaY+AAeXnGTCPQLYUWZ1cZhRZnebI1EiABEiABEiCBJCJAwSWJJjtGQ42F0IKhIMBn55atBMFx7cpr69ZJ9bqZ8R9yX5LTqDZ68mTp2K1rWEScEFrU4K4w4o39+0zHnKyGqULLo489JhNmzgjL9mAuitfRoSOffKKlltYLghw3aNRIbr/8QnptlAcbN5YXFy/yOwyr0PLusaM+gVpx8QfvvSf9n+xiBPNF9qGW7dvJpZddpmV4QlBdlGCEFru1hOw8T/XrZ9j59bk/bL2sgpmPSOs4aUuwQovVUyVSoQVBcZERDAIL4vZMnfuylpYdwawhzkGkQ6HQEulqMV9PocVZnmyNBEiABEiABEggyQhAbNm5c6f2P72kpaVJampqkpHgcJ0gECuhBbbCK2HZK6/IU/36+8S6wOfqkRw1oKy/oJnBjN8JoeW5p58WBF3Vi1UUstqRDELL27t3S6MaF1LzoiBex50FC8qd1+Qy/oaUz5hTfyUYoQWpmxGoGAVCyssrVgi8oPQSqtAyZsoU6dC1i8kka7ac/V+ckJtz5w5meTlex0lb4iG0IJ36tGfHa1zgxbJ0y2a59bbbDE4UWhxfMkaDFFqix5YtkwAJkAAJkAAJJBEBerck0WRHcajRFlogrsCbRT1qgxTBU8aOlRenTDWNDPEeEPcBpdUDD8jO17cZD9h4+MWDdqCybvlyLatR7v9lvnFCaLE+/CLFMFLT+iuq0NL68cdl/IwXApkd9ufx8mixZqr59IczWqwSVSDDoKwpgNWBWoWW944fMz2Uf/P111p7eoHXDFKEqyVkoWXqVOnQ5UlTG9ZgsCPGjZMuffsEnBMcicP6avDIIwHrBlvBSVtiLbSoohjGa51P/I1CS7ArIfR6FFpCZ8YrSIAESIAESIAESMCWALxaMjIyBB4teqlatarm3YL/spBAIALRFlqQqrVL60fl4KlTPscxrKmftQfz/6XWHdG3r8ydnilQDEhNlT7DhmY5HP1Bb+3OdLm/QgWtrhNCizWtL45D7Pv8c8lxySW29sRTaDn5y39s7VJj3uAYx6ING3xsDyXrkOq5oMY1sabbHjd9mharxa4EElpGDxkiMyZOMi5Fym2r2Baq0GJ3dOjMd99LKcXrAn28d+yoXJ0r0zvHav9ff/0lDVOqylXXXC1LNm0K9DUL+nMnbYm10KKuMXz/8D20FgotQS+FkCtSaAkZGS8gARIgARIgARIggawJ0LuFKyRcAtEWWvak75RmderI9vffk6IlMzO76PZmbNsuLRs0MMzf8cF+KVysmFj/jgp26WT1Cz/cv1+a1KotxUqV0tLY6sUJoQWBPUvfntd03Gna/Hmm7EYq/zplywUM+BnufFmvmzhqtEwcNcr4c/qBD6RQ0aKmakifXblYcdFTYSPFr8pIrxys0PL7b79JqdtuN3gs3bxZKteorjUzc9JkGTV4sNE/jo+8se99yXnppT5D3r5ps0CYMdbChwflrsKFjX+rD+X446nff5OLL77Y1M7wPn3k5RcuxMCxi9Hy048/SrFbMo8BWdN/640hDTKECb00b9tWxs+cITly5PCxGzwHdu0mS+bPl+Wvvy4Vq6Y4NZ1aO07ZEqzQ8umhQ1Kt9N3GGMKJ0fLnuXOS719XGW3UrF9PXlmzxodLpWLFjfTODzVpIrMWLfSpYz2WxvTOwS0vCi3BcWItEiABEiABEiABEgiZAAWXkJEl/QWxElr8HaHBQ7sa10P1WrA+cGKynps1U5q1bSvZs2fX5g4PvUgDPaxXb+3Bf13GTu3okF4QSLVBxUrGvxGYFgFqrcUqWOieNXq9eTNnybBevUyX2T1kW1PlQmjY88nHUVtn1mNNVs8f8O3err1sXrvWZMOJf/+fj/ihCi2ovOujD6VAoUI+tqssKqRUETwI6wWiVLlChbRAqHqp1aCBvLRksVySMzPA8fnz56XLo61l3YrM9M8vLV1iOoYDgQ5CnV4mz3lJIIDoBawfrlbdJIDpHj04snbRRReJVQBQA/Ri7byVsUsTiey8q+CV8cIrC0wBer84flxGDhwk8J5C8GbE63G6OGULAk/Du0ovK7dvk/JVqviYaxVkkJLbLsW1VZBRv2tWzuhEF02N/hctkh7tOxj9q2tHny98aBXgFqxeJVhD1oIjiEVuutn485BRo6THoIFOT4fRni78wVs0Pd3XWydqHQfZMIWWIEGxGgmQAAmQAAmQAAmEQ4BiSzjUkveaWAktIDzj1Vfk4ebNTbDVdLbWLDXWoyXqhQiIiqwzONajP9QjFgoEHbUgJXCn5i2MPw1MS5PeQ4f4THi3tu00wUYvizdulJRamcFe//rzT6lSoqThFaLXQ6yWshUryc235paD+/bJkB49fQL94oEdgsXgp5+WG2660dHFZvXYQePI0HR/+fLyzdenZcbE50yih945HlwbtWxhinliFVoKFimipTq+/IrMTEIbVq2Szi1aas3Ag2RN+g4fT6Xlr70mvTqaxSw8VDdt00ZKlC6tBUWePn6CSWTR24NdlatXkxbt28uALl1l4dy5Jl6I0QKvl907dsg7e/b4sISXRIHCheTEseOaSIJSMk8eE4OpL8/VAvciaOvenTsF6boRX0Y98qU2nDd/fm2MiBmD9YYCAW3jnt1ZHi+KZKKdsGXV4sWayKYXZIDCd8xaVixcKD07dDT+3G1Afxk2JjP4s/6B1cts9pLF8kCjRsZ11vg8WB9N27SWyy6/XLasXWd4sqj99x0+TJur+yuUl/ZPXoidg3Tdg7v3MKohy5Q1rg4+xPetXvkLRwRRIgmaHcxcUWgJhhLrkAAJkAAJkAAJkECCE6DgkuAT7NDwYim0wGSIDbUa1JebbrlF3tiyRaaOHac9gCFYLo4GXXfDDaaRWYOu+hu29W02YmjAM2DMsGFGWmBci36mzJkj95YrqwkI8PiAd0LXNpmeEqgHbwV4h5S85x4jtsypkyelfaPGpvas9uCh/McffjCJLXjgbNSypfQZNkxuuiXzDbxDUyh9Oz+hHWPxV+YsW6oJCvNmzDRVwRhfWrJEexBGsQotOq+6DR+S/HcW0FJzr1+5UquLODXwZIEYY1dmT31e0gYMyHKIiO2iCxd6RQREfrxHd00AsnpQWBuDoNSmUyfTsRe9TtqECdK5V0/tn6OHDpUZz030sQXzsmTzJrmnTBnts5/PnpUOTZraCjjqxRjz/NWrJN8dmYF6nZpLvZ1IbIG3EFI2P96suXx2+LBhGsSuF1551ViD8Og58N570vvxTiYRBHO7YPVqbe3jqBbqHT18WAb36GlKz16kRAmZOneO4L+ot3TBAunTyT4eD4yYNPtFuTh7dh8RDp/BO6ZQsWJy8P19MqBLF5Ogie8UxDHYA3H13B9/yMcHD0pa/wGm415oB3aXr1I5qMDZoc4ZhZZQibE+CZAACZAACZAACSQoAYotCTqxDg4r2kILguE2rV1bqtSsIbu2Z8ZOUYfQtV9f6T5ggFxz7bW2I3t3715NTIAgYy14WMdxImv8l+fHPSvIyOOv6BmO1HgqdnWXbd1qSieMozGp/QfI2mXLfDxXIA6MnjxJOjZtpj2QwnsAXhwpNWv4DZzrxFTCpgkjR/pkcYInzYixz2hHqYb17q0JLY+0gBdLU6lcvbohsOg2WGO0TJz9ovTr/ISPaFStdm1JnTDeyOzkbwwQutIGDvQRpiB2jRg3Vq6/4UZpVreu4EG6VceO0rB5M7k9Xz5Tc2ijW7u2Jo8UjKvvsGGGx5HqjQQRBBmDmrdrZ7SDB/NmdeuZRALUm7t8mebZohYcgUH6cXhV2JVBI0cK1qu/QMhOzKfeRri21K9Q0UfAUu2CNxjWtRq81s5uzMtbnx6RJ1q2MgQ2u3pqGu8506bLU/36mao1btVKEBsHnkg47tOgUmXju4x9of+IEXLFlVdq9gQqx3/+ScoWLGjrpaVea/3eBmo3mM8ptARDiXVIgARIgARIgARIIIkIUHBJoskOcajRFlrwNvznsz9pHhD//POPfHv6tJz8/IRcceUVmkfJbXnzam+pgyl4y//RBwfk61NfSt477tC8KaweMMG040QdeA2c/PxzOXrkU7km1zWSv8Bd2hhRkKIXD/C5rrvOia6CbuPsDz/I0SNHNAEFopUqWiC2yDW5cvkVs9CJXTBcxL2BZwlSdOe/804pWLSoT0DaQAaijU8OHpRff/lVbslzq/bAjRg7sPfE8eOaR0m2bNn8NoM1BPtR56qrr/E5foW5+PrUKW19QRzwVxAM+OjhI1K0ZImAIhH6hFcI7IaoggDD+QsUsA2OG2j8kX7uJluCGQu8xLBe8N88efNqx7LUgvHgu4P1GK/vbzDjsNah0BIONV5DAiRAAiRAAiRAAglOAKmgIbjgv3pBWuiUlBSmgk7wuc9qeNEWWpIYreeGHmzWIc8NjAaTgAMEKLQ4AJFNkAAJkAAJkAAJkECiEqB3S6LObHjjotASHrdwrkJw0v3vvhvOpT7XtGjXToqXLu1IW3ojFFrCw+n2eQ1vVLzKSoBCC9cECZAACZAACZAACZBAQAIUXAIiSooKFFpiN80dGjfRAu86URBfpF7Dhk40ZbRBoSU8nG6f1/BGxasotHANkAAJkAAJkAAJkAAJhEWAYktY2BLqIgotsZvO+bNmyf53nPFo6T5wgN+MP+GOSA16iow8n/34Q7hNJdV1bp/XpJqMKA6WHi1RhMumSYAESIAESIAESCARCVBwScRZDW5MFFqC45QMtUrmyWPK5nLkzPdy1dVXJ8PQOUYSCEgg9yU5tTpVq1aV9PT0gPVjXSHbeYSFZiEBEiABEiABEiABEnAVAT1QrhosFzeUqampDJbrqply1hhVZDv95zlnG2drniCA7DCrlyyR/k92MdnbvG1b6dq/n5bJ55KcFx4yWUggWQnoQguCyON30W2FQovbZoT2kAAJkAAJkAAJkIBCgN4tybUc1PleuX2blK9SJbkAJPlo39q1SxrXrBWQwrvHjkqe228PWI8VSCARCajfEwotiTjDHBMJkAAJkAAJkAAJxIgABZcYgY5zN/BgwvEhFAotcZ6MOHSPwwbfffONBDp0cMNNN0n27NnjYCG7JIH4E5g4arRMHDVKM4RCS/zngxaQAAmQAAmQAAmQgKcJUGzx9PQFZbwqtPQbMUL6jRge1HWsRAIkQALJQkAVWhCfBcdq3VZ4dMhtM0J7SIAESIAESIAESCAAAQouib1EsmXLpg2wQkoVWbFtW2IPlqMjARIggRAJqEJLIO+vEJt2rDqFFsdQsiESIAESIAESIAESiB0BeD7oAXP1XvFWTw+YGztL2JPTBPTMQxRanCbL9kiABBKBgJ7aGWOh0JIIM8oxkAAJkAAJkAAJkIDLCNC7xWUT4oA5aopnxmlxACibIAESSCgCbs84BNj0aEmoJcfBkAAJkAAJkAAJJCsBCi6JM/NqnBZ6tSTOvHIkJEACkRPwQiBcCi2RzzNbIAESIAESIAESIAHXEPAntqSkpLgyWKBrwLnQENWr5fSf51xoIU0iARIggdgT0L1Z0LNbjw1RaIn9umCPJEACJEACJEACJBB1AvRuiTriqHfANM9RR8wOSIAEPEbAK94sFFo8trBoLgmQAAmQAAmQAAmEQoCCSyi03FeX2YfcNye0iARIIH4EvJBtSKfDGC3xWyfsmQRIgARIgARIgASiToDHiaKOOGodMChu1NCyYRIgAQ8S8EIQXAotHlxYNJkESIAESIAESIAEwiVA75ZwycXvOgbFjR979kwCJOAuAl46NgRy9Ghx1/qhNSRAAiRAAiRAAiQQVQIUXKKK1/HGVa+WfiNGSL8Rwx3vgw2SAAmQgJsJeE1kodDi5tVE20iABEiABEiABEggSgR4nChKYKPQrOrVguZXbt8m5atUiUJPbJIESIAE3EnAK5mGVHr0aHHnWqJVJEACJEACJEACJBB1AvRuiTpiRzpQ56lCShVZsW2bI+2yERIgARJwOwEverOAKYUWt68s2kcCJEACJEACJEACUSZAwSXKgB1onkeIHIDIJkiABDxFwKsiC4UWTy0zGksCJEACJEACJEAC0SPA40TRY+tEyzxC5ARFtkECJOAVAm/t2iWNa9YyzD1//rxXTNfspEeLp6aLxpIACZAACZAACZBAdAnQuyW6fCNp3To3jNcSCU1eSwIk4GYCalyWtLQ0SU1NdbO5PrZRaPHUdNFYEiABEiABEiABEogNAQouseEcai+M1xIqMdYnARLwGoEmtWrJmxm7NLO9KLLAbgotXlt1tJcESIAESIAESIAEYkTATmypWrWq4H9ee7sYI2Qx6UaN18LguDFBzk5IgARiREAVWfBbk56eHqOene2GQouzPNkaCZAACZAACZAACSQcAXq3uG9KVbEF1vEYkfvmiBaRAAkETwAxWSaOGmV4snhZZMGoKbQEP/esSQIkQAIkQAIkQAJJTYCCi7um3yq29BsxQvqNGO4uI2kNCZAACQQgYA1863WRhUILlzwJkAAJkAAJkAAJkEBIBOzEFjTg1XP0IQ3ehZWt80GxxYWTRJNIgAT8ElBTOKNSIogsFFq44EmABEiABEiABEiABMIi4M+7BY0xfktYSMO+yG4uKLiEjZMXkgAJxICA9ahQogn2PDoUg0XELkiABEiABEiABEggUQnwOJE7ZpZiizvmgVaQAAkEJmD1YsEVCHoLb5ZEKRRaEmUmOQ4SIAESIAESIAESiCMBCi5xhK90TcHFHfNAK0iABHwJ2HmxJMpRIetoKbTwG0ACJEACJEACJEACJOAIAcZvcQRjxI34mwccJ0I66PJVqkTcBxsgARIggWAI2Ikr+nWJ5sWi8qDQEszqYB0SIAESIAESIAESIIGgCfjzbklJSUko1/CggcSpoj/B5YLYksIMRXGaF3ZLAslAICuBJVG9WCi0JMPK5hhJgARIgARIgARIIM4EeJwozhPwv+79CS66dRBeUCC+oOj/dof1tIIESMDtBP6/vfuAkqJK2zj+4gKmXRUjBpScFRUkCAqYFVSMICqKSFBEECQYcAYUiRJEECMqRlBJCojozEiOrhFBELOsqOiqu4ZF9rw1p2qqq2u6umeqe7r7/u85HqT7dnXd3y2/8/Wz9753RcFbsvKtAus29d/9moYrWig9m+qwxJoXVrSk+1PL/SGAAAIIIIAAAhkskJ+fLwUFBdbxz+7GcdCpn1QNXLR55yL1d8I3IoCAKQKmBSz2vBK0mPKEM04EEEAAAQQQQKAMBajfUob4Pl9thy4ahGmz/0yvu+RuEEAgkwTcq1VMWr3iN0cELZn05HKvCCCAAAIIIIBAhgsUt51Ih6X/jzmtbAXsFUhlexd8OwIIZIKA1t2ymylbguKdF4KWeKXohwACCCCAAAIIIBCaAPVbQqPkQggggAACaSZA0JJmE8LtIIAAAggggAACpghQv8WUmWacCCCAgFkCBC1mzTejRQABBBBAAAEE0k5AV7do6OKtE0LB3LSbKm4IAQQQQCAOAYKWOJDoggACCCCAAAIIIJB8AQrmJt+Yb0AAAQQQSL4AQUvyjfkGBBBAAAEEEEAAgQQECFwSwKIrAggggEDaCRC0pN2UcEMIIIAAAggggAACKsAJRTwHCCCAAAKZKEDQkomzxj0jgAACCCCAAAIGCXBCkUGTzVARQACBLBAgaMmCSWQICCCAAAIIIIBAtgto2KJNC+S6GwVzs33mGR8CCCCQeQIELZk3Z9wxAggggAACCCBgrAD1W4ydegaOAAIIZIwAQUvGTBU3igACCCCAAAIIIGALELjwLCCAAAIIpKsAQUu6zgz3hQACCCCAAAIIIBAoQOASSEQHBBBAAIEUCxC0pBicr0MAAQQQQAABBBAIX4ATisI35YoIIIAAAiUTIGgpmRufQgABBBBAAAEEEEhDAQKXNJwUbgkBBBAwTICgxbAJZ7gIIIAAAggggIAJAgQuJswyY0QAAQTSU4CgJT3nhbtCAAEEEEAAAQQQKKVArCOh9dI5OTml/AY+jgACCCCAQLQAQQtPBQIIIIAAAggggEBWC8QKXAhbsnrqGRwCCCBQJgIELWXCzpcigAACCCCAAAIIpFqAwCXV4nwfAgggYKYAQYuZ886oEUAAAQQQQAABYwUIXIydegaOAAIIpESAoCUlzHwJAggggAACCCCAQLoJ+BXM1XvMzc2lfku6TRb3gwACCGSQAEFLBk0Wt4oAAggggAACCCAQvgCBS/imXBEBBBAwWYCgxeTZZ+wIIIAAAggggAACjgCBCw8DAggggEAYAgQtYShyDQQQQAABBBBAAIGsESBwyZqpZCAIIIBAmQgQtJQJO1+KAAIIIIAAAgggkO4CBC7pPkPcHwIIIJCeAgQt6Tkv3BUCCCCAAAIIIIBAmggQuKTJRHAbCCCAQIYIELRkyERxmwgggAACCCCAAAJlKxArcNE7y8nJKdsb5NsRQAABBNJCgKAlLaaBm0AAAQQQQAABBBDIFAECl0yZKe4TAQQQKBsBgpaycedbEUAAAQQQQAABBDJcQAMXbbm5uREjsf/OCpcMn2BuHwEEECihAEFLCeH4GAIIIIAAAggggAACKlBc4GKHMAQuPCcIIICAWQIELWbNN6NFAAEEEEAAAQQQSJJAWQQu9ncS5iRpUrksAgggUAIBgpYSoPERBBBAAAEEEEAAAQRiCaTqpKJy5cpZt6HblQhbeCYRQACB9BAgaEmPeeAuEEAAAQQQQAABBLJQIJmBi/fabdq0kby8vCxUZEgIIIBAZgkQtGTWfHG3CCCAAAIIIIAAAhkokIyTivyuSdiSgQ8Ht4wAAlknQNCSdVPKgBBAAAEEEEAAAQTSVSDMwMXeNuQ3Vl3ZoqELDQEEEEAg9QIELak35xsRQAABBBBAAAEEDBfQwCU/P9/6x9viqbdSXGDjvlY81zF8Ghg+AgggkBQBgpaksHJRBBBAAAEEEEAAAQSCBUp6UlGs1SyELcHu9EAAAQSSKUDQkkxdro0AAggggAACCCCAQJwC8W4rimc1C2FLnOh0QwABBJIgQNCSBFQuiQACCCCAAAIIIIBASQWCAhe9rm4LSqSxjSgRLfoigAACpRMgaCmdH59GAAEEEEAAAQQQQCApArHquJTkCwlbSqLGZxBAAIHEBQhaEjfjEwgggAACCCCAAAIIpEwgVh2XRG+C458TFaM/AgggkLgAQUviZnwCAQQQQAABBBBAAIEyEYi3CG6smyNsKZOp40sRQMAgAYIWgyaboSKAAAIIIIAAAghkrkCiRXCDRpqXlycautAQQAABBMIVIGgJ15OrIYAAAggggAACCCCQFIG2bdtKfn5+qNcmbAmVk4shgAAClgBBCw8CAggggAACCCCAAAJpLqABiwYtyWgUyU2GKtdEAAGTBQhaTJ59xo4AAggggAACCCCQEQJhbxvyDpqwJSMeA24SAQQyRIBX4SqJAAAgAElEQVSgJUMmittEAAEEEEAAAQQQMFcgjCK4QXrpEraEvT0qaNy8j0CmClBjKX1njqAlfeeGO0MAAQQQQAABBBBAQJK9msVNnMqwRQOVgoKCiLozhCw88AgkLmAHLvafrVu3ptB14oyhfoKgJVROLoYAAggggAACCCCAQLgCqVjNkqqwxR2uEKqE+5xwNQS8AqkMTtGPFCBo4YlAAAEEEEAAAQQQQCBNBVK5msVNoP/LuJ5IFFbTUEXHEitcadOqpfV19p9hfTfXQSCbBfKXLbeGZ//pN1YNXLTl5ORkM0VajY2gJa2mg5tBAAEEEEAAAQQQQKBIwG97jfWjKuRjnv3MNWzRH2alqQNhhyt+96uBSs7ggQQrPPAIhCiggUvB8hWSO2qM71VZ5RIidoxLEbSkxplvQQABBBBAAAEEEEAgqQLeMEPrn3ibt088gY2ubEk0bCluBQvhSlIfAS6OQITAsNFjrb97Q5cwQlSoYwsQtPCEIIAAAggggAACCCCAgCPgF9gksuXAb7sTAQsPGAJlK6ChizdwYXVL8uaEoCV5tlwZAQQQQAABBBBAAAFjBPxWsWjAkjd/jjEGDBSBdBfwBi6sbknOjBG0JMeVqyKAAAIIIIAAAgggYIyA3yqW3CGDrBosNAQQSC8BVrckfz4IWpJvzDcggAACCCCAAAIIIJC1At6QhW1CWTvVDCzLBLyBC1uJwptggpbwLLkSAggggAACCCCAAAJGCXhDFlaxGDX9DDYLBAhbkjOJBC3JceWqCCCAAAIIIIAAAghktYA3ZNFaLLqahYYAApkloEdCtz2/g3PTWrdFTxujlVyAoKXkdnwSAQQQQAABBBBAAAEjBQhZjJx2Bp3FAt6whW1EpZtsgpbS+fFpBBBAAAEEEEAAAQSMEiBkMWq6GaxBAoQt4U02QUt4llwJAQQQQAABBBBAAIGsFiBkyerpZXAIiDds0S1EupWIlpgAQUtiXvRGAAEEEEAAAQQQQMBYgXLlyjljp/CtsY8BA89yAW/Ysnv37iwfcfjDI2gJ35QrIoAAAggggAACCCCQdQLu1SyELFk3vQwIgQgB92lEFMdN/OEgaEncjE8ggAACCCCAAAIIIGCUgHfL0O6dO4waP4NFwEQBPYlIV7doYwtRYk8AQUtiXvRGAAEEEEAAAQQQQMA4AbYMGTflDBiBqHotbCGK/6EgaInfip4IIIAAAggggAACCBgnwJYh46acASPgCLCFqGQPA0FLydz4FAIIIIAAAggggAACWS+Qn58vbdu2dcbJlqGsn3IGiECUAFuIEn8oCFoSN+MTCCCAAAIIIIAAAggYIcBqFiOmmUEiEFPAfQoRhXHje1gIWuJzohcCCCCAAAIIIIAAAsYJuGuzsJrFuOlnwAg4Au5VLdRqCX4wCFqCjeiBAAIIIIAAAggggIBxAqxmMW7KGTACxQq4V7VwAlHwg0LQEmxEDwQQQAABBBBAAAEEjBPQ2ixao0Ubq1mMm34GjECUQLlKh1ivsX0o+OEgaAk2ogcCCCCAAAIIIIAAAkYJuIvg5g4ZJDmDBxo1fgaLAALRAhTFjf+pIGiJ34qeCCCAAAIIIIAAAggYIcC2ISOmmUEikJAARXHj5yJoid+KnggggAACCCCAAAIIGCHAtiEjpplBIpCwgL2qhe1DsekIWhJ+tPgAAggggAACCCCAAALZLWCfNtSmVUvJmz8nuwfL6BBAIG4BTh+Kj4qgJT4neiGAAAIIIIAAAgggYIyAHbRQn8WYKWegCMQlMGz0WMkdNcbqy+lDxZMRtMT1ONEJAQQQQAABBBBAAAEzBCiEa8Y8M0oESiLAMc/xqRG0xOdELwQQQAABBBBAAAEEjBBwF8LVbUO6fYiGAAIIqIA7aMnNzZWcnBxgfAQIWngsEEAAAQQQQAABBBBAwBFwBy27d+5ABgEEEIgQKFfpEOvvBC3FPxgELfxHgwACCCCAAAIIIIAAAgQtPAMIIBCXgB20cPIQQUtcDwydEEAAAQQQQAABBBAwXYCjnU1/Ahg/ArEFCFqCnxBWtAQb0QMBBBBAAAEEEEAAAWMECFqCp3rHd9/LwiVLZObsuXLumadL7+u7BX+IHhECH2/9ROYvek2ef3m2TBk7Wk468QSEMkSAoCV4oghago3ogQACCCCAAAIIIICAMQIELf5T/d6HG+WlefNlwetLZO2Gt51OY4fnyq19ehvzfJRmoIvfzJNXXlssry5+XT759DPnUqteXyTNmjQuzaX5bAoFCFqCsQlago3ogQACCCCAAAIIIICAMQIELf5TPXfBQnlo+pOycMkbER0mjhwhfXv1MOb5KM1Ah48ZJ0vyC2TpylURl1mf/4ac2Oi40lyaz6ZQgKAlGJugJdiIHggggAACCCCAAAIIGCNA0BJ7qnU1S9PTz3I6PTB2VNK3Dv3vf/+T8uXLZ80zOH7KgzLgzruc8byzrECOa1A/aePbvXu36D977LFH0r4jHS6cqnEStATPNkFLsBE9EEAAAQQQQAABBBAwRoCgJfZU//jTT1Kpak2n07Tx46Rn12uS9nxoDRNdSZM3f07SviPVF9atQ+07dna+9v2VS6VB3bpJu40b+g+UI484XO68tX/SviMdLpyqcRK0BM82QUuwET0QQAABBBBAAAEEEDBGgKAl9lT/97ffZJ/DqzidHpk0Qa7vclVSno9NH2+Ruk1bSJtWLbMqaHmj4C05o8MljtnGNSukbq1aSTHUoOqKbj1k+O1DZOjAAUn5jnS4aCrHSdASPOMELcFG9EAAAQQQQAABBBBAwBgBgpbEgpbHJk+S664qWp0R1oPy63/+I01PO0s+3LQp64OWj9aslDq1ilYJhWWodg2at7Iul81BS6rHSdAS/IQStAQb0QMBBBBAAAEEEEAAAWMECFoSC1oef+B+6XrlFaE+H3/88Yd06tZDZr/yqnXdbF/RsnndaqlVo3qohl9v3y6nnNveOd0oW4OWshgnQUvwo0rQEmxEDwQQQAABBBBAAAEEjBFIZtCiRyR/s317lKUGCRUrVrRe3/Hd9/L2u+/6ep91Wlvf13///Q95c+lS+Wjzx3LLjb2sPt/u+E7mvLpAPvr4Y9m1a5ecdOIJ0rJZM6l2zNFxzeXPv/wi6//5jqxcu1Z2/viT1K5RQ1o0bSLVq1aN2Do0fcpkubZzJ99r/vnnn9ZxxnoP2z77XH799T/SsH5dOf7YY6VZ4xPlwEqVoj73n//+Vy7t0jXidKPaNWvIjGlTnb5HVzlKKh96qO93fvbFF7LhnXflq2++kUoHHCDH1q8v9evULpNiutu//VbWrN8gq9ett+5Vx31ys5OseXJvHfp4/RqpWb1aaIZbt30qbdpfKF9+/bVzzasuv0z69Lje+XvD+vVkn733jvjOH3bulHkLX5NPP//cCmgqVChvnYZ0XIMG1vOz1557xnx2dv74ozXfH360WbSWj87bsfXrycnNmloGp7RoHnMetOixPis6f/r8HXXEEVbtmuJsSjrOuP4DiNGJoCVYkKAl2IgeCCCAAAIIIIAAAggYI5DMoEWLuo6f+qBs3rI1wnP1ktekaeMTrdf0h3n3vrfIux98GGW+e+cO5zUNMQqWr5CX5r0iz8x60fphWr3qMbJp7SoZNnqs3DNuvO+cTR4zUm7qXvSD29tJT24ZN3mKDMoZ5rz1j7//3bq+tvPPOVvmL3rNea+4oEWPgb5p4GBnRYX+yNbtQPojWtuhhxwsb86bHVUEttU57WT56jUxnze/k460wOx1N91sBUzeVr9OHZk+5X7HONkPs4ZFXXv3kZmz5/oaqoX7iOfigpaSGGrAdGLr03wd3ON2n3Skc64nIelzo/Os8938pCaioZX9rOo9z3/+Gdl/v/18+WbNmSfd+vR1Pq8Byap16yL6frd1kxx04IFRn//rr79k5IRJcuc99/pe+6L27UTn/IjKlZ33SzLOsOadoCVYkqAl2IgeCCCAAAIIIIAAAggYI5DMoMVG7NKrt8x4YaZjuur1RdKsSeMIY78fknbQoislajdu5oQf9gf1B/KpJ7cQDR1itX439JQJ994T1eW333+XXrfcKk8+97z13ujcu6TLFR2t1SOff/ml3Do0R/QHtbv5BS3uU3V0tc7cZ2fIfv/4h/UxdyFYvd/1+W9EbJsZM2my7Pprl4wcP8kZnwZI7oK7nS+9RI6pUliQV3+k3zt+ogwdMdIKb264rqtUPfpo0S0lk6Y9FBE4PPngA9KlU8ekPsu6iuTCzlc7gdLsp5+UM9q0lr/vu68VPPTsNyAqRPMLWkpqqOPW+fvll18tF7udfXpbad3yZOuvFStUlN7duzkrVG4fPkJGTijsO6hvHxlx5+3OypMR901wAhBd3bJy8UJn9ZV9bQ2NTj3vfOuvo3KGys29esjee+0lGjh1vr6nzF2w0Hrvq43vRYQl+tq/f/5Zrr2xj7VNTK+vK280zNGVLWPvf8C5f31WVixeIA3r1bNeK8k4w5p4gpZgSYKWYCN6IIAAAggggAACCCBgjEAqgpYXXp4jnbp1d0z9ghZ9U1cIPP70s04/O2jRQERXhmzctFmuv7lf1Nzc3LO79Li2i+y7z77W9p9BObnOyhK7swYc+sPW3fR0Gj29RdvU+8ZYoYW76daO0y64KGI1hje80D7VGjV2tq34rT7pcGUX58f37f37yYihd0SNQYu4apFTbe3OOlNeeaHIwd3ZDgI0ZHnr1fkRRWX11KJT250fEbZse2eDVD266NSkMB9sDRbqNGnujN1vXjUgqHtSi4iQbMuGtVKjWlXnVsIw/O77H+SQmnWca467e5gMuOnGqOFu+WSb1Grc1Hn9n0vzpVHDBhH3cmC1Ws79vvbSTPFuYTv9wovlzbeWWithdNWKvQ1OL6L1dlqd217WbnhbPn13gxOQ2V9gf7Zls6ay6KWZViBlN936dtFVRUeH6/OqphUqVHD6xDvOMOeZoCVYk6Al2IgeCCCAAAIIIIAAAggYI5CKoGXxm3ly9iWXO6bFBS26guS+B4pqk7i3Dtkfbt+xc8QKFr8VJlo749JrrrN+DNtNVzgserFoVc2KNWul5dnnWW9rPY41byz2nfMl+QVy5kWXOu95gxatxVL9+KLVOTmDB0rukEER19JtSfZqBf2BvWxRYdFbd4snaNHQ4sh6x1ofm/HQVGs1hLfpCpnBucOdl3U1zDOPTEvK8zx64v0yZNjd1rWH9OsrI3Pu9P2eu+4dJXePvc95zxu0hGHoDSDuu2e49O99Q9T9PD1zllzdsyiAWTLnJTm99akR/Rq1au2swvHOp9YH2qvykVZ/Dbu++vC9qDosTzz7vLWVyrtyR7egXXBF4dHgxQVg51x6ubz2Rp5zPw9PHC/dr7na+Xu84wxzwglagjUJWoKN6IEAAggggAACCCCAgDEC6RS0uAMJnQC/oMW9DUlXFPz42VbZY489oubLu3JBO/xr80brx7HW6Dj5rPOcmhrFhRb6Ga3bUfW4wnoy2p6aNkWu7lgUGulWnmOOPcFZ1eF9Xz8zfMw4yRk52vq8bgva+nZkLQ993R20aF2Yec89HTUmXc3z2IxnrNd3frpFDth//6g+upKi6elnOa9rgdUvPngn9OdZa8McVrtwW4s2HZOOza9pTZ2rehSFHt6+YRh6A4jxI+52CiW770mL3tY4oYnzkt82Jt0WZNeU0VVOutrJbrqKZ98jigos+32PBn26Kub9lUudmjxaY6jhyadYNWCaN2kiK18v3F7kbVo7ZsCddzkva8iiYYvd4h1nmBNO0BKsSdASbEQPBBBAAAEEEEAAAQSMEci0oEXrW9g1VTRo+fcX24qdK3cwoZ3sIrzLVq22jgK2244tm+Tgg6KLlur7//3tt4hTh/xCGQ0dZs2dKwcfeJBcftGFUq5cOefaerLNDQMGOoVii7vnoKBFt6TseVjhSgptxYUaeoqTXcjX7vvzl59GbFEJ4+HWeih33D3CupQW3/1g1bJiL+uuU6OdPvnn+qjToEpr6A0gtCaP1ubxa7pFa8HiJVYB3FbNm0V00YCuXccrnKK4fiuCqjRoFHHCkfaZMm50RPClNVe0ro7WbtHmrusSa/40CHI372qrRMYZxjzrNQhagiUJWoKN6IEAAggggAACCCCAgDEC2Ry0PPX8C3LNDTc5c/n8Y49Ix4s7yMNPPCU9bxngvP7XD99GhCPuyY8naPF7WDTM0e9xFwHWfiUNWvSHe72mhcVdtV143rlxPaN77llRHpk0wSnOG9eH4ujkrm+j9zLnmaeK/VQ8QUtpDUsTQGiINXfBIpk2/YmI7WZ6T35By6iJk+S2YZHFlXVetfaOrkDxOxb60aeetk7XSnT+6tSqaRVptltpxhnHtPp2IWgJliNoCTaiBwIIIIAAAggggAACxghkc9CSv2y5tD2/gzOX9iqH/ncMlQlTC+uWFLeVx/5QIkGLboHR46fvGXefVeNDf3zf2qe3fLP9X9aPeG3xBC1+wcW8hYus0320xaopk6oH170Cp1fXa+XB8WPjDlpiFegtqaE3gJg4coT07dUjJocevz310cdl3ANTrALCtWvWsGrNPPDIo84pSn5BixZn1lorr+flR11fn6fHJk8SPX3K3XQ7kG4L0nbbLf3k3ruiCyLHM3clGWc8143Vh6AlWJCgJdiIHggggAACCCCAAAIIGCOQzUHL+xs3yrEnFxU6fe6xh6XTxReJu+Bo0PYjb9Dy9MMPypWXFRXHtR+UNes3WCsWNGDRpqcPXXfVldbWES0EqwVhSxO0TJr2sPS7rejHeaxVOMl+ePWUoAqHHO58zWUdLpCZ0x+LO2jxO41HP1waQ28Acf/okdKnx/XF3pMWxdXwQwMWrdvz5INT5OzT2lormzSc05BOW3HFhLUors6HHaB5v2jYbYPlrkG3Oi+7T54KWgEUa/4SHWcYzwJBS7AiQUuwET0QQAABBBBAAAEEEDBGIJuDlrdWrJTW7S5w5nJDwZtywnHHSqtz2sny1Wuc17Wg7v777ec75/EELXMXLBT9IW0HKbqN5rRTT3Gul2jQclH7dvLyjMIVMHbznpbz5YfvypGHF4UdqXxgvQVh9RhiPT67uObdOuQXtJTW0BtATB4zUm7q7h+03D58hIycMNG6XV3F8vrsF+Xoo45ybj+eoMXurFvEevYb4BzN7TZ4aMJ91rHj2tz1goJWUcWay0TGGdYzQdASLEnQEmxEDwQQQAABBBBAAAEEjBHI5qDluZdels7XFxVE/enzT6xaJd4iuW/MfTkiGHFPvjdoefbRh+SKSy52unz59deixVHtZq+acV8jjKDFfRy1Xnvs8FxrW1JQ0+Kqb7/7nlxyQVHx36DPxPO+tyBsrLDKG7R89t7bEcFGGIbeAEJXFPW+vlvUUNyBjr7pvRd9LSho+fzLLyPuX1f4PDrjaRl017CoQsT2M+c+Clu/o7gjzr03rEFOhfLlpVmTwiPE4x1nPHMYbx+ClmApgpZgI3oggAACCCCAAAIIIGCMQFkELfmvzJXWLYsKu9rY8RzvnMipQ+6VC+66Jt4jdPWkoBcef9R3zoOCFu896ylIuh2pNEGL39aSf327QyrXqe9cVr9DQ4JKBxxQ7LOqRwq3PKeddRrO4pdnhfpMt+/YWV5d/LpzTa3RorVa/FpQ0BKGYbxbahq1au1s72rZrKksW/Rq1C3HClp0y9BelY+UjWtWSN1atSI+u+2zz61taXqEs90WzHpezj3jdHl5/itySZeuzutawyVv/pyYc6JHi+vWt9v697XqumiLd5xhTjZBS7AmQUuwET0QQAABBBBAAAEEEDBGIBVBy5tvLZXTLyxaBTJt/Djp2fWaKGPvSpPftn8lemqOu8UbtOj2lsq16zsrDHR7yBltWluXWrVunbQ4M/LUni0b1kqNalWj7unHn36SSlVrOq8/PHG8dbKM3dw/yvW1/323Xf72t79FXOfmwbfJ5IcLg5ziasK4A4Diit3qPeu92+3azp1E76dChQpR962rLPRkpcefflbenDdb2p7SKtRnetzkKTLwrlznmroF551lBb4n7mggo8GM3T5cvVzq1a4dquH3P/wgB9eo41zz9v79rFOA3M0OSezX2p11przywrNRLnVOau6EJd4QTgvh7l35KKsGj9+KGT3O+6DqRWOzAyhvQKJfqqdBXd/lKt950f5nX3KZVZT3h20fO4FaPOMMdaI53jkuToKWuJjohAACCCCAAAIIIICAGQKpCFr0f+mvfnzh1gdtZ7ZtIwtmPifly5e3/r57924ZPen+qCNzdbWBrjpwN3fQoq/7rSzQ16c8+pjcNHCI9VG/1QMXX32tzH6laDWD1s0oeHWeHHXEERHf9+Dj0+XGAYOc17TAqhZatZsGSBok2W36lMmiAYjd3nn/Aznl3PYRW0p+/9dXUrFiRdETdvbYYw+r66nnnS9LV66y/l3DGP1xbfvo642PbyQrVq+RMy+KLMSrPs88Mk2OqVLF+c4tn2yTW4fmiG6T0dUUuqoi7KYn9uicajFZu51/ztky64nHI8IxndtO3brLzNlznX4vPjk9YitTGIbeEMVdoFdDJy1ue0qLFtZqFHd7b8Vb0rBePeclby0c97Oj8/XHn39aQYs+L5vXrY4K1fRC7kDMvS1NCyLrNjJ3u7HbdTJmeI7su88+zssFy1dIj379rbBnzLAcGXhz0RHl8YzTDhTDmnNWtARLErQEG9EDAQQQQAABBBBAAAFjBFIRtOzatctaFfLzL784rrqa4NILLxB976EnnpS1G96OMj+uQX3rhJ+be/VwVkp4g5b6derImjcXR/xQfXHufLns2uuc0GLpwlekUcMGEdf/eOsnUrtJs4jX9Mdznx7dpflJja2wQ49qzhk5Ouq+dGtPnVo1ZVTOUGvVyCNPzojooycb1atTW5bkFzjhibuDrpLQbScaiGhIoq1r7z7yxLNFgcgtN/aSqy6/TOa8usD6ca5jaNW8WVQhX/u6eu+NGjYUrXdiW+oqE60FEmt7UWke9Keef0GuuaEoBNBraTBxzRWdrKLDGkyMmjgpImTRPmqroczprU+V667qbIUKYRgeVrteRPDz5IMPSJ2aNWXkhElWGKYFhPVYajWym96L3u8+++xtWbu3/dh99PQgnauWzZsWniRVubBwrhbbnTRqhBOW6WvuLV56mtEX779jhWradDVKtUaNo+q46Hu6iklDvg8++si5Bz3xSE+50pOQ3C2ecWotorAaQUuwJEFLsBE9EEAAAQQQQAABBBAwRiAVQYtiznhhpnTpVXzx1gE33SjNGjeWy7tGFjDVH6CP3j9RNHTR5g1a9DX9gdqh3XlSs3o1Wb56tcyaM8/qqz90tQ6GhjF+TX9862lB7gDI209PD3KvWNH3NdS4uuPl1vG9GzdvloYtik4Y8n5eV8DoNim/PuNH3C0aqGjzbq9xX8e9XUm3pug926tfintQdczznnvadztUmA/3hKnTpP8dQ2NeUufQG6Q1b9JE+t7QwzpuW8OFMAwH5w6XMZMmR92Lhim6dUwLyk5/5jm57qabi73fxyZPkvLl/xYVIOkHlr+2QPSEJTto0df0OdCThRrUrSOr1q2XyQ89IguXFJ7ApP1PbnpSxHfpCqezLr40IhDyuxktXjzjoQet48G9LZ5xhjnHBC3BmgQtwUb0QAABBBBAAAEEEEDAGIFUBS0K+vATT1lbWtzBhoYkI4beLl06dRR7JYquitAfsLrq5bBDD4mYC2+NFv1h3K1P34hr6g/rc844Te67Z7hUOTJyq4h3YvVUnl79b5XX8/Ij3tJr9Luhp7VtY78q1axVGF2vvMJaZdLkhOMjVhnoypUre/SK+PGsW3o0iDnrtLbWda/s3kueffEl6981BNETg/R67ub9Aa3fOeOhqaIraNxNt4/0u+0OmTY98ghou889d94uA/v0dlZSJPth1vEPuPMup8is/X06t7ot5tCDD5YzOlxiBVRak6TTxRdLtWOOjritMAy1fsoZF14ccXS3WutR2boCyW6Tpj1s+bmbzuvtA/pZtWN2/vijND/zHGdliW51yx0yyApN7K07+tqqtet8Qzqdr1G5Q6OK5drf99U331ihozfA0/c1HJw6bmzMU6LiHWdY807QEixJ0BJsRA8EEEAAAQQQQAABBIwRSGXQoqhapPb9Dzdavvvuu4/UrlHDKeaqBUD//fPP1g/y4ppfMVwNbnRVxNffbJea1atbqwu8BWmDJvSPP/6QDz7aZG0rOfyww6ytP1o3Q7e/6A/iVi2a+xZ6ta+rdUC2bNsm5aScdcqPNyDSWiV6LPCuXX/FHJ9uL1mz4W1rlY6Ow67h4nf/+p2btmyRf773vlSsUFEa1KsjtapX9y2OGzT+MN7XedB7+eXXX637r1e7llVnRud1y7ZPrBVL3m0w7u8Ny1DDM11ppKugigva9DnU50X/rHp0FevYb++9bN32qRxYqZIccvBBEe99vX27HFG5svXaju++l62fbrP+XedAA6R4t2rpiVbvvv+BfLhpsxWwNKhbV46pclRMI/eNxDPOMOaVoCVYkaAl2IgeCCCAAAIIIIAAAggYI5DqoKW0sPGeOlTa7+HzCCBQKEDQEvwkELQEG9EDAQQQQAABBBBAAAFjBAhazJjqZ2a9KKvXrQ9lsF2v7GwVu6WZIUDQEjzPBC3BRvRAAAEEEEAAAQQQQMAYAYIWM6ZaC+jqcc9hNK15clH7dmFcimtkgABBS/AkEbQEG9EDAQQQQAABBBBAAAFjBDItaNFTiexThbRY7L+/KKyPQYstMPWxx2XV2nBWtAy55eZiT3JiHrJPgKAleE4JWoKN6IEAAggggAACCCCAgDECmRa0HFa7XsTpPj9+tlX2328/Y+aLgSKQagGClmBxgpZgI3oggAACCCCAAAIIIGCMwLBhwyQ3N/6SqMgAAAa/SURBVNcab978OaJHK6dj09Nhnp31knTve0vE7V3buZMM6ttHqh9TVfbcs2I63jr3hEBGC9hBi/7fiZycnIweS7JunqAlWbJcFwEEEEAAAQQQQACBDBTIz88XXdWSzkFLwfIV0qb9hYG6n767QY6pUiWwHx0QQCA+gfxly6Xt+R2szgQtxZsRtMT3PNELAQQQQAABBBBAAAEjBDIhaNm9e7d8vX276J+xWuVDD5Xy5csbMW8MEoFUCAwbPVZyR40pDGLz8qRNmzap+NqM+w6CloybMm4YAQQQQAABBBBAAIHkCbiDltwhgyRn8MDkfRlXRgCBjBIgaIlvugha4nOiFwIIIIAAAggggAACxgiUK1fOGqvWZ9E6LTQEEEBABdxBS9CKMpPFCFpMnn3GjgACCCCAAAIIIICAj4B98hBBC48HAgi4BbQ+i9Zp0UbQUvyzQdDCfzcIIIAAAggggAACCCAQIeA+4jmdTx5i2hBAILUCnDgUnzdBS3xO9EIAAQQQQAABBBBAwBgBd50WVrUYM+0MFIGYAu5tQ5w4FPthIWjhPyYEEEAAAQQQQAABBBCIEnCvatm9cwdCCCBguIC9mkUZ2DZE0GL4fw4MHwEEEEAAAQQQQACBxAUy4ZjnxEfFJxBAoCQCrGZJTI0VLYl50RsBBBBAAAEEEEAAAWMEOH3ImKlmoAjEFOC0ocQeEIKWxLzojQACCCCAAAIIIICAMQIUxTVmqhkoAjEFKIKb2ANC0JKYF70RQAABBBBAAAEEEDBGgKK4xkw1A0WgWAG2DSX+cBC0JG7GJxBAAAEEEEAAAQQQMEbAvaold8ggyRk80JixM1AETBcgZCnZE0DQUjI3PoUAAggggAACCCCAgBEC7lUtOuC8+XNEj3ymIYBA9gtw0lDJ5pigpWRufAoBBBBAAAEEEEAAAWMEhg0bJrm5udZ4NWTRsIWGAALZLcBqlpLPL0FLye34JAIIIIAAAggggAACxgiwhciYqWagCAghS+keAoKW0vnxaQQQQAABBBBAAAEEjBGwj3vWAbOFyJhpZ6CGCeQvWy5tz+/gjHr37t2GCZR+uAQtpTfkCggggAACCCCAAAIIGCFAvRYjpplBGi7grsuiWwZzcnIMF0l8+AQtiZvxCQQQQAABBBBAAAEEjBWgXouxU8/ADRDQlSy6okUbIUvJJ5ygpeR2fBIBBBBAAAEEEEAAASMF3PVaKI5r5CPAoLNQwB2ytGnTRvLy8rJwlKkZEkFLapz5FgQQQAABBBBAAAEEskrAHbbowKjZklXTy2AMEtAVLFr81l7JQshS+sknaCm9IVdAAAEEEEAAAQQQQMBIAW/YkjtkkOQMHmikBYNGIBMFvIVvCVnCmUWClnAcuQoCCCCAAAIIIIAAAkYKuGu2KABhi5GPAYPOQAH3Ec56+4Qs4U0iQUt4llwJAQQQQAABBBBAAAEjBbxhC4GLkY8Bg84QAe9WIeu/V04XCnX2CFpC5eRiCCCAAAIIIIAAAgiYKUDYYua8M+rMEvBbxaLHN+tqFlp4AgQt4VlyJQQQQAABBBBAAAEEjBcgcDH+EQAgDQX8VrGwVSh5E0XQkjxbrowAAggggAACCCCAgJECfmGLQmj9ltYtTxY9EpqGAALJFfALV+xv1KObWcWSPH+CluTZcmUEEEAAAQQQQAABBIwWKC5w0aBF/+GEIqMfDwafJIFYAQurWJKE7rksQUtqnPkWBBBAAAEEEEAAAQSMFSgucLFB7BUu9p+66oWGAALBAgXLV4gGK9rsP72f0nCFOizBlmH2IGgJU5NrIYAAAggggAACCCCAQLECGrho0xNOaAggkFwBApbk+sa6OkFL2dnzzQgggAACCCCAAAIIGCtghy75+fmWgf2nsSAMHIFSCNj1VvTP1q1bU3+lFJZhfJSgJQxFroEAAggggAACCCCAAAKhCGjgUlBQEMq1uAgC2SqgYYrdKGqbfrNM0JJ+c8IdIYAAAggggAACCCCAAAIIIIBAhgoQtGToxHHbCCCAAAIIIIAAAggggAACCCCQfgIELek3J9wRAggggAACCCCAAAIIIIAAAghkqABBS4ZOHLeNAAIIIIAAAggggAACCCCAAALpJ0DQkn5zwh0hgAACCCCAAAIIIIAAAggggECGChC0ZOjEcdsIIIAAAggggAACCCCAAAIIIJB+AgQt6Tcn3BECCCCAAAIIIIAAAggggAACCGSoAEFLhk4ct40AAggggAACCCCAAAIIIIAAAuknoEHLWhHZmX63xh0hgAACCCCAAAIIIIAAAggggAACGSVQ6f9sEbhodC2X6gAAAABJRU5ErkJggg==;" vertex="1" parent="hMjfLDBAu4yWCibn9Jns-7">
          <mxGeometry x="118" y="32.769999999999996" width="424" height="234.46" as="geometry" />
        </mxCell>
        <mxCell id="hMjfLDBAu4yWCibn9Jns-10" style="edgeStyle=orthogonalEdgeStyle;rounded=0;orthogonalLoop=1;jettySize=auto;html=1;entryX=0.5;entryY=0;entryDx=0;entryDy=0;shape=flexArrow;strokeColor=#000000;fillColor=#000000;" edge="1" parent="1" source="hMjfLDBAu4yWCibn9Jns-8" target="hMjfLDBAu4yWCibn9Jns-1">
          <mxGeometry relative="1" as="geometry" />
        </mxCell>
        <mxCell id="hMjfLDBAu4yWCibn9Jns-8" value="Dataset: k9_facts.json" style="rounded=1;whiteSpace=wrap;html=1;" vertex="1" parent="1">
          <mxGeometry x="405" y="240" width="250" height="60" as="geometry" />
        </mxCell>
        <mxCell id="hMjfLDBAu4yWCibn9Jns-9" style="edgeStyle=orthogonalEdgeStyle;rounded=0;orthogonalLoop=1;jettySize=auto;html=1;entryX=0.5;entryY=0;entryDx=0;entryDy=0;shape=flexArrow;fillColor=#000000;" edge="1" parent="1" source="hMjfLDBAu4yWCibn9Jns-4" target="hMjfLDBAu4yWCibn9Jns-8">
          <mxGeometry relative="1" as="geometry" />
        </mxCell>
      </root>
    </mxGraphModel>
  </diagram>
</mxfile>
